<svg width="378" height="173" viewBox="0 0 378 173" fill="none" xmlns="http://www.w3.org/2000/svg">
<g filter="url(#filter0_ddii_1_5686)">
<rect x="64" y="50.0425" width="240" height="58" rx="29" fill="url(#paint0_linear_1_5686)" shape-rendering="crispEdges"/>
<path d="M144.22 82.4225C144.22 85.0425 142.3 86.5425 139.32 86.5425H134.06V72.1825H139.04C141.94 72.1825 143.68 73.5225 143.68 75.9425C143.68 77.3025 142.86 78.4625 141.48 79.0625C143.26 79.5625 144.22 80.7825 144.22 82.4225ZM138.9 73.9425H136.08V78.2625H138.9C140.64 78.2625 141.58 77.4425 141.58 76.1025C141.58 74.7625 140.64 73.9425 138.9 73.9425ZM139.18 80.0225H136.08V84.7825H139.18C141.06 84.7825 142.12 83.8825 142.12 82.3625C142.12 80.9025 141.06 80.0225 139.18 80.0225ZM151.035 86.7425C148.035 86.7425 145.835 84.3825 145.835 81.2425C145.835 78.1025 148.035 75.7425 151.035 75.7425C154.035 75.7425 156.235 78.1025 156.235 81.2425C156.235 84.3825 154.035 86.7425 151.035 86.7425ZM151.035 84.9625C152.775 84.9625 154.155 83.5625 154.155 81.2425C154.155 78.9225 152.775 77.5425 151.035 77.5425C149.295 77.5425 147.935 78.9225 147.935 81.2425C147.935 83.5625 149.295 84.9625 151.035 84.9625ZM162.735 86.7425C159.735 86.7425 157.535 84.3825 157.535 81.2425C157.535 78.1025 159.735 75.7425 162.735 75.7425C165.735 75.7425 167.935 78.1025 167.935 81.2425C167.935 84.3825 165.735 86.7425 162.735 86.7425ZM162.735 84.9625C164.475 84.9625 165.855 83.5625 165.855 81.2425C165.855 78.9225 164.475 77.5425 162.735 77.5425C160.995 77.5425 159.635 78.9225 159.635 81.2425C159.635 83.5625 160.995 84.9625 162.735 84.9625ZM172.014 86.5425H169.994V72.1825H172.014V80.6825L176.554 75.9425H178.934L174.034 81.0825L179.394 86.5425H176.794L172.014 81.5225V86.5425ZM191.414 86.5425V84.9025C190.754 86.0825 189.574 86.7425 188.014 86.7425C185.814 86.7425 184.374 85.4825 184.374 83.5425C184.374 81.4625 186.034 80.3825 189.194 80.3825C189.814 80.3825 190.314 80.4025 191.174 80.5025V79.7225C191.174 78.2025 190.354 77.3425 188.954 77.3425C187.474 77.3425 186.574 78.2225 186.514 79.7025H184.674C184.774 77.3225 186.474 75.7425 188.954 75.7425C191.574 75.7425 193.094 77.2225 193.094 79.7425V86.5425H191.414ZM186.294 83.4825C186.294 84.5825 187.114 85.3025 188.414 85.3025C190.114 85.3025 191.174 84.2425 191.174 82.6225V81.7625C190.394 81.6625 189.834 81.6425 189.314 81.6425C187.294 81.6425 186.294 82.2425 186.294 83.4825ZM206.394 86.8425C202.394 86.8425 199.294 83.5825 199.294 79.3425C199.294 75.1225 202.394 71.8825 206.394 71.8825C209.994 71.8825 212.874 74.2825 213.414 77.8225H211.074C210.674 75.5025 208.794 73.8625 206.414 73.8625C203.574 73.8625 201.574 76.1625 201.574 79.3425C201.574 82.5625 203.574 84.8625 206.414 84.8625C208.794 84.8625 210.674 83.2025 211.074 80.8825H213.414C212.874 84.4425 209.994 86.8425 206.394 86.8425ZM221.961 86.5425V84.9025C221.301 86.0825 220.121 86.7425 218.561 86.7425C216.361 86.7425 214.921 85.4825 214.921 83.5425C214.921 81.4625 216.581 80.3825 219.741 80.3825C220.361 80.3825 220.861 80.4025 221.721 80.5025V79.7225C221.721 78.2025 220.901 77.3425 219.501 77.3425C218.021 77.3425 217.121 78.2225 217.061 79.7025H215.221C215.321 77.3225 217.021 75.7425 219.501 75.7425C222.121 75.7425 223.641 77.2225 223.641 79.7425V86.5425H221.961ZM216.841 83.4825C216.841 84.5825 217.661 85.3025 218.961 85.3025C220.661 85.3025 221.721 84.2425 221.721 82.6225V81.7625C220.941 81.6625 220.381 81.6425 219.861 81.6425C217.841 81.6425 216.841 82.2425 216.841 83.4825ZM228.381 86.5425H226.341V72.1825H228.381V86.5425ZM233.225 86.5425H231.185V72.1825H233.225V86.5425Z" fill="white"/>
</g>
<defs>
<filter id="filter0_ddii_1_5686" x="-10" y="0.0424805" width="388" height="206" filterUnits="userSpaceOnUse" color-interpolation-filters="sRGB">
<feFlood flood-opacity="0" result="BackgroundImageFix"/>
<feColorMatrix in="SourceAlpha" type="matrix" values="0 0 0 0 0 0 0 0 0 0 0 0 0 0 0 0 0 0 127 0" result="hardAlpha"/>
<feOffset dy="14"/>
<feGaussianBlur stdDeviation="17"/>
<feComposite in2="hardAlpha" operator="out"/>
<feColorMatrix type="matrix" values="0 0 0 0 0.535743 0 0 0 0 0.198229 0 0 0 0 0.965308 0 0 0 0.1 0"/>
<feBlend mode="normal" in2="BackgroundImageFix" result="effect1_dropShadow_1_5686"/>
<feColorMatrix in="SourceAlpha" type="matrix" values="0 0 0 0 0 0 0 0 0 0 0 0 0 0 0 0 0 0 127 0" result="hardAlpha"/>
<feOffset dy="24"/>
<feGaussianBlur stdDeviation="37"/>
<feComposite in2="hardAlpha" operator="out"/>
<feColorMatrix type="matrix" values="0 0 0 0 0.535743 0 0 0 0 0.198229 0 0 0 0 0.965308 0 0 0 0.25 0"/>
<feBlend mode="normal" in2="effect1_dropShadow_1_5686" result="effect2_dropShadow_1_5686"/>
<feBlend mode="normal" in="SourceGraphic" in2="effect2_dropShadow_1_5686" result="shape"/>
<feColorMatrix in="SourceAlpha" type="matrix" values="0 0 0 0 0 0 0 0 0 0 0 0 0 0 0 0 0 0 127 0" result="hardAlpha"/>
<feOffset dy="14"/>
<feGaussianBlur stdDeviation="7"/>
<feComposite in2="hardAlpha" operator="arithmetic" k2="-1" k3="1"/>
<feColorMatrix type="matrix" values="0 0 0 0 1 0 0 0 0 1 0 0 0 0 1 0 0 0 0.25 0"/>
<feBlend mode="normal" in2="shape" result="effect3_innerShadow_1_5686"/>
<feColorMatrix in="SourceAlpha" type="matrix" values="0 0 0 0 0 0 0 0 0 0 0 0 0 0 0 0 0 0 127 0" result="hardAlpha"/>
<feOffset dy="-6"/>
<feGaussianBlur stdDeviation="4"/>
<feComposite in2="hardAlpha" operator="arithmetic" k2="-1" k3="1"/>
<feColorMatrix type="matrix" values="0 0 0 0 1 0 0 0 0 1 0 0 0 0 1 0 0 0 0.35 0"/>
<feBlend mode="normal" in2="effect3_innerShadow_1_5686" result="effect4_innerShadow_1_5686"/>
</filter>
<linearGradient id="paint0_linear_1_5686" x1="184" y1="112.042" x2="184" y2="23.5425" gradientUnits="userSpaceOnUse">
<stop stop-color="#5E3AEE"/>
<stop offset="1" stop-color="#BE33FF"/>
</linearGradient>
</defs>
</svg>
