<svg width="524" height="111" viewBox="0 0 524 111" fill="none" xmlns="http://www.w3.org/2000/svg">
<g filter="url(#filter0_dii_1_3948)">
<rect x="32.5" y="20.0425" width="459" height="58" rx="29" fill="url(#paint0_linear_1_3948)" shape-rendering="crispEdges"/>
<path d="M222.22 52.4225C222.22 55.0425 220.3 56.5425 217.32 56.5425H212.06V42.1825H217.04C219.94 42.1825 221.68 43.5225 221.68 45.9425C221.68 47.3025 220.86 48.4625 219.48 49.0625C221.26 49.5625 222.22 50.7825 222.22 52.4225ZM216.9 43.9425H214.08V48.2625H216.9C218.64 48.2625 219.58 47.4425 219.58 46.1025C219.58 44.7625 218.64 43.9425 216.9 43.9425ZM217.18 50.0225H214.08V54.7825H217.18C219.06 54.7825 220.12 53.8825 220.12 52.3625C220.12 50.9025 219.06 50.0225 217.18 50.0225ZM229.035 56.7425C226.035 56.7425 223.835 54.3825 223.835 51.2425C223.835 48.1025 226.035 45.7425 229.035 45.7425C232.035 45.7425 234.235 48.1025 234.235 51.2425C234.235 54.3825 232.035 56.7425 229.035 56.7425ZM229.035 54.9625C230.775 54.9625 232.155 53.5625 232.155 51.2425C232.155 48.9225 230.775 47.5425 229.035 47.5425C227.295 47.5425 225.935 48.9225 225.935 51.2425C225.935 53.5625 227.295 54.9625 229.035 54.9625ZM240.735 56.7425C237.735 56.7425 235.535 54.3825 235.535 51.2425C235.535 48.1025 237.735 45.7425 240.735 45.7425C243.735 45.7425 245.935 48.1025 245.935 51.2425C245.935 54.3825 243.735 56.7425 240.735 56.7425ZM240.735 54.9625C242.475 54.9625 243.855 53.5625 243.855 51.2425C243.855 48.9225 242.475 47.5425 240.735 47.5425C238.995 47.5425 237.635 48.9225 237.635 51.2425C237.635 53.5625 238.995 54.9625 240.735 54.9625ZM250.014 56.5425H247.994V42.1825H250.014V50.6825L254.554 45.9425H256.934L252.034 51.0825L257.394 56.5425H254.794L250.014 51.5225V56.5425ZM269.414 56.5425V54.9025C268.754 56.0825 267.574 56.7425 266.014 56.7425C263.814 56.7425 262.374 55.4825 262.374 53.5425C262.374 51.4625 264.034 50.3825 267.194 50.3825C267.814 50.3825 268.314 50.4025 269.174 50.5025V49.7225C269.174 48.2025 268.354 47.3425 266.954 47.3425C265.474 47.3425 264.574 48.2225 264.514 49.7025H262.674C262.774 47.3225 264.474 45.7425 266.954 45.7425C269.574 45.7425 271.094 47.2225 271.094 49.7425V56.5425H269.414ZM264.294 53.4825C264.294 54.5825 265.114 55.3025 266.414 55.3025C268.114 55.3025 269.174 54.2425 269.174 52.6225V51.7625C268.394 51.6625 267.834 51.6425 267.314 51.6425C265.294 51.6425 264.294 52.2425 264.294 53.4825ZM284.394 56.8425C280.394 56.8425 277.294 53.5825 277.294 49.3425C277.294 45.1225 280.394 41.8825 284.394 41.8825C287.994 41.8825 290.874 44.2825 291.414 47.8225H289.074C288.674 45.5025 286.794 43.8625 284.414 43.8625C281.574 43.8625 279.574 46.1625 279.574 49.3425C279.574 52.5625 281.574 54.8625 284.414 54.8625C286.794 54.8625 288.674 53.2025 289.074 50.8825H291.414C290.874 54.4425 287.994 56.8425 284.394 56.8425ZM299.961 56.5425V54.9025C299.301 56.0825 298.121 56.7425 296.561 56.7425C294.361 56.7425 292.921 55.4825 292.921 53.5425C292.921 51.4625 294.581 50.3825 297.741 50.3825C298.361 50.3825 298.861 50.4025 299.721 50.5025V49.7225C299.721 48.2025 298.901 47.3425 297.501 47.3425C296.021 47.3425 295.121 48.2225 295.061 49.7025H293.221C293.321 47.3225 295.021 45.7425 297.501 45.7425C300.121 45.7425 301.641 47.2225 301.641 49.7425V56.5425H299.961ZM294.841 53.4825C294.841 54.5825 295.661 55.3025 296.961 55.3025C298.661 55.3025 299.721 54.2425 299.721 52.6225V51.7625C298.941 51.6625 298.381 51.6425 297.861 51.6425C295.841 51.6425 294.841 52.2425 294.841 53.4825ZM306.381 56.5425H304.341V42.1825H306.381V56.5425ZM311.225 56.5425H309.185V42.1825H311.225V56.5425Z" fill="white"/>
</g>
<defs>
<filter id="filter0_dii_1_3948" x="-1.5" y="0.0424805" width="527" height="126" filterUnits="userSpaceOnUse" color-interpolation-filters="sRGB">
<feFlood flood-opacity="0" result="BackgroundImageFix"/>
<feColorMatrix in="SourceAlpha" type="matrix" values="0 0 0 0 0 0 0 0 0 0 0 0 0 0 0 0 0 0 127 0" result="hardAlpha"/>
<feOffset dy="14"/>
<feGaussianBlur stdDeviation="17"/>
<feComposite in2="hardAlpha" operator="out"/>
<feColorMatrix type="matrix" values="0 0 0 0 0.0599755 0 0 0 0 0.0381806 0 0 0 0 0.0877144 0 0 0 0.5 0"/>
<feBlend mode="normal" in2="BackgroundImageFix" result="effect1_dropShadow_1_3948"/>
<feBlend mode="normal" in="SourceGraphic" in2="effect1_dropShadow_1_3948" result="shape"/>
<feColorMatrix in="SourceAlpha" type="matrix" values="0 0 0 0 0 0 0 0 0 0 0 0 0 0 0 0 0 0 127 0" result="hardAlpha"/>
<feOffset dy="14"/>
<feGaussianBlur stdDeviation="7"/>
<feComposite in2="hardAlpha" operator="arithmetic" k2="-1" k3="1"/>
<feColorMatrix type="matrix" values="0 0 0 0 1 0 0 0 0 1 0 0 0 0 1 0 0 0 0.25 0"/>
<feBlend mode="normal" in2="shape" result="effect2_innerShadow_1_3948"/>
<feColorMatrix in="SourceAlpha" type="matrix" values="0 0 0 0 0 0 0 0 0 0 0 0 0 0 0 0 0 0 127 0" result="hardAlpha"/>
<feOffset dy="-6"/>
<feGaussianBlur stdDeviation="4"/>
<feComposite in2="hardAlpha" operator="arithmetic" k2="-1" k3="1"/>
<feColorMatrix type="matrix" values="0 0 0 0 1 0 0 0 0 1 0 0 0 0 1 0 0 0 0.35 0"/>
<feBlend mode="normal" in2="effect2_innerShadow_1_3948" result="effect3_innerShadow_1_3948"/>
</filter>
<linearGradient id="paint0_linear_1_3948" x1="262" y1="82.0425" x2="262" y2="-6.45752" gradientUnits="userSpaceOnUse">
<stop stop-color="#5E3AEE"/>
<stop offset="1" stop-color="#BE33FF"/>
</linearGradient>
</defs>
</svg>
