<svg width="1441" height="555" viewBox="0 0 1441 555" fill="none" xmlns="http://www.w3.org/2000/svg">
<g clip-path="url(#clip0_1_3919)">
<g filter="url(#filter0_f_1_3919)">
<ellipse cx="740" cy="278" rx="376.5" ry="99" fill="#9625EF"/>
</g>
<path d="M458.5 180.01C362.667 181.282 165.6 147.569 78 0.543945" stroke="url(#paint0_linear_1_3919)" stroke-opacity="0.1"/>
<path d="M458.5 214.01C356.39 215.282 128.837 181.069 35.5 34.0439" stroke="url(#paint1_linear_1_3919)" stroke-opacity="0.1"/>
<path d="M458.5 249.01C344.079 250.282 89.0904 216.069 -15.5 69.0439" stroke="url(#paint2_linear_1_3919)" stroke-opacity="0.1"/>
<path d="M458.5 277.513C329.596 278.672 42.3297 247.5 -75.5 113.544" stroke="url(#paint3_linear_1_3919)" stroke-opacity="0.1"/>
<path d="M458.5 375.078C362.667 373.806 165.6 407.519 78 554.544" stroke="url(#paint4_linear_1_3919)" stroke-opacity="0.1"/>
<path d="M458.5 341.078C356.39 339.806 128.837 374.019 35.5 521.044" stroke="url(#paint5_linear_1_3919)" stroke-opacity="0.1"/>
<path d="M458.5 306.078C344.079 304.806 89.0904 339.019 -15.5 486.044" stroke="url(#paint6_linear_1_3919)" stroke-opacity="0.1"/>
<path d="M458.5 277.575C329.596 276.416 42.3297 307.587 -75.5 441.544" stroke="url(#paint7_linear_1_3919)" stroke-opacity="0.1"/>
<path d="M980.5 180.01C1076.33 181.282 1273.4 147.569 1361 0.543945" stroke="url(#paint8_linear_1_3919)" stroke-opacity="0.1"/>
<path d="M980.5 214.01C1082.61 215.282 1310.16 181.069 1403.5 34.0439" stroke="url(#paint9_linear_1_3919)" stroke-opacity="0.1"/>
<path d="M980.5 249.01C1094.92 250.282 1349.91 216.069 1454.5 69.0439" stroke="url(#paint10_linear_1_3919)" stroke-opacity="0.1"/>
<path d="M980.5 277.513C1109.4 278.672 1396.67 247.5 1514.5 113.544" stroke="url(#paint11_linear_1_3919)" stroke-opacity="0.1"/>
<path d="M980.5 375.078C1076.33 373.806 1273.4 407.519 1361 554.544" stroke="url(#paint12_linear_1_3919)" stroke-opacity="0.1"/>
<path d="M980.5 341.078C1082.61 339.806 1310.16 374.019 1403.5 521.044" stroke="url(#paint13_linear_1_3919)" stroke-opacity="0.1"/>
<path d="M980.5 306.078C1094.92 304.806 1349.91 339.019 1454.5 486.044" stroke="url(#paint14_linear_1_3919)" stroke-opacity="0.1"/>
<path d="M980.5 277.575C1109.4 276.416 1396.67 307.587 1514.5 441.544" stroke="url(#paint15_linear_1_3919)" stroke-opacity="0.1"/>
<mask id="mask0_1_3919" style="mask-type:alpha" maskUnits="userSpaceOnUse" x="347" y="114" width="112" height="363">
<rect x="347.5" y="476.544" width="362" height="111" transform="rotate(-90 347.5 476.544)" fill="url(#paint16_radial_1_3919)"/>
</mask>
<g mask="url(#mask0_1_3919)">
<circle opacity="0.13" cx="391.5" cy="471.932" r="2" transform="rotate(-90 391.5 471.932)" fill="white"/>
<circle opacity="0.95" cx="391.5" cy="459.932" r="2" transform="rotate(-90 391.5 459.932)" fill="white"/>
<circle opacity="0.28" cx="391.5" cy="447.932" r="2" transform="rotate(-90 391.5 447.932)" fill="white"/>
<circle opacity="0.08" cx="391.5" cy="435.932" r="2" transform="rotate(-90 391.5 435.932)" fill="#C668FF"/>
<circle opacity="0.39" cx="391.5" cy="423.932" r="2" transform="rotate(-90 391.5 423.932)" fill="#C668FF"/>
<circle opacity="0.02" cx="391.5" cy="411.932" r="2" transform="rotate(-90 391.5 411.932)" fill="#C668FF"/>
<circle opacity="0.07" cx="391.5" cy="399.932" r="2" transform="rotate(-90 391.5 399.932)" fill="#C668FF"/>
<circle opacity="0.84" cx="391.5" cy="387.932" r="2" transform="rotate(-90 391.5 387.932)" fill="white"/>
<circle opacity="0.4" cx="391.5" cy="375.932" r="2" transform="rotate(-90 391.5 375.932)" fill="white"/>
<circle opacity="0.2" cx="391.5" cy="363.932" r="2" transform="rotate(-90 391.5 363.932)" fill="#C668FF"/>
<circle opacity="0.18" cx="391.5" cy="351.932" r="2" transform="rotate(-90 391.5 351.932)" fill="#C668FF"/>
<circle opacity="0.58" cx="391.5" cy="339.932" r="2" transform="rotate(-90 391.5 339.932)" fill="white"/>
<circle opacity="0.26" cx="391.5" cy="327.932" r="2" transform="rotate(-90 391.5 327.932)" fill="white"/>
<circle opacity="0.1" cx="391.5" cy="315.932" r="2" transform="rotate(-90 391.5 315.932)" fill="white"/>
<circle opacity="0.65" cx="391.5" cy="303.932" r="2" transform="rotate(-90 391.5 303.932)" fill="white"/>
<circle opacity="0.8" cx="391.5" cy="291.932" r="2" transform="rotate(-90 391.5 291.932)" fill="white"/>
<circle opacity="0.24" cx="391.5" cy="279.932" r="2" transform="rotate(-90 391.5 279.932)" fill="#C668FF"/>
<circle opacity="0.43" cx="391.5" cy="267.932" r="2" transform="rotate(-90 391.5 267.932)" fill="#C668FF"/>
<circle opacity="0.97" cx="391.5" cy="255.932" r="2" transform="rotate(-90 391.5 255.932)" fill="white"/>
<circle opacity="0.99" cx="391.5" cy="243.932" r="2" transform="rotate(-90 391.5 243.932)" fill="white"/>
<circle opacity="0.38" cx="391.5" cy="231.932" r="2" transform="rotate(-90 391.5 231.932)" fill="white"/>
<circle opacity="0.82" cx="391.5" cy="219.932" r="2" transform="rotate(-90 391.5 219.932)" fill="#C668FF"/>
<circle opacity="0.42" cx="391.5" cy="207.932" r="2" transform="rotate(-90 391.5 207.932)" fill="#C668FF"/>
<circle opacity="0.69" cx="391.5" cy="195.932" r="2" transform="rotate(-90 391.5 195.932)" fill="#C668FF"/>
<circle opacity="0.63" cx="391.5" cy="183.932" r="2" transform="rotate(-90 391.5 183.932)" fill="white"/>
<circle opacity="0.05" cx="391.5" cy="171.932" r="2" transform="rotate(-90 391.5 171.932)" fill="#C668FF"/>
<circle opacity="0.29" cx="391.5" cy="159.932" r="2" transform="rotate(-90 391.5 159.932)" fill="#C668FF"/>
<circle opacity="0.86" cx="391.5" cy="147.932" r="2" transform="rotate(-90 391.5 147.932)" fill="white"/>
<circle opacity="0.77" cx="391.5" cy="135.932" r="2" transform="rotate(-90 391.5 135.932)" fill="#C668FF"/>
<circle opacity="0.98" cx="391.5" cy="123.932" r="2" transform="rotate(-90 391.5 123.932)" fill="#C668FF"/>
<circle opacity="0.3" cx="403.5" cy="471.932" r="2" transform="rotate(-90 403.5 471.932)" fill="white"/>
<circle opacity="0.64" cx="403.5" cy="459.932" r="2" transform="rotate(-90 403.5 459.932)" fill="#C668FF"/>
<circle opacity="0.89" cx="403.5" cy="447.932" r="2" transform="rotate(-90 403.5 447.932)" fill="white"/>
<circle opacity="0.64" cx="403.5" cy="435.932" r="2" transform="rotate(-90 403.5 435.932)" fill="#C668FF"/>
<circle opacity="0.03" cx="403.5" cy="423.932" r="2" transform="rotate(-90 403.5 423.932)" fill="white"/>
<circle opacity="0.5" cx="403.5" cy="411.932" r="2" transform="rotate(-90 403.5 411.932)" fill="#C668FF"/>
<circle opacity="0.81" cx="403.5" cy="399.932" r="2" transform="rotate(-90 403.5 399.932)" fill="white"/>
<circle opacity="0.63" cx="403.5" cy="387.932" r="2" transform="rotate(-90 403.5 387.932)" fill="#C668FF"/>
<circle opacity="0.64" cx="403.5" cy="375.932" r="2" transform="rotate(-90 403.5 375.932)" fill="white"/>
<circle opacity="0.43" cx="403.5" cy="363.932" r="2" transform="rotate(-90 403.5 363.932)" fill="#C668FF"/>
<circle opacity="0.05" cx="403.5" cy="351.932" r="2" transform="rotate(-90 403.5 351.932)" fill="#C668FF"/>
<circle opacity="0.05" cx="403.5" cy="339.932" r="2" transform="rotate(-90 403.5 339.932)" fill="#C668FF"/>
<circle opacity="0.45" cx="403.5" cy="327.932" r="2" transform="rotate(-90 403.5 327.932)" fill="white"/>
<circle opacity="0.45" cx="403.5" cy="315.932" r="2" transform="rotate(-90 403.5 315.932)" fill="white"/>
<circle opacity="0.94" cx="403.5" cy="303.932" r="2" transform="rotate(-90 403.5 303.932)" fill="#C668FF"/>
<circle opacity="0.64" cx="403.5" cy="291.932" r="2" transform="rotate(-90 403.5 291.932)" fill="white"/>
<circle opacity="0.64" cx="403.5" cy="279.932" r="2" transform="rotate(-90 403.5 279.932)" fill="#C668FF"/>
<circle opacity="0.9" cx="403.5" cy="267.932" r="2" transform="rotate(-90 403.5 267.932)" fill="white"/>
<circle opacity="0.87" cx="403.5" cy="243.932" r="2" transform="rotate(-90 403.5 243.932)" fill="#C668FF"/>
<circle opacity="0.26" cx="403.5" cy="231.932" r="2" transform="rotate(-90 403.5 231.932)" fill="white"/>
<circle opacity="0.71" cx="403.5" cy="219.932" r="2" transform="rotate(-90 403.5 219.932)" fill="#C668FF"/>
<circle opacity="0.2" cx="403.5" cy="207.932" r="2" transform="rotate(-90 403.5 207.932)" fill="white"/>
<circle opacity="0.19" cx="403.5" cy="195.932" r="2" transform="rotate(-90 403.5 195.932)" fill="white"/>
<circle opacity="0.11" cx="403.5" cy="183.932" r="2" transform="rotate(-90 403.5 183.932)" fill="#C668FF"/>
<circle opacity="0.47" cx="403.5" cy="171.932" r="2" transform="rotate(-90 403.5 171.932)" fill="#C668FF"/>
<circle opacity="0.86" cx="403.5" cy="159.932" r="2" transform="rotate(-90 403.5 159.932)" fill="#C668FF"/>
<circle opacity="0.58" cx="403.5" cy="147.932" r="2" transform="rotate(-90 403.5 147.932)" fill="white"/>
<circle opacity="0.67" cx="403.5" cy="135.932" r="2" transform="rotate(-90 403.5 135.932)" fill="white"/>
<circle opacity="0.51" cx="403.5" cy="123.932" r="2" transform="rotate(-90 403.5 123.932)" fill="#C668FF"/>
<circle opacity="0.49" cx="415.5" cy="471.932" r="2" transform="rotate(-90 415.5 471.932)" fill="white"/>
<circle opacity="0.07" cx="415.5" cy="459.932" r="2" transform="rotate(-90 415.5 459.932)" fill="white"/>
<circle opacity="0.77" cx="415.5" cy="447.932" r="2" transform="rotate(-90 415.5 447.932)" fill="white"/>
<circle opacity="0.24" cx="415.5" cy="435.932" r="2" transform="rotate(-90 415.5 435.932)" fill="#C668FF"/>
<circle opacity="0.16" cx="415.5" cy="423.932" r="2" transform="rotate(-90 415.5 423.932)" fill="white"/>
<circle opacity="0.86" cx="415.5" cy="411.932" r="2" transform="rotate(-90 415.5 411.932)" fill="#C668FF"/>
<circle opacity="0.23" cx="415.5" cy="399.932" r="2" transform="rotate(-90 415.5 399.932)" fill="#C668FF"/>
<circle opacity="0.12" cx="415.5" cy="387.932" r="2" transform="rotate(-90 415.5 387.932)" fill="white"/>
<circle opacity="0.23" cx="415.5" cy="375.932" r="2" transform="rotate(-90 415.5 375.932)" fill="white"/>
<circle opacity="0.23" cx="415.5" cy="363.932" r="2" transform="rotate(-90 415.5 363.932)" fill="#C668FF"/>
<circle opacity="0.58" cx="415.5" cy="351.932" r="2" transform="rotate(-90 415.5 351.932)" fill="#C668FF"/>
<circle opacity="0.79" cx="415.5" cy="339.932" r="2" transform="rotate(-90 415.5 339.932)" fill="white"/>
<circle opacity="0.42" cx="415.5" cy="327.932" r="2" transform="rotate(-90 415.5 327.932)" fill="white"/>
<circle opacity="0.15" cx="415.5" cy="315.932" r="2" transform="rotate(-90 415.5 315.932)" fill="#C668FF"/>
<circle opacity="0.26" cx="415.5" cy="303.932" r="2" transform="rotate(-90 415.5 303.932)" fill="white"/>
<circle opacity="0.62" cx="415.5" cy="291.932" r="2" transform="rotate(-90 415.5 291.932)" fill="#C668FF"/>
<circle opacity="0.47" cx="415.5" cy="279.932" r="2" transform="rotate(-90 415.5 279.932)" fill="#C668FF"/>
<circle opacity="0.07" cx="415.5" cy="267.932" r="2" transform="rotate(-90 415.5 267.932)" fill="white"/>
<circle opacity="0.73" cx="415.5" cy="255.932" r="2" transform="rotate(-90 415.5 255.932)" fill="white"/>
<circle opacity="0.71" cx="415.5" cy="243.932" r="2" transform="rotate(-90 415.5 243.932)" fill="white"/>
<circle opacity="0.2" cx="415.5" cy="231.932" r="2" transform="rotate(-90 415.5 231.932)" fill="#C668FF"/>
<circle opacity="0.63" cx="415.5" cy="219.932" r="2" transform="rotate(-90 415.5 219.932)" fill="#C668FF"/>
<circle opacity="0.69" cx="415.5" cy="207.932" r="2" transform="rotate(-90 415.5 207.932)" fill="#C668FF"/>
<circle opacity="0.69" cx="415.5" cy="195.932" r="2" transform="rotate(-90 415.5 195.932)" fill="#C668FF"/>
<circle opacity="0.73" cx="415.5" cy="183.932" r="2" transform="rotate(-90 415.5 183.932)" fill="#C668FF"/>
<circle opacity="0.74" cx="415.5" cy="171.932" r="2" transform="rotate(-90 415.5 171.932)" fill="white"/>
<circle opacity="0.92" cx="415.5" cy="159.932" r="2" transform="rotate(-90 415.5 159.932)" fill="#C668FF"/>
<circle opacity="0.04" cx="415.5" cy="147.932" r="2" transform="rotate(-90 415.5 147.932)" fill="#C668FF"/>
<circle opacity="0.16" cx="415.5" cy="135.932" r="2" transform="rotate(-90 415.5 135.932)" fill="white"/>
<circle opacity="0.42" cx="415.5" cy="123.932" r="2" transform="rotate(-90 415.5 123.932)" fill="white"/>
<circle opacity="0.54" cx="427.5" cy="471.932" r="2" transform="rotate(-90 427.5 471.932)" fill="#C668FF"/>
<circle opacity="0.3" cx="427.5" cy="459.932" r="2" transform="rotate(-90 427.5 459.932)" fill="white"/>
<circle opacity="0.23" cx="427.5" cy="447.932" r="2" transform="rotate(-90 427.5 447.932)" fill="white"/>
<circle opacity="0.77" cx="427.5" cy="435.932" r="2" transform="rotate(-90 427.5 435.932)" fill="white"/>
<circle opacity="0.14" cx="427.5" cy="423.932" r="2" transform="rotate(-90 427.5 423.932)" fill="#C668FF"/>
<circle opacity="0.89" cx="427.5" cy="411.932" r="2" transform="rotate(-90 427.5 411.932)" fill="#C668FF"/>
<circle opacity="0.22" cx="427.5" cy="399.932" r="2" transform="rotate(-90 427.5 399.932)" fill="#C668FF"/>
<circle opacity="0.79" cx="427.5" cy="387.932" r="2" transform="rotate(-90 427.5 387.932)" fill="white"/>
<circle opacity="0.1" cx="427.5" cy="375.932" r="2" transform="rotate(-90 427.5 375.932)" fill="white"/>
<circle opacity="0.81" cx="427.5" cy="363.932" r="2" transform="rotate(-90 427.5 363.932)" fill="#C668FF"/>
<circle opacity="0.51" cx="427.5" cy="351.932" r="2" transform="rotate(-90 427.5 351.932)" fill="white"/>
<circle opacity="0.14" cx="427.5" cy="339.932" r="2" transform="rotate(-90 427.5 339.932)" fill="white"/>
<circle opacity="0.19" cx="427.5" cy="315.932" r="2" transform="rotate(-90 427.5 315.932)" fill="white"/>
<circle opacity="0.3" cx="427.5" cy="303.932" r="2" transform="rotate(-90 427.5 303.932)" fill="white"/>
<circle opacity="0.85" cx="427.5" cy="291.932" r="2" transform="rotate(-90 427.5 291.932)" fill="#C668FF"/>
<circle opacity="0.77" cx="427.5" cy="279.932" r="2" transform="rotate(-90 427.5 279.932)" fill="#C668FF"/>
<circle opacity="0.81" cx="427.5" cy="267.932" r="2" transform="rotate(-90 427.5 267.932)" fill="#C668FF"/>
<circle opacity="0.53" cx="427.5" cy="255.932" r="2" transform="rotate(-90 427.5 255.932)" fill="white"/>
<circle cx="427.5" cy="243.932" r="2" transform="rotate(-90 427.5 243.932)" fill="white"/>
<circle opacity="0.54" cx="427.5" cy="231.932" r="2" transform="rotate(-90 427.5 231.932)" fill="white"/>
<circle opacity="0.13" cx="427.5" cy="219.932" r="2" transform="rotate(-90 427.5 219.932)" fill="white"/>
<circle opacity="0.57" cx="427.5" cy="207.932" r="2" transform="rotate(-90 427.5 207.932)" fill="#C668FF"/>
<circle opacity="0.67" cx="427.5" cy="195.932" r="2" transform="rotate(-90 427.5 195.932)" fill="white"/>
<circle opacity="0.01" cx="427.5" cy="183.932" r="2" transform="rotate(-90 427.5 183.932)" fill="white"/>
<circle opacity="0.85" cx="427.5" cy="171.932" r="2" transform="rotate(-90 427.5 171.932)" fill="#C668FF"/>
<circle opacity="0.13" cx="427.5" cy="147.932" r="2" transform="rotate(-90 427.5 147.932)" fill="white"/>
<circle opacity="0.01" cx="427.5" cy="135.932" r="2" transform="rotate(-90 427.5 135.932)" fill="white"/>
<circle opacity="0.62" cx="427.5" cy="123.932" r="2" transform="rotate(-90 427.5 123.932)" fill="white"/>
<circle opacity="0.63" cx="439.5" cy="471.932" r="2" transform="rotate(-90 439.5 471.932)" fill="white"/>
<circle opacity="0.1" cx="439.5" cy="459.932" r="2" transform="rotate(-90 439.5 459.932)" fill="white"/>
<circle opacity="0.82" cx="439.5" cy="447.932" r="2" transform="rotate(-90 439.5 447.932)" fill="#C668FF"/>
<circle opacity="0.23" cx="439.5" cy="435.932" r="2" transform="rotate(-90 439.5 435.932)" fill="#C668FF"/>
<circle opacity="0.72" cx="439.5" cy="423.932" r="2" transform="rotate(-90 439.5 423.932)" fill="white"/>
<circle opacity="0.75" cx="439.5" cy="411.932" r="2" transform="rotate(-90 439.5 411.932)" fill="#C668FF"/>
<circle opacity="0.54" cx="439.5" cy="399.932" r="2" transform="rotate(-90 439.5 399.932)" fill="white"/>
<circle opacity="0.71" cx="439.5" cy="387.932" r="2" transform="rotate(-90 439.5 387.932)" fill="#C668FF"/>
<circle opacity="0.78" cx="439.5" cy="375.932" r="2" transform="rotate(-90 439.5 375.932)" fill="white"/>
<circle opacity="0.82" cx="439.5" cy="363.932" r="2" transform="rotate(-90 439.5 363.932)" fill="#C668FF"/>
<circle opacity="0.15" cx="439.5" cy="351.932" r="2" transform="rotate(-90 439.5 351.932)" fill="white"/>
<circle opacity="0.82" cx="439.5" cy="339.932" r="2" transform="rotate(-90 439.5 339.932)" fill="#C668FF"/>
<circle opacity="0.69" cx="439.5" cy="327.932" r="2" transform="rotate(-90 439.5 327.932)" fill="white"/>
<circle opacity="0.37" cx="439.5" cy="315.932" r="2" transform="rotate(-90 439.5 315.932)" fill="white"/>
<circle opacity="0.05" cx="439.5" cy="303.932" r="2" transform="rotate(-90 439.5 303.932)" fill="#C668FF"/>
<circle opacity="0.18" cx="439.5" cy="291.932" r="2" transform="rotate(-90 439.5 291.932)" fill="#C668FF"/>
<circle opacity="0.25" cx="439.5" cy="279.932" r="2" transform="rotate(-90 439.5 279.932)" fill="white"/>
<circle opacity="0.3" cx="439.5" cy="267.932" r="2" transform="rotate(-90 439.5 267.932)" fill="white"/>
<circle opacity="0.41" cx="439.5" cy="255.932" r="2" transform="rotate(-90 439.5 255.932)" fill="white"/>
<circle opacity="0.49" cx="439.5" cy="243.932" r="2" transform="rotate(-90 439.5 243.932)" fill="#C668FF"/>
<circle opacity="0.29" cx="439.5" cy="231.932" r="2" transform="rotate(-90 439.5 231.932)" fill="white"/>
<circle opacity="0.92" cx="439.5" cy="219.932" r="2" transform="rotate(-90 439.5 219.932)" fill="#C668FF"/>
<circle opacity="0.33" cx="439.5" cy="207.932" r="2" transform="rotate(-90 439.5 207.932)" fill="white"/>
<circle opacity="0.9" cx="439.5" cy="195.932" r="2" transform="rotate(-90 439.5 195.932)" fill="#C668FF"/>
<circle opacity="0.9" cx="439.5" cy="183.932" r="2" transform="rotate(-90 439.5 183.932)" fill="white"/>
<circle opacity="0.93" cx="439.5" cy="171.932" r="2" transform="rotate(-90 439.5 171.932)" fill="#C668FF"/>
<circle opacity="0.55" cx="439.5" cy="159.932" r="2" transform="rotate(-90 439.5 159.932)" fill="#C668FF"/>
<circle opacity="0.38" cx="439.5" cy="147.932" r="2" transform="rotate(-90 439.5 147.932)" fill="#C668FF"/>
<circle opacity="0.71" cx="439.5" cy="135.932" r="2" transform="rotate(-90 439.5 135.932)" fill="#C668FF"/>
<circle opacity="0.88" cx="439.5" cy="123.932" r="2" transform="rotate(-90 439.5 123.932)" fill="white"/>
<circle opacity="0.14" cx="451.5" cy="471.932" r="2" transform="rotate(-90 451.5 471.932)" fill="#C668FF"/>
<circle opacity="0.91" cx="451.5" cy="459.932" r="2" transform="rotate(-90 451.5 459.932)" fill="#C668FF"/>
<circle opacity="0.37" cx="451.5" cy="447.932" r="2" transform="rotate(-90 451.5 447.932)" fill="white"/>
<circle opacity="0.1" cx="451.5" cy="435.932" r="2" transform="rotate(-90 451.5 435.932)" fill="white"/>
<circle opacity="0.11" cx="451.5" cy="423.932" r="2" transform="rotate(-90 451.5 423.932)" fill="#C668FF"/>
<circle opacity="0.91" cx="451.5" cy="411.932" r="2" transform="rotate(-90 451.5 411.932)" fill="#C668FF"/>
<circle opacity="0.32" cx="451.5" cy="399.932" r="2" transform="rotate(-90 451.5 399.932)" fill="#C668FF"/>
<circle opacity="0.96" cx="451.5" cy="387.932" r="2" transform="rotate(-90 451.5 387.932)" fill="white"/>
<circle opacity="0.71" cx="451.5" cy="375.932" r="2" transform="rotate(-90 451.5 375.932)" fill="#C668FF"/>
<circle opacity="0.16" cx="451.5" cy="363.932" r="2" transform="rotate(-90 451.5 363.932)" fill="#C668FF"/>
<circle opacity="0.38" cx="451.5" cy="351.932" r="2" transform="rotate(-90 451.5 351.932)" fill="white"/>
<circle opacity="0.71" cx="451.5" cy="339.932" r="2" transform="rotate(-90 451.5 339.932)" fill="white"/>
<circle opacity="0.14" cx="451.5" cy="327.932" r="2" transform="rotate(-90 451.5 327.932)" fill="white"/>
<circle opacity="0.03" cx="451.5" cy="315.932" r="2" transform="rotate(-90 451.5 315.932)" fill="#C668FF"/>
<circle opacity="0.54" cx="451.5" cy="303.932" r="2" transform="rotate(-90 451.5 303.932)" fill="white"/>
<circle opacity="0.28" cx="451.5" cy="291.932" r="2" transform="rotate(-90 451.5 291.932)" fill="#C668FF"/>
<circle opacity="0.07" cx="451.5" cy="279.932" r="2" transform="rotate(-90 451.5 279.932)" fill="#C668FF"/>
<circle opacity="0.71" cx="451.5" cy="267.932" r="2" transform="rotate(-90 451.5 267.932)" fill="#C668FF"/>
<circle opacity="0.9" cx="451.5" cy="255.932" r="2" transform="rotate(-90 451.5 255.932)" fill="white"/>
<circle opacity="0.13" cx="451.5" cy="243.932" r="2" transform="rotate(-90 451.5 243.932)" fill="white"/>
<circle opacity="0.27" cx="451.5" cy="231.932" r="2" transform="rotate(-90 451.5 231.932)" fill="white"/>
<circle opacity="0.98" cx="451.5" cy="219.932" r="2" transform="rotate(-90 451.5 219.932)" fill="#C668FF"/>
<circle opacity="0.98" cx="451.5" cy="207.932" r="2" transform="rotate(-90 451.5 207.932)" fill="#C668FF"/>
<circle opacity="0.27" cx="451.5" cy="195.932" r="2" transform="rotate(-90 451.5 195.932)" fill="white"/>
<circle opacity="0.28" cx="451.5" cy="183.932" r="2" transform="rotate(-90 451.5 183.932)" fill="white"/>
<circle cx="451.5" cy="171.932" r="2" transform="rotate(-90 451.5 171.932)" fill="#C668FF"/>
<circle opacity="0.86" cx="451.5" cy="159.932" r="2" transform="rotate(-90 451.5 159.932)" fill="white"/>
<circle opacity="0.03" cx="451.5" cy="147.932" r="2" transform="rotate(-90 451.5 147.932)" fill="#C668FF"/>
<circle opacity="0.31" cx="451.5" cy="135.932" r="2" transform="rotate(-90 451.5 135.932)" fill="white"/>
<circle opacity="0.23" cx="451.5" cy="123.932" r="2" transform="rotate(-90 451.5 123.932)" fill="white"/>
</g>
<mask id="mask1_1_3919" style="mask-type:alpha" maskUnits="userSpaceOnUse" x="981" y="114" width="112" height="363">
<rect width="362" height="111" transform="matrix(4.37114e-08 -1 -1 -4.37114e-08 1092.5 476.544)" fill="url(#paint17_radial_1_3919)"/>
</mask>
<g mask="url(#mask1_1_3919)">
<circle opacity="0.13" cx="2" cy="2" r="2" transform="matrix(4.37114e-08 -1 -1 -4.37114e-08 1069.5 473.932)" fill="white"/>
<circle opacity="0.95" cx="2" cy="2" r="2" transform="matrix(4.37114e-08 -1 -1 -4.37114e-08 1069.5 461.932)" fill="white"/>
<circle opacity="0.28" cx="2" cy="2" r="2" transform="matrix(4.37114e-08 -1 -1 -4.37114e-08 1069.5 449.932)" fill="white"/>
<circle opacity="0.08" cx="2" cy="2" r="2" transform="matrix(4.37114e-08 -1 -1 -4.37114e-08 1069.5 437.932)" fill="#C668FF"/>
<circle opacity="0.39" cx="2" cy="2" r="2" transform="matrix(4.37114e-08 -1 -1 -4.37114e-08 1069.5 425.932)" fill="#C668FF"/>
<circle opacity="0.02" cx="2" cy="2" r="2" transform="matrix(4.37114e-08 -1 -1 -4.37114e-08 1069.5 413.932)" fill="#C668FF"/>
<circle opacity="0.07" cx="2" cy="2" r="2" transform="matrix(4.37114e-08 -1 -1 -4.37114e-08 1069.5 401.932)" fill="#C668FF"/>
<circle opacity="0.84" cx="2" cy="2" r="2" transform="matrix(4.37114e-08 -1 -1 -4.37114e-08 1069.5 389.932)" fill="white"/>
<circle opacity="0.4" cx="2" cy="2" r="2" transform="matrix(4.37114e-08 -1 -1 -4.37114e-08 1069.5 377.932)" fill="white"/>
<circle opacity="0.2" cx="2" cy="2" r="2" transform="matrix(4.37114e-08 -1 -1 -4.37114e-08 1069.5 365.932)" fill="#C668FF"/>
<circle opacity="0.18" cx="2" cy="2" r="2" transform="matrix(4.37114e-08 -1 -1 -4.37114e-08 1069.5 353.932)" fill="#C668FF"/>
<circle opacity="0.58" cx="2" cy="2" r="2" transform="matrix(4.37114e-08 -1 -1 -4.37114e-08 1069.5 341.932)" fill="white"/>
<circle opacity="0.26" cx="2" cy="2" r="2" transform="matrix(4.37114e-08 -1 -1 -4.37114e-08 1069.5 329.932)" fill="white"/>
<circle opacity="0.1" cx="2" cy="2" r="2" transform="matrix(4.37114e-08 -1 -1 -4.37114e-08 1069.5 317.932)" fill="white"/>
<circle opacity="0.65" cx="2" cy="2" r="2" transform="matrix(4.37114e-08 -1 -1 -4.37114e-08 1069.5 305.932)" fill="white"/>
<circle opacity="0.8" cx="2" cy="2" r="2" transform="matrix(4.37114e-08 -1 -1 -4.37114e-08 1069.5 293.932)" fill="white"/>
<circle opacity="0.24" cx="2" cy="2" r="2" transform="matrix(4.37114e-08 -1 -1 -4.37114e-08 1069.5 281.932)" fill="#C668FF"/>
<circle opacity="0.43" cx="2" cy="2" r="2" transform="matrix(4.37114e-08 -1 -1 -4.37114e-08 1069.5 269.932)" fill="#C668FF"/>
<circle opacity="0.97" cx="2" cy="2" r="2" transform="matrix(4.37114e-08 -1 -1 -4.37114e-08 1069.5 257.932)" fill="white"/>
<circle opacity="0.99" cx="2" cy="2" r="2" transform="matrix(4.37114e-08 -1 -1 -4.37114e-08 1069.5 245.932)" fill="white"/>
<circle opacity="0.38" cx="2" cy="2" r="2" transform="matrix(4.37114e-08 -1 -1 -4.37114e-08 1069.5 233.932)" fill="white"/>
<circle opacity="0.82" cx="2" cy="2" r="2" transform="matrix(4.37114e-08 -1 -1 -4.37114e-08 1069.5 221.932)" fill="#C668FF"/>
<circle opacity="0.42" cx="2" cy="2" r="2" transform="matrix(4.37114e-08 -1 -1 -4.37114e-08 1069.5 209.932)" fill="#C668FF"/>
<circle opacity="0.69" cx="2" cy="2" r="2" transform="matrix(4.37114e-08 -1 -1 -4.37114e-08 1069.5 197.932)" fill="#C668FF"/>
<circle opacity="0.63" cx="2" cy="2" r="2" transform="matrix(4.37114e-08 -1 -1 -4.37114e-08 1069.5 185.932)" fill="white"/>
<circle opacity="0.05" cx="2" cy="2" r="2" transform="matrix(4.37114e-08 -1 -1 -4.37114e-08 1069.5 173.932)" fill="#C668FF"/>
<circle opacity="0.29" cx="2" cy="2" r="2" transform="matrix(4.37114e-08 -1 -1 -4.37114e-08 1069.5 161.932)" fill="#C668FF"/>
<circle opacity="0.86" cx="2" cy="2" r="2" transform="matrix(4.37114e-08 -1 -1 -4.37114e-08 1069.5 149.932)" fill="white"/>
<circle opacity="0.77" cx="2" cy="2" r="2" transform="matrix(4.37114e-08 -1 -1 -4.37114e-08 1069.5 137.932)" fill="#C668FF"/>
<circle opacity="0.98" cx="2" cy="2" r="2" transform="matrix(4.37114e-08 -1 -1 -4.37114e-08 1069.5 125.932)" fill="#C668FF"/>
<circle opacity="0.3" cx="2" cy="2" r="2" transform="matrix(4.37114e-08 -1 -1 -4.37114e-08 1057.5 473.932)" fill="white"/>
<circle opacity="0.64" cx="2" cy="2" r="2" transform="matrix(4.37114e-08 -1 -1 -4.37114e-08 1057.5 461.932)" fill="#C668FF"/>
<circle opacity="0.89" cx="2" cy="2" r="2" transform="matrix(4.37114e-08 -1 -1 -4.37114e-08 1057.5 449.932)" fill="white"/>
<circle opacity="0.64" cx="2" cy="2" r="2" transform="matrix(4.37114e-08 -1 -1 -4.37114e-08 1057.5 437.932)" fill="#C668FF"/>
<circle opacity="0.03" cx="2" cy="2" r="2" transform="matrix(4.37114e-08 -1 -1 -4.37114e-08 1057.5 425.932)" fill="white"/>
<circle opacity="0.5" cx="2" cy="2" r="2" transform="matrix(4.37114e-08 -1 -1 -4.37114e-08 1057.5 413.932)" fill="#C668FF"/>
<circle opacity="0.81" cx="2" cy="2" r="2" transform="matrix(4.37114e-08 -1 -1 -4.37114e-08 1057.5 401.932)" fill="white"/>
<circle opacity="0.63" cx="2" cy="2" r="2" transform="matrix(4.37114e-08 -1 -1 -4.37114e-08 1057.5 389.932)" fill="#C668FF"/>
<circle opacity="0.64" cx="2" cy="2" r="2" transform="matrix(4.37114e-08 -1 -1 -4.37114e-08 1057.5 377.932)" fill="white"/>
<circle opacity="0.43" cx="2" cy="2" r="2" transform="matrix(4.37114e-08 -1 -1 -4.37114e-08 1057.5 365.932)" fill="#C668FF"/>
<circle opacity="0.05" cx="2" cy="2" r="2" transform="matrix(4.37114e-08 -1 -1 -4.37114e-08 1057.5 353.932)" fill="#C668FF"/>
<circle opacity="0.05" cx="2" cy="2" r="2" transform="matrix(4.37114e-08 -1 -1 -4.37114e-08 1057.5 341.932)" fill="#C668FF"/>
<circle opacity="0.45" cx="2" cy="2" r="2" transform="matrix(4.37114e-08 -1 -1 -4.37114e-08 1057.5 329.932)" fill="white"/>
<circle opacity="0.45" cx="2" cy="2" r="2" transform="matrix(4.37114e-08 -1 -1 -4.37114e-08 1057.5 317.932)" fill="white"/>
<circle opacity="0.94" cx="2" cy="2" r="2" transform="matrix(4.37114e-08 -1 -1 -4.37114e-08 1057.5 305.932)" fill="#C668FF"/>
<circle opacity="0.64" cx="2" cy="2" r="2" transform="matrix(4.37114e-08 -1 -1 -4.37114e-08 1057.5 293.932)" fill="white"/>
<circle opacity="0.64" cx="2" cy="2" r="2" transform="matrix(4.37114e-08 -1 -1 -4.37114e-08 1057.5 281.932)" fill="#C668FF"/>
<circle opacity="0.9" cx="2" cy="2" r="2" transform="matrix(4.37114e-08 -1 -1 -4.37114e-08 1057.5 269.932)" fill="white"/>
<circle opacity="0.87" cx="2" cy="2" r="2" transform="matrix(4.37114e-08 -1 -1 -4.37114e-08 1057.5 245.932)" fill="#C668FF"/>
<circle opacity="0.26" cx="2" cy="2" r="2" transform="matrix(4.37114e-08 -1 -1 -4.37114e-08 1057.5 233.932)" fill="white"/>
<circle opacity="0.71" cx="2" cy="2" r="2" transform="matrix(4.37114e-08 -1 -1 -4.37114e-08 1057.5 221.932)" fill="#C668FF"/>
<circle opacity="0.2" cx="2" cy="2" r="2" transform="matrix(4.37114e-08 -1 -1 -4.37114e-08 1057.5 209.932)" fill="white"/>
<circle opacity="0.19" cx="2" cy="2" r="2" transform="matrix(4.37114e-08 -1 -1 -4.37114e-08 1057.5 197.932)" fill="white"/>
<circle opacity="0.11" cx="2" cy="2" r="2" transform="matrix(4.37114e-08 -1 -1 -4.37114e-08 1057.5 185.932)" fill="#C668FF"/>
<circle opacity="0.47" cx="2" cy="2" r="2" transform="matrix(4.37114e-08 -1 -1 -4.37114e-08 1057.5 173.932)" fill="#C668FF"/>
<circle opacity="0.86" cx="2" cy="2" r="2" transform="matrix(4.37114e-08 -1 -1 -4.37114e-08 1057.5 161.932)" fill="#C668FF"/>
<circle opacity="0.58" cx="2" cy="2" r="2" transform="matrix(4.37114e-08 -1 -1 -4.37114e-08 1057.5 149.932)" fill="white"/>
<circle opacity="0.67" cx="2" cy="2" r="2" transform="matrix(4.37114e-08 -1 -1 -4.37114e-08 1057.5 137.932)" fill="white"/>
<circle opacity="0.51" cx="2" cy="2" r="2" transform="matrix(4.37114e-08 -1 -1 -4.37114e-08 1057.5 125.932)" fill="#C668FF"/>
<circle opacity="0.49" cx="2" cy="2" r="2" transform="matrix(4.37114e-08 -1 -1 -4.37114e-08 1045.5 473.932)" fill="white"/>
<circle opacity="0.07" cx="2" cy="2" r="2" transform="matrix(4.37114e-08 -1 -1 -4.37114e-08 1045.5 461.932)" fill="white"/>
<circle opacity="0.77" cx="2" cy="2" r="2" transform="matrix(4.37114e-08 -1 -1 -4.37114e-08 1045.5 449.932)" fill="white"/>
<circle opacity="0.24" cx="2" cy="2" r="2" transform="matrix(4.37114e-08 -1 -1 -4.37114e-08 1045.5 437.932)" fill="#C668FF"/>
<circle opacity="0.16" cx="2" cy="2" r="2" transform="matrix(4.37114e-08 -1 -1 -4.37114e-08 1045.5 425.932)" fill="white"/>
<circle opacity="0.86" cx="2" cy="2" r="2" transform="matrix(4.37114e-08 -1 -1 -4.37114e-08 1045.5 413.932)" fill="#C668FF"/>
<circle opacity="0.23" cx="2" cy="2" r="2" transform="matrix(4.37114e-08 -1 -1 -4.37114e-08 1045.5 401.932)" fill="#C668FF"/>
<circle opacity="0.12" cx="2" cy="2" r="2" transform="matrix(4.37114e-08 -1 -1 -4.37114e-08 1045.5 389.932)" fill="white"/>
<circle opacity="0.23" cx="2" cy="2" r="2" transform="matrix(4.37114e-08 -1 -1 -4.37114e-08 1045.5 377.932)" fill="white"/>
<circle opacity="0.23" cx="2" cy="2" r="2" transform="matrix(4.37114e-08 -1 -1 -4.37114e-08 1045.5 365.932)" fill="#C668FF"/>
<circle opacity="0.58" cx="2" cy="2" r="2" transform="matrix(4.37114e-08 -1 -1 -4.37114e-08 1045.5 353.932)" fill="#C668FF"/>
<circle opacity="0.79" cx="2" cy="2" r="2" transform="matrix(4.37114e-08 -1 -1 -4.37114e-08 1045.5 341.932)" fill="white"/>
<circle opacity="0.42" cx="2" cy="2" r="2" transform="matrix(4.37114e-08 -1 -1 -4.37114e-08 1045.5 329.932)" fill="white"/>
<circle opacity="0.15" cx="2" cy="2" r="2" transform="matrix(4.37114e-08 -1 -1 -4.37114e-08 1045.5 317.932)" fill="#C668FF"/>
<circle opacity="0.26" cx="2" cy="2" r="2" transform="matrix(4.37114e-08 -1 -1 -4.37114e-08 1045.5 305.932)" fill="white"/>
<circle opacity="0.62" cx="2" cy="2" r="2" transform="matrix(4.37114e-08 -1 -1 -4.37114e-08 1045.5 293.932)" fill="#C668FF"/>
<circle opacity="0.47" cx="2" cy="2" r="2" transform="matrix(4.37114e-08 -1 -1 -4.37114e-08 1045.5 281.932)" fill="#C668FF"/>
<circle opacity="0.07" cx="2" cy="2" r="2" transform="matrix(4.37114e-08 -1 -1 -4.37114e-08 1045.5 269.932)" fill="white"/>
<circle opacity="0.73" cx="2" cy="2" r="2" transform="matrix(4.37114e-08 -1 -1 -4.37114e-08 1045.5 257.932)" fill="white"/>
<circle opacity="0.71" cx="2" cy="2" r="2" transform="matrix(4.37114e-08 -1 -1 -4.37114e-08 1045.5 245.932)" fill="white"/>
<circle opacity="0.2" cx="2" cy="2" r="2" transform="matrix(4.37114e-08 -1 -1 -4.37114e-08 1045.5 233.932)" fill="#C668FF"/>
<circle opacity="0.63" cx="2" cy="2" r="2" transform="matrix(4.37114e-08 -1 -1 -4.37114e-08 1045.5 221.932)" fill="#C668FF"/>
<circle opacity="0.69" cx="2" cy="2" r="2" transform="matrix(4.37114e-08 -1 -1 -4.37114e-08 1045.5 209.932)" fill="#C668FF"/>
<circle opacity="0.69" cx="2" cy="2" r="2" transform="matrix(4.37114e-08 -1 -1 -4.37114e-08 1045.5 197.932)" fill="#C668FF"/>
<circle opacity="0.73" cx="2" cy="2" r="2" transform="matrix(4.37114e-08 -1 -1 -4.37114e-08 1045.5 185.932)" fill="#C668FF"/>
<circle opacity="0.74" cx="2" cy="2" r="2" transform="matrix(4.37114e-08 -1 -1 -4.37114e-08 1045.5 173.932)" fill="white"/>
<circle opacity="0.92" cx="2" cy="2" r="2" transform="matrix(4.37114e-08 -1 -1 -4.37114e-08 1045.5 161.932)" fill="#C668FF"/>
<circle opacity="0.04" cx="2" cy="2" r="2" transform="matrix(4.37114e-08 -1 -1 -4.37114e-08 1045.5 149.932)" fill="#C668FF"/>
<circle opacity="0.16" cx="2" cy="2" r="2" transform="matrix(4.37114e-08 -1 -1 -4.37114e-08 1045.5 137.932)" fill="white"/>
<circle opacity="0.42" cx="2" cy="2" r="2" transform="matrix(4.37114e-08 -1 -1 -4.37114e-08 1045.5 125.932)" fill="white"/>
<circle opacity="0.54" cx="2" cy="2" r="2" transform="matrix(4.37114e-08 -1 -1 -4.37114e-08 1033.5 473.932)" fill="#C668FF"/>
<circle opacity="0.3" cx="2" cy="2" r="2" transform="matrix(4.37114e-08 -1 -1 -4.37114e-08 1033.5 461.932)" fill="white"/>
<circle opacity="0.23" cx="2" cy="2" r="2" transform="matrix(4.37114e-08 -1 -1 -4.37114e-08 1033.5 449.932)" fill="white"/>
<circle opacity="0.77" cx="2" cy="2" r="2" transform="matrix(4.37114e-08 -1 -1 -4.37114e-08 1033.5 437.932)" fill="white"/>
<circle opacity="0.14" cx="2" cy="2" r="2" transform="matrix(4.37114e-08 -1 -1 -4.37114e-08 1033.5 425.932)" fill="#C668FF"/>
<circle opacity="0.89" cx="2" cy="2" r="2" transform="matrix(4.37114e-08 -1 -1 -4.37114e-08 1033.5 413.932)" fill="#C668FF"/>
<circle opacity="0.22" cx="2" cy="2" r="2" transform="matrix(4.37114e-08 -1 -1 -4.37114e-08 1033.5 401.932)" fill="#C668FF"/>
<circle opacity="0.79" cx="2" cy="2" r="2" transform="matrix(4.37114e-08 -1 -1 -4.37114e-08 1033.5 389.932)" fill="white"/>
<circle opacity="0.1" cx="2" cy="2" r="2" transform="matrix(4.37114e-08 -1 -1 -4.37114e-08 1033.5 377.932)" fill="white"/>
<circle opacity="0.81" cx="2" cy="2" r="2" transform="matrix(4.37114e-08 -1 -1 -4.37114e-08 1033.5 365.932)" fill="#C668FF"/>
<circle opacity="0.51" cx="2" cy="2" r="2" transform="matrix(4.37114e-08 -1 -1 -4.37114e-08 1033.5 353.932)" fill="white"/>
<circle opacity="0.14" cx="2" cy="2" r="2" transform="matrix(4.37114e-08 -1 -1 -4.37114e-08 1033.5 341.932)" fill="white"/>
<circle opacity="0.19" cx="2" cy="2" r="2" transform="matrix(4.37114e-08 -1 -1 -4.37114e-08 1033.5 317.932)" fill="white"/>
<circle opacity="0.3" cx="2" cy="2" r="2" transform="matrix(4.37114e-08 -1 -1 -4.37114e-08 1033.5 305.932)" fill="white"/>
<circle opacity="0.85" cx="2" cy="2" r="2" transform="matrix(4.37114e-08 -1 -1 -4.37114e-08 1033.5 293.932)" fill="#C668FF"/>
<circle opacity="0.77" cx="2" cy="2" r="2" transform="matrix(4.37114e-08 -1 -1 -4.37114e-08 1033.5 281.932)" fill="#C668FF"/>
<circle opacity="0.81" cx="2" cy="2" r="2" transform="matrix(4.37114e-08 -1 -1 -4.37114e-08 1033.5 269.932)" fill="#C668FF"/>
<circle opacity="0.53" cx="2" cy="2" r="2" transform="matrix(4.37114e-08 -1 -1 -4.37114e-08 1033.5 257.932)" fill="white"/>
<circle cx="2" cy="2" r="2" transform="matrix(4.37114e-08 -1 -1 -4.37114e-08 1033.5 245.932)" fill="white"/>
<circle opacity="0.54" cx="2" cy="2" r="2" transform="matrix(4.37114e-08 -1 -1 -4.37114e-08 1033.5 233.932)" fill="white"/>
<circle opacity="0.13" cx="2" cy="2" r="2" transform="matrix(4.37114e-08 -1 -1 -4.37114e-08 1033.5 221.932)" fill="white"/>
<circle opacity="0.57" cx="2" cy="2" r="2" transform="matrix(4.37114e-08 -1 -1 -4.37114e-08 1033.5 209.932)" fill="#C668FF"/>
<circle opacity="0.67" cx="2" cy="2" r="2" transform="matrix(4.37114e-08 -1 -1 -4.37114e-08 1033.5 197.932)" fill="white"/>
<circle opacity="0.01" cx="2" cy="2" r="2" transform="matrix(4.37114e-08 -1 -1 -4.37114e-08 1033.5 185.932)" fill="white"/>
<circle opacity="0.85" cx="2" cy="2" r="2" transform="matrix(4.37114e-08 -1 -1 -4.37114e-08 1033.5 173.932)" fill="#C668FF"/>
<circle opacity="0.13" cx="2" cy="2" r="2" transform="matrix(4.37114e-08 -1 -1 -4.37114e-08 1033.5 149.932)" fill="white"/>
<circle opacity="0.01" cx="2" cy="2" r="2" transform="matrix(4.37114e-08 -1 -1 -4.37114e-08 1033.5 137.932)" fill="white"/>
<circle opacity="0.62" cx="2" cy="2" r="2" transform="matrix(4.37114e-08 -1 -1 -4.37114e-08 1033.5 125.932)" fill="white"/>
<circle opacity="0.63" cx="2" cy="2" r="2" transform="matrix(4.37114e-08 -1 -1 -4.37114e-08 1021.5 473.932)" fill="white"/>
<circle opacity="0.1" cx="2" cy="2" r="2" transform="matrix(4.37114e-08 -1 -1 -4.37114e-08 1021.5 461.932)" fill="white"/>
<circle opacity="0.82" cx="2" cy="2" r="2" transform="matrix(4.37114e-08 -1 -1 -4.37114e-08 1021.5 449.932)" fill="#C668FF"/>
<circle opacity="0.23" cx="2" cy="2" r="2" transform="matrix(4.37114e-08 -1 -1 -4.37114e-08 1021.5 437.932)" fill="#C668FF"/>
<circle opacity="0.72" cx="2" cy="2" r="2" transform="matrix(4.37114e-08 -1 -1 -4.37114e-08 1021.5 425.932)" fill="white"/>
<circle opacity="0.75" cx="2" cy="2" r="2" transform="matrix(4.37114e-08 -1 -1 -4.37114e-08 1021.5 413.932)" fill="#C668FF"/>
<circle opacity="0.54" cx="2" cy="2" r="2" transform="matrix(4.37114e-08 -1 -1 -4.37114e-08 1021.5 401.932)" fill="white"/>
<circle opacity="0.71" cx="2" cy="2" r="2" transform="matrix(4.37114e-08 -1 -1 -4.37114e-08 1021.5 389.932)" fill="#C668FF"/>
<circle opacity="0.78" cx="2" cy="2" r="2" transform="matrix(4.37114e-08 -1 -1 -4.37114e-08 1021.5 377.932)" fill="white"/>
<circle opacity="0.82" cx="2" cy="2" r="2" transform="matrix(4.37114e-08 -1 -1 -4.37114e-08 1021.5 365.932)" fill="#C668FF"/>
<circle opacity="0.15" cx="2" cy="2" r="2" transform="matrix(4.37114e-08 -1 -1 -4.37114e-08 1021.5 353.932)" fill="white"/>
<circle opacity="0.82" cx="2" cy="2" r="2" transform="matrix(4.37114e-08 -1 -1 -4.37114e-08 1021.5 341.932)" fill="#C668FF"/>
<circle opacity="0.69" cx="2" cy="2" r="2" transform="matrix(4.37114e-08 -1 -1 -4.37114e-08 1021.5 329.932)" fill="white"/>
<circle opacity="0.37" cx="2" cy="2" r="2" transform="matrix(4.37114e-08 -1 -1 -4.37114e-08 1021.5 317.932)" fill="white"/>
<circle opacity="0.05" cx="2" cy="2" r="2" transform="matrix(4.37114e-08 -1 -1 -4.37114e-08 1021.5 305.932)" fill="#C668FF"/>
<circle opacity="0.18" cx="2" cy="2" r="2" transform="matrix(4.37114e-08 -1 -1 -4.37114e-08 1021.5 293.932)" fill="#C668FF"/>
<circle opacity="0.25" cx="2" cy="2" r="2" transform="matrix(4.37114e-08 -1 -1 -4.37114e-08 1021.5 281.932)" fill="white"/>
<circle opacity="0.3" cx="2" cy="2" r="2" transform="matrix(4.37114e-08 -1 -1 -4.37114e-08 1021.5 269.932)" fill="white"/>
<circle opacity="0.41" cx="2" cy="2" r="2" transform="matrix(4.37114e-08 -1 -1 -4.37114e-08 1021.5 257.932)" fill="white"/>
<circle opacity="0.49" cx="2" cy="2" r="2" transform="matrix(4.37114e-08 -1 -1 -4.37114e-08 1021.5 245.932)" fill="#C668FF"/>
<circle opacity="0.29" cx="2" cy="2" r="2" transform="matrix(4.37114e-08 -1 -1 -4.37114e-08 1021.5 233.932)" fill="white"/>
<circle opacity="0.92" cx="2" cy="2" r="2" transform="matrix(4.37114e-08 -1 -1 -4.37114e-08 1021.5 221.932)" fill="#C668FF"/>
<circle opacity="0.33" cx="2" cy="2" r="2" transform="matrix(4.37114e-08 -1 -1 -4.37114e-08 1021.5 209.932)" fill="white"/>
<circle opacity="0.9" cx="2" cy="2" r="2" transform="matrix(4.37114e-08 -1 -1 -4.37114e-08 1021.5 197.932)" fill="#C668FF"/>
<circle opacity="0.9" cx="2" cy="2" r="2" transform="matrix(4.37114e-08 -1 -1 -4.37114e-08 1021.5 185.932)" fill="white"/>
<circle opacity="0.93" cx="2" cy="2" r="2" transform="matrix(4.37114e-08 -1 -1 -4.37114e-08 1021.5 173.932)" fill="#C668FF"/>
<circle opacity="0.55" cx="2" cy="2" r="2" transform="matrix(4.37114e-08 -1 -1 -4.37114e-08 1021.5 161.932)" fill="#C668FF"/>
<circle opacity="0.38" cx="2" cy="2" r="2" transform="matrix(4.37114e-08 -1 -1 -4.37114e-08 1021.5 149.932)" fill="#C668FF"/>
<circle opacity="0.71" cx="2" cy="2" r="2" transform="matrix(4.37114e-08 -1 -1 -4.37114e-08 1021.5 137.932)" fill="#C668FF"/>
<circle opacity="0.88" cx="2" cy="2" r="2" transform="matrix(4.37114e-08 -1 -1 -4.37114e-08 1021.5 125.932)" fill="white"/>
<circle opacity="0.14" cx="2" cy="2" r="2" transform="matrix(4.37114e-08 -1 -1 -4.37114e-08 1009.5 473.932)" fill="#C668FF"/>
<circle opacity="0.91" cx="2" cy="2" r="2" transform="matrix(4.37114e-08 -1 -1 -4.37114e-08 1009.5 461.932)" fill="#C668FF"/>
<circle opacity="0.37" cx="2" cy="2" r="2" transform="matrix(4.37114e-08 -1 -1 -4.37114e-08 1009.5 449.932)" fill="white"/>
<circle opacity="0.1" cx="2" cy="2" r="2" transform="matrix(4.37114e-08 -1 -1 -4.37114e-08 1009.5 437.932)" fill="white"/>
<circle opacity="0.11" cx="2" cy="2" r="2" transform="matrix(4.37114e-08 -1 -1 -4.37114e-08 1009.5 425.932)" fill="#C668FF"/>
<circle opacity="0.91" cx="2" cy="2" r="2" transform="matrix(4.37114e-08 -1 -1 -4.37114e-08 1009.5 413.932)" fill="#C668FF"/>
<circle opacity="0.32" cx="2" cy="2" r="2" transform="matrix(4.37114e-08 -1 -1 -4.37114e-08 1009.5 401.932)" fill="#C668FF"/>
<circle opacity="0.96" cx="2" cy="2" r="2" transform="matrix(4.37114e-08 -1 -1 -4.37114e-08 1009.5 389.932)" fill="white"/>
<circle opacity="0.71" cx="2" cy="2" r="2" transform="matrix(4.37114e-08 -1 -1 -4.37114e-08 1009.5 377.932)" fill="#C668FF"/>
<circle opacity="0.16" cx="2" cy="2" r="2" transform="matrix(4.37114e-08 -1 -1 -4.37114e-08 1009.5 365.932)" fill="#C668FF"/>
<circle opacity="0.38" cx="2" cy="2" r="2" transform="matrix(4.37114e-08 -1 -1 -4.37114e-08 1009.5 353.932)" fill="white"/>
<circle opacity="0.71" cx="2" cy="2" r="2" transform="matrix(4.37114e-08 -1 -1 -4.37114e-08 1009.5 341.932)" fill="white"/>
<circle opacity="0.14" cx="2" cy="2" r="2" transform="matrix(4.37114e-08 -1 -1 -4.37114e-08 1009.5 329.932)" fill="white"/>
<circle opacity="0.03" cx="2" cy="2" r="2" transform="matrix(4.37114e-08 -1 -1 -4.37114e-08 1009.5 317.932)" fill="#C668FF"/>
<circle opacity="0.54" cx="2" cy="2" r="2" transform="matrix(4.37114e-08 -1 -1 -4.37114e-08 1009.5 305.932)" fill="white"/>
<circle opacity="0.28" cx="2" cy="2" r="2" transform="matrix(4.37114e-08 -1 -1 -4.37114e-08 1009.5 293.932)" fill="#C668FF"/>
<circle opacity="0.07" cx="2" cy="2" r="2" transform="matrix(4.37114e-08 -1 -1 -4.37114e-08 1009.5 281.932)" fill="#C668FF"/>
<circle opacity="0.71" cx="2" cy="2" r="2" transform="matrix(4.37114e-08 -1 -1 -4.37114e-08 1009.5 269.932)" fill="#C668FF"/>
<circle opacity="0.9" cx="2" cy="2" r="2" transform="matrix(4.37114e-08 -1 -1 -4.37114e-08 1009.5 257.932)" fill="white"/>
<circle opacity="0.13" cx="2" cy="2" r="2" transform="matrix(4.37114e-08 -1 -1 -4.37114e-08 1009.5 245.932)" fill="white"/>
<circle opacity="0.27" cx="2" cy="2" r="2" transform="matrix(4.37114e-08 -1 -1 -4.37114e-08 1009.5 233.932)" fill="white"/>
<circle opacity="0.98" cx="2" cy="2" r="2" transform="matrix(4.37114e-08 -1 -1 -4.37114e-08 1009.5 221.932)" fill="#C668FF"/>
<circle opacity="0.98" cx="2" cy="2" r="2" transform="matrix(4.37114e-08 -1 -1 -4.37114e-08 1009.5 209.932)" fill="#C668FF"/>
<circle opacity="0.27" cx="2" cy="2" r="2" transform="matrix(4.37114e-08 -1 -1 -4.37114e-08 1009.5 197.932)" fill="white"/>
<circle opacity="0.28" cx="2" cy="2" r="2" transform="matrix(4.37114e-08 -1 -1 -4.37114e-08 1009.5 185.932)" fill="white"/>
<circle cx="2" cy="2" r="2" transform="matrix(4.37114e-08 -1 -1 -4.37114e-08 1009.5 173.932)" fill="#C668FF"/>
<circle opacity="0.86" cx="2" cy="2" r="2" transform="matrix(4.37114e-08 -1 -1 -4.37114e-08 1009.5 161.932)" fill="white"/>
<circle opacity="0.03" cx="2" cy="2" r="2" transform="matrix(4.37114e-08 -1 -1 -4.37114e-08 1009.5 149.932)" fill="#C668FF"/>
<circle opacity="0.31" cx="2" cy="2" r="2" transform="matrix(4.37114e-08 -1 -1 -4.37114e-08 1009.5 137.932)" fill="white"/>
<circle opacity="0.23" cx="2" cy="2" r="2" transform="matrix(4.37114e-08 -1 -1 -4.37114e-08 1009.5 125.932)" fill="white"/>
<circle opacity="0.85" cx="2" cy="2" r="2" transform="matrix(4.37114e-08 -1 -1 -4.37114e-08 997.5 473.932)" fill="#C668FF"/>
<circle opacity="0.86" cx="2" cy="2" r="2" transform="matrix(4.37114e-08 -1 -1 -4.37114e-08 997.5 461.932)" fill="#C668FF"/>
<circle opacity="0.07" cx="2" cy="2" r="2" transform="matrix(4.37114e-08 -1 -1 -4.37114e-08 997.5 449.932)" fill="#C668FF"/>
<circle opacity="0.18" cx="2" cy="2" r="2" transform="matrix(4.37114e-08 -1 -1 -4.37114e-08 997.5 437.932)" fill="#C668FF"/>
<circle opacity="0.48" cx="2" cy="2" r="2" transform="matrix(4.37114e-08 -1 -1 -4.37114e-08 997.5 425.932)" fill="white"/>
<circle opacity="0.61" cx="2" cy="2" r="2" transform="matrix(4.37114e-08 -1 -1 -4.37114e-08 997.5 413.932)" fill="white"/>
<circle opacity="0.84" cx="2" cy="2" r="2" transform="matrix(4.37114e-08 -1 -1 -4.37114e-08 997.5 401.932)" fill="white"/>
<circle opacity="0.28" cx="2" cy="2" r="2" transform="matrix(4.37114e-08 -1 -1 -4.37114e-08 997.5 389.932)" fill="#C668FF"/>
<circle opacity="0.22" cx="2" cy="2" r="2" transform="matrix(4.37114e-08 -1 -1 -4.37114e-08 997.5 377.932)" fill="white"/>
<circle opacity="0.97" cx="2" cy="2" r="2" transform="matrix(4.37114e-08 -1 -1 -4.37114e-08 997.5 365.932)" fill="#C668FF"/>
<circle opacity="0.09" cx="2" cy="2" r="2" transform="matrix(4.37114e-08 -1 -1 -4.37114e-08 997.5 353.932)" fill="white"/>
<circle opacity="0.49" cx="2" cy="2" r="2" transform="matrix(4.37114e-08 -1 -1 -4.37114e-08 997.5 341.932)" fill="#C668FF"/>
<circle opacity="0.02" cx="2" cy="2" r="2" transform="matrix(4.37114e-08 -1 -1 -4.37114e-08 997.5 329.932)" fill="#C668FF"/>
<circle opacity="0.46" cx="2" cy="2" r="2" transform="matrix(4.37114e-08 -1 -1 -4.37114e-08 997.5 317.932)" fill="white"/>
<circle opacity="0.45" cx="2" cy="2" r="2" transform="matrix(4.37114e-08 -1 -1 -4.37114e-08 997.5 305.932)" fill="#C668FF"/>
<circle opacity="0.36" cx="2" cy="2" r="2" transform="matrix(4.37114e-08 -1 -1 -4.37114e-08 997.5 293.932)" fill="white"/>
<circle opacity="0.25" cx="2" cy="2" r="2" transform="matrix(4.37114e-08 -1 -1 -4.37114e-08 997.5 281.932)" fill="white"/>
<circle opacity="0.07" cx="2" cy="2" r="2" transform="matrix(4.37114e-08 -1 -1 -4.37114e-08 997.5 269.932)" fill="#C668FF"/>
<circle opacity="0.64" cx="2" cy="2" r="2" transform="matrix(4.37114e-08 -1 -1 -4.37114e-08 997.5 257.932)" fill="#C668FF"/>
<circle opacity="0.09" cx="2" cy="2" r="2" transform="matrix(4.37114e-08 -1 -1 -4.37114e-08 997.5 245.932)" fill="#C668FF"/>
<circle opacity="0.16" cx="2" cy="2" r="2" transform="matrix(4.37114e-08 -1 -1 -4.37114e-08 997.5 233.932)" fill="#C668FF"/>
<circle opacity="0.49" cx="2" cy="2" r="2" transform="matrix(4.37114e-08 -1 -1 -4.37114e-08 997.5 221.932)" fill="#C668FF"/>
<circle opacity="0.72" cx="2" cy="2" r="2" transform="matrix(4.37114e-08 -1 -1 -4.37114e-08 997.5 209.932)" fill="#C668FF"/>
<circle opacity="0.32" cx="2" cy="2" r="2" transform="matrix(4.37114e-08 -1 -1 -4.37114e-08 997.5 197.932)" fill="white"/>
<circle opacity="0.55" cx="2" cy="2" r="2" transform="matrix(4.37114e-08 -1 -1 -4.37114e-08 997.5 185.932)" fill="#C668FF"/>
<circle opacity="0.16" cx="2" cy="2" r="2" transform="matrix(4.37114e-08 -1 -1 -4.37114e-08 997.5 173.932)" fill="white"/>
<circle opacity="0.82" cx="2" cy="2" r="2" transform="matrix(4.37114e-08 -1 -1 -4.37114e-08 997.5 161.932)" fill="#C668FF"/>
<circle opacity="0.87" cx="2" cy="2" r="2" transform="matrix(4.37114e-08 -1 -1 -4.37114e-08 997.5 149.932)" fill="#C668FF"/>
<circle opacity="0.87" cx="2" cy="2" r="2" transform="matrix(4.37114e-08 -1 -1 -4.37114e-08 997.5 137.932)" fill="#C668FF"/>
<circle opacity="0.68" cx="2" cy="2" r="2" transform="matrix(4.37114e-08 -1 -1 -4.37114e-08 997.5 125.932)" fill="white"/>
<circle opacity="0.01" cx="2" cy="2" r="2" transform="matrix(4.37114e-08 -1 -1 -4.37114e-08 985.5 473.932)" fill="#C668FF"/>
<circle opacity="0.49" cx="2" cy="2" r="2" transform="matrix(4.37114e-08 -1 -1 -4.37114e-08 985.5 461.932)" fill="white"/>
<circle opacity="0.34" cx="2" cy="2" r="2" transform="matrix(4.37114e-08 -1 -1 -4.37114e-08 985.5 449.932)" fill="#C668FF"/>
<circle opacity="0.4" cx="2" cy="2" r="2" transform="matrix(4.37114e-08 -1 -1 -4.37114e-08 985.5 437.932)" fill="white"/>
<circle opacity="0.27" cx="2" cy="2" r="2" transform="matrix(4.37114e-08 -1 -1 -4.37114e-08 985.5 425.932)" fill="#C668FF"/>
<circle opacity="0.64" cx="2" cy="2" r="2" transform="matrix(4.37114e-08 -1 -1 -4.37114e-08 985.5 413.932)" fill="white"/>
<circle opacity="0.83" cx="2" cy="2" r="2" transform="matrix(4.37114e-08 -1 -1 -4.37114e-08 985.5 401.932)" fill="white"/>
<circle opacity="0.86" cx="2" cy="2" r="2" transform="matrix(4.37114e-08 -1 -1 -4.37114e-08 985.5 389.932)" fill="#C668FF"/>
<circle opacity="0.98" cx="2" cy="2" r="2" transform="matrix(4.37114e-08 -1 -1 -4.37114e-08 985.5 377.932)" fill="#C668FF"/>
<circle opacity="0.93" cx="2" cy="2" r="2" transform="matrix(4.37114e-08 -1 -1 -4.37114e-08 985.5 365.932)" fill="white"/>
<circle opacity="0.66" cx="2" cy="2" r="2" transform="matrix(4.37114e-08 -1 -1 -4.37114e-08 985.5 353.932)" fill="white"/>
<circle opacity="0.93" cx="2" cy="2" r="2" transform="matrix(4.37114e-08 -1 -1 -4.37114e-08 985.5 341.932)" fill="#C668FF"/>
<circle opacity="0.72" cx="2" cy="2" r="2" transform="matrix(4.37114e-08 -1 -1 -4.37114e-08 985.5 329.932)" fill="white"/>
<circle opacity="0.57" cx="2" cy="2" r="2" transform="matrix(4.37114e-08 -1 -1 -4.37114e-08 985.5 317.932)" fill="#C668FF"/>
<circle opacity="0.52" cx="2" cy="2" r="2" transform="matrix(4.37114e-08 -1 -1 -4.37114e-08 985.5 305.932)" fill="#C668FF"/>
<circle opacity="0.8" cx="2" cy="2" r="2" transform="matrix(4.37114e-08 -1 -1 -4.37114e-08 985.5 293.932)" fill="white"/>
<circle opacity="0.01" cx="2" cy="2" r="2" transform="matrix(4.37114e-08 -1 -1 -4.37114e-08 985.5 281.932)" fill="#C668FF"/>
<circle opacity="0.48" cx="2" cy="2" r="2" transform="matrix(4.37114e-08 -1 -1 -4.37114e-08 985.5 269.932)" fill="white"/>
<circle opacity="0.21" cx="2" cy="2" r="2" transform="matrix(4.37114e-08 -1 -1 -4.37114e-08 985.5 257.932)" fill="#C668FF"/>
<circle opacity="0.06" cx="2" cy="2" r="2" transform="matrix(4.37114e-08 -1 -1 -4.37114e-08 985.5 245.932)" fill="white"/>
<circle opacity="0.25" cx="2" cy="2" r="2" transform="matrix(4.37114e-08 -1 -1 -4.37114e-08 985.5 233.932)" fill="#C668FF"/>
<circle opacity="0.22" cx="2" cy="2" r="2" transform="matrix(4.37114e-08 -1 -1 -4.37114e-08 985.5 221.932)" fill="#C668FF"/>
<circle opacity="0.61" cx="2" cy="2" r="2" transform="matrix(4.37114e-08 -1 -1 -4.37114e-08 985.5 209.932)" fill="white"/>
<circle opacity="0.25" cx="2" cy="2" r="2" transform="matrix(4.37114e-08 -1 -1 -4.37114e-08 985.5 197.932)" fill="white"/>
<circle opacity="0.47" cx="2" cy="2" r="2" transform="matrix(4.37114e-08 -1 -1 -4.37114e-08 985.5 185.932)" fill="white"/>
<circle opacity="0.02" cx="2" cy="2" r="2" transform="matrix(4.37114e-08 -1 -1 -4.37114e-08 985.5 173.932)" fill="white"/>
<circle opacity="0.94" cx="2" cy="2" r="2" transform="matrix(4.37114e-08 -1 -1 -4.37114e-08 985.5 161.932)" fill="white"/>
<circle opacity="0.72" cx="2" cy="2" r="2" transform="matrix(4.37114e-08 -1 -1 -4.37114e-08 985.5 149.932)" fill="#C668FF"/>
<circle opacity="0.82" cx="2" cy="2" r="2" transform="matrix(4.37114e-08 -1 -1 -4.37114e-08 985.5 137.932)" fill="#C668FF"/>
<circle opacity="0.04" cx="2" cy="2" r="2" transform="matrix(4.37114e-08 -1 -1 -4.37114e-08 985.5 125.932)" fill="#C668FF"/>
</g>
</g>
<defs>
<filter id="filter0_f_1_3919" x="113.5" y="-71" width="1253" height="698" filterUnits="userSpaceOnUse" color-interpolation-filters="sRGB">
<feFlood flood-opacity="0" result="BackgroundImageFix"/>
<feBlend mode="normal" in="SourceGraphic" in2="BackgroundImageFix" result="shape"/>
<feGaussianBlur stdDeviation="125" result="effect1_foregroundBlur_1_3919"/>
</filter>
<linearGradient id="paint0_linear_1_3919" x1="489" y1="240.544" x2="51.5" y2="103.044" gradientUnits="userSpaceOnUse">
<stop stop-color="white"/>
<stop offset="1" stop-color="white" stop-opacity="0"/>
</linearGradient>
<linearGradient id="paint1_linear_1_3919" x1="492.407" y1="274.712" x2="15.8512" y2="108.67" gradientUnits="userSpaceOnUse">
<stop stop-color="white"/>
<stop offset="1" stop-color="white" stop-opacity="0"/>
</linearGradient>
<linearGradient id="paint2_linear_1_3919" x1="496.495" y1="309.712" x2="-23.1356" y2="106.833" gradientUnits="userSpaceOnUse">
<stop stop-color="white"/>
<stop offset="1" stop-color="white" stop-opacity="0"/>
</linearGradient>
<linearGradient id="paint3_linear_1_3919" x1="501.304" y1="332.819" x2="-45.8248" y2="68.6861" gradientUnits="userSpaceOnUse">
<stop stop-color="white"/>
<stop offset="1" stop-color="white" stop-opacity="0"/>
</linearGradient>
<linearGradient id="paint4_linear_1_3919" x1="489" y1="314.544" x2="51.5" y2="452.044" gradientUnits="userSpaceOnUse">
<stop stop-color="white"/>
<stop offset="1" stop-color="white" stop-opacity="0"/>
</linearGradient>
<linearGradient id="paint5_linear_1_3919" x1="492.407" y1="280.376" x2="15.8512" y2="446.418" gradientUnits="userSpaceOnUse">
<stop stop-color="white"/>
<stop offset="1" stop-color="white" stop-opacity="0"/>
</linearGradient>
<linearGradient id="paint6_linear_1_3919" x1="496.495" y1="245.376" x2="-23.1356" y2="448.255" gradientUnits="userSpaceOnUse">
<stop stop-color="white"/>
<stop offset="1" stop-color="white" stop-opacity="0"/>
</linearGradient>
<linearGradient id="paint7_linear_1_3919" x1="501.304" y1="222.269" x2="-45.8248" y2="486.402" gradientUnits="userSpaceOnUse">
<stop stop-color="white"/>
<stop offset="1" stop-color="white" stop-opacity="0"/>
</linearGradient>
<linearGradient id="paint8_linear_1_3919" x1="950" y1="240.544" x2="1387.5" y2="103.044" gradientUnits="userSpaceOnUse">
<stop stop-color="white"/>
<stop offset="1" stop-color="white" stop-opacity="0"/>
</linearGradient>
<linearGradient id="paint9_linear_1_3919" x1="946.593" y1="274.712" x2="1423.15" y2="108.67" gradientUnits="userSpaceOnUse">
<stop stop-color="white"/>
<stop offset="1" stop-color="white" stop-opacity="0"/>
</linearGradient>
<linearGradient id="paint10_linear_1_3919" x1="942.505" y1="309.712" x2="1462.14" y2="106.833" gradientUnits="userSpaceOnUse">
<stop stop-color="white"/>
<stop offset="1" stop-color="white" stop-opacity="0"/>
</linearGradient>
<linearGradient id="paint11_linear_1_3919" x1="937.696" y1="332.819" x2="1484.82" y2="68.6861" gradientUnits="userSpaceOnUse">
<stop stop-color="white"/>
<stop offset="1" stop-color="white" stop-opacity="0"/>
</linearGradient>
<linearGradient id="paint12_linear_1_3919" x1="950" y1="314.544" x2="1387.5" y2="452.044" gradientUnits="userSpaceOnUse">
<stop stop-color="white"/>
<stop offset="1" stop-color="white" stop-opacity="0"/>
</linearGradient>
<linearGradient id="paint13_linear_1_3919" x1="946.593" y1="280.376" x2="1423.15" y2="446.418" gradientUnits="userSpaceOnUse">
<stop stop-color="white"/>
<stop offset="1" stop-color="white" stop-opacity="0"/>
</linearGradient>
<linearGradient id="paint14_linear_1_3919" x1="942.505" y1="245.376" x2="1462.14" y2="448.255" gradientUnits="userSpaceOnUse">
<stop stop-color="white"/>
<stop offset="1" stop-color="white" stop-opacity="0"/>
</linearGradient>
<linearGradient id="paint15_linear_1_3919" x1="937.696" y1="222.269" x2="1484.82" y2="486.402" gradientUnits="userSpaceOnUse">
<stop stop-color="white"/>
<stop offset="1" stop-color="white" stop-opacity="0"/>
</linearGradient>
<radialGradient id="paint16_radial_1_3919" cx="0" cy="0" r="1" gradientUnits="userSpaceOnUse" gradientTransform="translate(528.512 560.973) rotate(-90.013) scale(54.4289 177.509)">
<stop stop-color="#C2C2C2"/>
<stop offset="1" stop-color="#D9D9D9" stop-opacity="0"/>
</radialGradient>
<radialGradient id="paint17_radial_1_3919" cx="0" cy="0" r="1" gradientUnits="userSpaceOnUse" gradientTransform="translate(181.012 84.4289) rotate(-90.013) scale(54.4289 177.509)">
<stop stop-color="#C2C2C2"/>
<stop offset="1" stop-color="#D9D9D9" stop-opacity="0"/>
</radialGradient>
<clipPath id="clip0_1_3919">
<rect width="1440" height="554" fill="white" transform="translate(0.5 0.543945)"/>
</clipPath>
</defs>
</svg>
