<svg width="27" height="27" viewBox="0 0 27 27" fill="none" xmlns="http://www.w3.org/2000/svg">
<path d="M13.5 0.0424805C10.9288 0.0424805 8.41543 0.804917 6.27759 2.23338C4.13975 3.66183 2.47351 5.69216 1.48957 8.0676C0.505633 10.443 0.248189 13.0569 0.749797 15.5787C1.25141 18.1004 2.48953 20.4168 4.30762 22.2349C6.1257 24.053 8.44208 25.2911 10.9638 25.7927C13.4856 26.2943 16.0995 26.0369 18.4749 25.0529C20.8503 24.069 22.8807 22.4027 24.3091 20.2649C25.7376 18.1271 26.5 15.6136 26.5 13.0425C26.4964 9.59578 25.1256 6.2913 22.6884 3.85411C20.2512 1.41693 16.9467 0.0461202 13.5 0.0424805ZM19.2075 10.75L12.2075 17.75C12.1146 17.843 12.0043 17.9167 11.8829 17.967C11.7615 18.0174 11.6314 18.0433 11.5 18.0433C11.3686 18.0433 11.2385 18.0174 11.1171 17.967C10.9957 17.9167 10.8854 17.843 10.7925 17.75L7.79251 14.75C7.60486 14.5623 7.49945 14.3078 7.49945 14.0425C7.49945 13.7771 7.60486 13.5226 7.79251 13.335C7.98015 13.1473 8.23464 13.0419 8.50001 13.0419C8.76537 13.0419 9.01987 13.1473 9.20751 13.335L11.5 15.6287L17.7925 9.33498C17.8854 9.24207 17.9957 9.16837 18.1171 9.11809C18.2385 9.0678 18.3686 9.04192 18.5 9.04192C18.6314 9.04192 18.7615 9.0678 18.8829 9.11809C19.0043 9.16837 19.1146 9.24207 19.2075 9.33498C19.3004 9.42789 19.3741 9.53819 19.4244 9.65958C19.4747 9.78098 19.5006 9.91109 19.5006 10.0425C19.5006 10.1739 19.4747 10.304 19.4244 10.4254C19.3741 10.5468 19.3004 10.6571 19.2075 10.75Z" fill="#8933F6"/>
</svg>
