<svg width="156" height="36" viewBox="0 0 156 36" fill="none" xmlns="http://www.w3.org/2000/svg">
<g clip-path="url(#clip0_1_949)">
<path d="M8.85007 19.5971C8.63703 19.8104 8.38397 19.9796 8.10541 20.0949C7.82686 20.2102 7.52828 20.2694 7.22679 20.2691H1.74388C1.28771 20.2679 0.850639 20.0858 0.528684 19.7625C0.206729 19.4394 0.0262162 19.0016 0.0267958 18.5454V1.71709C0.0279479 1.26205 0.209226 0.825965 0.530992 0.504197C0.85276 0.182429 1.28884 0.00115202 1.74388 0H11.7955C12.2506 0.00115202 12.6866 0.182429 13.0084 0.504197C13.3301 0.825965 13.5115 1.26205 13.5126 1.71709V13.9854C13.5124 14.5925 13.2715 15.1747 12.8428 15.6043L10.8443 17.6007L8.85007 19.5971Z" fill="#666D80"/>
<path d="M16.1722 8.82327C15.9593 8.61005 15.7905 8.35692 15.6756 8.07837C15.5607 7.79982 15.5018 7.50133 15.5024 7.2V1.71709C15.5035 1.26205 15.6849 0.825965 16.0066 0.504197C16.3284 0.182429 16.7644 0.00115202 17.2195 0H34.0631C34.5185 0 34.9553 0.180907 35.2773 0.502925C35.5993 0.824941 35.7802 1.26169 35.7802 1.71709V11.7687C35.7802 11.9942 35.7359 12.2175 35.6496 12.4258C35.5632 12.6342 35.4367 12.8234 35.2773 12.9828C35.1179 13.1424 34.9286 13.2688 34.7202 13.3551C34.5119 13.4414 34.2887 13.4858 34.0631 13.4858H21.7861C21.485 13.4862 21.187 13.4271 20.9088 13.3122C20.6307 13.1973 20.3779 13.0286 20.165 12.816L18.1685 10.8196L16.1722 8.82327Z" fill="#666D80"/>
<path d="M26.9483 16.2482C27.3776 15.8185 27.9599 15.5767 28.5673 15.5762H34.0632C34.5186 15.5767 34.9552 15.7579 35.2775 16.0796C35.5997 16.4015 35.7813 16.8379 35.7824 17.2933V34.1261C35.7819 34.5818 35.6006 35.0188 35.2783 35.3411C34.956 35.6634 34.5191 35.8447 34.0632 35.8453H24.0029C23.5471 35.8447 23.1101 35.6634 22.7878 35.3411C22.4655 35.0188 22.2841 34.5818 22.2836 34.1261V21.8577C22.2841 21.2503 22.5258 20.6679 22.9555 20.2387L24.952 18.2424L26.9483 16.2482Z" fill="#666D80"/>
<path d="M19.6238 27.0219C20.0536 27.4511 20.2954 28.0334 20.2959 28.6408V34.1281C20.2947 34.5843 20.1125 35.0214 19.7893 35.3433C19.4662 35.6652 19.0284 35.8458 18.5722 35.8452H1.74388C1.28884 35.844 0.852759 35.6627 0.530991 35.341C0.209223 35.0192 0.0279465 34.5832 0.0267944 34.1281V24.0765C0.0267944 23.6211 0.207702 23.1843 0.529719 22.8623C0.851736 22.5403 1.28848 22.3594 1.74388 22.3594H14.0122C14.3129 22.3589 14.6106 22.418 14.8885 22.5329C15.1663 22.6478 15.4187 22.8165 15.6311 23.0292L17.6275 25.0255L19.6238 27.0219Z" fill="#666D80"/>
<path d="M92.477 26.9781H92.4661C92.2348 27.1461 92.0297 27.2813 91.8836 27.3818C91.7586 27.461 91.6297 27.5337 91.4974 27.5999C91.4076 27.6477 91.3101 27.6794 91.2094 27.6937C91.103 27.7064 90.9959 27.7123 90.8887 27.7112C90.6831 27.7256 90.4786 27.6726 90.3058 27.5604C90.133 27.4482 90.0014 27.2829 89.9308 27.0894C89.7585 26.6727 89.6734 25.8849 89.6734 24.7482V19.4574C89.6883 18.7272 89.6393 17.9971 89.5272 17.2755C89.4318 16.7763 89.2494 16.2978 88.9883 15.8618C88.1155 14.4828 86.4159 13.7847 83.9156 13.7847C82.0828 13.7847 80.6101 14.0966 79.5519 14.7098C78.4937 15.3228 77.9374 16.1824 77.9374 17.2624C77.9266 17.5127 77.9659 17.7624 78.0527 17.9973C78.1397 18.2322 78.2726 18.4475 78.4436 18.6304C78.6104 18.8023 78.8112 18.9374 79.0333 19.0272C79.2554 19.1169 79.4936 19.1595 79.733 19.1519C79.983 19.1621 80.2325 19.1228 80.4672 19.0363C80.702 18.9498 80.9174 18.8178 81.101 18.6479C81.2727 18.481 81.4078 18.2801 81.4976 18.0581C81.5874 17.8361 81.6299 17.5977 81.6225 17.3585C81.6299 17.153 81.5955 16.9482 81.5212 16.7566C81.4469 16.5649 81.3344 16.3903 81.1905 16.2435C81.0716 16.1318 80.9587 16.0137 80.8523 15.8901C80.8231 15.856 80.8069 15.8127 80.8065 15.7679C80.8115 15.6964 80.8325 15.6269 80.8679 15.5645C80.9035 15.5022 80.9525 15.4487 81.0116 15.4079C81.1762 15.2735 81.36 15.1647 81.557 15.0849C81.8066 14.9846 82.0663 14.9115 82.3316 14.8668C82.6244 14.8125 82.9217 14.7855 83.2195 14.786C84.6945 14.786 85.6916 15.2224 86.1824 16.1061C86.2871 16.2909 86.3739 16.4852 86.4421 16.6864C86.5134 16.9125 86.5674 17.1437 86.6035 17.378C86.645 17.6465 86.6778 17.9737 86.6996 18.3818C86.7214 18.7897 86.7433 19.2937 86.7628 19.8413L83.7344 20.389L82.5039 20.5832C81.8865 20.6944 81.3781 20.8013 80.9505 20.8908C80.564 20.9742 80.1846 21.0881 79.816 21.2312C79.5182 21.3474 79.2306 21.4882 78.9563 21.6522C78.7014 21.809 78.4573 21.9824 78.2254 22.1715C77.4486 22.885 77.0559 23.8886 77.0559 25.1607C77.0559 26.5178 77.4551 27.6043 78.2429 28.3898C79.0305 29.1751 80.1214 29.5744 81.4829 29.5744C82.4384 29.5861 83.3821 29.3612 84.2298 28.9199C85.189 28.3637 86.0458 27.647 86.7628 26.8014C86.8369 27.1494 86.9324 27.4927 87.0487 27.8289C87.1417 28.0609 87.2627 28.2806 87.4087 28.4835C87.6242 28.7859 87.9093 29.032 88.24 29.2013C88.5575 29.369 88.9107 29.4581 89.2698 29.461C89.8681 29.4572 90.4554 29.3001 90.976 29.005C91.6701 28.5929 92.3075 28.092 92.8719 27.5148L92.477 26.9868V26.9781ZM86.8043 20.869V23.3759C86.8043 24.4886 86.6319 25.3395 86.2894 25.9265C85.9588 26.4945 85.4779 26.9603 84.8996 27.2726C84.3187 27.5993 83.6636 27.7713 82.997 27.7722C82.609 27.7897 82.2214 27.7272 81.8585 27.5888C81.4956 27.4503 81.1649 27.2387 80.8872 26.9672C80.6186 26.6782 80.4104 26.3384 80.2747 25.9679C80.1392 25.5974 80.0789 25.2034 80.0974 24.8093C80.0974 23.3977 80.752 22.4333 82.0305 21.9402C82.6085 21.7227 83.2032 21.552 83.8087 21.4297C84.5527 21.2683 85.5541 21.0784 86.7956 20.8668L86.8043 20.869Z" fill="#666D80"/>
<path d="M103.637 27.2071H103.624C103.185 27.3815 102.737 27.5322 102.282 27.6588C101.972 27.7428 101.652 27.7868 101.331 27.7896C100.53 27.7896 99.9213 27.5474 99.522 27.0719C99.1228 26.5962 98.9177 25.8697 98.9177 24.914V15.7744H103.417V14.7118H98.9177V8.69873H98.2195L96.1119 10.8064V14.7118H92.4508V15.7744H96.1075V26.0289C96.1075 27.2071 96.3802 28.1017 96.9191 28.6907C97.4581 29.2798 98.2784 29.5787 99.3562 29.5787C100.084 29.5754 100.807 29.4554 101.497 29.2231C102.368 28.9101 103.204 28.5079 103.993 28.0231H104.004L103.641 27.2333L103.637 27.2071Z" fill="#666D80"/>
<path d="M122.8 12.1811C123.059 12.1892 123.317 12.1442 123.557 12.0489C123.798 11.9535 124.018 11.81 124.201 11.627C124.473 11.3577 124.659 11.0135 124.734 10.6383C124.81 10.2631 124.771 9.8739 124.624 9.52046C124.478 9.16702 124.229 8.8654 123.91 8.65415C123.59 8.44291 123.215 8.33163 122.833 8.33454C122.582 8.33244 122.332 8.38035 122.101 8.4755C121.868 8.57065 121.657 8.71112 121.48 8.88871C121.295 9.05901 121.149 9.26591 121.049 9.49621C120.949 9.72651 120.898 9.97513 120.899 10.2262C120.895 10.4824 120.942 10.7368 121.037 10.9747C121.132 11.2126 121.274 11.4292 121.454 11.6117C121.626 11.7953 121.835 11.9408 122.067 12.0389C122.299 12.137 122.548 12.1854 122.8 12.1811Z" fill="#666D80"/>
<path d="M153.688 25.5864C153.293 26.0062 152.874 26.4004 152.429 26.7667C152.072 27.0587 151.681 27.3076 151.266 27.5086C150.881 27.6907 150.474 27.8213 150.056 27.8969C149.58 27.9757 149.099 28.0129 148.617 28.0082C146.798 28.0082 145.418 27.3929 144.52 26.1798C144.126 25.6246 143.846 24.9964 143.697 24.3318C143.514 23.398 143.432 22.447 143.455 21.4954H154.936V21.4803C154.913 20.5727 154.817 19.6684 154.646 18.777C154.506 18.1114 154.265 17.4713 153.932 16.8788C153.362 15.8799 152.503 15.0774 151.466 14.5769C150.316 14.0216 149.049 13.7436 147.771 13.7653C146.698 13.7494 145.631 13.9366 144.626 14.3173C143.735 14.6597 142.928 15.1904 142.259 15.8729C141.588 16.5841 141.075 17.4296 140.754 18.3537C140.383 19.3954 140.2 20.4944 140.211 21.6002C140.2 22.718 140.384 23.8291 140.754 24.8838C141.079 25.8158 141.592 26.6712 142.262 27.3973C142.925 28.0973 143.733 28.6446 144.629 29.001C145.62 29.39 146.676 29.5826 147.74 29.5682C148.383 29.5725 149.024 29.5117 149.654 29.3871C150.232 29.2665 150.794 29.0714 151.322 28.8067C151.877 28.5257 152.399 28.1847 152.878 27.79C153.435 27.3277 153.95 26.8166 154.416 26.2627V26.2518L153.694 25.5973L153.688 25.5864ZM147.668 14.7799C149.016 14.7799 150.014 15.2163 150.635 16.0759C151.257 16.9355 151.645 18.4061 151.796 20.4395H143.477C143.627 18.3973 144.029 16.9267 144.67 16.0759C145.312 15.2249 146.32 14.7799 147.668 14.7799Z" fill="#666D80"/>
<path d="M72.666 27.9076C72.4028 27.8296 72.1761 27.6602 72.0268 27.4298C71.8697 27.148 71.7767 26.8352 71.754 26.5135C71.704 25.9877 71.6822 25.4597 71.6885 24.9316V6.2749L66.042 7.63635H66.0311V8.68799H66.0442C66.5116 8.69856 66.9767 8.75779 67.4318 8.86472C67.7591 8.93986 68.0558 9.11256 68.2827 9.35999C68.5079 9.64851 68.6518 9.99201 68.6995 10.3549C68.7838 10.8991 68.8217 11.4494 68.8129 12V24.9404C68.8129 25.5796 68.7976 26.1055 68.765 26.5069C68.7531 26.8347 68.6593 27.1542 68.4922 27.4363C68.3342 27.6654 68.1036 27.8345 67.8376 27.9164C67.4518 28.0352 67.0581 28.127 66.6594 28.1913L65.8697 28.2567V29.2363H74.6449V28.2415L73.8573 28.1738C73.4545 28.1126 73.0565 28.0237 72.666 27.9076Z" fill="#666D80"/>
<path d="M125.743 27.9078C125.48 27.8291 125.254 27.6598 125.104 27.43C124.948 27.1477 124.855 26.8352 124.831 26.5136C124.781 25.9879 124.759 25.4599 124.766 24.9318V13.3682L119.119 14.7165H119.108V15.7681H119.122C119.588 15.7772 120.054 15.8357 120.509 15.9427C120.836 16.0186 121.133 16.192 121.36 16.4402C121.583 16.7283 121.726 17.0711 121.772 17.4329C121.856 17.9771 121.895 18.5274 121.886 19.078V24.9318C121.886 25.571 121.871 26.0991 121.837 26.4984C121.826 26.8261 121.733 27.1456 121.565 27.4277C121.408 27.6574 121.177 27.8266 120.91 27.9078C120.524 28.0266 120.131 28.1184 119.732 28.1827L118.955 28.246H118.936V29.2365H127.703V28.2416L126.914 28.174C126.518 28.1119 126.127 28.023 125.743 27.9078Z" fill="#666D80"/>
<path d="M136.713 27.9076C136.45 27.8296 136.224 27.6602 136.074 27.4298C135.917 27.1482 135.822 26.8354 135.8 26.5135C135.751 25.9876 135.73 25.4596 135.736 24.9316V6.2749L130.089 7.63635V8.68799H130.103C130.57 8.69878 131.035 8.758 131.49 8.86472C131.817 8.93922 132.113 9.11206 132.339 9.35999C132.564 9.64833 132.709 9.99183 132.758 10.3549C132.841 10.8992 132.879 11.4494 132.871 12V24.9404C132.871 25.5796 132.853 26.1076 132.821 26.5069C132.811 26.8349 132.717 27.1549 132.548 27.4363C132.391 27.6658 132.16 27.835 131.894 27.9164C131.508 28.0346 131.114 28.1265 130.716 28.1913L129.938 28.2545H129.926V29.2363H138.69V28.2415L137.902 28.1738C137.501 28.1126 137.104 28.0237 136.713 27.9076Z" fill="#666D80"/>
<path d="M116.734 7.55364C116.08 7.0911 115.236 6.85547 114.202 6.85547C112.653 6.85547 111.402 7.35947 110.492 8.35437C109.582 9.34929 109.118 10.7216 109.118 12.4366C109.118 12.6089 109.118 13.4599 109.133 13.7762C109.148 14.0926 109.17 14.398 109.212 14.7209H106.227V15.7748H109.17V24.9383C109.17 25.5929 109.155 26.11 109.122 26.507C109.111 26.8355 109.017 27.1559 108.849 27.4388C108.692 27.6683 108.461 27.8376 108.195 27.9187C107.81 28.0373 107.417 28.1292 107.019 28.1936L106.242 28.2569H106.229V29.2365H115.227V28.2394L114.212 28.174C113.814 28.1095 113.42 28.0176 113.034 27.8991C112.768 27.8179 112.537 27.6487 112.38 27.4191C112.211 27.1366 112.118 26.8161 112.107 26.4875C112.074 26.0926 112.059 25.5645 112.059 24.9188V15.7748H116.1V14.7122H112.044C111.712 13.7934 111.475 12.8429 111.337 11.8759C111.219 11.1445 111.235 10.398 111.382 9.6722C111.564 8.93037 111.945 8.41546 112.519 8.14492L112.582 8.11874L112.616 8.10783L112.648 8.09474L112.67 8.08383L112.746 8.06201C113.005 7.96617 113.278 7.9174 113.554 7.91801C113.835 7.9148 114.114 7.96977 114.374 8.07947C114.616 8.1842 114.739 8.29765 114.739 8.39147C114.739 8.45037 114.672 8.54638 114.546 8.67074C114.38 8.83155 114.248 9.02451 114.158 9.23793C114.068 9.45133 114.023 9.68073 114.024 9.9122C114.015 10.1381 114.053 10.3635 114.138 10.5731C114.223 10.7828 114.352 10.9718 114.516 11.1275C114.852 11.4367 115.298 11.6012 115.754 11.5856C116.02 11.5912 116.282 11.5387 116.524 11.4316C116.766 11.3245 116.982 11.1656 117.155 10.966C117.532 10.5336 117.73 9.97448 117.71 9.40165C117.715 9.03662 117.629 8.67617 117.458 8.3533C117.288 8.03044 117.039 7.75549 116.734 7.55364Z" fill="#666D80"/>
<path d="M47.7213 7.63623V8.69878L48.8995 8.82969C49.7723 8.91478 50.3701 9.14168 50.669 9.50387C50.7496 9.59984 50.8225 9.70197 50.8871 9.80933C50.9492 9.93954 50.9869 10.08 50.9984 10.2239C51.0202 10.405 51.0355 10.6341 51.0464 10.9024C51.0574 11.1708 51.0617 11.5351 51.0617 11.9933V24.8944C51.0617 25.346 51.0617 25.7104 51.0464 25.9853C51.0311 26.2602 51.0202 26.4827 50.9984 26.6639C50.9861 26.8147 50.9478 26.9624 50.885 27.1003C50.8318 27.2067 50.7618 27.304 50.6777 27.3883C50.3788 27.7504 49.7832 27.9773 48.9083 28.0624L47.741 28.1933H47.7301V29.2362H58.0173V28.1737L56.5141 28.0428C55.6588 27.9796 55.0631 27.7526 54.7445 27.3686C54.6612 27.2871 54.5957 27.189 54.5526 27.0806C54.4995 26.9395 54.4615 26.7932 54.4391 26.6442C54.4041 26.4203 54.383 26.1944 54.3759 25.9678C54.365 25.7104 54.3606 25.3548 54.3606 24.8769V19.8893H57.173C57.4484 19.8943 57.7228 19.9228 57.9933 19.9744C58.2749 20.0303 58.5394 20.1514 58.7657 20.3279C58.9956 20.52 59.1859 20.7549 59.3264 21.0195C59.5107 21.3664 59.6571 21.7321 59.7628 22.1104L60.0246 23.0137H61.3075V15.3424H60.0268L59.8195 16.2151C59.6975 16.6212 59.5481 17.0185 59.3722 17.4042C59.2444 17.683 59.0636 17.9342 58.8399 18.1439C58.6379 18.3254 58.3967 18.4576 58.1352 18.53C57.9407 18.5792 57.742 18.6099 57.5417 18.6217H54.3541V8.9846H57.8886C58.7546 8.97186 59.6202 9.0317 60.4762 9.16351C61.0483 9.23736 61.5901 9.46341 62.045 9.81806C62.4346 10.1755 62.707 10.6425 62.8261 11.1577C62.9945 11.8733 63.0874 12.6045 63.1032 13.3395V13.3526H64.3577V7.63623H47.7213Z" fill="#666D80"/>
</g>
<defs>
<clipPath id="clip0_1_949">
<rect width="155.25" height="36" fill="white" transform="translate(0.0267944)"/>
</clipPath>
</defs>
</svg>
