<svg width="209" height="36" viewBox="0 0 209 36" fill="none" xmlns="http://www.w3.org/2000/svg">
<g clip-path="url(#clip0_1_936)">
<path d="M54.0637 4.50488H37.5654H38.2173V9.00267H43.7721V28.3569H48.4748V9.00267H54.0637V4.50488Z" fill="#666D80"/>
<path d="M58.5617 14.2501V11.3197H54.1658V28.357H58.5617V20.2131C58.5617 16.6353 61.4583 15.6131 63.7416 15.8857V10.979C61.5949 10.979 59.4479 11.9331 58.5617 14.2501Z" fill="#666D80"/>
<path d="M68.4448 9.27523C69.9441 9.27523 71.1711 8.04857 71.1711 6.58337C71.1711 5.11817 69.9441 3.85742 68.4448 3.85742C66.9793 3.85742 65.7526 5.11817 65.7526 6.58337C65.7526 8.04857 66.9793 9.27523 68.4448 9.27523ZM66.2638 28.3569H70.6599V11.3197H66.2638V28.3569Z" fill="#666D80"/>
<path d="M87.3584 11.3198V13.4324C86.1657 11.8309 84.3255 10.8428 81.9058 10.8428C77.0668 10.8428 73.4203 14.7954 73.4203 19.5658C73.4203 24.3702 77.0668 28.2889 81.9058 28.2889C84.3255 28.2889 86.1657 27.3006 87.3584 25.6991V27.5391C87.3584 30.2309 85.6545 31.7302 82.8941 31.7302C80.27 31.7302 79.1457 30.674 78.4298 29.3451L74.6814 31.4918C76.1807 34.2519 79.1113 35.6487 82.7579 35.6487C87.2562 35.6487 91.6521 33.1273 91.6521 27.5391V11.3198H87.3584ZM82.5876 24.2339C79.8272 24.2339 77.8164 22.2917 77.8164 19.5658C77.8164 16.8739 79.8272 14.9317 82.5876 14.9317C85.3477 14.9317 87.3584 16.8739 87.3584 19.5658C87.3584 22.2917 85.3477 24.2339 82.5876 24.2339Z" fill="#666D80"/>
<path d="M108.317 11.3198V13.4324C107.124 11.8309 105.284 10.8428 102.864 10.8428C98.0252 10.8428 94.3787 14.7954 94.3787 19.5658C94.3787 24.3702 98.0252 28.2889 102.864 28.2889C105.284 28.2889 107.124 27.3006 108.317 25.6991V27.5391C108.317 30.2309 106.613 31.7302 103.852 31.7302C101.228 31.7302 100.104 30.674 99.3882 29.3451L95.6395 31.4918C97.139 34.2519 100.07 35.6487 103.716 35.6487C108.214 35.6487 112.61 33.1273 112.61 27.5391V11.3198H108.317ZM103.546 24.2339C100.785 24.2339 98.7748 22.2917 98.7748 19.5658C98.7748 16.8739 100.785 14.9317 103.546 14.9317C106.306 14.9317 108.317 16.8739 108.317 19.5658C108.317 22.2917 106.306 24.2339 103.546 24.2339Z" fill="#666D80"/>
<path d="M119.938 21.6443H132.785C132.887 21.065 132.955 20.4858 132.955 19.8384C132.955 14.8294 129.377 10.8428 124.334 10.8428C118.983 10.8428 115.337 14.7613 115.337 19.8384C115.337 24.9154 118.949 28.8339 124.674 28.8339C127.946 28.8339 130.502 27.5051 132.103 25.188L128.559 23.1436C127.81 24.1317 126.446 24.8473 124.742 24.8473C122.425 24.8473 120.551 23.8932 119.938 21.6443ZM119.869 18.2369C120.381 16.0561 121.982 14.7954 124.334 14.7954C126.174 14.7954 128.014 15.7835 128.559 18.2369H119.869Z" fill="#666D80"/>
<path d="M139.959 14.2501V11.3197H135.563V28.357H139.959V20.2131C139.959 16.6353 142.855 15.6131 145.139 15.8857V10.979C142.992 10.979 140.845 11.9331 139.959 14.2501Z" fill="#666D80"/>
<path d="M146.809 28.7999C148.41 28.7999 149.705 27.5051 149.705 25.9036C149.705 24.3021 148.41 23.0073 146.809 23.0073C145.207 23.0073 143.912 24.3021 143.912 25.9036C143.912 27.5051 145.207 28.7999 146.809 28.7999Z" fill="#666D80"/>
<path d="M165.279 4.50488V13.3301C164.052 11.7627 162.246 10.8427 159.758 10.8427C155.192 10.8427 151.443 14.7612 151.443 19.8383C151.443 24.9153 155.192 28.8338 159.758 28.8338C162.246 28.8338 164.052 27.9139 165.279 26.3464V28.3569H169.675V4.50488H165.279ZM160.576 24.6427C157.85 24.6427 155.839 22.7005 155.839 19.8383C155.839 16.9761 157.85 15.0338 160.576 15.0338C163.268 15.0338 165.279 16.9761 165.279 19.8383C165.279 22.7005 163.268 24.6427 160.576 24.6427Z" fill="#666D80"/>
<path d="M176.729 21.6443H189.576C189.678 21.065 189.747 20.4858 189.747 19.8384C189.747 14.8294 186.168 10.8428 181.125 10.8428C175.775 10.8428 172.128 14.7613 172.128 19.8384C172.128 24.9154 175.741 28.8339 181.466 28.8339C184.737 28.8339 187.293 27.5051 188.895 25.188L185.351 23.1436C184.601 24.1317 183.238 24.8473 181.534 24.8473C179.217 24.8473 177.342 23.8932 176.729 21.6443ZM176.661 18.2369C177.172 16.0561 178.773 14.7954 181.125 14.7954C182.965 14.7954 184.805 15.7835 185.351 18.2369H176.661Z" fill="#666D80"/>
<path d="M203.003 11.3198L198.846 23.2458L194.722 11.3198H189.883L196.358 28.357H201.367L207.842 11.3198H203.003Z" fill="#666D80"/>
<path fill-rule="evenodd" clip-rule="evenodd" d="M9.93375 11.7404L16.5099 0.351562L32.8076 28.577H0.212311L6.78851 17.1879L11.4404 19.8734L9.51642 23.2056H23.5034L16.5099 11.0941L14.586 14.4263L9.93375 11.7404Z" fill="#666D80"/>
</g>
<defs>
<clipPath id="clip0_1_936">
<rect width="207.969" height="36" fill="white" transform="translate(0.0575562)"/>
</clipPath>
</defs>
</svg>
