<svg width="132" height="36" viewBox="0 0 132 36" fill="none" xmlns="http://www.w3.org/2000/svg">
<path d="M131.243 23.8455C131.243 24.8283 131.011 25.6602 130.545 26.3412C130.088 27.0136 129.403 27.5265 128.489 27.88C127.575 28.2248 126.437 28.3972 125.075 28.3972C124.067 28.3972 123.2 28.3326 122.476 28.2033C121.761 28.074 121.037 27.8584 120.304 27.5567V24.2981C121.088 24.6515 121.929 24.9446 122.825 25.1774C123.731 25.4015 124.524 25.5136 125.205 25.5136C125.972 25.5136 126.519 25.4015 126.847 25.1774C127.183 24.9446 127.351 24.6429 127.351 24.2722C127.351 24.0308 127.282 23.8153 127.144 23.6257C127.015 23.4274 126.731 23.2076 126.291 22.9662C125.851 22.7162 125.162 22.3929 124.222 21.9964C123.317 21.6171 122.571 21.2334 121.985 20.8455C121.407 20.4576 120.976 20.0007 120.692 19.4748C120.416 18.9403 120.278 18.2636 120.278 17.4446C120.278 16.1084 120.795 15.1041 121.83 14.4317C122.873 13.7507 124.265 13.4102 126.006 13.4102C126.903 13.4102 127.756 13.5007 128.567 13.6817C129.386 13.8627 130.226 14.1515 131.088 14.5481L129.899 17.3929C129.183 17.0826 128.506 16.8283 127.868 16.63C127.239 16.4317 126.597 16.3326 125.942 16.3326C125.364 16.3326 124.929 16.4102 124.636 16.5653C124.343 16.7205 124.196 16.9576 124.196 17.2765C124.196 17.5093 124.269 17.7162 124.416 17.8972C124.571 18.0783 124.864 18.2808 125.295 18.505C125.735 18.7205 126.377 19.0007 127.222 19.3455C128.041 19.6817 128.752 20.0352 129.356 20.4058C129.959 20.7679 130.425 21.2205 130.752 21.7636C131.08 22.2981 131.243 22.9921 131.243 23.8455Z" fill="#666D80"/>
<path d="M117.899 20.8843C117.899 22.0912 117.735 23.1602 117.407 24.0912C117.088 25.0222 116.619 25.811 115.998 26.4576C115.386 27.0955 114.644 27.5783 113.774 27.9058C112.912 28.2334 111.938 28.3972 110.851 28.3972C109.834 28.3972 108.899 28.2334 108.045 27.9058C107.2 27.5783 106.463 27.0955 105.834 26.4576C105.213 25.811 104.731 25.0222 104.386 24.0912C104.05 23.1602 103.881 22.0912 103.881 20.8843C103.881 19.2808 104.166 17.9231 104.735 16.811C105.304 15.6989 106.114 14.8541 107.166 14.2765C108.218 13.6989 109.472 13.4102 110.929 13.4102C112.282 13.4102 113.481 13.6989 114.524 14.2765C115.575 14.8541 116.399 15.6989 116.994 16.811C117.597 17.9231 117.899 19.2808 117.899 20.8843ZM107.903 20.8843C107.903 21.8326 108.006 22.63 108.213 23.2765C108.42 23.9231 108.744 24.4102 109.183 24.7377C109.623 25.0653 110.196 25.2291 110.903 25.2291C111.601 25.2291 112.166 25.0653 112.597 24.7377C113.037 24.4102 113.356 23.9231 113.554 23.2765C113.761 22.63 113.864 21.8326 113.864 20.8843C113.864 19.9274 113.761 19.1343 113.554 18.505C113.356 17.8671 113.037 17.3886 112.597 17.0696C112.157 16.7507 111.584 16.5912 110.877 16.5912C109.834 16.5912 109.075 16.9489 108.601 17.6645C108.136 18.38 107.903 19.4533 107.903 20.8843Z" fill="#666D80"/>
<path d="M94.015 34.5007C91.9978 34.5007 90.4546 34.1472 89.3857 33.4403C88.3253 32.7421 87.7952 31.7593 87.7952 30.4921C87.7952 29.6214 88.0667 28.8929 88.6098 28.3067C89.1529 27.7205 89.9503 27.3024 91.0021 27.0524C90.5969 26.88 90.2434 26.5998 89.9417 26.2119C89.64 25.8153 89.4891 25.3972 89.4891 24.9576C89.4891 24.4058 89.6486 23.9489 89.9676 23.5869C90.2865 23.2162 90.7478 22.8541 91.3512 22.5007C90.5926 22.1731 89.9891 21.6472 89.5409 20.9231C89.1012 20.1989 88.8814 19.3455 88.8814 18.3627C88.8814 17.311 89.1098 16.4188 89.5667 15.686C90.0322 14.9446 90.7046 14.38 91.584 13.9921C92.4719 13.6041 93.5495 13.4102 94.8167 13.4102C95.084 13.4102 95.3943 13.4274 95.7478 13.4619C96.1012 13.4964 96.4245 13.5352 96.7176 13.5783C97.0193 13.6214 97.2219 13.6558 97.3253 13.6817H102.368V15.686L100.106 16.2679C100.312 16.5869 100.468 16.9274 100.571 17.2895C100.674 17.6515 100.726 18.0352 100.726 18.4403C100.726 19.9921 100.183 21.2033 99.0969 22.0739C98.0193 22.936 96.5193 23.3671 94.5969 23.3671C94.14 23.3412 93.709 23.3067 93.3038 23.2636C93.1055 23.4188 92.9546 23.5826 92.8512 23.755C92.7478 23.9274 92.696 24.1084 92.696 24.2981C92.696 24.4877 92.7736 24.6472 92.9288 24.7765C93.0926 24.8972 93.334 24.9921 93.6529 25.061C93.9805 25.1214 94.3857 25.1515 94.8684 25.1515H97.3253C98.9115 25.1515 100.118 25.4921 100.946 26.1731C101.782 26.8541 102.2 27.8541 102.2 29.1731C102.2 30.8627 101.493 32.1731 100.08 33.1041C98.6745 34.0352 96.6529 34.5007 94.015 34.5007ZM94.1831 31.9274C95.1228 31.9274 95.9288 31.8369 96.6012 31.6558C97.2822 31.4834 97.8038 31.2334 98.1659 30.9058C98.5279 30.5869 98.709 30.2033 98.709 29.755C98.709 29.3929 98.6012 29.1041 98.3857 28.8886C98.1788 28.6817 97.8598 28.5352 97.4288 28.4489C97.0064 28.3627 96.4633 28.3196 95.7995 28.3196H93.7564C93.2736 28.3196 92.8383 28.3972 92.4503 28.5524C92.071 28.7076 91.7693 28.9231 91.5452 29.1989C91.321 29.4834 91.209 29.811 91.209 30.1817C91.209 30.7248 91.4676 31.1515 91.9848 31.4619C92.5107 31.7722 93.2434 31.9274 94.1831 31.9274ZM94.8167 20.9619C95.5581 20.9619 96.1012 20.7334 96.446 20.2765C96.7909 19.8196 96.9633 19.1989 96.9633 18.4145C96.9633 17.5438 96.7822 16.8929 96.4202 16.4619C96.0667 16.0222 95.5322 15.8024 94.8167 15.8024C94.0926 15.8024 93.5495 16.0222 93.1874 16.4619C92.8253 16.8929 92.6443 17.5438 92.6443 18.4145C92.6443 19.1989 92.821 19.8196 93.1745 20.2765C93.5365 20.7334 94.084 20.9619 94.8167 20.9619Z" fill="#666D80"/>
<path d="M85.6357 13.6814V28.1383H81.6917V13.6814H85.6357ZM83.6702 8.01758C84.2564 8.01758 84.7607 8.15551 85.1831 8.43137C85.6055 8.69861 85.8167 9.20292 85.8167 9.9443C85.8167 10.6771 85.6055 11.1857 85.1831 11.4702C84.7607 11.746 84.2564 11.884 83.6702 11.884C83.0753 11.884 82.5667 11.746 82.1443 11.4702C81.7305 11.1857 81.5236 10.6771 81.5236 9.9443C81.5236 9.20292 81.7305 8.69861 82.1443 8.43137C82.5667 8.15551 83.0753 8.01758 83.6702 8.01758Z" fill="#666D80"/>
<path d="M69.5107 28.3969C67.8987 28.3969 66.584 27.7676 65.5668 26.509C64.5581 25.2417 64.0538 23.384 64.0538 20.9357C64.0538 18.4615 64.5668 16.5909 65.5926 15.3236C66.6185 14.0478 67.959 13.4098 69.6142 13.4098C70.3038 13.4098 70.9116 13.5046 71.4375 13.6943C71.9633 13.884 72.4159 14.1383 72.7952 14.4572C73.1831 14.7762 73.5107 15.134 73.778 15.5305H73.9073C73.8556 15.2546 73.7909 14.8495 73.7133 14.315C73.6444 13.7719 73.6099 13.2159 73.6099 12.6469V8.01758H77.5668V28.1383H74.5409L73.778 26.2633H73.6099C73.3599 26.6598 73.0452 27.0219 72.6659 27.3495C72.2952 27.6684 71.8512 27.9228 71.334 28.1124C70.8168 28.3021 70.209 28.3969 69.5107 28.3969ZM70.8944 25.2546C71.9719 25.2546 72.7306 24.9357 73.1702 24.2978C73.6185 23.6512 73.8556 22.6814 73.8814 21.3883V20.9615C73.8814 19.5564 73.6659 18.4831 73.2349 17.7417C72.8038 16.9917 72.0021 16.6167 70.8297 16.6167C69.959 16.6167 69.278 16.9917 68.7866 17.7417C68.2952 18.4917 68.0495 19.5736 68.0495 20.9874C68.0495 22.4012 68.2952 23.4659 68.7866 24.1814C69.2866 24.8969 69.9892 25.2546 70.8944 25.2546Z" fill="#666D80"/>
<path d="M61.3253 18.6602C61.3253 20.1171 61.1443 21.4447 60.7822 22.6429C60.4201 23.8326 59.8684 24.8584 59.127 25.7205C58.3943 26.5826 57.4632 27.2464 56.3339 27.7119C55.2046 28.1688 53.8684 28.3972 52.3253 28.3972C50.7822 28.3972 49.446 28.1688 48.3167 27.7119C47.1874 27.2464 46.252 26.5826 45.5107 25.7205C44.7779 24.8584 44.2305 23.8283 43.8684 22.63C43.5064 21.4317 43.3253 20.0998 43.3253 18.6343C43.3253 16.6774 43.6443 14.9748 44.2822 13.5266C44.9288 12.0697 45.9201 10.9403 47.2564 10.1386C48.5926 9.3369 50.2908 8.93604 52.3512 8.93604C54.4029 8.93604 56.0882 9.3369 57.4072 10.1386C58.7348 10.9403 59.7176 12.0697 60.3555 13.5266C61.002 14.9834 61.3253 16.6947 61.3253 18.6602ZM47.5279 18.6602C47.5279 19.9791 47.6917 21.1171 48.0193 22.074C48.3555 23.0222 48.877 23.755 49.5839 24.2722C50.2908 24.7809 51.2046 25.0352 52.3253 25.0352C53.4632 25.0352 54.3857 24.7809 55.0926 24.2722C55.7995 23.755 56.3124 23.0222 56.6314 22.074C56.9589 21.1171 57.1227 19.9791 57.1227 18.6602C57.1227 16.6774 56.752 15.1171 56.0107 13.9791C55.2693 12.8412 54.0495 12.2722 52.3512 12.2722C51.2219 12.2722 50.2995 12.5309 49.5839 13.0481C48.877 13.5567 48.3555 14.2895 48.0193 15.2464C47.6917 16.1947 47.5279 17.3326 47.5279 18.6602Z" fill="#666D80"/>
<path d="M3.5108 16.3443V5.26957C3.5108 4.65436 4.15823 4.25422 4.7085 4.52936L26.858 15.6041C27.6391 15.9946 27.3611 17.1719 26.4879 17.1719H4.33839C3.88133 17.1719 3.5108 16.8014 3.5108 16.3443Z" fill="#666D80"/>
<path d="M33.304 3.93129V15.4106C33.304 16.028 32.6523 16.428 32.1017 16.1485L9.491 4.66923C8.71477 4.27514 8.9951 3.10371 9.86564 3.10371H32.4764C32.9334 3.10371 33.304 3.47423 33.304 3.93129Z" fill="#666D80"/>
<path d="M3.5108 19.6557V30.7304C3.5108 31.3456 4.15823 31.7458 4.7085 31.4706L26.858 20.3959C27.6391 20.0054 27.3611 18.8281 26.4879 18.8281H4.33839C3.88133 18.8281 3.5108 19.1986 3.5108 19.6557Z" fill="#666D80"/>
<path d="M33.304 32.0687V20.5894C33.304 19.972 32.6523 19.572 32.1017 19.8515L9.491 31.3308C8.71477 31.7249 8.9951 32.8963 9.86564 32.8963H32.4764C32.9334 32.8963 33.304 32.5258 33.304 32.0687Z" fill="#666D80"/>
<path fill-rule="evenodd" clip-rule="evenodd" d="M-0.00640869 4.34483C-0.00640869 1.94525 1.93884 0 4.33842 0H32.4764C34.8759 0 36.8212 1.94525 36.8212 4.34483V31.6552C36.8212 34.0548 34.8759 36 32.4764 36H4.33842C1.93884 36 -0.00640869 34.0548 -0.00640869 31.6552V4.34483ZM4.33842 2.06897C3.0815 2.06897 2.06256 3.0879 2.06256 4.34483V31.6552C2.06256 32.9121 3.0815 33.931 4.33842 33.931H32.4764C33.7333 33.931 34.7522 32.9121 34.7522 31.6552V4.34483C34.7522 3.0879 33.7333 2.06897 32.4764 2.06897H4.33842Z" fill="#666D80"/>
</svg>
