<svg width="122" height="36" viewBox="0 0 122 36" fill="none" xmlns="http://www.w3.org/2000/svg">
<path fill-rule="evenodd" clip-rule="evenodd" d="M2.33333 0C1.27776 0 0.422058 0.855707 0.422058 1.91127C0.422058 5.42165 3.26778 8.26737 6.77816 8.26737H10.3854C9.97731 9.48193 9.75619 10.7823 9.75619 12.1344V26.9356C9.75619 30.6178 12.7412 33.6029 16.4234 33.6029C20.1056 33.6029 23.0907 30.6178 23.0907 26.9356V10.8898C23.0907 10.6198 22.8718 10.4009 22.6017 10.4009C21.2516 10.4009 20.1571 11.4954 20.1571 12.8455V26.9356C20.1571 28.9977 18.4855 30.6693 16.4234 30.6693C14.3614 30.6693 12.6898 28.9977 12.6898 26.9356V12.1344C12.6898 7.05292 16.8091 2.93358 21.8906 2.93358H31.1818C30.7072 4.40371 29.3275 5.46713 27.6994 5.46713H21.733C18.0641 5.46713 15.09 8.4413 15.09 12.1101V26.1356C15.09 26.9457 15.7467 27.6024 16.5568 27.6024C17.3669 27.6024 18.0236 26.9457 18.0236 26.1356V12.1101C18.0236 10.0615 19.6843 8.40072 21.733 8.40072H27.6994C31.3402 8.40072 34.2916 5.44928 34.2916 1.80849C34.2916 0.809688 33.4819 0 32.4831 0H21.8906C21.7247 0 21.5596 0.00332799 21.3953 0.00992099C21.3391 0.00336864 21.2819 0 21.2238 0H2.33333ZM13.9789 2.93358H3.51093C3.94568 4.32443 5.24404 5.33379 6.77816 5.33379H11.8395C12.4442 4.44179 13.1645 3.63454 13.9789 2.93358Z" fill="#666D80"/>
<path d="M121.943 10.7319L111.623 35.9377H108.683L112.06 27.6817L105.149 10.7319H108.308L113.687 24.617L119.003 10.7319H121.943Z" fill="#666D80"/>
<path d="M88.8942 13.8902C89.4571 12.9103 90.291 12.0972 91.396 11.4509C92.5218 10.7838 93.8248 10.4502 95.305 10.4502C96.827 10.4502 98.203 10.815 99.433 11.5447C100.684 12.2744 101.664 13.3064 102.373 14.6407C103.082 15.9542 103.436 17.4865 103.436 19.2378C103.436 20.9682 103.082 22.511 102.373 23.8662C101.664 25.2213 100.684 26.2742 99.433 27.0247C98.203 27.7752 96.827 28.1505 95.305 28.1505C93.8457 28.1505 92.5531 27.8274 91.4272 27.1811C90.3223 26.5139 89.4779 25.6904 88.8942 24.7105V36H86.0483V10.7317H88.8942V13.8902ZM100.528 19.2378C100.528 17.9452 100.267 16.8194 99.7458 15.8604C99.2246 14.9013 98.5157 14.1716 97.6192 13.6713C96.7436 13.1709 95.7741 12.9207 94.7109 12.9207C93.6684 12.9207 92.699 13.1813 91.8025 13.7026C90.9269 14.2029 90.218 14.943 89.676 15.9229C89.1548 16.8819 88.8942 17.9973 88.8942 19.2691C88.8942 20.5617 89.1548 21.6979 89.676 22.6778C90.218 23.6368 90.9269 24.377 91.8025 24.8982C92.699 25.3985 93.6684 25.6487 94.7109 25.6487C95.7741 25.6487 96.7436 25.3985 97.6192 24.8982C98.5157 24.377 99.2246 23.6368 99.7458 22.6778C100.267 21.6979 100.528 20.5513 100.528 19.2378Z" fill="#666D80"/>
<path d="M79.822 7.94861C79.28 7.94861 78.8213 7.76098 78.446 7.3857C78.0708 7.01043 77.8831 6.55176 77.8831 6.0097C77.8831 5.46765 78.0708 5.00898 78.446 4.63371C78.8213 4.25844 79.28 4.0708 79.822 4.0708C80.3432 4.0708 80.7811 4.25844 81.1355 4.63371C81.5107 5.00898 81.6984 5.46765 81.6984 6.0097C81.6984 6.55176 81.5107 7.01043 81.1355 7.3857C80.7811 7.76098 80.3432 7.94861 79.822 7.94861ZM81.198 10.7319V27.8693H78.3522V10.7319H81.198Z" fill="#666D80"/>
<path d="M56.1555 19.2378C56.1555 17.4865 56.5099 15.9542 57.2188 14.6407C57.9276 13.3064 58.8971 12.2744 60.1271 11.5447C61.378 10.815 62.7645 10.4502 64.2864 10.4502C65.7875 10.4502 67.0905 10.7733 68.1955 11.4196C69.3005 12.0659 70.124 12.879 70.666 13.8589V10.7317H73.5431V27.8691H70.666V24.6793C70.1031 25.68 69.2588 26.5139 68.1329 27.1811C67.028 27.8274 65.7354 28.1505 64.2551 28.1505C62.7332 28.1505 61.3572 27.7752 60.1271 27.0247C58.8971 26.2742 57.9276 25.2213 57.2188 23.8662C56.5099 22.511 56.1555 20.9682 56.1555 19.2378ZM70.666 19.2691C70.666 17.9765 70.4054 16.8507 69.8842 15.8916C69.363 14.9326 68.6542 14.2029 67.7577 13.7026C66.882 13.1813 65.9126 12.9207 64.8493 12.9207C63.786 12.9207 62.8166 13.1709 61.941 13.6713C61.0653 14.1716 60.3669 14.9013 59.8457 15.8604C59.3245 16.8194 59.0639 17.9452 59.0639 19.2378C59.0639 20.5513 59.3245 21.6979 59.8457 22.6778C60.3669 23.6368 61.0653 24.377 61.941 24.8982C62.8166 25.3985 63.786 25.6487 64.8493 25.6487C65.9126 25.6487 66.882 25.3985 67.7577 24.8982C68.6542 24.377 69.363 23.6368 69.8842 22.6778C70.4054 21.6979 70.666 20.5617 70.666 19.2691Z" fill="#666D80"/>
<path d="M53.7158 6.07227V8.38644H47.774V27.8693H44.9282V8.38644H38.9551V6.07227H53.7158Z" fill="#666D80"/>
</svg>
