<svg width="119" height="36" viewBox="0 0 119 36" fill="none" xmlns="http://www.w3.org/2000/svg">
<g clip-path="url(#clip0_1_963)">
<path d="M58.5629 20.913L59.5994 25.7027H59.68L60.8374 20.9533L64.1926 7.82178H68.2656L62.8373 27.7791H56.2882L53.5742 15.7644L52.5742 10.9747H52.4936L51.457 15.7644L48.7429 27.7791H42.355L36.9268 7.82178H41.117L44.4318 20.913L45.5892 25.6625H45.6698L46.7064 20.8727L49.6989 7.82178H55.5264L58.5592 20.913H58.5629Z" fill="#666D80"/>
<path d="M70.6611 4.31004V0H75.0125V4.31004H70.6611ZM70.8222 27.7791H74.8952V7.82179H70.8222V27.7791Z" fill="#666D80"/>
<path d="M79.2064 7.822H83.1989V11.4143C84.5174 9.14028 86.4734 7.42285 89.5868 7.42285C93.4986 7.42285 96.4142 10.1363 96.4142 15.0872V27.7793H92.3412V15.4057C92.3412 12.4506 90.7442 10.8944 88.0703 10.8944C85.3965 10.8944 83.2794 12.5312 83.2794 16.4018V27.7756H79.2064V7.822Z" fill="#666D80"/>
<path d="M100.366 29.1745H104.399C104.637 31.3716 106.435 32.7668 109.549 32.7668C112.981 32.7668 114.9 31.0896 114.9 27.3398V23.8684C113.465 26.3035 111.307 27.6584 108.391 27.6584C103.56 27.6584 99.8096 24.0258 99.8096 17.559C99.8096 11.0921 103.564 7.42285 108.391 7.42285C111.307 7.42285 113.501 8.8217 114.941 11.2935V7.822H118.974V27.0981C118.974 32.7668 115.461 36.0002 109.472 36.0002C104.084 36.0002 100.769 33.3673 100.37 29.1745H100.366ZM109.468 24.2675C112.901 24.2675 114.896 21.9532 114.896 18.3609V16.7644C114.896 13.0914 112.901 10.7368 109.468 10.7368C106.037 10.7368 104 12.9706 104 17.0427V18.079C104 22.0704 106.117 24.2639 109.468 24.2639V24.2675Z" fill="#666D80"/>
<path d="M24.8176 7.82202C23.1437 7.82202 21.6676 8.70087 20.4332 10.4403C19.1621 12.2383 18.2355 14.7943 17.3417 17.266C17.0415 18.0936 16.7411 18.9286 16.426 19.7304C16.1111 18.9248 15.8071 18.0899 15.5067 17.2587C14.613 14.7869 13.6899 12.2309 12.419 10.433C11.1846 8.69721 9.70849 7.8147 8.0346 7.8147H0.276794V10.7039C0.738306 10.7039 1.45621 10.8504 2.35726 12.1248C3.40116 13.6005 4.25825 15.9661 5.08604 18.262C5.86622 20.4153 6.66837 22.6453 7.70494 24.359C9.06017 26.6111 10.6498 27.7024 12.5618 27.7024C14.3052 27.7024 15.569 26.743 16.426 25.7543C17.2832 26.743 18.5468 27.7024 20.2903 27.7024C22.2023 27.7024 23.7882 26.6075 25.1472 24.359C26.18 22.6453 26.9859 20.4153 27.766 18.2548C28.5938 15.9661 29.4473 13.6005 30.4912 12.1248C31.3959 10.8504 32.1138 10.7039 32.5754 10.7039V7.81104H24.8176V7.82202ZM12.5618 24.8241C10.4813 24.8241 9.03087 20.8108 7.7489 17.266C6.89913 14.9187 6.02372 12.4909 4.8443 10.7149H8.03093C8.49244 10.7149 9.21035 10.8613 10.1151 12.1357C11.159 13.6115 12.016 15.9771 12.8438 18.2693C13.4482 19.9466 14.0746 21.6712 14.8071 23.1617C13.8402 24.6374 13.0746 24.8241 12.5618 24.8241ZM25.0995 17.2734C23.8212 20.8144 22.3708 24.8241 20.2903 24.8241C19.7776 24.8241 19.012 24.6374 18.045 23.1617C18.7776 21.6712 19.4003 19.9466 20.0082 18.2657C20.836 15.9771 21.6895 13.6115 22.7334 12.1357C23.6381 10.8613 24.356 10.7149 24.8176 10.7149H28.0042C26.8284 12.4909 25.9493 14.9187 25.0995 17.2734Z" fill="#666D80"/>
</g>
<defs>
<clipPath id="clip0_1_963">
<rect width="118.717" height="36" fill="white" transform="translate(0.276794)"/>
</clipPath>
</defs>
</svg>
