<svg width="740" height="473" viewBox="0 0 740 473" fill="none" xmlns="http://www.w3.org/2000/svg">
<g clip-path="url(#clip0_1_2237)">
<rect x="0.5" y="0.543701" width="739" height="472" rx="27" fill="#13131A"/>
<mask id="mask0_1_2237" style="mask-type:alpha" maskUnits="userSpaceOnUse" x="0" y="361" width="740" height="112">
<rect x="0.5" y="361.544" width="739" height="111" fill="url(#paint0_radial_1_2237)"/>
</mask>
<g mask="url(#mask0_1_2237)">
<circle opacity="0.84" cx="4.35242" cy="380.544" r="2" fill="white"/>
<circle opacity="0.4" cx="16.3524" cy="380.544" r="2" fill="white"/>
<circle opacity="0.2" cx="28.3524" cy="380.544" r="2" fill="#C668FF"/>
<circle opacity="0.18" cx="40.3524" cy="380.544" r="2" fill="#C668FF"/>
<circle opacity="0.58" cx="52.3524" cy="380.544" r="2" fill="white"/>
<circle opacity="0.26" cx="64.3524" cy="380.544" r="2" fill="white"/>
<circle opacity="0.1" cx="76.3524" cy="380.544" r="2" fill="white"/>
<circle opacity="0.65" cx="88.3524" cy="380.544" r="2" fill="white"/>
<circle opacity="0.8" cx="100.352" cy="380.544" r="2" fill="white"/>
<circle opacity="0.24" cx="112.352" cy="380.544" r="2" fill="#C668FF"/>
<circle opacity="0.43" cx="124.352" cy="380.544" r="2" fill="#C668FF"/>
<circle opacity="0.97" cx="136.352" cy="380.544" r="2" fill="white"/>
<circle opacity="0.99" cx="148.352" cy="380.544" r="2" fill="white"/>
<circle opacity="0.38" cx="160.352" cy="380.544" r="2" fill="white"/>
<circle opacity="0.82" cx="172.352" cy="380.544" r="2" fill="#C668FF"/>
<circle opacity="0.42" cx="184.352" cy="380.544" r="2" fill="#C668FF"/>
<circle opacity="0.69" cx="196.352" cy="380.544" r="2" fill="#C668FF"/>
<circle opacity="0.63" cx="208.352" cy="380.544" r="2" fill="white"/>
<circle opacity="0.05" cx="220.352" cy="380.544" r="2" fill="#C668FF"/>
<circle opacity="0.29" cx="232.352" cy="380.544" r="2" fill="#C668FF"/>
<circle opacity="0.86" cx="244.352" cy="380.544" r="2" fill="white"/>
<circle opacity="0.77" cx="256.352" cy="380.544" r="2" fill="#C668FF"/>
<circle opacity="0.98" cx="268.352" cy="380.544" r="2" fill="#C668FF"/>
<circle opacity="0.29" cx="280.352" cy="380.544" r="2" fill="white"/>
<circle opacity="0.41" cx="292.352" cy="380.544" r="2" fill="white"/>
<circle opacity="0.07" cx="304.352" cy="380.544" r="2" fill="#C668FF"/>
<circle opacity="0.86" cx="316.352" cy="380.544" r="2" fill="#C668FF"/>
<circle opacity="0.97" cx="328.352" cy="380.544" r="2" fill="#C668FF"/>
<circle opacity="0.28" cx="340.352" cy="380.544" r="2" fill="white"/>
<circle opacity="0.95" cx="352.352" cy="380.544" r="2" fill="#C668FF"/>
<circle opacity="0.83" cx="364.352" cy="380.544" r="2" fill="#C668FF"/>
<circle opacity="0.63" cx="376.352" cy="380.544" r="2" fill="#C668FF"/>
<circle cx="388.352" cy="380.544" r="2" fill="#C668FF"/>
<circle opacity="0.94" cx="400.352" cy="380.544" r="2" fill="#C668FF"/>
<circle opacity="0.53" cx="412.352" cy="380.544" r="2" fill="#C668FF"/>
<circle opacity="0.07" cx="424.352" cy="380.544" r="2" fill="#C668FF"/>
<circle opacity="0.98" cx="436.352" cy="380.544" r="2" fill="#C668FF"/>
<circle opacity="0.78" cx="448.352" cy="380.544" r="2" fill="white"/>
<circle opacity="0.36" cx="460.352" cy="380.544" r="2" fill="#C668FF"/>
<circle opacity="0.51" cx="472.352" cy="380.544" r="2" fill="white"/>
<circle opacity="0.52" cx="484.352" cy="380.544" r="2" fill="white"/>
<circle opacity="0.31" cx="496.352" cy="380.544" r="2" fill="#C668FF"/>
<circle opacity="0.07" cx="508.352" cy="380.544" r="2" fill="#C668FF"/>
<circle opacity="0.54" cx="520.352" cy="380.544" r="2" fill="white"/>
<circle opacity="0.85" cx="532.352" cy="380.544" r="2" fill="white"/>
<circle opacity="0.69" cx="544.352" cy="380.544" r="2" fill="white"/>
<circle opacity="0.46" cx="556.352" cy="380.544" r="2" fill="#C668FF"/>
<circle opacity="0.97" cx="568.352" cy="380.544" r="2" fill="white"/>
<circle opacity="0.33" cx="580.352" cy="380.544" r="2" fill="white"/>
<circle opacity="0.96" cx="592.352" cy="380.544" r="2" fill="#C668FF"/>
<circle opacity="0.34" cx="604.352" cy="380.544" r="2" fill="#C668FF"/>
<circle opacity="0.12" cx="616.352" cy="380.544" r="2" fill="white"/>
<circle opacity="0.19" cx="628.352" cy="380.544" r="2" fill="#C668FF"/>
<circle opacity="0.62" cx="640.352" cy="380.544" r="2" fill="#C668FF"/>
<circle opacity="0.12" cx="652.352" cy="380.544" r="2" fill="white"/>
<circle opacity="0.58" cx="664.352" cy="380.544" r="2" fill="white"/>
<circle opacity="0.54" cx="676.352" cy="380.544" r="2" fill="#C668FF"/>
<circle opacity="0.67" cx="688.352" cy="380.544" r="2" fill="#C668FF"/>
<circle opacity="0.82" cx="700.352" cy="380.544" r="2" fill="white"/>
<circle opacity="0.36" cx="712.352" cy="380.544" r="2" fill="#C668FF"/>
<circle opacity="0.23" cx="724.352" cy="380.544" r="2" fill="white"/>
<circle opacity="0.13" cx="736.352" cy="380.544" r="2" fill="#C668FF"/>
<circle opacity="0.63" cx="4.35242" cy="392.544" r="2" fill="#C668FF"/>
<circle opacity="0.64" cx="16.3524" cy="392.544" r="2" fill="white"/>
<circle opacity="0.43" cx="28.3524" cy="392.544" r="2" fill="#C668FF"/>
<circle opacity="0.05" cx="40.3524" cy="392.544" r="2" fill="#C668FF"/>
<circle opacity="0.05" cx="52.3524" cy="392.544" r="2" fill="#C668FF"/>
<circle opacity="0.45" cx="64.3524" cy="392.544" r="2" fill="white"/>
<circle opacity="0.45" cx="76.3524" cy="392.544" r="2" fill="white"/>
<circle opacity="0.94" cx="88.3524" cy="392.544" r="2" fill="#C668FF"/>
<circle opacity="0.64" cx="100.352" cy="392.544" r="2" fill="white"/>
<circle opacity="0.64" cx="112.352" cy="392.544" r="2" fill="#C668FF"/>
<circle opacity="0.9" cx="124.352" cy="392.544" r="2" fill="white"/>
<circle opacity="0.87" cx="148.352" cy="392.544" r="2" fill="#C668FF"/>
<circle opacity="0.26" cx="160.352" cy="392.544" r="2" fill="white"/>
<circle opacity="0.71" cx="172.352" cy="392.544" r="2" fill="#C668FF"/>
<circle opacity="0.2" cx="184.352" cy="392.544" r="2" fill="white"/>
<circle opacity="0.19" cx="196.352" cy="392.544" r="2" fill="white"/>
<circle opacity="0.11" cx="208.352" cy="392.544" r="2" fill="#C668FF"/>
<circle opacity="0.47" cx="220.352" cy="392.544" r="2" fill="#C668FF"/>
<circle opacity="0.86" cx="232.352" cy="392.544" r="2" fill="#C668FF"/>
<circle opacity="0.58" cx="244.352" cy="392.544" r="2" fill="white"/>
<circle opacity="0.67" cx="256.352" cy="392.544" r="2" fill="white"/>
<circle opacity="0.51" cx="268.352" cy="392.544" r="2" fill="#C668FF"/>
<circle opacity="0.52" cx="280.352" cy="392.544" r="2" fill="white"/>
<circle opacity="0.55" cx="292.352" cy="392.544" r="2" fill="#C668FF"/>
<circle opacity="0.28" cx="304.352" cy="392.544" r="2" fill="#C668FF"/>
<circle opacity="0.24" cx="316.352" cy="392.544" r="2" fill="white"/>
<circle opacity="0.1" cx="328.352" cy="392.544" r="2" fill="#C668FF"/>
<circle opacity="0.44" cx="340.352" cy="392.544" r="2" fill="#C668FF"/>
<circle opacity="0.47" cx="352.352" cy="392.544" r="2" fill="white"/>
<circle opacity="0.24" cx="364.352" cy="392.544" r="2" fill="#C668FF"/>
<circle opacity="0.75" cx="376.352" cy="392.544" r="2" fill="white"/>
<circle opacity="0.05" cx="388.352" cy="392.544" r="2" fill="#C668FF"/>
<circle opacity="0.56" cx="400.352" cy="392.544" r="2" fill="white"/>
<circle opacity="0.87" cx="412.352" cy="392.544" r="2" fill="#C668FF"/>
<circle opacity="0.53" cx="424.352" cy="392.544" r="2" fill="white"/>
<circle opacity="0.28" cx="436.352" cy="392.544" r="2" fill="#C668FF"/>
<circle opacity="0.51" cx="448.352" cy="392.544" r="2" fill="#C668FF"/>
<circle opacity="0.43" cx="460.352" cy="392.544" r="2" fill="white"/>
<circle opacity="0.37" cx="472.352" cy="392.544" r="2" fill="white"/>
<circle opacity="0.26" cx="484.352" cy="392.544" r="2" fill="#C668FF"/>
<circle opacity="0.11" cx="496.352" cy="392.544" r="2" fill="white"/>
<circle opacity="0.86" cx="508.352" cy="392.544" r="2" fill="#C668FF"/>
<circle opacity="0.98" cx="520.352" cy="392.544" r="2" fill="#C668FF"/>
<circle opacity="0.45" cx="532.352" cy="392.544" r="2" fill="#C668FF"/>
<circle opacity="0.88" cx="544.352" cy="392.544" r="2" fill="#C668FF"/>
<circle opacity="0.95" cx="556.352" cy="392.544" r="2" fill="white"/>
<circle opacity="0.63" cx="568.352" cy="392.544" r="2" fill="#C668FF"/>
<circle opacity="0.36" cx="580.352" cy="392.544" r="2" fill="#C668FF"/>
<circle opacity="0.73" cx="592.352" cy="392.544" r="2" fill="white"/>
<circle opacity="0.62" cx="604.352" cy="392.544" r="2" fill="#C668FF"/>
<circle opacity="0.34" cx="616.352" cy="392.544" r="2" fill="#C668FF"/>
<circle opacity="0.41" cx="628.352" cy="392.544" r="2" fill="white"/>
<circle opacity="0.89" cx="640.352" cy="392.544" r="2" fill="#C668FF"/>
<circle opacity="0.99" cx="652.352" cy="392.544" r="2" fill="#C668FF"/>
<circle opacity="0.96" cx="664.352" cy="392.544" r="2" fill="white"/>
<circle opacity="0.94" cx="676.352" cy="392.544" r="2" fill="#C668FF"/>
<circle opacity="0.67" cx="688.352" cy="392.544" r="2" fill="white"/>
<circle opacity="0.4" cx="700.352" cy="392.544" r="2" fill="#C668FF"/>
<circle opacity="0.33" cx="712.352" cy="392.544" r="2" fill="#C668FF"/>
<circle opacity="0.18" cx="724.352" cy="392.544" r="2" fill="white"/>
<circle opacity="0.99" cx="736.352" cy="392.544" r="2" fill="white"/>
<circle opacity="0.12" cx="4.35242" cy="404.544" r="2" fill="white"/>
<circle opacity="0.23" cx="16.3524" cy="404.544" r="2" fill="white"/>
<circle opacity="0.23" cx="28.3524" cy="404.544" r="2" fill="#C668FF"/>
<circle opacity="0.58" cx="40.3524" cy="404.544" r="2" fill="#C668FF"/>
<circle opacity="0.79" cx="52.3524" cy="404.544" r="2" fill="white"/>
<circle opacity="0.42" cx="64.3524" cy="404.544" r="2" fill="white"/>
<circle opacity="0.15" cx="76.3524" cy="404.544" r="2" fill="#C668FF"/>
<circle opacity="0.26" cx="88.3524" cy="404.544" r="2" fill="white"/>
<circle opacity="0.62" cx="100.352" cy="404.544" r="2" fill="#C668FF"/>
<circle opacity="0.47" cx="112.352" cy="404.544" r="2" fill="#C668FF"/>
<circle opacity="0.07" cx="124.352" cy="404.544" r="2" fill="white"/>
<circle opacity="0.73" cx="136.352" cy="404.544" r="2" fill="white"/>
<circle opacity="0.71" cx="148.352" cy="404.544" r="2" fill="white"/>
<circle opacity="0.2" cx="160.352" cy="404.544" r="2" fill="#C668FF"/>
<circle opacity="0.63" cx="172.352" cy="404.544" r="2" fill="#C668FF"/>
<circle opacity="0.69" cx="184.352" cy="404.544" r="2" fill="#C668FF"/>
<circle opacity="0.69" cx="196.352" cy="404.544" r="2" fill="#C668FF"/>
<circle opacity="0.73" cx="208.352" cy="404.544" r="2" fill="#C668FF"/>
<circle opacity="0.74" cx="220.352" cy="404.544" r="2" fill="white"/>
<circle opacity="0.92" cx="232.352" cy="404.544" r="2" fill="#C668FF"/>
<circle opacity="0.04" cx="244.352" cy="404.544" r="2" fill="#C668FF"/>
<circle opacity="0.16" cx="256.352" cy="404.544" r="2" fill="white"/>
<circle opacity="0.42" cx="268.352" cy="404.544" r="2" fill="white"/>
<circle opacity="0.74" cx="280.352" cy="404.544" r="2" fill="white"/>
<circle opacity="0.18" cx="292.352" cy="404.544" r="2" fill="white"/>
<circle opacity="0.14" cx="304.352" cy="404.544" r="2" fill="#C668FF"/>
<circle opacity="0.31" cx="316.352" cy="404.544" r="2" fill="#C668FF"/>
<circle opacity="0.23" cx="328.352" cy="404.544" r="2" fill="white"/>
<circle opacity="0.53" cx="352.352" cy="404.544" r="2" fill="white"/>
<circle opacity="0.05" cx="364.352" cy="404.544" r="2" fill="white"/>
<circle opacity="0.08" cx="376.352" cy="404.544" r="2" fill="#C668FF"/>
<circle opacity="0.19" cx="388.352" cy="404.544" r="2" fill="#C668FF"/>
<circle opacity="0.21" cx="400.352" cy="404.544" r="2" fill="white"/>
<circle opacity="0.84" cx="412.352" cy="404.544" r="2" fill="white"/>
<circle opacity="0.55" cx="424.352" cy="404.544" r="2" fill="#C668FF"/>
<circle opacity="0.21" cx="436.352" cy="404.544" r="2" fill="white"/>
<circle opacity="0.47" cx="448.352" cy="404.544" r="2" fill="#C668FF"/>
<circle opacity="0.77" cx="460.352" cy="404.544" r="2" fill="#C668FF"/>
<circle opacity="0.99" cx="472.352" cy="404.544" r="2" fill="#C668FF"/>
<circle opacity="0.91" cx="484.352" cy="404.544" r="2" fill="white"/>
<circle opacity="0.08" cx="496.352" cy="404.544" r="2" fill="white"/>
<circle opacity="0.05" cx="508.352" cy="404.544" r="2" fill="white"/>
<circle opacity="0.95" cx="520.352" cy="404.544" r="2" fill="#C668FF"/>
<circle opacity="0.9" cx="532.352" cy="404.544" r="2" fill="white"/>
<circle opacity="0.85" cx="544.352" cy="404.544" r="2" fill="#C668FF"/>
<circle opacity="0.63" cx="556.352" cy="404.544" r="2" fill="#C668FF"/>
<circle opacity="0.55" cx="568.352" cy="404.544" r="2" fill="white"/>
<circle opacity="0.61" cx="580.352" cy="404.544" r="2" fill="#C668FF"/>
<circle opacity="0.29" cx="604.352" cy="404.544" r="2" fill="white"/>
<circle opacity="0.43" cx="616.352" cy="404.544" r="2" fill="white"/>
<circle opacity="0.28" cx="628.352" cy="404.544" r="2" fill="#C668FF"/>
<circle opacity="0.59" cx="640.352" cy="404.544" r="2" fill="#C668FF"/>
<circle opacity="0.9" cx="652.352" cy="404.544" r="2" fill="white"/>
<circle opacity="0.19" cx="664.352" cy="404.544" r="2" fill="#C668FF"/>
<circle opacity="0.05" cx="676.352" cy="404.544" r="2" fill="white"/>
<circle opacity="0.15" cx="688.352" cy="404.544" r="2" fill="white"/>
<circle opacity="0.62" cx="700.352" cy="404.544" r="2" fill="#C668FF"/>
<circle opacity="0.06" cx="712.352" cy="404.544" r="2" fill="#C668FF"/>
<circle opacity="0.07" cx="724.352" cy="404.544" r="2" fill="#C668FF"/>
<circle opacity="0.75" cx="736.352" cy="404.544" r="2" fill="#C668FF"/>
<circle opacity="0.79" cx="4.35242" cy="416.544" r="2" fill="white"/>
<circle opacity="0.1" cx="16.3524" cy="416.544" r="2" fill="white"/>
<circle opacity="0.81" cx="28.3524" cy="416.544" r="2" fill="#C668FF"/>
<circle opacity="0.51" cx="40.3524" cy="416.544" r="2" fill="white"/>
<circle opacity="0.14" cx="52.3524" cy="416.544" r="2" fill="white"/>
<circle opacity="0.19" cx="76.3524" cy="416.544" r="2" fill="white"/>
<circle opacity="0.3" cx="88.3524" cy="416.544" r="2" fill="white"/>
<circle opacity="0.85" cx="100.352" cy="416.544" r="2" fill="#C668FF"/>
<circle opacity="0.77" cx="112.352" cy="416.544" r="2" fill="#C668FF"/>
<circle opacity="0.81" cx="124.352" cy="416.544" r="2" fill="#C668FF"/>
<circle opacity="0.53" cx="136.352" cy="416.544" r="2" fill="white"/>
<circle cx="148.352" cy="416.544" r="2" fill="white"/>
<circle opacity="0.54" cx="160.352" cy="416.544" r="2" fill="white"/>
<circle opacity="0.13" cx="172.352" cy="416.544" r="2" fill="white"/>
<circle opacity="0.57" cx="184.352" cy="416.544" r="2" fill="#C668FF"/>
<circle opacity="0.67" cx="196.352" cy="416.544" r="2" fill="white"/>
<circle opacity="0.01" cx="208.352" cy="416.544" r="2" fill="white"/>
<circle opacity="0.85" cx="220.352" cy="416.544" r="2" fill="#C668FF"/>
<circle opacity="0.13" cx="244.352" cy="416.544" r="2" fill="white"/>
<circle opacity="0.01" cx="256.352" cy="416.544" r="2" fill="white"/>
<circle opacity="0.62" cx="268.352" cy="416.544" r="2" fill="white"/>
<circle opacity="0.96" cx="280.352" cy="416.544" r="2" fill="#C668FF"/>
<circle opacity="0.55" cx="292.352" cy="416.544" r="2" fill="white"/>
<circle opacity="0.22" cx="304.352" cy="416.544" r="2" fill="white"/>
<circle opacity="0.85" cx="316.352" cy="416.544" r="2" fill="white"/>
<circle opacity="0.95" cx="328.352" cy="416.544" r="2" fill="#C668FF"/>
<circle opacity="0.9" cx="340.352" cy="416.544" r="2" fill="#C668FF"/>
<circle opacity="0.63" cx="352.352" cy="416.544" r="2" fill="white"/>
<circle opacity="0.25" cx="364.352" cy="416.544" r="2" fill="#C668FF"/>
<circle opacity="0.33" cx="376.352" cy="416.544" r="2" fill="#C668FF"/>
<circle opacity="0.42" cx="388.352" cy="416.544" r="2" fill="white"/>
<circle opacity="0.53" cx="400.352" cy="416.544" r="2" fill="white"/>
<circle opacity="0.64" cx="412.352" cy="416.544" r="2" fill="#C668FF"/>
<circle opacity="0.12" cx="424.352" cy="416.544" r="2" fill="#C668FF"/>
<circle opacity="0.58" cx="436.352" cy="416.544" r="2" fill="#C668FF"/>
<circle opacity="0.99" cx="448.352" cy="416.544" r="2" fill="#C668FF"/>
<circle opacity="0.92" cx="460.352" cy="416.544" r="2" fill="#C668FF"/>
<circle opacity="0.86" cx="472.352" cy="416.544" r="2" fill="#C668FF"/>
<circle opacity="0.04" cx="484.352" cy="416.544" r="2" fill="#C668FF"/>
<circle cx="496.352" cy="416.544" r="2" fill="white"/>
<circle opacity="0.83" cx="508.352" cy="416.544" r="2" fill="#C668FF"/>
<circle opacity="0.17" cx="520.352" cy="416.544" r="2" fill="white"/>
<circle opacity="0.01" cx="532.352" cy="416.544" r="2" fill="#C668FF"/>
<circle opacity="0.98" cx="544.352" cy="416.544" r="2" fill="#C668FF"/>
<circle opacity="0.65" cx="556.352" cy="416.544" r="2" fill="#C668FF"/>
<circle opacity="0.12" cx="568.352" cy="416.544" r="2" fill="#C668FF"/>
<circle opacity="0.17" cx="580.352" cy="416.544" r="2" fill="#C668FF"/>
<circle opacity="0.44" cx="592.352" cy="416.544" r="2" fill="#C668FF"/>
<circle opacity="0.69" cx="604.352" cy="416.544" r="2" fill="white"/>
<circle opacity="0.1" cx="616.352" cy="416.544" r="2" fill="white"/>
<circle opacity="0.14" cx="628.352" cy="416.544" r="2" fill="white"/>
<circle opacity="0.35" cx="640.352" cy="416.544" r="2" fill="#C668FF"/>
<circle opacity="0.34" cx="652.352" cy="416.544" r="2" fill="#C668FF"/>
<circle opacity="0.44" cx="664.352" cy="416.544" r="2" fill="#C668FF"/>
<circle opacity="0.46" cx="676.352" cy="416.544" r="2" fill="white"/>
<circle opacity="0.86" cx="688.352" cy="416.544" r="2" fill="#C668FF"/>
<circle cx="700.352" cy="416.544" r="2" fill="white"/>
<circle opacity="0.92" cx="712.352" cy="416.544" r="2" fill="#C668FF"/>
<circle opacity="0.58" cx="724.352" cy="416.544" r="2" fill="#C668FF"/>
<circle opacity="0.17" cx="736.352" cy="416.544" r="2" fill="#C668FF"/>
<circle opacity="0.71" cx="4.35242" cy="428.544" r="2" fill="#C668FF"/>
<circle opacity="0.78" cx="16.3524" cy="428.544" r="2" fill="white"/>
<circle opacity="0.82" cx="28.3524" cy="428.544" r="2" fill="#C668FF"/>
<circle opacity="0.15" cx="40.3524" cy="428.544" r="2" fill="white"/>
<circle opacity="0.82" cx="52.3524" cy="428.544" r="2" fill="#C668FF"/>
<circle opacity="0.69" cx="64.3524" cy="428.544" r="2" fill="white"/>
<circle opacity="0.37" cx="76.3524" cy="428.544" r="2" fill="white"/>
<circle opacity="0.05" cx="88.3524" cy="428.544" r="2" fill="#C668FF"/>
<circle opacity="0.18" cx="100.352" cy="428.544" r="2" fill="#C668FF"/>
<circle opacity="0.25" cx="112.352" cy="428.544" r="2" fill="white"/>
<circle opacity="0.3" cx="124.352" cy="428.544" r="2" fill="white"/>
<circle opacity="0.41" cx="136.352" cy="428.544" r="2" fill="white"/>
<circle opacity="0.49" cx="148.352" cy="428.544" r="2" fill="#C668FF"/>
<circle opacity="0.29" cx="160.352" cy="428.544" r="2" fill="white"/>
<circle opacity="0.92" cx="172.352" cy="428.544" r="2" fill="#C668FF"/>
<circle opacity="0.33" cx="184.352" cy="428.544" r="2" fill="white"/>
<circle opacity="0.9" cx="196.352" cy="428.544" r="2" fill="#C668FF"/>
<circle opacity="0.9" cx="208.352" cy="428.544" r="2" fill="white"/>
<circle opacity="0.93" cx="220.352" cy="428.544" r="2" fill="#C668FF"/>
<circle opacity="0.55" cx="232.352" cy="428.544" r="2" fill="#C668FF"/>
<circle opacity="0.38" cx="244.352" cy="428.544" r="2" fill="#C668FF"/>
<circle opacity="0.71" cx="256.352" cy="428.544" r="2" fill="#C668FF"/>
<circle opacity="0.88" cx="268.352" cy="428.544" r="2" fill="white"/>
<circle opacity="0.58" cx="280.352" cy="428.544" r="2" fill="#C668FF"/>
<circle opacity="0.41" cx="292.352" cy="428.544" r="2" fill="white"/>
<circle opacity="0.7" cx="304.352" cy="428.544" r="2" fill="#C668FF"/>
<circle opacity="0.6" cx="316.352" cy="428.544" r="2" fill="#C668FF"/>
<circle opacity="0.61" cx="328.352" cy="428.544" r="2" fill="#C668FF"/>
<circle opacity="0.1" cx="340.352" cy="428.544" r="2" fill="white"/>
<circle opacity="0.19" cx="352.352" cy="428.544" r="2" fill="white"/>
<circle opacity="0.26" cx="364.352" cy="428.544" r="2" fill="#C668FF"/>
<circle opacity="0.69" cx="376.352" cy="428.544" r="2" fill="white"/>
<circle opacity="0.86" cx="400.352" cy="428.544" r="2" fill="#C668FF"/>
<circle opacity="0.41" cx="412.352" cy="428.544" r="2" fill="white"/>
<circle opacity="0.86" cx="424.352" cy="428.544" r="2" fill="#C668FF"/>
<circle opacity="0.69" cx="436.352" cy="428.544" r="2" fill="#C668FF"/>
<circle opacity="0.69" cx="448.352" cy="428.544" r="2" fill="white"/>
<circle opacity="0.73" cx="460.352" cy="428.544" r="2" fill="white"/>
<circle opacity="0.85" cx="472.352" cy="428.544" r="2" fill="#C668FF"/>
<circle opacity="0.47" cx="484.352" cy="428.544" r="2" fill="#C668FF"/>
<circle opacity="0.76" cx="496.352" cy="428.544" r="2" fill="#C668FF"/>
<circle opacity="0.29" cx="508.352" cy="428.544" r="2" fill="white"/>
<circle opacity="0.01" cx="520.352" cy="428.544" r="2" fill="white"/>
<circle opacity="0.43" cx="532.352" cy="428.544" r="2" fill="#C668FF"/>
<circle opacity="0.53" cx="544.352" cy="428.544" r="2" fill="#C668FF"/>
<circle opacity="0.56" cx="556.352" cy="428.544" r="2" fill="#C668FF"/>
<circle opacity="0.46" cx="568.352" cy="428.544" r="2" fill="#C668FF"/>
<circle opacity="0.22" cx="580.352" cy="428.544" r="2" fill="#C668FF"/>
<circle opacity="0.01" cx="592.352" cy="428.544" r="2" fill="#C668FF"/>
<circle opacity="0.85" cx="604.352" cy="428.544" r="2" fill="#C668FF"/>
<circle opacity="0.35" cx="616.352" cy="428.544" r="2" fill="white"/>
<circle opacity="0.49" cx="628.352" cy="428.544" r="2" fill="white"/>
<circle opacity="0.03" cx="640.352" cy="428.544" r="2" fill="white"/>
<circle opacity="0.94" cx="652.352" cy="428.544" r="2" fill="#C668FF"/>
<circle opacity="0.16" cx="664.352" cy="428.544" r="2" fill="white"/>
<circle opacity="0.78" cx="676.352" cy="428.544" r="2" fill="white"/>
<circle opacity="0.22" cx="688.352" cy="428.544" r="2" fill="#C668FF"/>
<circle opacity="0.08" cx="700.352" cy="428.544" r="2" fill="#C668FF"/>
<circle opacity="0.08" cx="712.352" cy="428.544" r="2" fill="#C668FF"/>
<circle opacity="0.87" cx="724.352" cy="428.544" r="2" fill="#C668FF"/>
<circle opacity="0.98" cx="736.352" cy="428.544" r="2" fill="#C668FF"/>
<circle opacity="0.96" cx="4.35242" cy="440.544" r="2" fill="white"/>
<circle opacity="0.71" cx="16.3524" cy="440.544" r="2" fill="#C668FF"/>
<circle opacity="0.16" cx="28.3524" cy="440.544" r="2" fill="#C668FF"/>
<circle opacity="0.38" cx="40.3524" cy="440.544" r="2" fill="white"/>
<circle opacity="0.71" cx="52.3524" cy="440.544" r="2" fill="white"/>
<circle opacity="0.14" cx="64.3524" cy="440.544" r="2" fill="white"/>
<circle opacity="0.03" cx="76.3524" cy="440.544" r="2" fill="#C668FF"/>
<circle opacity="0.54" cx="88.3524" cy="440.544" r="2" fill="white"/>
<circle opacity="0.28" cx="100.352" cy="440.544" r="2" fill="#C668FF"/>
<circle opacity="0.07" cx="112.352" cy="440.544" r="2" fill="#C668FF"/>
<circle opacity="0.71" cx="124.352" cy="440.544" r="2" fill="#C668FF"/>
<circle opacity="0.9" cx="136.352" cy="440.544" r="2" fill="white"/>
<circle opacity="0.13" cx="148.352" cy="440.544" r="2" fill="white"/>
<circle opacity="0.27" cx="160.352" cy="440.544" r="2" fill="white"/>
<circle opacity="0.98" cx="172.352" cy="440.544" r="2" fill="#C668FF"/>
<circle opacity="0.98" cx="184.352" cy="440.544" r="2" fill="#C668FF"/>
<circle opacity="0.27" cx="196.352" cy="440.544" r="2" fill="white"/>
<circle opacity="0.28" cx="208.352" cy="440.544" r="2" fill="white"/>
<circle cx="220.352" cy="440.544" r="2" fill="#C668FF"/>
<circle opacity="0.86" cx="232.352" cy="440.544" r="2" fill="white"/>
<circle opacity="0.03" cx="244.352" cy="440.544" r="2" fill="#C668FF"/>
<circle opacity="0.31" cx="256.352" cy="440.544" r="2" fill="white"/>
<circle opacity="0.23" cx="268.352" cy="440.544" r="2" fill="white"/>
<circle opacity="0.84" cx="280.352" cy="440.544" r="2" fill="white"/>
<circle opacity="0.7" cx="292.352" cy="440.544" r="2" fill="white"/>
<circle opacity="0.22" cx="304.352" cy="440.544" r="2" fill="#C668FF"/>
<circle opacity="0.04" cx="316.352" cy="440.544" r="2" fill="white"/>
<circle opacity="0.56" cx="328.352" cy="440.544" r="2" fill="white"/>
<circle opacity="0.7" cx="340.352" cy="440.544" r="2" fill="#C668FF"/>
<circle opacity="0.01" cx="352.352" cy="440.544" r="2" fill="white"/>
<circle opacity="0.69" cx="364.352" cy="440.544" r="2" fill="#C668FF"/>
<circle opacity="0.53" cx="388.352" cy="440.544" r="2" fill="white"/>
<circle opacity="0.09" cx="400.352" cy="440.544" r="2" fill="white"/>
<circle opacity="0.32" cx="412.352" cy="440.544" r="2" fill="#C668FF"/>
<circle opacity="0.67" cx="424.352" cy="440.544" r="2" fill="white"/>
<circle opacity="0.59" cx="436.352" cy="440.544" r="2" fill="#C668FF"/>
<circle opacity="0.56" cx="448.352" cy="440.544" r="2" fill="#C668FF"/>
<circle opacity="0.7" cx="460.352" cy="440.544" r="2" fill="white"/>
<circle opacity="0.68" cx="472.352" cy="440.544" r="2" fill="white"/>
<circle opacity="0.52" cx="484.352" cy="440.544" r="2" fill="white"/>
<circle opacity="0.21" cx="496.352" cy="440.544" r="2" fill="#C668FF"/>
<circle opacity="0.53" cx="508.352" cy="440.544" r="2" fill="#C668FF"/>
<circle opacity="0.32" cx="520.352" cy="440.544" r="2" fill="#C668FF"/>
<circle opacity="0.52" cx="532.352" cy="440.544" r="2" fill="#C668FF"/>
<circle opacity="0.77" cx="544.352" cy="440.544" r="2" fill="white"/>
<circle opacity="0.92" cx="556.352" cy="440.544" r="2" fill="#C668FF"/>
<circle opacity="0.13" cx="568.352" cy="440.544" r="2" fill="#C668FF"/>
<circle opacity="0.48" cx="592.352" cy="440.544" r="2" fill="#C668FF"/>
<circle cx="604.352" cy="440.544" r="2" fill="#C668FF"/>
<circle opacity="0.22" cx="616.352" cy="440.544" r="2" fill="white"/>
<circle opacity="0.3" cx="628.352" cy="440.544" r="2" fill="white"/>
<circle opacity="0.62" cx="640.352" cy="440.544" r="2" fill="#C668FF"/>
<circle opacity="0.56" cx="652.352" cy="440.544" r="2" fill="white"/>
<circle opacity="0.01" cx="664.352" cy="440.544" r="2" fill="#C668FF"/>
<circle opacity="0.81" cx="676.352" cy="440.544" r="2" fill="white"/>
<circle opacity="0.46" cx="688.352" cy="440.544" r="2" fill="white"/>
<circle opacity="0.14" cx="700.352" cy="440.544" r="2" fill="white"/>
<circle opacity="0.64" cx="712.352" cy="440.544" r="2" fill="#C668FF"/>
<circle opacity="0.96" cx="724.352" cy="440.544" r="2" fill="white"/>
<circle opacity="0.54" cx="736.352" cy="440.544" r="2" fill="#C668FF"/>
<circle opacity="0.28" cx="4.35242" cy="452.544" r="2" fill="#C668FF"/>
<circle opacity="0.22" cx="16.3524" cy="452.544" r="2" fill="white"/>
<circle opacity="0.97" cx="28.3524" cy="452.544" r="2" fill="#C668FF"/>
<circle opacity="0.09" cx="40.3524" cy="452.544" r="2" fill="white"/>
<circle opacity="0.49" cx="52.3524" cy="452.544" r="2" fill="#C668FF"/>
<circle opacity="0.02" cx="64.3524" cy="452.544" r="2" fill="#C668FF"/>
<circle opacity="0.46" cx="76.3524" cy="452.544" r="2" fill="white"/>
<circle opacity="0.45" cx="88.3524" cy="452.544" r="2" fill="#C668FF"/>
<circle opacity="0.36" cx="100.352" cy="452.544" r="2" fill="white"/>
<circle opacity="0.25" cx="112.352" cy="452.544" r="2" fill="white"/>
<circle opacity="0.07" cx="124.352" cy="452.544" r="2" fill="#C668FF"/>
<circle opacity="0.64" cx="136.352" cy="452.544" r="2" fill="#C668FF"/>
<circle opacity="0.09" cx="148.352" cy="452.544" r="2" fill="#C668FF"/>
<circle opacity="0.16" cx="160.352" cy="452.544" r="2" fill="#C668FF"/>
<circle opacity="0.49" cx="172.352" cy="452.544" r="2" fill="#C668FF"/>
<circle opacity="0.72" cx="184.352" cy="452.544" r="2" fill="#C668FF"/>
<circle opacity="0.32" cx="196.352" cy="452.544" r="2" fill="white"/>
<circle opacity="0.55" cx="208.352" cy="452.544" r="2" fill="#C668FF"/>
<circle opacity="0.16" cx="220.352" cy="452.544" r="2" fill="white"/>
<circle opacity="0.82" cx="232.352" cy="452.544" r="2" fill="#C668FF"/>
<circle opacity="0.87" cx="244.352" cy="452.544" r="2" fill="#C668FF"/>
<circle opacity="0.87" cx="256.352" cy="452.544" r="2" fill="#C668FF"/>
<circle opacity="0.68" cx="268.352" cy="452.544" r="2" fill="white"/>
<circle opacity="0.29" cx="280.352" cy="452.544" r="2" fill="white"/>
<circle opacity="0.32" cx="292.352" cy="452.544" r="2" fill="white"/>
<circle opacity="0.43" cx="304.352" cy="452.544" r="2" fill="#C668FF"/>
<circle opacity="0.62" cx="316.352" cy="452.544" r="2" fill="white"/>
<circle opacity="0.58" cx="328.352" cy="452.544" r="2" fill="#C668FF"/>
<circle opacity="0.63" cx="340.352" cy="452.544" r="2" fill="white"/>
<circle opacity="0.02" cx="352.352" cy="452.544" r="2" fill="white"/>
<circle opacity="0.34" cx="364.352" cy="452.544" r="2" fill="white"/>
<circle opacity="0.54" cx="376.352" cy="452.544" r="2" fill="#C668FF"/>
<circle opacity="0.95" cx="388.352" cy="452.544" r="2" fill="white"/>
<circle opacity="0.51" cx="400.352" cy="452.544" r="2" fill="#C668FF"/>
<circle opacity="0.33" cx="412.352" cy="452.544" r="2" fill="#C668FF"/>
<circle opacity="0.02" cx="424.352" cy="452.544" r="2" fill="white"/>
<circle opacity="0.22" cx="436.352" cy="452.544" r="2" fill="#C668FF"/>
<circle opacity="0.63" cx="448.352" cy="452.544" r="2" fill="#C668FF"/>
<circle opacity="0.72" cx="460.352" cy="452.544" r="2" fill="white"/>
<circle opacity="0.65" cx="472.352" cy="452.544" r="2" fill="#C668FF"/>
<circle opacity="0.07" cx="484.352" cy="452.544" r="2" fill="#C668FF"/>
<circle opacity="0.63" cx="496.352" cy="452.544" r="2" fill="white"/>
<circle opacity="0.26" cx="508.352" cy="452.544" r="2" fill="#C668FF"/>
<circle opacity="0.06" cx="520.352" cy="452.544" r="2" fill="#C668FF"/>
<circle opacity="0.84" cx="532.352" cy="452.544" r="2" fill="white"/>
<circle opacity="0.98" cx="544.352" cy="452.544" r="2" fill="white"/>
<circle opacity="0.71" cx="556.352" cy="452.544" r="2" fill="white"/>
<circle opacity="0.45" cx="568.352" cy="452.544" r="2" fill="white"/>
<circle opacity="0.55" cx="580.352" cy="452.544" r="2" fill="#C668FF"/>
<circle opacity="0.36" cx="592.352" cy="452.544" r="2" fill="#C668FF"/>
<circle opacity="0.48" cx="604.352" cy="452.544" r="2" fill="#C668FF"/>
<circle opacity="0.75" cx="616.352" cy="452.544" r="2" fill="#C668FF"/>
<circle opacity="0.33" cx="628.352" cy="452.544" r="2" fill="#C668FF"/>
<circle opacity="0.47" cx="640.352" cy="452.544" r="2" fill="white"/>
<circle opacity="0.42" cx="652.352" cy="452.544" r="2" fill="white"/>
<circle opacity="0.84" cx="664.352" cy="452.544" r="2" fill="#C668FF"/>
<circle opacity="0.18" cx="676.352" cy="452.544" r="2" fill="#C668FF"/>
<circle opacity="0.91" cx="688.352" cy="452.544" r="2" fill="#C668FF"/>
<circle opacity="0.17" cx="700.352" cy="452.544" r="2" fill="#C668FF"/>
<circle opacity="0.46" cx="712.352" cy="452.544" r="2" fill="#C668FF"/>
<circle opacity="0.33" cx="724.352" cy="452.544" r="2" fill="white"/>
<circle opacity="0.56" cx="736.352" cy="452.544" r="2" fill="white"/>
<circle opacity="0.86" cx="4.35242" cy="464.544" r="2" fill="#C668FF"/>
<circle opacity="0.98" cx="16.3524" cy="464.544" r="2" fill="#C668FF"/>
<circle opacity="0.93" cx="28.3524" cy="464.544" r="2" fill="white"/>
<circle opacity="0.66" cx="40.3524" cy="464.544" r="2" fill="white"/>
<circle opacity="0.93" cx="52.3524" cy="464.544" r="2" fill="#C668FF"/>
<circle opacity="0.72" cx="64.3524" cy="464.544" r="2" fill="white"/>
<circle opacity="0.57" cx="76.3524" cy="464.544" r="2" fill="#C668FF"/>
<circle opacity="0.52" cx="88.3524" cy="464.544" r="2" fill="#C668FF"/>
<circle opacity="0.8" cx="100.352" cy="464.544" r="2" fill="white"/>
<circle opacity="0.01" cx="112.352" cy="464.544" r="2" fill="#C668FF"/>
<circle opacity="0.48" cx="124.352" cy="464.544" r="2" fill="white"/>
<circle opacity="0.21" cx="136.352" cy="464.544" r="2" fill="#C668FF"/>
<circle opacity="0.06" cx="148.352" cy="464.544" r="2" fill="white"/>
<circle opacity="0.25" cx="160.352" cy="464.544" r="2" fill="#C668FF"/>
<circle opacity="0.22" cx="172.352" cy="464.544" r="2" fill="#C668FF"/>
<circle opacity="0.61" cx="184.352" cy="464.544" r="2" fill="white"/>
<circle opacity="0.25" cx="196.352" cy="464.544" r="2" fill="white"/>
<circle opacity="0.47" cx="208.352" cy="464.544" r="2" fill="white"/>
<circle opacity="0.02" cx="220.352" cy="464.544" r="2" fill="white"/>
<circle opacity="0.94" cx="232.352" cy="464.544" r="2" fill="white"/>
<circle opacity="0.72" cx="244.352" cy="464.544" r="2" fill="#C668FF"/>
<circle opacity="0.82" cx="256.352" cy="464.544" r="2" fill="#C668FF"/>
<circle opacity="0.04" cx="268.352" cy="464.544" r="2" fill="#C668FF"/>
<circle opacity="0.8" cx="280.352" cy="464.544" r="2" fill="white"/>
<circle opacity="0.72" cx="292.352" cy="464.544" r="2" fill="#C668FF"/>
<circle opacity="0.02" cx="304.352" cy="464.544" r="2" fill="#C668FF"/>
<circle opacity="0.69" cx="316.352" cy="464.544" r="2" fill="white"/>
<circle opacity="0.73" cx="328.352" cy="464.544" r="2" fill="white"/>
<circle opacity="0.03" cx="340.352" cy="464.544" r="2" fill="white"/>
<circle cx="352.352" cy="464.544" r="2" fill="white"/>
<circle opacity="0.17" cx="364.352" cy="464.544" r="2" fill="white"/>
<circle opacity="0.45" cx="376.352" cy="464.544" r="2" fill="white"/>
<circle opacity="0.68" cx="388.352" cy="464.544" r="2" fill="#C668FF"/>
<circle opacity="0.3" cx="400.352" cy="464.544" r="2" fill="white"/>
<circle opacity="0.04" cx="412.352" cy="464.544" r="2" fill="white"/>
<circle opacity="0.41" cx="424.352" cy="464.544" r="2" fill="white"/>
<circle opacity="0.98" cx="436.352" cy="464.544" r="2" fill="#C668FF"/>
<circle opacity="0.31" cx="448.352" cy="464.544" r="2" fill="#C668FF"/>
<circle opacity="0.47" cx="460.352" cy="464.544" r="2" fill="#C668FF"/>
<circle opacity="0.14" cx="472.352" cy="464.544" r="2" fill="#C668FF"/>
<circle opacity="0.16" cx="484.352" cy="464.544" r="2" fill="white"/>
<circle opacity="0.19" cx="496.352" cy="464.544" r="2" fill="white"/>
<circle opacity="0.95" cx="508.352" cy="464.544" r="2" fill="white"/>
<circle opacity="0.7" cx="520.352" cy="464.544" r="2" fill="#C668FF"/>
<circle opacity="0.6" cx="532.352" cy="464.544" r="2" fill="white"/>
<circle opacity="0.51" cx="544.352" cy="464.544" r="2" fill="#C668FF"/>
<circle opacity="0.28" cx="556.352" cy="464.544" r="2" fill="#C668FF"/>
<circle opacity="0.53" cx="568.352" cy="464.544" r="2" fill="white"/>
<circle opacity="0.38" cx="580.352" cy="464.544" r="2" fill="#C668FF"/>
<circle opacity="0.34" cx="592.352" cy="464.544" r="2" fill="#C668FF"/>
<circle opacity="0.48" cx="604.352" cy="464.544" r="2" fill="#C668FF"/>
<circle opacity="0.56" cx="616.352" cy="464.544" r="2" fill="white"/>
<circle opacity="0.33" cx="628.352" cy="464.544" r="2" fill="#C668FF"/>
<circle opacity="0.5" cx="640.352" cy="464.544" r="2" fill="#C668FF"/>
<circle opacity="0.47" cx="652.352" cy="464.544" r="2" fill="white"/>
<circle opacity="0.46" cx="664.352" cy="464.544" r="2" fill="white"/>
<circle opacity="0.59" cx="676.352" cy="464.544" r="2" fill="white"/>
<circle opacity="0.84" cx="688.352" cy="464.544" r="2" fill="white"/>
<circle opacity="0.6" cx="700.352" cy="464.544" r="2" fill="white"/>
<circle opacity="0.21" cx="712.352" cy="464.544" r="2" fill="#C668FF"/>
<circle opacity="0.99" cx="724.352" cy="464.544" r="2" fill="#C668FF"/>
<circle opacity="0.21" cx="736.352" cy="464.544" r="2" fill="white"/>
</g>
<g filter="url(#filter0_f_1_2237)">
<path d="M185.738 468.746C189.469 453.017 173.244 422.836 164.666 409.712C254.793 428.537 448.363 465.906 501.625 464.785C568.202 463.384 663.785 536.904 631.992 529.128C600.2 521.353 531.269 575.28 484.671 585.146C438.073 595.012 410.286 651.946 412.317 675.582C414.347 699.218 320.587 594.204 299.43 561.326C278.272 528.448 159.287 531.181 122.125 510.122C84.9629 489.063 181.074 488.407 185.738 468.746Z" fill="url(#paint1_linear_1_2237)"/>
</g>
<g filter="url(#filter1_di_1_2237)">
<rect x="230.5" y="260.544" width="278" height="121" rx="60.5" fill="url(#paint2_linear_1_2237)" shape-rendering="crispEdges"/>
<rect x="229.5" y="259.544" width="280" height="123" rx="61.5" stroke="black" stroke-opacity="0.1" stroke-width="2" shape-rendering="crispEdges"/>
</g>
<rect x="186.5" y="231.544" width="357" height="178" rx="89" stroke="#E023FF" stroke-opacity="0.05" stroke-width="2"/>
<rect x="153.5" y="204.544" width="427" height="232" rx="116" stroke="#E023FF" stroke-opacity="0.05" stroke-width="2"/>
<path d="M-2.5 320.544H118.972V320.544C118.972 242.672 182.1 179.544 259.972 179.544H466.405C544.277 179.544 607.405 242.672 607.405 320.544V320.544H732.5" stroke="#E023FF" stroke-opacity="0.05" stroke-width="2"/>
<mask id="path-498-outside-1_1_2237" maskUnits="userSpaceOnUse" x="289.5" y="287.544" width="160" height="90" fill="black">
<rect fill="white" x="289.5" y="287.544" width="160" height="90"/>
<path d="M291.109 321.878L338.662 301.62V309.99L300.905 325.683L338.662 341.375V349.745L291.109 329.487V321.878ZM353.514 375.899H343.908L386.041 289.256H395.552L353.514 375.899ZM448.445 329.487L400.891 349.745V341.375L438.649 325.683L400.891 309.99V301.62L448.445 321.878V329.487Z"/>
</mask>
<path d="M291.109 321.878L338.662 301.62V309.99L300.905 325.683L338.662 341.375V349.745L291.109 329.487V321.878ZM353.514 375.899H343.908L386.041 289.256H395.552L353.514 375.899ZM448.445 329.487L400.891 349.745V341.375L438.649 325.683L400.891 309.99V301.62L448.445 321.878V329.487Z" fill="url(#paint3_linear_1_2237)"/>
<path d="M291.109 321.878L290.749 321.035L290.192 321.272V321.878H291.109ZM338.662 301.62H339.579V300.233L338.303 300.777L338.662 301.62ZM338.662 309.99L339.014 310.837L339.579 310.602V309.99H338.662ZM300.905 325.683L300.553 324.836L298.515 325.683L300.553 326.53L300.905 325.683ZM338.662 341.375H339.579V340.763L339.014 340.529L338.662 341.375ZM338.662 349.745L338.303 350.589L339.579 351.132V349.745H338.662ZM291.109 329.487H290.192V330.093L290.749 330.331L291.109 329.487ZM291.468 322.722L339.022 302.464L338.303 300.777L290.749 321.035L291.468 322.722ZM337.745 301.62V309.99H339.579V301.62H337.745ZM338.31 309.143L300.553 324.836L301.257 326.53L339.014 310.837L338.31 309.143ZM300.553 326.53L338.31 342.222L339.014 340.529L301.257 324.836L300.553 326.53ZM337.745 341.375V349.745H339.579V341.375H337.745ZM339.022 348.901L291.468 328.643L290.749 330.331L338.303 350.589L339.022 348.901ZM292.026 329.487V321.878H290.192V329.487H292.026ZM353.514 375.899V376.817H354.088L354.339 376.3L353.514 375.899ZM343.908 375.899L343.083 375.498L342.442 376.817H343.908V375.899ZM386.041 289.256V288.339H385.467L385.216 288.855L386.041 289.256ZM395.552 289.256L396.377 289.657L397.016 288.339H395.552V289.256ZM353.514 374.982H343.908V376.817H353.514V374.982ZM344.733 376.3L386.866 289.658L385.216 288.855L343.083 375.498L344.733 376.3ZM386.041 290.174H395.552V288.339H386.041V290.174ZM394.726 288.856L352.689 375.499L354.339 376.3L396.377 289.657L394.726 288.856ZM448.445 329.487L448.804 330.331L449.362 330.093V329.487H448.445ZM400.891 349.745H399.974V351.132L401.25 350.589L400.891 349.745ZM400.891 341.375L400.539 340.529L399.974 340.763V341.375H400.891ZM438.649 325.683L439.001 326.53L441.038 325.683L439.001 324.836L438.649 325.683ZM400.891 309.99H399.974V310.602L400.539 310.837L400.891 309.99ZM400.891 301.62L401.25 300.777L399.974 300.233V301.62H400.891ZM448.445 321.878H449.362V321.272L448.804 321.035L448.445 321.878ZM448.085 328.643L400.532 348.901L401.25 350.589L448.804 330.331L448.085 328.643ZM401.808 349.745V341.375H399.974V349.745H401.808ZM401.243 342.222L439.001 326.53L438.297 324.836L400.539 340.529L401.243 342.222ZM439.001 324.836L401.243 309.143L400.539 310.837L438.297 326.53L439.001 324.836ZM401.808 309.99V301.62H399.974V309.99H401.808ZM400.532 302.464L448.085 322.722L448.804 321.035L401.25 300.777L400.532 302.464ZM447.528 321.878V329.487H449.362V321.878H447.528Z" fill="url(#paint4_linear_1_2237)" mask="url(#path-498-outside-1_1_2237)"/>
</g>
<rect x="1.175" y="1.2187" width="737.65" height="470.65" rx="26.325" stroke="url(#paint5_linear_1_2237)" stroke-width="1.35"/>
<rect x="1.175" y="1.2187" width="737.65" height="470.65" rx="26.325" stroke="url(#paint6_radial_1_2237)" stroke-width="1.35"/>
<rect x="1.175" y="1.2187" width="737.65" height="470.65" rx="26.325" stroke="url(#paint7_radial_1_2237)" stroke-opacity="0.4" stroke-width="1.35"/>
<defs>
<filter id="filter0_f_1_2237" x="-136.399" y="159.712" width="1024.69" height="769.302" filterUnits="userSpaceOnUse" color-interpolation-filters="sRGB">
<feFlood flood-opacity="0" result="BackgroundImageFix"/>
<feBlend mode="normal" in="SourceGraphic" in2="BackgroundImageFix" result="shape"/>
<feGaussianBlur stdDeviation="125" result="effect1_foregroundBlur_1_2237"/>
</filter>
<filter id="filter1_di_1_2237" x="226.5" y="256.544" width="286" height="129" filterUnits="userSpaceOnUse" color-interpolation-filters="sRGB">
<feFlood flood-opacity="0" result="BackgroundImageFix"/>
<feColorMatrix in="SourceAlpha" type="matrix" values="0 0 0 0 0 0 0 0 0 0 0 0 0 0 0 0 0 0 127 0" result="hardAlpha"/>
<feMorphology radius="2" operator="dilate" in="SourceAlpha" result="effect1_dropShadow_1_2237"/>
<feOffset/>
<feComposite in2="hardAlpha" operator="out"/>
<feColorMatrix type="matrix" values="0 0 0 0 0.481725 0 0 0 0 0.0745092 0 0 0 0 1 0 0 0 0.55 0"/>
<feBlend mode="normal" in2="BackgroundImageFix" result="effect1_dropShadow_1_2237"/>
<feBlend mode="normal" in="SourceGraphic" in2="effect1_dropShadow_1_2237" result="shape"/>
<feColorMatrix in="SourceAlpha" type="matrix" values="0 0 0 0 0 0 0 0 0 0 0 0 0 0 0 0 0 0 127 0" result="hardAlpha"/>
<feOffset dy="1"/>
<feGaussianBlur stdDeviation="2.5"/>
<feComposite in2="hardAlpha" operator="arithmetic" k2="-1" k3="1"/>
<feColorMatrix type="matrix" values="0 0 0 0 1 0 0 0 0 1 0 0 0 0 1 0 0 0 0.25 0"/>
<feBlend mode="normal" in2="shape" result="effect2_innerShadow_1_2237"/>
</filter>
<radialGradient id="paint0_radial_1_2237" cx="0" cy="0" r="1" gradientUnits="userSpaceOnUse" gradientTransform="translate(370.025 445.973) rotate(-90.0266) scale(54.4289 362.374)">
<stop stop-color="#C2C2C2"/>
<stop offset="1" stop-color="#D9D9D9" stop-opacity="0"/>
</radialGradient>
<linearGradient id="paint1_linear_1_2237" x1="369.5" y1="483.044" x2="359" y2="594.544" gradientUnits="userSpaceOnUse">
<stop stop-color="#7829F7"/>
<stop offset="0.882606" stop-color="#FF2AEA"/>
<stop offset="0.98" stop-color="white"/>
</linearGradient>
<linearGradient id="paint2_linear_1_2237" x1="355.46" y1="288.044" x2="355.46" y2="465.877" gradientUnits="userSpaceOnUse">
<stop stop-color="#1C1634"/>
<stop offset="1" stop-color="#BE33FF"/>
</linearGradient>
<linearGradient id="paint3_linear_1_2237" x1="401.475" y1="273.771" x2="368.137" y2="412.52" gradientUnits="userSpaceOnUse">
<stop stop-color="#FF45F8" stop-opacity="0.585"/>
<stop offset="0.37" stop-color="white"/>
<stop offset="0.62" stop-color="#9554FF"/>
<stop offset="1" stop-color="#181616" stop-opacity="0"/>
</linearGradient>
<linearGradient id="paint4_linear_1_2237" x1="370" y1="283.756" x2="369.677" y2="369.495" gradientUnits="userSpaceOnUse">
<stop stop-color="white"/>
<stop offset="1" stop-opacity="0"/>
</linearGradient>
<linearGradient id="paint5_linear_1_2237" x1="425.885" y1="-114.535" x2="420.48" y2="543.427" gradientUnits="userSpaceOnUse">
<stop stop-color="#656565"/>
<stop offset="1" stop-opacity="0"/>
</linearGradient>
<radialGradient id="paint6_radial_1_2237" cx="0" cy="0" r="1" gradientUnits="userSpaceOnUse" gradientTransform="translate(554.093 -2.68885) rotate(104.126) scale(132.001 197.336)">
<stop stop-color="#AF36FA"/>
<stop offset="1" stop-color="#7534FF" stop-opacity="0"/>
</radialGradient>
<radialGradient id="paint7_radial_1_2237" cx="0" cy="0" r="1" gradientUnits="userSpaceOnUse" gradientTransform="translate(57.7002 274.34) rotate(31.0542) scale(136.609 94.8596)">
<stop stop-color="#E9E7FF"/>
<stop offset="1" stop-color="#F8F7FF" stop-opacity="0"/>
</radialGradient>
<clipPath id="clip0_1_2237">
<rect x="0.5" y="0.543701" width="739" height="472" rx="27" fill="white"/>
</clipPath>
</defs>
</svg>
