<svg width="740" height="473" viewBox="0 0 740 473" fill="none" xmlns="http://www.w3.org/2000/svg">
<g clip-path="url(#clip0_1_1542)">
<rect x="0.5" y="0.543701" width="739" height="472" rx="27" fill="#13131A"/>
<mask id="mask0_1_1542" style="mask-type:alpha" maskUnits="userSpaceOnUse" x="216" y="177" width="325" height="325">
<rect x="216.5" y="177.544" width="324" height="324" fill="url(#paint0_radial_1_1542)"/>
</mask>
<g mask="url(#mask0_1_1542)">
<circle opacity="0.82" cx="219" cy="180.044" r="2.5" fill="#F689FF"/>
<circle opacity="0.82" cx="240" cy="180.044" r="2.5" fill="#F689FF"/>
<circle opacity="0.26" cx="261" cy="180.044" r="2.5" fill="white" fill-opacity="0.5"/>
<circle opacity="0.85" cx="282" cy="180.044" r="2.5" fill="#F689FF"/>
<circle opacity="0.66" cx="303" cy="180.044" r="2.5" fill="white" fill-opacity="0.5"/>
<circle opacity="0.57" cx="324" cy="180.044" r="2.5" fill="#F689FF"/>
<circle opacity="0.88" cx="345" cy="180.044" r="2.5" fill="white" fill-opacity="0.5"/>
<circle opacity="0.4" cx="366" cy="180.044" r="2.5" fill="#F689FF"/>
<circle opacity="0.09" cx="387" cy="180.044" r="2.5" fill="white" fill-opacity="0.5"/>
<circle opacity="0.26" cx="408" cy="180.044" r="2.5" fill="#F689FF"/>
<circle opacity="0.11" cx="429" cy="180.044" r="2.5" fill="#F689FF"/>
<circle opacity="0.06" cx="450" cy="180.044" r="2.5" fill="#F689FF"/>
<circle opacity="0.02" cx="471" cy="180.044" r="2.5" fill="#F689FF"/>
<circle opacity="0.01" cx="492" cy="180.044" r="2.5" fill="#F689FF"/>
<circle opacity="0.63" cx="513" cy="180.044" r="2.5" fill="#F689FF"/>
<circle opacity="0.22" cx="534" cy="180.044" r="2.5" fill="white" fill-opacity="0.5"/>
<circle opacity="0.98" cx="240" cy="201.044" r="2.5" fill="#F689FF"/>
<circle opacity="0.63" cx="261" cy="201.044" r="2.5" fill="#F689FF"/>
<circle opacity="0.5" cx="282" cy="201.044" r="2.5" fill="white" fill-opacity="0.5"/>
<circle opacity="0.86" cx="303" cy="201.044" r="2.5" fill="white" fill-opacity="0.5"/>
<circle opacity="0.27" cx="324" cy="201.044" r="2.5" fill="#F689FF"/>
<circle opacity="0.96" cx="345" cy="201.044" r="2.5" fill="white" fill-opacity="0.5"/>
<circle opacity="0.69" cx="366" cy="201.044" r="2.5" fill="#F689FF"/>
<circle opacity="0.51" cx="387" cy="201.044" r="2.5" fill="white" fill-opacity="0.5"/>
<circle opacity="0.41" cx="408" cy="201.044" r="2.5" fill="#F689FF"/>
<circle opacity="0.81" cx="429" cy="201.044" r="2.5" fill="#F689FF"/>
<circle opacity="0.73" cx="450" cy="201.044" r="2.5" fill="#F689FF"/>
<circle opacity="0.4" cx="471" cy="201.044" r="2.5" fill="white" fill-opacity="0.5"/>
<circle opacity="0.28" cx="492" cy="201.044" r="2.5" fill="#F689FF"/>
<circle opacity="0.6" cx="513" cy="201.044" r="2.5" fill="white" fill-opacity="0.5"/>
<circle opacity="0.62" cx="534" cy="201.044" r="2.5" fill="white" fill-opacity="0.5"/>
<circle opacity="0.43" cx="219" cy="222.044" r="2.5" fill="#F689FF"/>
<circle opacity="0.73" cx="240" cy="222.044" r="2.5" fill="white" fill-opacity="0.5"/>
<circle opacity="0.99" cx="261" cy="222.044" r="2.5" fill="#F689FF"/>
<circle opacity="0.45" cx="282" cy="222.044" r="2.5" fill="white" fill-opacity="0.5"/>
<circle opacity="0.43" cx="303" cy="222.044" r="2.5" fill="white" fill-opacity="0.5"/>
<circle opacity="0.91" cx="324" cy="222.044" r="2.5" fill="white" fill-opacity="0.5"/>
<circle cx="345" cy="222.044" r="2.5" fill="white" fill-opacity="0.5"/>
<circle opacity="0.14" cx="366" cy="222.044" r="2.5" fill="white" fill-opacity="0.5"/>
<circle opacity="0.02" cx="387" cy="222.044" r="2.5" fill="white" fill-opacity="0.5"/>
<circle opacity="0.6" cx="408" cy="222.044" r="2.5" fill="#F689FF"/>
<circle opacity="0.2" cx="429" cy="222.044" r="2.5" fill="white" fill-opacity="0.5"/>
<circle opacity="0.06" cx="450" cy="222.044" r="2.5" fill="#F689FF"/>
<circle opacity="0.22" cx="471" cy="222.044" r="2.5" fill="white" fill-opacity="0.5"/>
<circle opacity="0.93" cx="492" cy="222.044" r="2.5" fill="white" fill-opacity="0.5"/>
<circle opacity="0.13" cx="513" cy="222.044" r="2.5" fill="#F689FF"/>
<circle opacity="0.42" cx="534" cy="222.044" r="2.5" fill="#F689FF"/>
<circle opacity="0.6" cx="219" cy="243.044" r="2.5" fill="#F689FF"/>
<circle opacity="0.29" cx="240" cy="243.044" r="2.5" fill="#F689FF"/>
<circle opacity="0.71" cx="261" cy="243.044" r="2.5" fill="white" fill-opacity="0.5"/>
<circle opacity="0.78" cx="282" cy="243.044" r="2.5" fill="#F689FF"/>
<circle opacity="0.77" cx="303" cy="243.044" r="2.5" fill="#F689FF"/>
<circle opacity="0.38" cx="324" cy="243.044" r="2.5" fill="#F689FF"/>
<circle opacity="0.6" cx="345" cy="243.044" r="2.5" fill="white" fill-opacity="0.5"/>
<circle opacity="0.9" cx="366" cy="243.044" r="2.5" fill="white" fill-opacity="0.5"/>
<circle opacity="0.38" cx="387" cy="243.044" r="2.5" fill="#F689FF"/>
<circle opacity="0.97" cx="408" cy="243.044" r="2.5" fill="white" fill-opacity="0.5"/>
<circle opacity="0.04" cx="429" cy="243.044" r="2.5" fill="#F689FF"/>
<circle opacity="0.3" cx="450" cy="243.044" r="2.5" fill="#F689FF"/>
<circle opacity="0.65" cx="471" cy="243.044" r="2.5" fill="#F689FF"/>
<circle opacity="0.13" cx="492" cy="243.044" r="2.5" fill="#F689FF"/>
<circle opacity="0.45" cx="513" cy="243.044" r="2.5" fill="white" fill-opacity="0.5"/>
<circle opacity="0.15" cx="534" cy="243.044" r="2.5" fill="white" fill-opacity="0.5"/>
<circle opacity="0.49" cx="219" cy="264.044" r="2.5" fill="white" fill-opacity="0.5"/>
<circle opacity="0.59" cx="240" cy="264.044" r="2.5" fill="#F689FF"/>
<circle opacity="0.04" cx="261" cy="264.044" r="2.5" fill="#F689FF"/>
<circle opacity="0.43" cx="282" cy="264.044" r="2.5" fill="white" fill-opacity="0.5"/>
<circle opacity="0.03" cx="303" cy="264.044" r="2.5" fill="white" fill-opacity="0.5"/>
<circle opacity="0.5" cx="324" cy="264.044" r="2.5" fill="#F689FF"/>
<circle opacity="0.06" cx="345" cy="264.044" r="2.5" fill="white" fill-opacity="0.5"/>
<circle opacity="0.94" cx="366" cy="264.044" r="2.5" fill="white" fill-opacity="0.5"/>
<circle opacity="0.64" cx="387" cy="264.044" r="2.5" fill="white" fill-opacity="0.5"/>
<circle opacity="0.84" cx="408" cy="264.044" r="2.5" fill="white" fill-opacity="0.5"/>
<circle opacity="0.88" cx="429" cy="264.044" r="2.5" fill="#F689FF"/>
<circle opacity="0.11" cx="450" cy="264.044" r="2.5" fill="#F689FF"/>
<circle opacity="0.57" cx="471" cy="264.044" r="2.5" fill="#F689FF"/>
<circle opacity="0.04" cx="492" cy="264.044" r="2.5" fill="white" fill-opacity="0.5"/>
<circle opacity="0.13" cx="513" cy="264.044" r="2.5" fill="#F689FF"/>
<circle opacity="0.02" cx="534" cy="264.044" r="2.5" fill="white" fill-opacity="0.5"/>
<circle opacity="0.1" cx="219" cy="285.044" r="2.5" fill="#F689FF"/>
<circle opacity="0.55" cx="240" cy="285.044" r="2.5" fill="#F689FF"/>
<circle opacity="0.48" cx="261" cy="285.044" r="2.5" fill="white" fill-opacity="0.5"/>
<circle opacity="0.45" cx="282" cy="285.044" r="2.5" fill="#F689FF"/>
<circle opacity="0.28" cx="303" cy="285.044" r="2.5" fill="white" fill-opacity="0.5"/>
<circle opacity="0.82" cx="324" cy="285.044" r="2.5" fill="white" fill-opacity="0.5"/>
<circle opacity="0.18" cx="345" cy="285.044" r="2.5" fill="white" fill-opacity="0.5"/>
<circle opacity="0.88" cx="366" cy="285.044" r="2.5" fill="#F689FF"/>
<circle opacity="0.27" cx="387" cy="285.044" r="2.5" fill="#F689FF"/>
<circle opacity="0.48" cx="408" cy="285.044" r="2.5" fill="white" fill-opacity="0.5"/>
<circle opacity="0.98" cx="429" cy="285.044" r="2.5" fill="#F689FF"/>
<circle opacity="0.83" cx="450" cy="285.044" r="2.5" fill="white" fill-opacity="0.5"/>
<circle opacity="0.43" cx="471" cy="285.044" r="2.5" fill="#F689FF"/>
<circle opacity="0.02" cx="492" cy="285.044" r="2.5" fill="#F689FF"/>
<circle opacity="0.63" cx="513" cy="285.044" r="2.5" fill="white" fill-opacity="0.5"/>
<circle opacity="0.05" cx="534" cy="285.044" r="2.5" fill="white" fill-opacity="0.5"/>
<circle opacity="0.26" cx="219" cy="306.044" r="2.5" fill="#F689FF"/>
<circle opacity="0.25" cx="240" cy="306.044" r="2.5" fill="#F689FF"/>
<circle opacity="0.53" cx="261" cy="306.044" r="2.5" fill="#F689FF"/>
<circle opacity="0.08" cx="282" cy="306.044" r="2.5" fill="white" fill-opacity="0.5"/>
<circle opacity="0.32" cx="303" cy="306.044" r="2.5" fill="white" fill-opacity="0.5"/>
<circle opacity="0.46" cx="324" cy="306.044" r="2.5" fill="white" fill-opacity="0.5"/>
<circle opacity="0.25" cx="345" cy="306.044" r="2.5" fill="#F689FF"/>
<circle cx="366" cy="306.044" r="2.5" fill="#F689FF"/>
<circle opacity="0.6" cx="387" cy="306.044" r="2.5" fill="white" fill-opacity="0.5"/>
<circle opacity="0.3" cx="408" cy="306.044" r="2.5" fill="#F689FF"/>
<circle opacity="0.02" cx="429" cy="306.044" r="2.5" fill="#F689FF"/>
<circle opacity="0.75" cx="450" cy="306.044" r="2.5" fill="#F689FF"/>
<circle opacity="0.17" cx="471" cy="306.044" r="2.5" fill="#F689FF"/>
<circle opacity="0.34" cx="492" cy="306.044" r="2.5" fill="#F689FF"/>
<circle opacity="0.25" cx="513" cy="306.044" r="2.5" fill="#F689FF"/>
<circle opacity="0.02" cx="534" cy="306.044" r="2.5" fill="white" fill-opacity="0.5"/>
<circle opacity="0.1" cx="219" cy="327.044" r="2.5" fill="white" fill-opacity="0.5"/>
<circle opacity="0.99" cx="240" cy="327.044" r="2.5" fill="white" fill-opacity="0.5"/>
<circle opacity="0.04" cx="261" cy="327.044" r="2.5" fill="white" fill-opacity="0.5"/>
<circle opacity="0.73" cx="282" cy="327.044" r="2.5" fill="#F689FF"/>
<circle opacity="0.02" cx="303" cy="327.044" r="2.5" fill="#F689FF"/>
<circle opacity="0.49" cx="324" cy="327.044" r="2.5" fill="white" fill-opacity="0.5"/>
<circle opacity="0.68" cx="345" cy="327.044" r="2.5" fill="white" fill-opacity="0.5"/>
<circle opacity="0.71" cx="366" cy="327.044" r="2.5" fill="white" fill-opacity="0.5"/>
<circle opacity="0.19" cx="387" cy="327.044" r="2.5" fill="white" fill-opacity="0.5"/>
<circle opacity="0.57" cx="408" cy="327.044" r="2.5" fill="#F689FF"/>
<circle opacity="0.6" cx="429" cy="327.044" r="2.5" fill="#F689FF"/>
<circle opacity="0.94" cx="450" cy="327.044" r="2.5" fill="#F689FF"/>
<circle opacity="0.43" cx="471" cy="327.044" r="2.5" fill="#F689FF"/>
<circle opacity="0.03" cx="492" cy="327.044" r="2.5" fill="white" fill-opacity="0.5"/>
<circle opacity="0.94" cx="513" cy="327.044" r="2.5" fill="white" fill-opacity="0.5"/>
<circle opacity="0.83" cx="534" cy="327.044" r="2.5" fill="#F689FF"/>
<circle opacity="0.87" cx="219" cy="348.044" r="2.5" fill="white" fill-opacity="0.5"/>
<circle opacity="0.05" cx="240" cy="348.044" r="2.5" fill="#F689FF"/>
<circle opacity="0.45" cx="261" cy="348.044" r="2.5" fill="#F689FF"/>
<circle opacity="0.97" cx="282" cy="348.044" r="2.5" fill="#F689FF"/>
<circle opacity="0.37" cx="303" cy="348.044" r="2.5" fill="white" fill-opacity="0.5"/>
<circle opacity="0.72" cx="324" cy="348.044" r="2.5" fill="#F689FF"/>
<circle opacity="0.5" cx="345" cy="348.044" r="2.5" fill="white" fill-opacity="0.5"/>
<circle opacity="0.77" cx="366" cy="348.044" r="2.5" fill="#F689FF"/>
<circle opacity="0.24" cx="387" cy="348.044" r="2.5" fill="white" fill-opacity="0.5"/>
<circle opacity="0.91" cx="408" cy="348.044" r="2.5" fill="white" fill-opacity="0.5"/>
<circle opacity="0.26" cx="429" cy="348.044" r="2.5" fill="#F689FF"/>
<circle opacity="0.49" cx="450" cy="348.044" r="2.5" fill="white" fill-opacity="0.5"/>
<circle opacity="0.27" cx="471" cy="348.044" r="2.5" fill="#F689FF"/>
<circle opacity="0.66" cx="492" cy="348.044" r="2.5" fill="white" fill-opacity="0.5"/>
<circle opacity="0.41" cx="513" cy="348.044" r="2.5" fill="white" fill-opacity="0.5"/>
<circle opacity="0.27" cx="534" cy="348.044" r="2.5" fill="#F689FF"/>
<circle opacity="0.84" cx="219" cy="369.044" r="2.5" fill="#F689FF"/>
<circle opacity="0.83" cx="240" cy="369.044" r="2.5" fill="#F689FF"/>
<circle opacity="0.1" cx="261" cy="369.044" r="2.5" fill="#F689FF"/>
<circle opacity="0.39" cx="282" cy="369.044" r="2.5" fill="#F689FF"/>
<circle opacity="0.89" cx="303" cy="369.044" r="2.5" fill="#F689FF"/>
<circle opacity="0.08" cx="324" cy="369.044" r="2.5" fill="white" fill-opacity="0.5"/>
<circle opacity="0.39" cx="345" cy="369.044" r="2.5" fill="#F689FF"/>
<circle opacity="0.09" cx="366" cy="369.044" r="2.5" fill="white" fill-opacity="0.5"/>
<circle opacity="0.88" cx="387" cy="369.044" r="2.5" fill="white" fill-opacity="0.5"/>
<circle opacity="0.73" cx="408" cy="369.044" r="2.5" fill="#F689FF"/>
<circle opacity="0.71" cx="429" cy="369.044" r="2.5" fill="#F689FF"/>
<circle opacity="0.63" cx="450" cy="369.044" r="2.5" fill="white" fill-opacity="0.5"/>
<circle opacity="0.64" cx="471" cy="369.044" r="2.5" fill="#F689FF"/>
<circle opacity="0.74" cx="492" cy="369.044" r="2.5" fill="white" fill-opacity="0.5"/>
<circle opacity="0.22" cx="513" cy="369.044" r="2.5" fill="white" fill-opacity="0.5"/>
<circle opacity="0.08" cx="534" cy="369.044" r="2.5" fill="#F689FF"/>
<circle opacity="0.88" cx="219" cy="390.044" r="2.5" fill="white" fill-opacity="0.5"/>
<circle opacity="0.19" cx="240" cy="390.044" r="2.5" fill="#F689FF"/>
<circle opacity="0.42" cx="261" cy="390.044" r="2.5" fill="#F689FF"/>
<circle opacity="0.62" cx="282" cy="390.044" r="2.5" fill="#F689FF"/>
<circle opacity="0.28" cx="303" cy="390.044" r="2.5" fill="white" fill-opacity="0.5"/>
<circle opacity="0.62" cx="324" cy="390.044" r="2.5" fill="#F689FF"/>
<circle opacity="0.26" cx="345" cy="390.044" r="2.5" fill="#F689FF"/>
<circle opacity="0.67" cx="366" cy="390.044" r="2.5" fill="white" fill-opacity="0.5"/>
<circle opacity="0.19" cx="387" cy="390.044" r="2.5" fill="#F689FF"/>
<circle opacity="0.43" cx="408" cy="390.044" r="2.5" fill="white" fill-opacity="0.5"/>
<circle opacity="0.02" cx="429" cy="390.044" r="2.5" fill="white" fill-opacity="0.5"/>
<circle opacity="0.95" cx="450" cy="390.044" r="2.5" fill="#F689FF"/>
<circle opacity="0.16" cx="471" cy="390.044" r="2.5" fill="white" fill-opacity="0.5"/>
<circle opacity="0.95" cx="492" cy="390.044" r="2.5" fill="white" fill-opacity="0.5"/>
<circle opacity="0.52" cx="513" cy="390.044" r="2.5" fill="white" fill-opacity="0.5"/>
<circle opacity="0.48" cx="534" cy="390.044" r="2.5" fill="white" fill-opacity="0.5"/>
<circle opacity="0.01" cx="219" cy="411.044" r="2.5" fill="#F689FF"/>
<circle opacity="0.53" cx="240" cy="411.044" r="2.5" fill="white" fill-opacity="0.5"/>
<circle opacity="0.26" cx="261" cy="411.044" r="2.5" fill="#F689FF"/>
<circle opacity="0.58" cx="282" cy="411.044" r="2.5" fill="#F689FF"/>
<circle opacity="0.85" cx="303" cy="411.044" r="2.5" fill="white" fill-opacity="0.5"/>
<circle opacity="0.8" cx="324" cy="411.044" r="2.5" fill="#F689FF"/>
<circle opacity="0.16" cx="345" cy="411.044" r="2.5" fill="white" fill-opacity="0.5"/>
<circle opacity="0.04" cx="366" cy="411.044" r="2.5" fill="white" fill-opacity="0.5"/>
<circle opacity="0.56" cx="387" cy="411.044" r="2.5" fill="white" fill-opacity="0.5"/>
<circle opacity="0.89" cx="408" cy="411.044" r="2.5" fill="#F689FF"/>
<circle opacity="0.6" cx="429" cy="411.044" r="2.5" fill="white" fill-opacity="0.5"/>
<circle opacity="0.61" cx="450" cy="411.044" r="2.5" fill="white" fill-opacity="0.5"/>
<circle opacity="0.48" cx="471" cy="411.044" r="2.5" fill="white" fill-opacity="0.5"/>
<circle opacity="0.26" cx="492" cy="411.044" r="2.5" fill="white" fill-opacity="0.5"/>
<circle opacity="0.84" cx="513" cy="411.044" r="2.5" fill="white" fill-opacity="0.5"/>
<circle opacity="0.08" cx="534" cy="411.044" r="2.5" fill="white" fill-opacity="0.5"/>
<circle opacity="0.03" cx="219" cy="432.044" r="2.5" fill="#F689FF"/>
<circle opacity="0.64" cx="240" cy="432.044" r="2.5" fill="white" fill-opacity="0.5"/>
<circle opacity="0.65" cx="261" cy="432.044" r="2.5" fill="white" fill-opacity="0.5"/>
<circle opacity="0.84" cx="282" cy="432.044" r="2.5" fill="#F689FF"/>
<circle opacity="0.56" cx="303" cy="432.044" r="2.5" fill="#F689FF"/>
<circle opacity="0.21" cx="324" cy="432.044" r="2.5" fill="#F689FF"/>
<circle opacity="0.54" cx="345" cy="432.044" r="2.5" fill="#F689FF"/>
<circle opacity="0.24" cx="366" cy="432.044" r="2.5" fill="white" fill-opacity="0.5"/>
<circle opacity="0.58" cx="387" cy="432.044" r="2.5" fill="white" fill-opacity="0.5"/>
<circle opacity="0.86" cx="408" cy="432.044" r="2.5" fill="white" fill-opacity="0.5"/>
<circle opacity="0.68" cx="429" cy="432.044" r="2.5" fill="#F689FF"/>
<circle opacity="0.89" cx="450" cy="432.044" r="2.5" fill="#F689FF"/>
<circle opacity="0.15" cx="471" cy="432.044" r="2.5" fill="white" fill-opacity="0.5"/>
<circle opacity="0.15" cx="492" cy="432.044" r="2.5" fill="white" fill-opacity="0.5"/>
<circle opacity="0.14" cx="513" cy="432.044" r="2.5" fill="white" fill-opacity="0.5"/>
<circle opacity="0.75" cx="534" cy="432.044" r="2.5" fill="#F689FF"/>
<circle opacity="0.4" cx="219" cy="453.044" r="2.5" fill="white" fill-opacity="0.5"/>
<circle opacity="0.65" cx="240" cy="453.044" r="2.5" fill="white" fill-opacity="0.5"/>
<circle opacity="0.22" cx="261" cy="453.044" r="2.5" fill="#F689FF"/>
<circle opacity="0.77" cx="282" cy="453.044" r="2.5" fill="#F689FF"/>
<circle opacity="0.86" cx="303" cy="453.044" r="2.5" fill="white" fill-opacity="0.5"/>
<circle opacity="0.26" cx="324" cy="453.044" r="2.5" fill="#F689FF"/>
<circle opacity="0.39" cx="345" cy="453.044" r="2.5" fill="#F689FF"/>
<circle opacity="0.08" cx="366" cy="453.044" r="2.5" fill="#F689FF"/>
<circle opacity="0.38" cx="387" cy="453.044" r="2.5" fill="#F689FF"/>
<circle opacity="0.86" cx="408" cy="453.044" r="2.5" fill="white" fill-opacity="0.5"/>
<circle opacity="0.95" cx="429" cy="453.044" r="2.5" fill="white" fill-opacity="0.5"/>
<circle opacity="0.08" cx="450" cy="453.044" r="2.5" fill="white" fill-opacity="0.5"/>
<circle opacity="0.47" cx="471" cy="453.044" r="2.5" fill="white" fill-opacity="0.5"/>
<circle opacity="0.1" cx="492" cy="453.044" r="2.5" fill="white" fill-opacity="0.5"/>
<circle opacity="0.9" cx="513" cy="453.044" r="2.5" fill="white" fill-opacity="0.5"/>
<circle opacity="0.24" cx="534" cy="453.044" r="2.5" fill="white" fill-opacity="0.5"/>
<circle opacity="0.01" cx="219" cy="474.044" r="2.5" fill="#F689FF"/>
<circle opacity="0.13" cx="240" cy="474.044" r="2.5" fill="#F689FF"/>
<circle opacity="0.78" cx="261" cy="474.044" r="2.5" fill="#F689FF"/>
<circle opacity="0.3" cx="282" cy="474.044" r="2.5" fill="white" fill-opacity="0.5"/>
<circle opacity="0.17" cx="303" cy="474.044" r="2.5" fill="#F689FF"/>
<circle opacity="0.47" cx="324" cy="474.044" r="2.5" fill="white" fill-opacity="0.5"/>
<circle opacity="0.04" cx="345" cy="474.044" r="2.5" fill="#F689FF"/>
<circle opacity="0.29" cx="366" cy="474.044" r="2.5" fill="white" fill-opacity="0.5"/>
<circle opacity="0.36" cx="387" cy="474.044" r="2.5" fill="white" fill-opacity="0.5"/>
<circle opacity="0.48" cx="408" cy="474.044" r="2.5" fill="#F689FF"/>
<circle opacity="0.95" cx="429" cy="474.044" r="2.5" fill="#F689FF"/>
<circle opacity="0.56" cx="450" cy="474.044" r="2.5" fill="white" fill-opacity="0.5"/>
<circle opacity="0.98" cx="471" cy="474.044" r="2.5" fill="white" fill-opacity="0.5"/>
<circle opacity="0.06" cx="492" cy="474.044" r="2.5" fill="#F689FF"/>
<circle opacity="0.4" cx="513" cy="474.044" r="2.5" fill="white" fill-opacity="0.5"/>
<circle opacity="0.36" cx="534" cy="474.044" r="2.5" fill="#F689FF"/>
</g>
<g filter="url(#filter0_f_1_1542)">
<path d="M185.738 468.746C189.469 453.017 173.244 422.836 164.666 409.712C254.793 428.537 448.363 465.906 501.625 464.785C568.202 463.384 663.785 536.904 631.992 529.128C600.2 521.353 531.269 575.28 484.671 585.146C438.073 595.012 410.286 651.946 412.317 675.582C414.347 699.218 320.587 594.204 299.43 561.326C278.273 528.448 159.287 531.181 122.125 510.122C84.9629 489.063 181.074 488.407 185.738 468.746Z" fill="url(#paint1_linear_1_1542)"/>
</g>
<path d="M371 474.044V374.544" stroke="url(#paint2_linear_1_1542)"/>
<path d="M216.5 474.044L309 373.544" stroke="url(#paint3_linear_1_1542)"/>
<path d="M290.5 474.044L339.5 370.544" stroke="url(#paint4_linear_1_1542)"/>
<path d="M139.5 473.544L270.5 378.544" stroke="url(#paint5_linear_1_1542)"/>
<path d="M61.5 473.544L223 385.544" stroke="url(#paint6_linear_1_1542)"/>
<path d="M-14.5 473.544L176.5 390.544" stroke="url(#paint7_linear_1_1542)"/>
<path d="M-97.5 474.044L126.5 392.544" stroke="url(#paint8_linear_1_1542)"/>
<path d="M-176.5 474.044L65.5 397.544" stroke="url(#paint9_linear_1_1542)"/>
<path d="M523.5 474.044L431 373.544" stroke="url(#paint10_linear_1_1542)"/>
<path d="M449.5 474.044L400.5 370.544" stroke="url(#paint11_linear_1_1542)"/>
<path d="M600.5 473.544L469.5 378.544" stroke="url(#paint12_linear_1_1542)"/>
<path d="M678.5 473.544L517 385.544" stroke="url(#paint13_linear_1_1542)"/>
<path d="M754.5 473.544L563.5 390.544" stroke="url(#paint14_linear_1_1542)"/>
<path d="M837.5 474.044L613.5 392.544" stroke="url(#paint15_linear_1_1542)"/>
<path d="M916.5 474.044L674.5 397.544" stroke="url(#paint16_linear_1_1542)"/>
<g filter="url(#filter1_di_1_1542)">
<rect x="279.5" y="240.544" width="198" height="198" rx="99" fill="url(#paint17_linear_1_1542)" shape-rendering="crispEdges"/>
<rect x="278.5" y="239.544" width="200" height="200" rx="100" stroke="black" stroke-opacity="0.1" stroke-width="2" shape-rendering="crispEdges"/>
<path d="M419.176 338.758L420.108 337.759H419.858C419.994 337.491 420.103 337.209 420.182 336.916C420.367 336.227 420.38 335.503 420.219 334.808C420.058 334.113 419.728 333.469 419.259 332.931C418.789 332.394 418.195 331.98 417.528 331.727L417.526 331.727L390.984 321.774L397.776 287.858L397.776 287.855C397.957 286.93 397.831 285.972 397.419 285.124C397.006 284.277 396.33 283.586 395.49 283.157C394.651 282.728 393.695 282.584 392.767 282.746C391.838 282.907 390.988 283.367 390.343 284.055L390.343 284.055L337.846 340.302C337.845 340.303 337.845 340.303 337.844 340.304C337.351 340.824 336.994 341.458 336.806 342.149C336.617 342.841 336.603 343.57 336.764 344.269C336.926 344.968 337.258 345.616 337.731 346.156C338.204 346.695 338.803 347.109 339.475 347.36L366.016 357.326L359.243 391.205L359.242 391.208C359.062 392.133 359.188 393.092 359.6 393.939C360.012 394.787 360.689 395.477 361.528 395.906C362.367 396.335 363.323 396.48 364.252 396.318C365.18 396.156 366.031 395.696 366.675 395.009L366.676 395.008L419.176 338.758Z" fill="url(#paint18_linear_1_1542)" stroke="url(#paint19_linear_1_1542)" stroke-width="1.18736"/>
</g>
<path d="M536 281.544C536 280.715 535.328 280.044 534.5 280.044C533.672 280.044 533 280.715 533 281.544H536ZM536 359.044V281.544H533V359.044H536Z" fill="url(#paint20_linear_1_1542)"/>
<path d="M535 281.544C535 281.268 534.776 281.044 534.5 281.044C534.224 281.044 534 281.268 534 281.544H535ZM535 359.044V281.544H534V359.044H535Z" fill="url(#paint21_linear_1_1542)"/>
<g filter="url(#filter2_f_1_1542)">
<ellipse cx="535" cy="283.544" rx="8.5" ry="13" fill="#8237FA"/>
</g>
<path d="M669 225.544C669 224.715 668.328 224.044 667.5 224.044C666.672 224.044 666 224.715 666 225.544H669ZM669 303.044V225.544H666V303.044H669Z" fill="url(#paint22_linear_1_1542)"/>
<path d="M668 225.544C668 225.268 667.776 225.044 667.5 225.044C667.224 225.044 667 225.268 667 225.544H668ZM668 303.044V225.544H667V303.044H668Z" fill="url(#paint23_linear_1_1542)"/>
<g filter="url(#filter3_f_1_1542)">
<ellipse cx="668" cy="227.544" rx="8.5" ry="13" fill="#8237FA"/>
</g>
<path d="M618.384 326.199C618.384 325.773 618.039 325.428 617.613 325.428C617.187 325.428 616.842 325.773 616.842 326.199H618.384ZM618.384 366.044V326.199H616.842V366.044H618.384Z" fill="url(#paint24_linear_1_1542)"/>
<path d="M617.87 326.199C617.87 326.057 617.755 325.942 617.613 325.942C617.471 325.942 617.356 326.057 617.356 326.199H617.87ZM617.87 366.044V326.199H617.356V366.044H617.87Z" fill="url(#paint25_linear_1_1542)"/>
<g filter="url(#filter4_f_1_1542)">
<ellipse cx="617.87" cy="327.227" rx="4.37006" ry="6.68362" fill="#8237FA"/>
</g>
<path d="M72 318.544C72 317.715 71.3284 317.044 70.5 317.044C69.6716 317.044 69 317.715 69 318.544H72ZM72 396.044V318.544H69V396.044H72Z" fill="url(#paint26_linear_1_1542)"/>
<path d="M71 318.544C71 318.268 70.7761 318.044 70.5 318.044C70.2239 318.044 70 318.268 70 318.544H71ZM71 396.044V318.544H70V396.044H71Z" fill="url(#paint27_linear_1_1542)"/>
<g filter="url(#filter5_f_1_1542)">
<ellipse cx="71" cy="320.544" rx="8.5" ry="13" fill="#8237FA"/>
</g>
<path d="M205 262.544C205 261.715 204.328 261.044 203.5 261.044C202.672 261.044 202 261.715 202 262.544H205ZM205 340.044V262.544H202V340.044H205Z" fill="url(#paint28_linear_1_1542)"/>
<path d="M204 262.544C204 262.268 203.776 262.044 203.5 262.044C203.224 262.044 203 262.268 203 262.544H204ZM204 340.044V262.544H203V340.044H204Z" fill="url(#paint29_linear_1_1542)"/>
<g filter="url(#filter6_f_1_1542)">
<ellipse cx="204" cy="264.544" rx="8.5" ry="13" fill="#8237FA"/>
</g>
<path d="M154.384 363.199C154.384 362.773 154.039 362.428 153.613 362.428C153.187 362.428 152.842 362.773 152.842 363.199H154.384ZM154.384 403.044V363.199H152.842V403.044H154.384Z" fill="url(#paint30_linear_1_1542)"/>
<path d="M153.87 363.199C153.87 363.057 153.755 362.942 153.613 362.942C153.471 362.942 153.356 363.057 153.356 363.199H153.87ZM153.87 403.044V363.199H153.356V403.044H153.87Z" fill="url(#paint31_linear_1_1542)"/>
<g filter="url(#filter7_f_1_1542)">
<ellipse cx="153.87" cy="364.227" rx="4.37006" ry="6.68362" fill="#8237FA"/>
</g>
</g>
<rect x="1.175" y="1.2187" width="737.65" height="470.65" rx="26.325" stroke="url(#paint32_linear_1_1542)" stroke-width="1.35"/>
<rect x="1.175" y="1.2187" width="737.65" height="470.65" rx="26.325" stroke="url(#paint33_radial_1_1542)" stroke-width="1.35"/>
<rect x="1.175" y="1.2187" width="737.65" height="470.65" rx="26.325" stroke="url(#paint34_radial_1_1542)" stroke-opacity="0.4" stroke-width="1.35"/>
<defs>
<filter id="filter0_f_1_1542" x="-136.399" y="159.712" width="1024.69" height="769.302" filterUnits="userSpaceOnUse" color-interpolation-filters="sRGB">
<feFlood flood-opacity="0" result="BackgroundImageFix"/>
<feBlend mode="normal" in="SourceGraphic" in2="BackgroundImageFix" result="shape"/>
<feGaussianBlur stdDeviation="125" result="effect1_foregroundBlur_1_1542"/>
</filter>
<filter id="filter1_di_1_1542" x="275.5" y="236.544" width="206" height="206" filterUnits="userSpaceOnUse" color-interpolation-filters="sRGB">
<feFlood flood-opacity="0" result="BackgroundImageFix"/>
<feColorMatrix in="SourceAlpha" type="matrix" values="0 0 0 0 0 0 0 0 0 0 0 0 0 0 0 0 0 0 127 0" result="hardAlpha"/>
<feMorphology radius="2" operator="dilate" in="SourceAlpha" result="effect1_dropShadow_1_1542"/>
<feOffset/>
<feComposite in2="hardAlpha" operator="out"/>
<feColorMatrix type="matrix" values="0 0 0 0 0.481725 0 0 0 0 0.0745092 0 0 0 0 1 0 0 0 0.55 0"/>
<feBlend mode="normal" in2="BackgroundImageFix" result="effect1_dropShadow_1_1542"/>
<feBlend mode="normal" in="SourceGraphic" in2="effect1_dropShadow_1_1542" result="shape"/>
<feColorMatrix in="SourceAlpha" type="matrix" values="0 0 0 0 0 0 0 0 0 0 0 0 0 0 0 0 0 0 127 0" result="hardAlpha"/>
<feOffset dy="1"/>
<feGaussianBlur stdDeviation="2.5"/>
<feComposite in2="hardAlpha" operator="arithmetic" k2="-1" k3="1"/>
<feColorMatrix type="matrix" values="0 0 0 0 1 0 0 0 0 1 0 0 0 0 1 0 0 0 0.25 0"/>
<feBlend mode="normal" in2="shape" result="effect2_innerShadow_1_1542"/>
</filter>
<filter id="filter2_f_1_1542" x="506.5" y="250.544" width="57" height="66" filterUnits="userSpaceOnUse" color-interpolation-filters="sRGB">
<feFlood flood-opacity="0" result="BackgroundImageFix"/>
<feBlend mode="normal" in="SourceGraphic" in2="BackgroundImageFix" result="shape"/>
<feGaussianBlur stdDeviation="10" result="effect1_foregroundBlur_1_1542"/>
</filter>
<filter id="filter3_f_1_1542" x="639.5" y="194.544" width="57" height="66" filterUnits="userSpaceOnUse" color-interpolation-filters="sRGB">
<feFlood flood-opacity="0" result="BackgroundImageFix"/>
<feBlend mode="normal" in="SourceGraphic" in2="BackgroundImageFix" result="shape"/>
<feGaussianBlur stdDeviation="10" result="effect1_foregroundBlur_1_1542"/>
</filter>
<filter id="filter4_f_1_1542" x="603.218" y="310.261" width="29.3051" height="33.9322" filterUnits="userSpaceOnUse" color-interpolation-filters="sRGB">
<feFlood flood-opacity="0" result="BackgroundImageFix"/>
<feBlend mode="normal" in="SourceGraphic" in2="BackgroundImageFix" result="shape"/>
<feGaussianBlur stdDeviation="5.14124" result="effect1_foregroundBlur_1_1542"/>
</filter>
<filter id="filter5_f_1_1542" x="42.5" y="287.544" width="57" height="66" filterUnits="userSpaceOnUse" color-interpolation-filters="sRGB">
<feFlood flood-opacity="0" result="BackgroundImageFix"/>
<feBlend mode="normal" in="SourceGraphic" in2="BackgroundImageFix" result="shape"/>
<feGaussianBlur stdDeviation="10" result="effect1_foregroundBlur_1_1542"/>
</filter>
<filter id="filter6_f_1_1542" x="175.5" y="231.544" width="57" height="66" filterUnits="userSpaceOnUse" color-interpolation-filters="sRGB">
<feFlood flood-opacity="0" result="BackgroundImageFix"/>
<feBlend mode="normal" in="SourceGraphic" in2="BackgroundImageFix" result="shape"/>
<feGaussianBlur stdDeviation="10" result="effect1_foregroundBlur_1_1542"/>
</filter>
<filter id="filter7_f_1_1542" x="139.218" y="347.261" width="29.3051" height="33.9322" filterUnits="userSpaceOnUse" color-interpolation-filters="sRGB">
<feFlood flood-opacity="0" result="BackgroundImageFix"/>
<feBlend mode="normal" in="SourceGraphic" in2="BackgroundImageFix" result="shape"/>
<feGaussianBlur stdDeviation="5.14124" result="effect1_foregroundBlur_1_1542"/>
</filter>
<radialGradient id="paint0_radial_1_1542" cx="0" cy="0" r="1" gradientUnits="userSpaceOnUse" gradientTransform="translate(378.5 353.544) rotate(90) scale(180)">
<stop stop-color="#D9D9D9"/>
<stop offset="1" stop-color="#D9D9D9" stop-opacity="0"/>
</radialGradient>
<linearGradient id="paint1_linear_1_1542" x1="369.5" y1="483.044" x2="359" y2="594.544" gradientUnits="userSpaceOnUse">
<stop stop-color="#7829F7"/>
<stop offset="0.882606" stop-color="#FF2AEA"/>
<stop offset="0.98" stop-color="white"/>
</linearGradient>
<linearGradient id="paint2_linear_1_1542" x1="371.5" y1="374.544" x2="371.5" y2="474.044" gradientUnits="userSpaceOnUse">
<stop stop-color="#3F3F3F" stop-opacity="0"/>
<stop offset="1" stop-color="#8933F6"/>
</linearGradient>
<linearGradient id="paint3_linear_1_1542" x1="262.75" y1="373.544" x2="262.75" y2="474.044" gradientUnits="userSpaceOnUse">
<stop stop-color="#3F3F3F" stop-opacity="0"/>
<stop offset="1" stop-color="#8933F6"/>
</linearGradient>
<linearGradient id="paint4_linear_1_1542" x1="315" y1="370.544" x2="315" y2="474.044" gradientUnits="userSpaceOnUse">
<stop stop-color="#3F3F3F" stop-opacity="0"/>
<stop offset="1" stop-color="#8933F6"/>
</linearGradient>
<linearGradient id="paint5_linear_1_1542" x1="205" y1="378.544" x2="205" y2="473.544" gradientUnits="userSpaceOnUse">
<stop stop-color="#3F3F3F" stop-opacity="0"/>
<stop offset="1" stop-color="#8933F6"/>
</linearGradient>
<linearGradient id="paint6_linear_1_1542" x1="142.25" y1="385.544" x2="142.25" y2="473.544" gradientUnits="userSpaceOnUse">
<stop stop-color="#3F3F3F" stop-opacity="0"/>
<stop offset="1" stop-color="#8933F6"/>
</linearGradient>
<linearGradient id="paint7_linear_1_1542" x1="81" y1="390.544" x2="81" y2="473.544" gradientUnits="userSpaceOnUse">
<stop stop-color="#3F3F3F" stop-opacity="0"/>
<stop offset="1" stop-color="#8933F6"/>
</linearGradient>
<linearGradient id="paint8_linear_1_1542" x1="14.5" y1="392.544" x2="14.5" y2="474.044" gradientUnits="userSpaceOnUse">
<stop stop-color="#3F3F3F" stop-opacity="0"/>
<stop offset="1" stop-color="#8933F6"/>
</linearGradient>
<linearGradient id="paint9_linear_1_1542" x1="-55.5" y1="397.544" x2="-55.5" y2="474.044" gradientUnits="userSpaceOnUse">
<stop stop-color="#3F3F3F" stop-opacity="0"/>
<stop offset="1" stop-color="#8933F6"/>
</linearGradient>
<linearGradient id="paint10_linear_1_1542" x1="477.25" y1="373.544" x2="477.25" y2="474.044" gradientUnits="userSpaceOnUse">
<stop stop-color="#3F3F3F" stop-opacity="0"/>
<stop offset="1" stop-color="#8933F6"/>
</linearGradient>
<linearGradient id="paint11_linear_1_1542" x1="425" y1="370.544" x2="425" y2="474.044" gradientUnits="userSpaceOnUse">
<stop stop-color="#3F3F3F" stop-opacity="0"/>
<stop offset="1" stop-color="#8933F6"/>
</linearGradient>
<linearGradient id="paint12_linear_1_1542" x1="535" y1="378.544" x2="535" y2="473.544" gradientUnits="userSpaceOnUse">
<stop stop-color="#3F3F3F" stop-opacity="0"/>
<stop offset="1" stop-color="#8933F6"/>
</linearGradient>
<linearGradient id="paint13_linear_1_1542" x1="597.75" y1="385.544" x2="597.75" y2="473.544" gradientUnits="userSpaceOnUse">
<stop stop-color="#3F3F3F" stop-opacity="0"/>
<stop offset="1" stop-color="#8933F6"/>
</linearGradient>
<linearGradient id="paint14_linear_1_1542" x1="659" y1="390.544" x2="659" y2="473.544" gradientUnits="userSpaceOnUse">
<stop stop-color="#3F3F3F" stop-opacity="0"/>
<stop offset="1" stop-color="#8933F6"/>
</linearGradient>
<linearGradient id="paint15_linear_1_1542" x1="725.5" y1="392.544" x2="725.5" y2="474.044" gradientUnits="userSpaceOnUse">
<stop stop-color="#3F3F3F" stop-opacity="0"/>
<stop offset="1" stop-color="#8933F6"/>
</linearGradient>
<linearGradient id="paint16_linear_1_1542" x1="795.5" y1="397.544" x2="795.5" y2="474.044" gradientUnits="userSpaceOnUse">
<stop stop-color="#3F3F3F" stop-opacity="0"/>
<stop offset="1" stop-color="#8933F6"/>
</linearGradient>
<linearGradient id="paint17_linear_1_1542" x1="368.5" y1="285.544" x2="368.5" y2="576.544" gradientUnits="userSpaceOnUse">
<stop stop-color="#1C1634"/>
<stop offset="1" stop-color="#BE33FF"/>
</linearGradient>
<linearGradient id="paint18_linear_1_1542" x1="393.5" y1="283.544" x2="317.009" y2="411.708" gradientUnits="userSpaceOnUse">
<stop stop-color="#FF45F8" stop-opacity="0.585"/>
<stop offset="0.37" stop-color="white"/>
<stop offset="0.62" stop-color="#9554FF"/>
<stop offset="1" stop-color="#181616" stop-opacity="0"/>
</linearGradient>
<linearGradient id="paint19_linear_1_1542" x1="378.492" y1="295.37" x2="377.54" y2="396.908" gradientUnits="userSpaceOnUse">
<stop stop-color="white"/>
<stop offset="1" stop-opacity="0"/>
</linearGradient>
<linearGradient id="paint20_linear_1_1542" x1="535" y1="281.544" x2="534.5" y2="351.544" gradientUnits="userSpaceOnUse">
<stop stop-color="#933FFF"/>
<stop offset="1" stop-color="#801FBB" stop-opacity="0"/>
</linearGradient>
<linearGradient id="paint21_linear_1_1542" x1="535" y1="281.544" x2="535" y2="323.044" gradientUnits="userSpaceOnUse">
<stop stop-color="white"/>
<stop offset="1" stop-color="#801FBB" stop-opacity="0"/>
</linearGradient>
<linearGradient id="paint22_linear_1_1542" x1="668" y1="225.544" x2="667.5" y2="295.544" gradientUnits="userSpaceOnUse">
<stop stop-color="#933FFF"/>
<stop offset="1" stop-color="#801FBB" stop-opacity="0"/>
</linearGradient>
<linearGradient id="paint23_linear_1_1542" x1="668" y1="225.544" x2="668" y2="267.044" gradientUnits="userSpaceOnUse">
<stop stop-color="white"/>
<stop offset="1" stop-color="#801FBB" stop-opacity="0"/>
</linearGradient>
<linearGradient id="paint24_linear_1_1542" x1="618.113" y1="326.199" x2="617.981" y2="362.189" gradientUnits="userSpaceOnUse">
<stop stop-color="#933FFF"/>
<stop offset="1" stop-color="#801FBB" stop-opacity="0"/>
</linearGradient>
<linearGradient id="paint25_linear_1_1542" x1="618.113" y1="326.199" x2="618.113" y2="347.535" gradientUnits="userSpaceOnUse">
<stop stop-color="white"/>
<stop offset="1" stop-color="#801FBB" stop-opacity="0"/>
</linearGradient>
<linearGradient id="paint26_linear_1_1542" x1="71" y1="318.544" x2="70.5" y2="388.544" gradientUnits="userSpaceOnUse">
<stop stop-color="#933FFF"/>
<stop offset="1" stop-color="#801FBB" stop-opacity="0"/>
</linearGradient>
<linearGradient id="paint27_linear_1_1542" x1="71" y1="318.544" x2="71" y2="360.044" gradientUnits="userSpaceOnUse">
<stop stop-color="white"/>
<stop offset="1" stop-color="#801FBB" stop-opacity="0"/>
</linearGradient>
<linearGradient id="paint28_linear_1_1542" x1="204" y1="262.544" x2="203.5" y2="332.544" gradientUnits="userSpaceOnUse">
<stop stop-color="#933FFF"/>
<stop offset="1" stop-color="#801FBB" stop-opacity="0"/>
</linearGradient>
<linearGradient id="paint29_linear_1_1542" x1="204" y1="262.544" x2="204" y2="304.044" gradientUnits="userSpaceOnUse">
<stop stop-color="white"/>
<stop offset="1" stop-color="#801FBB" stop-opacity="0"/>
</linearGradient>
<linearGradient id="paint30_linear_1_1542" x1="154.113" y1="363.199" x2="153.981" y2="399.189" gradientUnits="userSpaceOnUse">
<stop stop-color="#933FFF"/>
<stop offset="1" stop-color="#801FBB" stop-opacity="0"/>
</linearGradient>
<linearGradient id="paint31_linear_1_1542" x1="154.113" y1="363.199" x2="154.113" y2="384.535" gradientUnits="userSpaceOnUse">
<stop stop-color="white"/>
<stop offset="1" stop-color="#801FBB" stop-opacity="0"/>
</linearGradient>
<linearGradient id="paint32_linear_1_1542" x1="425.885" y1="-114.535" x2="420.48" y2="543.427" gradientUnits="userSpaceOnUse">
<stop stop-color="#656565"/>
<stop offset="1" stop-opacity="0"/>
</linearGradient>
<radialGradient id="paint33_radial_1_1542" cx="0" cy="0" r="1" gradientUnits="userSpaceOnUse" gradientTransform="translate(554.093 -2.68885) rotate(104.126) scale(132.001 197.336)">
<stop stop-color="#AF36FA"/>
<stop offset="1" stop-color="#7534FF" stop-opacity="0"/>
</radialGradient>
<radialGradient id="paint34_radial_1_1542" cx="0" cy="0" r="1" gradientUnits="userSpaceOnUse" gradientTransform="translate(57.7002 274.34) rotate(31.0542) scale(136.609 94.8596)">
<stop stop-color="#E9E7FF"/>
<stop offset="1" stop-color="#F8F7FF" stop-opacity="0"/>
</radialGradient>
<clipPath id="clip0_1_1542">
<rect x="0.5" y="0.543701" width="739" height="472" rx="27" fill="white"/>
</clipPath>
</defs>
</svg>
