<svg width="524" height="473" viewBox="0 0 524 473" fill="none" xmlns="http://www.w3.org/2000/svg">
<g clip-path="url(#clip0_1_1883)">
<rect x="0.5" y="0.543701" width="523" height="472" rx="27" fill="#13131A"/>
<mask id="mask0_1_1883" style="mask-type:alpha" maskUnits="userSpaceOnUse" x="-515" y="-93" width="806" height="806">
<rect x="-514.5" y="-92.4563" width="805" height="805" fill="url(#paint0_radial_1_1883)"/>
</mask>
<g mask="url(#mask0_1_1883)">
<path d="M54.5 -56.7896H-12.1667V9.87711H54.5V-56.7896Z" stroke="#8933F6"/>
<path d="M121.167 -56.7896H54.5V9.87711H121.167V-56.7896Z" stroke="#8933F6"/>
<path d="M187.833 -56.7896H121.167V9.87711H187.833V-56.7896Z" stroke="#8933F6"/>
<path d="M254.5 -56.7896H187.833V9.87711H254.5V-56.7896Z" stroke="#8933F6"/>
<path d="M321.167 -56.7896H254.5V9.87711H321.167V-56.7896Z" stroke="#8933F6"/>
<path d="M54.5 9.87695H-12.1667V76.5436H54.5V9.87695Z" stroke="#8933F6"/>
<path d="M121.167 9.87695H54.5V76.5436H121.167V9.87695Z" stroke="#8933F6"/>
<path d="M187.833 9.87695H121.167V76.5436H187.833V9.87695Z" stroke="#8933F6"/>
<path d="M254.5 9.87695H187.833V76.5436H254.5V9.87695Z" stroke="#8933F6"/>
<path d="M321.167 9.87695H254.5V76.5436H321.167V9.87695Z" stroke="#8933F6"/>
<path d="M54.5 76.5437H-12.1667V143.21H54.5V76.5437Z" stroke="#8933F6"/>
<path d="M121.167 76.5437H54.5V143.21H121.167V76.5437Z" stroke="#8933F6"/>
<path d="M187.833 76.5437H121.167V143.21H187.833V76.5437Z" stroke="#8933F6"/>
<path d="M254.5 76.5437H187.833V143.21H254.5V76.5437Z" stroke="#8933F6"/>
<path d="M321.167 76.5437H254.5V143.21H321.167V76.5437Z" stroke="#8933F6"/>
<path d="M54.5 143.21H-12.1667V209.877H54.5V143.21Z" stroke="#8933F6"/>
<path d="M121.167 143.21H54.5V209.877H121.167V143.21Z" stroke="#8933F6"/>
<path d="M187.833 143.21H121.167V209.877H187.833V143.21Z" stroke="#8933F6"/>
<path d="M254.5 143.21H187.833V209.877H254.5V143.21Z" stroke="#8933F6"/>
<path d="M321.167 143.21H254.5V209.877H321.167V143.21Z" stroke="#8933F6"/>
<path d="M54.5 209.877H-12.1667V276.544H54.5V209.877Z" stroke="#8933F6"/>
<path d="M121.167 209.877H54.5V276.544H121.167V209.877Z" stroke="#8933F6"/>
<path d="M187.833 209.877H121.167V276.544H187.833V209.877Z" stroke="#8933F6"/>
<path d="M254.5 209.877H187.833V276.544H254.5V209.877Z" stroke="#8933F6"/>
<path d="M321.167 209.877H254.5V276.544H321.167V209.877Z" stroke="#8933F6"/>
<path d="M54.5 276.544H-12.1667V343.21H54.5V276.544Z" stroke="#8933F6"/>
<path d="M121.167 276.544H54.5V343.21H121.167V276.544Z" stroke="#8933F6"/>
<path d="M187.833 276.544H121.167V343.21H187.833V276.544Z" stroke="#8933F6"/>
<path d="M254.5 276.544H187.833V343.21H254.5V276.544Z" stroke="#8933F6"/>
<path d="M321.167 276.544H254.5V343.21H321.167V276.544Z" stroke="#8933F6"/>
<path d="M54.5 343.21H-12.1667V409.877H54.5V343.21Z" stroke="#8933F6"/>
<path d="M121.167 343.21H54.5V409.877H121.167V343.21Z" stroke="#8933F6"/>
<path d="M187.833 343.21H121.167V409.877H187.833V343.21Z" stroke="#8933F6"/>
<path d="M254.5 343.21H187.833V409.877H254.5V343.21Z" stroke="#8933F6"/>
<path d="M321.167 343.21H254.5V409.877H321.167V343.21Z" stroke="#8933F6"/>
<path d="M54.5 409.877H-12.1667V476.544H54.5V409.877Z" stroke="#8933F6"/>
<path d="M121.167 409.877H54.5V476.544H121.167V409.877Z" stroke="#8933F6"/>
<path d="M187.833 409.877H121.167V476.544H187.833V409.877Z" stroke="#8933F6"/>
<path d="M254.5 409.877H187.833V476.544H254.5V409.877Z" stroke="#8933F6"/>
<path d="M321.167 409.877H254.5V476.544H321.167V409.877Z" stroke="#8933F6"/>
</g>
<mask id="mask1_1_1883" style="mask-type:alpha" maskUnits="userSpaceOnUse" x="74" y="141" width="806" height="806">
<rect x="74.5" y="141.544" width="805" height="805" fill="url(#paint1_radial_1_1883)"/>
</mask>
<g mask="url(#mask1_1_1883)">
<path d="M110.167 110.544H43.5V177.21H110.167V110.544Z" stroke="#8933F6"/>
<path d="M176.833 110.544H110.167V177.21H176.833V110.544Z" stroke="#8933F6"/>
<path d="M243.5 110.544H176.833V177.21H243.5V110.544Z" stroke="#8933F6"/>
<path d="M310.167 110.544H243.5V177.21H310.167V110.544Z" stroke="#8933F6"/>
<path d="M376.833 110.544H310.167V177.21H376.833V110.544Z" stroke="#8933F6"/>
<path d="M443.5 110.544H376.833V177.21H443.5V110.544Z" stroke="#8933F6"/>
<path d="M510.167 110.544H443.5V177.21H510.167V110.544Z" stroke="#8933F6"/>
<path d="M576.833 110.544H510.167V177.21H576.833V110.544Z" stroke="#8933F6"/>
<path d="M110.167 177.21H43.5V243.877H110.167V177.21Z" stroke="#8933F6"/>
<path d="M176.833 177.21H110.167V243.877H176.833V177.21Z" stroke="#8933F6"/>
<path d="M243.5 177.21H176.833V243.877H243.5V177.21Z" stroke="#8933F6"/>
<path d="M310.167 177.21H243.5V243.877H310.167V177.21Z" stroke="#8933F6"/>
<path d="M376.833 177.21H310.167V243.877H376.833V177.21Z" stroke="#8933F6"/>
<path d="M443.5 177.21H376.833V243.877H443.5V177.21Z" stroke="#8933F6"/>
<path d="M510.167 177.21H443.5V243.877H510.167V177.21Z" stroke="#8933F6"/>
<path d="M576.833 177.21H510.167V243.877H576.833V177.21Z" stroke="#8933F6"/>
<path d="M110.167 243.877H43.5V310.544H110.167V243.877Z" stroke="#8933F6"/>
<path d="M176.833 243.877H110.167V310.544H176.833V243.877Z" stroke="#8933F6"/>
<path d="M243.5 243.877H176.833V310.544H243.5V243.877Z" stroke="#8933F6"/>
<path d="M310.167 243.877H243.5V310.544H310.167V243.877Z" stroke="#8933F6"/>
<path d="M376.833 243.877H310.167V310.544H376.833V243.877Z" stroke="#8933F6"/>
<path d="M443.5 243.877H376.833V310.544H443.5V243.877Z" stroke="#8933F6"/>
<path d="M510.167 243.877H443.5V310.544H510.167V243.877Z" stroke="#8933F6"/>
<path d="M576.833 243.877H510.167V310.544H576.833V243.877Z" stroke="#8933F6"/>
<path d="M110.167 310.544H43.5V377.21H110.167V310.544Z" stroke="#8933F6"/>
<path d="M176.833 310.544H110.167V377.21H176.833V310.544Z" stroke="#8933F6"/>
<path d="M243.5 310.544H176.833V377.21H243.5V310.544Z" stroke="#8933F6"/>
<path d="M310.167 310.544H243.5V377.21H310.167V310.544Z" stroke="#8933F6"/>
<path d="M376.833 310.544H310.167V377.21H376.833V310.544Z" stroke="#8933F6"/>
<path d="M443.5 310.544H376.833V377.21H443.5V310.544Z" stroke="#8933F6"/>
<path d="M510.167 310.544H443.5V377.21H510.167V310.544Z" stroke="#8933F6"/>
<path d="M576.833 310.544H510.167V377.21H576.833V310.544Z" stroke="#8933F6"/>
<path d="M110.167 377.21H43.5V443.877H110.167V377.21Z" stroke="#8933F6"/>
<path d="M176.833 377.21H110.167V443.877H176.833V377.21Z" stroke="#8933F6"/>
<path d="M243.5 377.21H176.833V443.877H243.5V377.21Z" stroke="#8933F6"/>
<path d="M310.167 377.21H243.5V443.877H310.167V377.21Z" stroke="#8933F6"/>
<path d="M376.833 377.21H310.167V443.877H376.833V377.21Z" stroke="#8933F6"/>
<path d="M443.5 377.21H376.833V443.877H443.5V377.21Z" stroke="#8933F6"/>
<path d="M510.167 377.21H443.5V443.877H510.167V377.21Z" stroke="#8933F6"/>
<path d="M576.833 377.21H510.167V443.877H576.833V377.21Z" stroke="#8933F6"/>
<path d="M110.167 443.877H43.5V510.544H110.167V443.877Z" stroke="#8933F6"/>
<path d="M176.833 443.877H110.167V510.544H176.833V443.877Z" stroke="#8933F6"/>
<path d="M243.5 443.877H176.833V510.544H243.5V443.877Z" stroke="#8933F6"/>
<path d="M310.167 443.877H243.5V510.544H310.167V443.877Z" stroke="#8933F6"/>
<path d="M376.833 443.877H310.167V510.544H376.833V443.877Z" stroke="#8933F6"/>
<path d="M443.5 443.877H376.833V510.544H443.5V443.877Z" stroke="#8933F6"/>
<path d="M510.167 443.877H443.5V510.544H510.167V443.877Z" stroke="#8933F6"/>
<path d="M576.833 443.877H510.167V510.544H576.833V443.877Z" stroke="#8933F6"/>
</g>
<rect x="-0.853933" y="-0.533596" width="143.187" height="143.187" rx="8.59368" transform="matrix(1 0 0.438371 0.898794 172.734 260.49)" fill="url(#paint2_linear_1_1883)" stroke="url(#paint3_linear_1_1883)" stroke-width="1.18736"/>
<rect x="-0.853933" y="-0.533596" width="143.187" height="143.187" rx="8.59368" transform="matrix(1 0 0.438371 0.898794 95.7339 299.49)" fill="url(#paint4_linear_1_1883)" stroke="url(#paint5_linear_1_1883)" stroke-width="1.18736"/>
<g filter="url(#filter0_f_1_1883)">
<path d="M-44.2617 503.746C-40.5305 488.017 -56.7556 457.836 -65.3345 444.712C24.7928 463.537 218.363 500.906 271.625 499.785C338.202 498.384 433.785 571.904 401.992 564.128C370.2 556.353 301.269 610.28 254.671 620.146C208.073 630.012 180.286 686.946 182.317 710.582C184.347 734.218 90.5868 629.204 69.4297 596.326C48.2725 563.448 -70.7132 566.181 -107.875 545.122C-145.037 524.063 -48.9256 523.407 -44.2617 503.746Z" fill="url(#paint6_linear_1_1883)"/>
</g>
<g filter="url(#filter1_di_1_1883)">
<rect width="142" height="142" rx="8" transform="matrix(1 0 0.438371 0.898794 253.5 227.544)" fill="url(#paint7_linear_1_1883)" shape-rendering="crispEdges"/>
<rect x="-1.43837" y="-0.898794" width="144" height="144" rx="9" transform="matrix(1 0 0.438371 0.898794 253.894 227.453)" stroke="url(#paint8_linear_1_1883)" stroke-width="2" shape-rendering="crispEdges"/>
</g>
<path d="M390.204 321.304L390.202 321.303L367.435 311.342L353.998 321.303L353.997 321.304C353.173 321.908 352.034 322.203 350.721 322.152C349.409 322.102 347.981 321.708 346.617 321.02C345.253 320.332 344.013 319.381 343.052 318.285C342.091 317.19 341.452 315.999 341.214 314.86C341.214 314.86 341.214 314.86 341.214 314.859L337.224 296.042L315.32 283.374C315.319 283.373 315.318 283.373 315.318 283.372C313.984 282.607 312.806 281.598 311.933 280.471C311.059 279.343 310.529 278.148 310.408 277.034C310.288 275.92 310.583 274.937 311.256 274.21C311.929 273.483 312.95 273.042 314.192 272.944C314.192 272.944 314.193 272.944 314.193 272.944L334.503 271.289L334.437 253.498C334.43 252.417 334.839 251.495 335.611 250.846C336.383 250.197 337.484 249.851 338.775 249.851C340.067 249.851 341.491 250.197 342.868 250.846C344.245 251.495 345.513 252.417 346.514 253.496C346.515 253.497 346.515 253.497 346.515 253.498L363.067 271.289L384.913 272.944C384.913 272.944 384.914 272.944 384.914 272.944C386.247 273.042 387.679 273.483 389.03 274.21C390.382 274.937 391.593 275.92 392.512 277.034C393.43 278.148 394.015 279.343 394.193 280.471C394.371 281.599 394.134 282.609 393.513 283.374L393.376 283.542H393.36L383.401 296.023L396.976 314.859L390.204 321.304ZM390.204 321.304C391.59 321.908 393.005 322.203 394.27 322.152C395.535 322.102 396.596 321.708 397.318 321.02C398.041 320.332 398.394 319.381 398.333 318.285C398.272 317.19 397.801 315.999 396.977 314.861L390.204 321.304Z" fill="url(#paint9_linear_1_1883)" stroke="url(#paint10_linear_1_1883)" stroke-width="1.52964"/>
</g>
<rect x="1.175" y="1.2187" width="521.65" height="470.65" rx="26.325" stroke="url(#paint11_linear_1_1883)" stroke-width="1.35"/>
<rect x="1.175" y="1.2187" width="521.65" height="470.65" rx="26.325" stroke="url(#paint12_radial_1_1883)" stroke-width="1.35"/>
<rect x="1.175" y="1.2187" width="521.65" height="470.65" rx="26.325" stroke="url(#paint13_radial_1_1883)" stroke-opacity="0.4" stroke-width="1.35"/>
<defs>
<filter id="filter0_f_1_1883" x="-366.399" y="194.712" width="1024.69" height="769.302" filterUnits="userSpaceOnUse" color-interpolation-filters="sRGB">
<feFlood flood-opacity="0" result="BackgroundImageFix"/>
<feBlend mode="normal" in="SourceGraphic" in2="BackgroundImageFix" result="shape"/>
<feGaussianBlur stdDeviation="125" result="effect1_foregroundBlur_1_1883"/>
</filter>
<filter id="filter1_di_1_1883" x="252.086" y="223.746" width="207.078" height="135.224" filterUnits="userSpaceOnUse" color-interpolation-filters="sRGB">
<feFlood flood-opacity="0" result="BackgroundImageFix"/>
<feColorMatrix in="SourceAlpha" type="matrix" values="0 0 0 0 0 0 0 0 0 0 0 0 0 0 0 0 0 0 127 0" result="hardAlpha"/>
<feMorphology radius="2" operator="dilate" in="SourceAlpha" result="effect1_dropShadow_1_1883"/>
<feOffset/>
<feComposite in2="hardAlpha" operator="out"/>
<feColorMatrix type="matrix" values="0 0 0 0 0.481725 0 0 0 0 0.0745092 0 0 0 0 1 0 0 0 0.55 0"/>
<feBlend mode="normal" in2="BackgroundImageFix" result="effect1_dropShadow_1_1883"/>
<feBlend mode="normal" in="SourceGraphic" in2="effect1_dropShadow_1_1883" result="shape"/>
<feColorMatrix in="SourceAlpha" type="matrix" values="0 0 0 0 0 0 0 0 0 0 0 0 0 0 0 0 0 0 127 0" result="hardAlpha"/>
<feOffset dy="1"/>
<feGaussianBlur stdDeviation="2.5"/>
<feComposite in2="hardAlpha" operator="arithmetic" k2="-1" k3="1"/>
<feColorMatrix type="matrix" values="0 0 0 0 1 0 0 0 0 1 0 0 0 0 1 0 0 0 0.25 0"/>
<feBlend mode="normal" in2="shape" result="effect2_innerShadow_1_1883"/>
</filter>
<radialGradient id="paint0_radial_1_1883" cx="0" cy="0" r="1" gradientUnits="userSpaceOnUse" gradientTransform="translate(-112 310.044) rotate(90) scale(204.5)">
<stop stop-color="#D9D9D9"/>
<stop offset="1" stop-color="#D9D9D9" stop-opacity="0"/>
</radialGradient>
<radialGradient id="paint1_radial_1_1883" cx="0" cy="0" r="1" gradientUnits="userSpaceOnUse" gradientTransform="translate(477 544.044) rotate(90) scale(204.5)">
<stop stop-color="#D9D9D9"/>
<stop offset="1" stop-color="#D9D9D9" stop-opacity="0"/>
</radialGradient>
<linearGradient id="paint2_linear_1_1883" x1="162.448" y1="-231.421" x2="274.338" y2="115.601" gradientUnits="userSpaceOnUse">
<stop stop-color="#FF45F8" stop-opacity="0.585"/>
<stop offset="0.475" stop-color="#B454FF"/>
<stop offset="1" stop-color="#181616" stop-opacity="0"/>
</linearGradient>
<linearGradient id="paint3_linear_1_1883" x1="104.501" y1="204.162" x2="89.5251" y2="32.1201" gradientUnits="userSpaceOnUse">
<stop stop-color="white"/>
<stop offset="1" stop-opacity="0"/>
</linearGradient>
<linearGradient id="paint4_linear_1_1883" x1="162.448" y1="-231.421" x2="274.338" y2="115.601" gradientUnits="userSpaceOnUse">
<stop stop-color="#FF45F8" stop-opacity="0.585"/>
<stop offset="0.475" stop-color="#B454FF"/>
<stop offset="1" stop-color="#181616" stop-opacity="0"/>
</linearGradient>
<linearGradient id="paint5_linear_1_1883" x1="104.501" y1="204.162" x2="89.5251" y2="32.1201" gradientUnits="userSpaceOnUse">
<stop stop-color="white"/>
<stop offset="1" stop-opacity="0"/>
</linearGradient>
<linearGradient id="paint6_linear_1_1883" x1="139.5" y1="518.044" x2="129" y2="629.544" gradientUnits="userSpaceOnUse">
<stop stop-color="#7829F7"/>
<stop offset="0.882606" stop-color="#FF2AEA"/>
<stop offset="0.98" stop-color="white"/>
</linearGradient>
<linearGradient id="paint7_linear_1_1883" x1="63.8283" y1="32.2727" x2="63.8283" y2="240.97" gradientUnits="userSpaceOnUse">
<stop stop-color="#1C1634"/>
<stop offset="1" stop-color="#BE33FF"/>
</linearGradient>
<linearGradient id="paint8_linear_1_1883" x1="99.0446" y1="-63.9746" x2="67.2872" y2="141.426" gradientUnits="userSpaceOnUse">
<stop/>
<stop offset="1" stop-opacity="0"/>
</linearGradient>
<linearGradient id="paint9_linear_1_1883" x1="351" y1="258.544" x2="318.664" y2="337.736" gradientUnits="userSpaceOnUse">
<stop stop-color="#FF45F8" stop-opacity="0.585"/>
<stop offset="0.37" stop-color="white"/>
<stop offset="0.62" stop-color="#9554FF"/>
<stop offset="1" stop-color="#181616" stop-opacity="0"/>
</linearGradient>
<linearGradient id="paint10_linear_1_1883" x1="342.663" y1="258.168" x2="342.281" y2="321.995" gradientUnits="userSpaceOnUse">
<stop stop-color="white"/>
<stop offset="1" stop-opacity="0"/>
</linearGradient>
<linearGradient id="paint11_linear_1_1883" x1="301.551" y1="-114.535" x2="293.914" y2="543.383" gradientUnits="userSpaceOnUse">
<stop stop-color="#656565"/>
<stop offset="1" stop-opacity="0"/>
</linearGradient>
<radialGradient id="paint12_radial_1_1883" cx="0" cy="0" r="1" gradientUnits="userSpaceOnUse" gradientTransform="translate(392.285 -2.68885) rotate(100.099) scale(130.023 141.781)">
<stop stop-color="#AF36FA"/>
<stop offset="1" stop-color="#7534FF" stop-opacity="0"/>
</radialGradient>
<radialGradient id="paint13_radial_1_1883" cx="0" cy="0" r="1" gradientUnits="userSpaceOnUse" gradientTransform="translate(40.9813 274.34) rotate(40.3923) scale(108.746 84.3343)">
<stop stop-color="#AF2DFF"/>
<stop offset="1" stop-color="#F8F7FF" stop-opacity="0"/>
</radialGradient>
<clipPath id="clip0_1_1883">
<rect x="0.5" y="0.543701" width="523" height="472" rx="27" fill="white"/>
</clipPath>
</defs>
</svg>
