<svg width="524" height="473" viewBox="0 0 524 473" fill="none" xmlns="http://www.w3.org/2000/svg">
<g clip-path="url(#clip0_1_1865)">
<rect x="0.5" y="0.543701" width="523" height="472" rx="27" fill="#13131A"/>
<path d="M397.508 116.792L174.657 245.445C170.047 248.105 163.791 249.596 157.272 249.586L66.2047 249.45C59.6862 249.441 53.4298 250.931 48.8204 253.592L-150.5 368.66" stroke="#1B1B1B" stroke-width="2"/>
<path d="M-36.4969 303.846C-36.9752 304.122 -37.7507 304.122 -38.229 303.846C-38.7073 303.569 -38.7073 303.122 -38.229 302.846L-36.4969 303.846ZM25.7285 267.923L-36.4969 303.846L-38.229 302.846L23.9964 266.923L25.7285 267.923Z" fill="url(#paint0_linear_1_1865)"/>
<path d="M232.045 212.314L176.836 244.186C170.666 247.748 162.306 249.758 153.58 249.777L111.837 249.87" stroke="url(#paint1_radial_1_1865)" stroke-width="2"/>
<g filter="url(#filter0_f_1_1865)">
<path d="M262.738 497.746C266.469 482.017 250.244 451.836 241.666 438.712C331.793 457.537 525.363 494.906 578.625 493.785C645.202 492.384 740.785 565.904 708.992 558.128C677.2 550.353 608.269 604.28 561.671 614.146C515.073 624.012 487.286 680.946 489.317 704.582C491.347 728.218 397.587 623.204 376.43 590.326C355.272 557.448 236.287 560.181 199.125 539.122C161.963 518.063 258.074 517.407 262.738 497.746Z" fill="url(#paint2_linear_1_1865)"/>
</g>
<mask id="path-7-outside-1_1_1865" maskUnits="userSpaceOnUse" x="27.0078" y="206.355" width="393.184" height="226.985" fill="black">
<rect fill="white" x="27.0078" y="206.355" width="393.184" height="226.985"/>
<path d="M290.907 364.986L240.974 351.581L177.274 388.355L200.288 417.3L177.479 430.467L86.4492 312.671L111.313 298.318L314.948 351.106L290.907 364.986ZM123.026 320.026L165.766 373.883L215.905 344.938L123.026 320.026ZM397.593 303.395L380.744 293.668C386.086 304.582 380.744 315.495 364.716 324.748C342.112 337.797 314.372 338.865 294.44 327.358C273.07 315.021 279.029 298.769 311.495 280.026C317.865 276.348 323.208 273.501 333.071 268.994L325.057 264.367C309.44 255.352 292.18 255.114 277.796 263.418C262.59 272.197 262.384 282.754 276.974 291.889L258.069 302.802C234.644 288.092 235.877 268.638 261.357 253.928C288.275 238.388 319.098 238.151 344.989 253.098L414.854 293.431L397.593 303.395ZM313.55 315.614C324.852 322.138 340.674 321.545 354.031 313.834C371.497 303.751 371.497 291.177 354.853 281.568L346.017 276.467C336.975 280.5 331.016 283.703 325.674 286.788C304.92 298.769 300.81 308.259 313.55 315.614Z"/>
</mask>
<path d="M290.907 364.986L240.974 351.581L177.274 388.355L200.288 417.3L177.479 430.467L86.4492 312.671L111.313 298.318L314.948 351.106L290.907 364.986ZM123.026 320.026L165.766 373.883L215.905 344.938L123.026 320.026ZM397.593 303.395L380.744 293.668C386.086 304.582 380.744 315.495 364.716 324.748C342.112 337.797 314.372 338.865 294.44 327.358C273.07 315.021 279.029 298.769 311.495 280.026C317.865 276.348 323.208 273.501 333.071 268.994L325.057 264.367C309.44 255.352 292.18 255.114 277.796 263.418C262.59 272.197 262.384 282.754 276.974 291.889L258.069 302.802C234.644 288.092 235.877 268.638 261.357 253.928C288.275 238.388 319.098 238.151 344.989 253.098L414.854 293.431L397.593 303.395ZM313.55 315.614C324.852 322.138 340.674 321.545 354.031 313.834C371.497 303.751 371.497 291.177 354.853 281.568L346.017 276.467C336.975 280.5 331.016 283.703 325.674 286.788C304.92 298.769 300.81 308.259 313.55 315.614Z" fill="url(#paint3_linear_1_1865)"/>
<path d="M290.907 364.986L290.293 365.747L291.216 365.994L291.935 365.579L290.907 364.986ZM240.974 351.581L241.587 350.819L240.665 350.572L239.945 350.987L240.974 351.581ZM177.274 388.355L176.245 387.761L175.53 388.174L175.952 388.705L177.274 388.355ZM200.288 417.3L201.316 417.893L202.032 417.48L201.609 416.95L200.288 417.3ZM177.479 430.467L176.151 430.809L177.012 431.924L178.507 431.061L177.479 430.467ZM86.4492 312.671L85.4209 312.078L84.7136 312.486L85.1211 313.013L86.4492 312.671ZM111.313 298.318L111.909 297.552L110.994 297.314L110.285 297.724L111.313 298.318ZM314.948 351.106L315.977 351.7L317.468 350.839L315.544 350.34L314.948 351.106ZM123.026 320.026L123.638 319.265L120.06 318.305L121.703 320.376L123.026 320.026ZM165.766 373.883L164.444 374.232L165.316 375.33L166.795 374.476L165.766 373.883ZM215.905 344.938L216.933 345.531L218.404 344.682L216.517 344.176L215.905 344.938ZM291.52 364.224L241.587 350.819L240.361 352.342L290.293 365.747L291.52 364.224ZM239.945 350.987L176.245 387.761L178.302 388.949L242.002 352.174L239.945 350.987ZM175.952 388.705L198.966 417.65L201.609 416.95L178.595 388.005L175.952 388.705ZM199.26 416.706L176.451 429.874L178.507 431.061L201.316 417.893L199.26 416.706ZM178.807 430.125L87.7773 312.329L85.1211 313.013L176.151 430.809L178.807 430.125ZM87.4775 313.265L112.341 298.911L110.285 297.724L85.4209 312.078L87.4775 313.265ZM110.717 299.083L314.353 351.872L315.544 350.34L111.909 297.552L110.717 299.083ZM313.92 350.513L289.878 364.392L291.935 365.579L315.977 351.7L313.92 350.513ZM121.703 320.376L164.444 374.232L167.088 373.533L124.348 319.676L121.703 320.376ZM166.795 374.476L216.933 345.531L214.876 344.344L164.738 373.289L166.795 374.476ZM216.517 344.176L123.638 319.265L122.413 320.788L215.292 345.699L216.517 344.176ZM397.593 303.395L396.565 303.989L397.593 304.583L398.622 303.989L397.593 303.395ZM380.744 293.668L381.772 293.074L377.827 290.797L379.344 293.896L380.744 293.668ZM333.071 268.994L333.974 269.652L335.254 269.067L334.099 268.4L333.071 268.994ZM276.974 291.889L278.002 292.482L278.99 291.912L278.043 291.319L276.974 291.889ZM258.069 302.802L256.999 303.37L258.025 304.015L259.097 303.396L258.069 302.802ZM414.854 293.431L415.882 294.024L416.911 293.431L415.882 292.837L414.854 293.431ZM346.017 276.467L347.045 275.873L346.14 275.351L345.127 275.803L346.017 276.467ZM398.622 302.802L381.772 293.074L379.715 294.262L396.565 303.989L398.622 302.802ZM379.344 293.896C384.525 304.48 379.393 315.088 363.687 324.154L365.744 325.342C382.094 315.903 387.647 304.683 382.143 293.44L379.344 293.896ZM363.687 324.154C352.577 330.568 340.307 333.98 328.482 334.424C316.681 334.866 305.163 332.361 295.468 326.764L293.412 327.951C303.649 333.861 315.967 336.576 328.67 336.099C341.349 335.623 354.251 331.977 365.744 325.342L363.687 324.154ZM295.468 326.764C285.105 320.782 281.433 313.917 284.202 306.266C286.995 298.549 296.378 289.94 312.524 280.62L310.467 279.432C294.146 288.854 284.316 297.744 281.355 305.922C278.371 314.167 282.404 321.597 293.412 327.951L295.468 326.764ZM312.524 280.62C318.856 276.964 324.157 274.139 333.974 269.652L332.168 268.335C322.259 272.864 316.875 275.733 310.467 279.432L312.524 280.62ZM334.099 268.4L326.086 263.774L324.029 264.961L332.043 269.587L334.099 268.4ZM326.086 263.774C318.099 259.163 309.548 256.716 301.01 256.559C292.455 256.401 284.174 258.549 276.767 262.825L278.824 264.012C285.802 259.984 293.343 258.098 300.918 258.237C308.51 258.377 316.398 260.556 324.029 264.961L326.086 263.774ZM276.767 262.825C268.959 267.333 264.893 272.365 264.757 277.507C264.622 282.648 268.418 287.77 275.905 292.458L278.043 291.319C270.94 286.872 267.544 282.149 267.666 277.533C267.787 272.918 271.427 268.282 278.824 264.012L276.767 262.825ZM275.945 291.295L257.041 302.209L259.097 303.396L278.002 292.482L275.945 291.295ZM259.14 302.234C247.66 295.025 242.278 286.695 242.827 278.397C243.376 270.096 249.867 261.749 262.385 254.522L260.329 253.334C247.367 260.817 240.501 269.552 239.92 278.333C239.339 287.118 245.053 295.869 256.999 303.37L259.14 302.234ZM262.385 254.522C275.655 246.861 289.749 243.049 303.582 242.92C317.406 242.791 331.224 246.338 343.961 253.691L346.018 252.504C332.863 244.91 318.325 241.103 303.535 241.241C288.754 241.379 273.978 245.455 260.329 253.334L262.385 254.522ZM343.961 253.691L413.826 294.024L415.882 292.837L346.018 252.504L343.961 253.691ZM413.826 292.837L396.565 302.802L398.622 303.989L415.882 294.024L413.826 292.837ZM312.522 316.207C318.446 319.627 325.631 321.215 333.126 320.9C340.592 320.585 348.197 318.389 355.059 314.428L353.002 313.241C346.508 316.99 339.524 318.946 332.914 319.225C326.333 319.502 319.956 318.125 314.578 315.02L312.522 316.207ZM355.059 314.428C364.008 309.262 368.58 303.397 368.687 297.532C368.795 291.666 364.432 285.911 355.881 280.974L353.824 282.162C361.917 286.834 365.877 292.171 365.779 297.514C365.681 302.86 361.52 308.324 353.002 313.241L355.059 314.428ZM355.881 280.974L347.045 275.873L344.988 277.061L353.824 282.162L355.881 280.974ZM345.127 275.803C336.028 279.862 330.023 283.089 324.645 286.194L326.702 287.381C332.009 284.317 337.922 281.139 346.906 277.131L345.127 275.803ZM324.645 286.194C314.202 292.223 307.762 297.724 305.639 302.736C303.481 307.829 305.816 312.336 312.522 316.207L314.578 315.02C308.544 311.536 306.564 307.621 308.464 303.135C310.399 298.568 316.392 293.333 326.702 287.381L324.645 286.194Z" fill="url(#paint4_linear_1_1865)" mask="url(#path-7-outside-1_1_1865)"/>
<path d="M683.508 253.792L460.657 382.445C456.047 385.105 449.791 386.596 443.272 386.586L352.205 386.45C345.686 386.441 339.43 387.931 334.82 390.592L135.5 505.66" stroke="#E7E7E7" stroke-opacity="0.05" stroke-width="2"/>
<path d="M249.503 440.846C249.025 441.122 248.249 441.122 247.771 440.846C247.293 440.569 247.293 440.122 247.771 439.846L249.503 440.846ZM311.729 404.923L249.503 440.846L247.771 439.846L309.996 403.923L311.729 404.923Z" fill="url(#paint5_linear_1_1865)"/>
<path d="M406.366 221.966C405.888 222.243 405.112 222.243 404.634 221.966C404.156 221.69 404.156 221.243 404.634 220.966L406.366 221.966ZM468.591 186.044L406.366 221.966L404.634 220.966L466.859 185.044L468.591 186.044Z" fill="url(#paint6_linear_1_1865)"/>
<path d="M406.366 221.966C405.888 222.243 405.112 222.243 404.634 221.966C404.156 221.69 404.156 221.243 404.634 220.966L406.366 221.966ZM468.592 186.044L406.366 221.966L404.634 220.966L466.859 185.044L468.592 186.044Z" fill="url(#paint7_linear_1_1865)"/>
<path d="M44.366 436.966C43.8877 437.243 43.1123 437.243 42.634 436.966C42.1557 436.69 42.1557 436.243 42.634 435.966L44.366 436.966ZM106.591 401.044L44.366 436.966L42.634 435.966L104.859 400.044L106.591 401.044Z" fill="url(#paint8_linear_1_1865)"/>
<path d="M518.045 349.314L462.836 381.186C456.666 384.748 448.306 386.758 439.58 386.777L397.837 386.87" stroke="url(#paint9_radial_1_1865)" stroke-width="2"/>
</g>
<rect x="1.175" y="1.2187" width="521.65" height="470.65" rx="26.325" stroke="url(#paint10_linear_1_1865)" stroke-width="1.35"/>
<rect x="1.175" y="1.2187" width="521.65" height="470.65" rx="26.325" stroke="url(#paint11_radial_1_1865)" stroke-width="1.35"/>
<rect x="1.175" y="1.2187" width="521.65" height="470.65" rx="26.325" stroke="url(#paint12_radial_1_1865)" stroke-opacity="0.4" stroke-width="1.35"/>
<defs>
<filter id="filter0_f_1_1865" x="-59.3986" y="188.712" width="1024.69" height="769.302" filterUnits="userSpaceOnUse" color-interpolation-filters="sRGB">
<feFlood flood-opacity="0" result="BackgroundImageFix"/>
<feBlend mode="normal" in="SourceGraphic" in2="BackgroundImageFix" result="shape"/>
<feGaussianBlur stdDeviation="125" result="effect1_foregroundBlur_1_1865"/>
</filter>
<linearGradient id="paint0_linear_1_1865" x1="-43.1106" y1="306.664" x2="-15.1587" y2="257.994" gradientUnits="userSpaceOnUse">
<stop stop-color="#8248FF"/>
<stop offset="1" stop-color="#4E5360" stop-opacity="0"/>
</linearGradient>
<radialGradient id="paint1_radial_1_1865" cx="0" cy="0" r="1" gradientUnits="userSpaceOnUse" gradientTransform="translate(159.024 242.135) rotate(-33.7024) scale(49.9844 14.0631)">
<stop stop-color="#A850FF"/>
<stop offset="1" stop-color="#764CED" stop-opacity="0"/>
</radialGradient>
<linearGradient id="paint2_linear_1_1865" x1="446.5" y1="512.044" x2="436" y2="623.544" gradientUnits="userSpaceOnUse">
<stop stop-color="#7829F7"/>
<stop offset="0.882606" stop-color="#FF2AEA"/>
<stop offset="0.98" stop-color="white"/>
</linearGradient>
<linearGradient id="paint3_linear_1_1865" x1="201.5" y1="229.544" x2="248.156" y2="393.214" gradientUnits="userSpaceOnUse">
<stop stop-color="#FF45F8" stop-opacity="0.585"/>
<stop offset="0.37" stop-color="white"/>
<stop offset="0.62" stop-color="#9554FF"/>
<stop offset="1" stop-color="#181616" stop-opacity="0"/>
</linearGradient>
<linearGradient id="paint4_linear_1_1865" x1="158.477" y1="259.939" x2="260.893" y2="439.322" gradientUnits="userSpaceOnUse">
<stop stop-color="white"/>
<stop offset="1" stop-opacity="0"/>
</linearGradient>
<linearGradient id="paint5_linear_1_1865" x1="242.889" y1="443.664" x2="270.841" y2="394.994" gradientUnits="userSpaceOnUse">
<stop stop-color="#8248FF"/>
<stop offset="1" stop-color="#4E5360" stop-opacity="0"/>
</linearGradient>
<linearGradient id="paint6_linear_1_1865" x1="399.752" y1="224.785" x2="427.704" y2="176.115" gradientUnits="userSpaceOnUse">
<stop stop-color="#8248FF"/>
<stop offset="1" stop-color="#4E5360" stop-opacity="0"/>
</linearGradient>
<linearGradient id="paint7_linear_1_1865" x1="399.752" y1="224.785" x2="427.704" y2="176.115" gradientUnits="userSpaceOnUse">
<stop stop-color="#8248FF"/>
<stop offset="1" stop-color="#4E5360" stop-opacity="0"/>
</linearGradient>
<linearGradient id="paint8_linear_1_1865" x1="37.7523" y1="439.785" x2="65.7042" y2="391.115" gradientUnits="userSpaceOnUse">
<stop stop-color="#8248FF"/>
<stop offset="1" stop-color="#4E5360" stop-opacity="0"/>
</linearGradient>
<radialGradient id="paint9_radial_1_1865" cx="0" cy="0" r="1" gradientUnits="userSpaceOnUse" gradientTransform="translate(445.024 379.135) rotate(-33.7024) scale(49.9844 14.0631)">
<stop stop-color="#A850FF"/>
<stop offset="1" stop-color="#764CED" stop-opacity="0"/>
</radialGradient>
<linearGradient id="paint10_linear_1_1865" x1="301.551" y1="-114.535" x2="293.914" y2="543.383" gradientUnits="userSpaceOnUse">
<stop stop-color="#656565"/>
<stop offset="1" stop-opacity="0"/>
</linearGradient>
<radialGradient id="paint11_radial_1_1865" cx="0" cy="0" r="1" gradientUnits="userSpaceOnUse" gradientTransform="translate(392.285 -2.68885) rotate(100.099) scale(130.023 141.781)">
<stop stop-color="#AF36FA"/>
<stop offset="1" stop-color="#7534FF" stop-opacity="0"/>
</radialGradient>
<radialGradient id="paint12_radial_1_1865" cx="0" cy="0" r="1" gradientUnits="userSpaceOnUse" gradientTransform="translate(40.9813 274.34) rotate(40.3923) scale(108.746 84.3343)">
<stop stop-color="#E9E7FF"/>
<stop offset="1" stop-color="#F8F7FF" stop-opacity="0"/>
</radialGradient>
<clipPath id="clip0_1_1865">
<rect x="0.5" y="0.543701" width="523" height="472" rx="27" fill="white"/>
</clipPath>
</defs>
</svg>
