<svg width="555" height="82" viewBox="0 0 555 82" fill="none" xmlns="http://www.w3.org/2000/svg">
<path d="M696 80.0439L378.972 80.0439C373.65 80.0439 368.547 77.9226 364.793 74.1494L297.929 6.93845C294.176 3.1653 289.073 1.04393 283.751 1.04393L3.4532e-06 1.04391" stroke="#1B1B1B" stroke-width="2"/>
<path d="M160 2.04394C159.448 2.04394 159 1.59623 159 1.04394C159 0.491657 159.448 0.0439414 160 0.0439415L160 2.04394ZM248 2.04395L160 2.04394L160 0.0439415L248 0.0439453L248 2.04395Z" fill="url(#paint0_linear_1_1164)"/>
<path d="M462 80.0439L381.423 80.0439C374.298 80.0439 367.462 77.2276 362.405 72.2088L331 41.0439" stroke="url(#paint1_radial_1_1164)" stroke-width="2"/>
<defs>
<linearGradient id="paint0_linear_1_1164" x1="151.871" y1="1.04394" x2="231.352" y2="0.791889" gradientUnits="userSpaceOnUse">
<stop stop-color="#8248FF"/>
<stop offset="1" stop-color="#4E5360" stop-opacity="0"/>
</linearGradient>
<radialGradient id="paint1_radial_1_1164" cx="0" cy="0" r="1" gradientUnits="userSpaceOnUse" gradientTransform="translate(373.841 64.9358) rotate(-4.12225) scale(63.5401 19.1631)">
<stop stop-color="#A850FF"/>
<stop offset="1" stop-color="#764CED" stop-opacity="0"/>
</radialGradient>
</defs>
</svg>
