<svg width="443" height="379" viewBox="0 0 443 379" fill="none" xmlns="http://www.w3.org/2000/svg">
<circle opacity="0.6" cx="3.73457" cy="21.8457" r="3.73457" fill="#F689FF"/>
<circle opacity="0.29" cx="35.1049" cy="21.8457" r="3.73457" fill="#F689FF"/>
<circle opacity="0.71" cx="66.4753" cy="21.8457" r="3.73457" fill="white" fill-opacity="0.5"/>
<circle opacity="0.78" cx="97.8456" cy="21.8457" r="3.73457" fill="#F689FF"/>
<circle opacity="0.77" cx="129.216" cy="21.8457" r="3.73457" fill="#F689FF"/>
<circle opacity="0.38" cx="160.586" cy="21.8457" r="3.73457" fill="#F689FF"/>
<circle opacity="0.6" cx="191.957" cy="21.8457" r="3.73457" fill="white" fill-opacity="0.5"/>
<circle opacity="0.9" cx="223.327" cy="21.8457" r="3.73457" fill="white" fill-opacity="0.5"/>
<circle opacity="0.38" cx="254.698" cy="21.8457" r="3.73457" fill="#F689FF"/>
<circle opacity="0.97" cx="286.068" cy="21.8457" r="3.73457" fill="white" fill-opacity="0.5"/>
<circle opacity="0.04" cx="317.438" cy="21.8457" r="3.73457" fill="#F689FF"/>
<circle opacity="0.3" cx="348.809" cy="21.8457" r="3.73457" fill="#F689FF"/>
<circle opacity="0.65" cx="380.179" cy="21.8457" r="3.73457" fill="#F689FF"/>
<circle opacity="0.13" cx="411.549" cy="21.8457" r="3.73457" fill="#F689FF"/>
<circle opacity="0.45" cx="442.92" cy="21.8457" r="3.73457" fill="white" fill-opacity="0.5"/>
<circle opacity="0.49" cx="3.73457" cy="53.216" r="3.73457" fill="white" fill-opacity="0.5"/>
<circle opacity="0.59" cx="35.1049" cy="53.216" r="3.73457" fill="#F689FF"/>
<circle opacity="0.04" cx="66.4753" cy="53.216" r="3.73457" fill="#F689FF"/>
<circle opacity="0.43" cx="97.8456" cy="53.216" r="3.73457" fill="white" fill-opacity="0.5"/>
<circle opacity="0.03" cx="129.216" cy="53.216" r="3.73457" fill="white" fill-opacity="0.5"/>
<circle opacity="0.5" cx="160.586" cy="53.216" r="3.73457" fill="#F689FF"/>
<circle opacity="0.06" cx="191.957" cy="53.216" r="3.73457" fill="white" fill-opacity="0.5"/>
<circle opacity="0.94" cx="223.327" cy="53.216" r="3.73457" fill="white" fill-opacity="0.5"/>
<circle opacity="0.64" cx="254.698" cy="53.216" r="3.73457" fill="white" fill-opacity="0.5"/>
<circle opacity="0.84" cx="286.068" cy="53.216" r="3.73457" fill="white" fill-opacity="0.5"/>
<circle opacity="0.88" cx="317.438" cy="53.216" r="3.73457" fill="#F689FF"/>
<circle opacity="0.11" cx="348.809" cy="53.216" r="3.73457" fill="#F689FF"/>
<circle opacity="0.57" cx="380.179" cy="53.216" r="3.73457" fill="#F689FF"/>
<circle opacity="0.04" cx="411.549" cy="53.216" r="3.73457" fill="white" fill-opacity="0.5"/>
<circle opacity="0.13" cx="442.92" cy="53.216" r="3.73457" fill="#F689FF"/>
<circle opacity="0.1" cx="3.73457" cy="84.5864" r="3.73457" fill="#F689FF"/>
<circle opacity="0.55" cx="35.1049" cy="84.5864" r="3.73457" fill="#F689FF"/>
<circle opacity="0.48" cx="66.4753" cy="84.5864" r="3.73457" fill="white" fill-opacity="0.5"/>
<circle opacity="0.45" cx="97.8456" cy="84.5864" r="3.73457" fill="#F689FF"/>
<circle opacity="0.28" cx="129.216" cy="84.5864" r="3.73457" fill="white" fill-opacity="0.5"/>
<circle opacity="0.82" cx="160.586" cy="84.5864" r="3.73457" fill="white" fill-opacity="0.5"/>
<circle opacity="0.18" cx="191.957" cy="84.5864" r="3.73457" fill="white" fill-opacity="0.5"/>
<circle opacity="0.88" cx="223.327" cy="84.5864" r="3.73457" fill="#F689FF"/>
<circle opacity="0.27" cx="254.698" cy="84.5864" r="3.73457" fill="#F689FF"/>
<circle opacity="0.48" cx="286.068" cy="84.5864" r="3.73457" fill="white" fill-opacity="0.5"/>
<circle opacity="0.98" cx="317.438" cy="84.5864" r="3.73457" fill="#F689FF"/>
<circle opacity="0.83" cx="348.809" cy="84.5864" r="3.73457" fill="white" fill-opacity="0.5"/>
<circle opacity="0.43" cx="380.179" cy="84.5864" r="3.73457" fill="#F689FF"/>
<circle opacity="0.02" cx="411.549" cy="84.5864" r="3.73457" fill="#F689FF"/>
<circle opacity="0.63" cx="442.92" cy="84.5864" r="3.73457" fill="white" fill-opacity="0.5"/>
<circle opacity="0.26" cx="3.73457" cy="115.957" r="3.73457" fill="#F689FF"/>
<circle opacity="0.25" cx="35.1049" cy="115.957" r="3.73457" fill="#F689FF"/>
<circle opacity="0.53" cx="66.4753" cy="115.957" r="3.73457" fill="#F689FF"/>
<circle opacity="0.08" cx="97.8456" cy="115.957" r="3.73457" fill="white" fill-opacity="0.5"/>
<circle opacity="0.32" cx="129.216" cy="115.957" r="3.73457" fill="white" fill-opacity="0.5"/>
<circle opacity="0.46" cx="160.586" cy="115.957" r="3.73457" fill="white" fill-opacity="0.5"/>
<circle opacity="0.25" cx="191.957" cy="115.957" r="3.73457" fill="#F689FF"/>
<circle cx="223.327" cy="115.957" r="3.73457" fill="#F689FF"/>
<circle opacity="0.6" cx="254.698" cy="115.957" r="3.73457" fill="white" fill-opacity="0.5"/>
<circle opacity="0.3" cx="286.068" cy="115.957" r="3.73457" fill="#F689FF"/>
<circle opacity="0.02" cx="317.438" cy="115.957" r="3.73457" fill="#F689FF"/>
<circle opacity="0.75" cx="348.809" cy="115.957" r="3.73457" fill="#F689FF"/>
<circle opacity="0.17" cx="380.179" cy="115.957" r="3.73457" fill="#F689FF"/>
<circle opacity="0.34" cx="411.549" cy="115.957" r="3.73457" fill="#F689FF"/>
<circle opacity="0.25" cx="442.92" cy="115.957" r="3.73457" fill="#F689FF"/>
<circle opacity="0.1" cx="3.73457" cy="147.327" r="3.73457" fill="white" fill-opacity="0.5"/>
<circle opacity="0.99" cx="35.1049" cy="147.327" r="3.73457" fill="white" fill-opacity="0.5"/>
<circle opacity="0.04" cx="66.4753" cy="147.327" r="3.73457" fill="white" fill-opacity="0.5"/>
<circle opacity="0.73" cx="97.8456" cy="147.327" r="3.73457" fill="#F689FF"/>
<circle opacity="0.02" cx="129.216" cy="147.327" r="3.73457" fill="#F689FF"/>
<circle opacity="0.49" cx="160.586" cy="147.327" r="3.73457" fill="white" fill-opacity="0.5"/>
<circle opacity="0.68" cx="191.957" cy="147.327" r="3.73457" fill="white" fill-opacity="0.5"/>
<circle opacity="0.71" cx="223.327" cy="147.327" r="3.73457" fill="white" fill-opacity="0.5"/>
<circle opacity="0.19" cx="254.698" cy="147.327" r="3.73457" fill="white" fill-opacity="0.5"/>
<circle opacity="0.57" cx="286.068" cy="147.327" r="3.73457" fill="#F689FF"/>
<circle opacity="0.6" cx="317.438" cy="147.327" r="3.73457" fill="#F689FF"/>
<circle opacity="0.94" cx="348.809" cy="147.327" r="3.73457" fill="#F689FF"/>
<circle opacity="0.43" cx="380.179" cy="147.327" r="3.73457" fill="#F689FF"/>
<circle opacity="0.03" cx="411.549" cy="147.327" r="3.73457" fill="white" fill-opacity="0.5"/>
<circle opacity="0.94" cx="442.92" cy="147.327" r="3.73457" fill="white" fill-opacity="0.5"/>
<circle opacity="0.87" cx="3.73457" cy="178.698" r="3.73457" fill="white" fill-opacity="0.5"/>
<circle opacity="0.05" cx="35.1049" cy="178.698" r="3.73457" fill="#F689FF"/>
<circle opacity="0.45" cx="66.4753" cy="178.698" r="3.73457" fill="#F689FF"/>
<circle opacity="0.97" cx="97.8456" cy="178.698" r="3.73457" fill="#F689FF"/>
<circle opacity="0.37" cx="129.216" cy="178.698" r="3.73457" fill="white" fill-opacity="0.5"/>
<circle opacity="0.72" cx="160.586" cy="178.698" r="3.73457" fill="#F689FF"/>
<circle opacity="0.5" cx="191.957" cy="178.698" r="3.73457" fill="white" fill-opacity="0.5"/>
<circle opacity="0.77" cx="223.327" cy="178.698" r="3.73457" fill="#F689FF"/>
<circle opacity="0.24" cx="254.698" cy="178.698" r="3.73457" fill="white" fill-opacity="0.5"/>
<circle opacity="0.91" cx="286.068" cy="178.698" r="3.73457" fill="white" fill-opacity="0.5"/>
<circle opacity="0.26" cx="317.438" cy="178.698" r="3.73457" fill="#F689FF"/>
<circle opacity="0.49" cx="348.809" cy="178.698" r="3.73457" fill="white" fill-opacity="0.5"/>
<circle opacity="0.27" cx="380.179" cy="178.698" r="3.73457" fill="#F689FF"/>
<circle opacity="0.66" cx="411.549" cy="178.698" r="3.73457" fill="white" fill-opacity="0.5"/>
<circle opacity="0.41" cx="442.92" cy="178.698" r="3.73457" fill="white" fill-opacity="0.5"/>
<circle opacity="0.84" cx="3.73457" cy="210.068" r="3.73457" fill="#F689FF"/>
<circle opacity="0.83" cx="35.1049" cy="210.068" r="3.73457" fill="#F689FF"/>
<circle opacity="0.1" cx="66.4753" cy="210.068" r="3.73457" fill="#F689FF"/>
<circle opacity="0.39" cx="97.8456" cy="210.068" r="3.73457" fill="#F689FF"/>
<circle opacity="0.89" cx="129.216" cy="210.068" r="3.73457" fill="#F689FF"/>
<circle opacity="0.08" cx="160.586" cy="210.068" r="3.73457" fill="white" fill-opacity="0.5"/>
<circle opacity="0.39" cx="191.957" cy="210.068" r="3.73457" fill="#F689FF"/>
<circle opacity="0.09" cx="223.327" cy="210.068" r="3.73457" fill="white" fill-opacity="0.5"/>
<circle opacity="0.88" cx="254.698" cy="210.068" r="3.73457" fill="white" fill-opacity="0.5"/>
<circle opacity="0.73" cx="286.068" cy="210.068" r="3.73457" fill="#F689FF"/>
<circle opacity="0.71" cx="317.438" cy="210.068" r="3.73457" fill="#F689FF"/>
<circle opacity="0.63" cx="348.809" cy="210.068" r="3.73457" fill="white" fill-opacity="0.5"/>
<circle opacity="0.64" cx="380.179" cy="210.068" r="3.73457" fill="#F689FF"/>
<circle opacity="0.74" cx="411.549" cy="210.068" r="3.73457" fill="white" fill-opacity="0.5"/>
<circle opacity="0.22" cx="442.92" cy="210.068" r="3.73457" fill="white" fill-opacity="0.5"/>
<circle opacity="0.88" cx="3.73457" cy="241.438" r="3.73457" fill="white" fill-opacity="0.5"/>
<circle opacity="0.19" cx="35.1049" cy="241.438" r="3.73457" fill="#F689FF"/>
<circle opacity="0.42" cx="66.4753" cy="241.438" r="3.73457" fill="#F689FF"/>
<circle opacity="0.62" cx="97.8456" cy="241.438" r="3.73457" fill="#F689FF"/>
<circle opacity="0.28" cx="129.216" cy="241.438" r="3.73457" fill="white" fill-opacity="0.5"/>
<circle opacity="0.62" cx="160.586" cy="241.438" r="3.73457" fill="#F689FF"/>
<circle opacity="0.26" cx="191.957" cy="241.438" r="3.73457" fill="#F689FF"/>
<circle opacity="0.67" cx="223.327" cy="241.438" r="3.73457" fill="white" fill-opacity="0.5"/>
<circle opacity="0.19" cx="254.698" cy="241.438" r="3.73457" fill="#F689FF"/>
<circle opacity="0.43" cx="286.068" cy="241.438" r="3.73457" fill="white" fill-opacity="0.5"/>
<circle opacity="0.02" cx="317.438" cy="241.438" r="3.73457" fill="white" fill-opacity="0.5"/>
<circle opacity="0.95" cx="348.809" cy="241.438" r="3.73457" fill="#F689FF"/>
<circle opacity="0.16" cx="380.179" cy="241.438" r="3.73457" fill="white" fill-opacity="0.5"/>
<circle opacity="0.95" cx="411.549" cy="241.438" r="3.73457" fill="white" fill-opacity="0.5"/>
<circle opacity="0.52" cx="442.92" cy="241.438" r="3.73457" fill="white" fill-opacity="0.5"/>
<circle opacity="0.01" cx="3.73457" cy="272.809" r="3.73457" fill="#F689FF"/>
<circle opacity="0.53" cx="35.1049" cy="272.809" r="3.73457" fill="white" fill-opacity="0.5"/>
<circle opacity="0.26" cx="66.4753" cy="272.809" r="3.73457" fill="#F689FF"/>
<circle opacity="0.58" cx="97.8456" cy="272.809" r="3.73457" fill="#F689FF"/>
<circle opacity="0.85" cx="129.216" cy="272.809" r="3.73457" fill="white" fill-opacity="0.5"/>
<circle opacity="0.8" cx="160.586" cy="272.809" r="3.73457" fill="#F689FF"/>
<circle opacity="0.16" cx="191.957" cy="272.809" r="3.73457" fill="white" fill-opacity="0.5"/>
<circle opacity="0.04" cx="223.327" cy="272.809" r="3.73457" fill="white" fill-opacity="0.5"/>
<circle opacity="0.56" cx="254.698" cy="272.809" r="3.73457" fill="white" fill-opacity="0.5"/>
<circle opacity="0.89" cx="286.068" cy="272.809" r="3.73457" fill="#F689FF"/>
<circle opacity="0.6" cx="317.438" cy="272.809" r="3.73457" fill="white" fill-opacity="0.5"/>
<circle opacity="0.61" cx="348.809" cy="272.809" r="3.73457" fill="white" fill-opacity="0.5"/>
<circle opacity="0.48" cx="380.179" cy="272.809" r="3.73457" fill="white" fill-opacity="0.5"/>
<circle opacity="0.26" cx="411.549" cy="272.809" r="3.73457" fill="white" fill-opacity="0.5"/>
<circle opacity="0.84" cx="442.92" cy="272.809" r="3.73457" fill="white" fill-opacity="0.5"/>
<circle opacity="0.03" cx="3.73457" cy="304.179" r="3.73457" fill="#F689FF"/>
<circle opacity="0.64" cx="35.1049" cy="304.179" r="3.73457" fill="white" fill-opacity="0.5"/>
<circle opacity="0.65" cx="66.4753" cy="304.179" r="3.73457" fill="white" fill-opacity="0.5"/>
<circle opacity="0.84" cx="97.8456" cy="304.179" r="3.73457" fill="#F689FF"/>
<circle opacity="0.56" cx="129.216" cy="304.179" r="3.73457" fill="#F689FF"/>
<circle opacity="0.21" cx="160.586" cy="304.179" r="3.73457" fill="#F689FF"/>
<circle opacity="0.54" cx="191.957" cy="304.179" r="3.73457" fill="#F689FF"/>
<circle opacity="0.24" cx="223.327" cy="304.179" r="3.73457" fill="white" fill-opacity="0.5"/>
<circle opacity="0.58" cx="254.698" cy="304.179" r="3.73457" fill="white" fill-opacity="0.5"/>
<circle opacity="0.86" cx="286.068" cy="304.179" r="3.73457" fill="white" fill-opacity="0.5"/>
<circle opacity="0.68" cx="317.438" cy="304.179" r="3.73457" fill="#F689FF"/>
<circle opacity="0.89" cx="348.809" cy="304.179" r="3.73457" fill="#F689FF"/>
<circle opacity="0.15" cx="380.179" cy="304.179" r="3.73457" fill="white" fill-opacity="0.5"/>
<circle opacity="0.15" cx="411.549" cy="304.179" r="3.73457" fill="white" fill-opacity="0.5"/>
<circle opacity="0.14" cx="442.92" cy="304.179" r="3.73457" fill="white" fill-opacity="0.5"/>
<circle opacity="0.4" cx="3.73457" cy="335.549" r="3.73457" fill="white" fill-opacity="0.5"/>
<circle opacity="0.65" cx="35.1049" cy="335.549" r="3.73457" fill="white" fill-opacity="0.5"/>
<circle opacity="0.22" cx="66.4753" cy="335.549" r="3.73457" fill="#F689FF"/>
<circle opacity="0.77" cx="97.8456" cy="335.549" r="3.73457" fill="#F689FF"/>
<circle opacity="0.86" cx="129.216" cy="335.549" r="3.73457" fill="white" fill-opacity="0.5"/>
<circle opacity="0.26" cx="160.586" cy="335.549" r="3.73457" fill="#F689FF"/>
<circle opacity="0.39" cx="191.957" cy="335.549" r="3.73457" fill="#F689FF"/>
<circle opacity="0.08" cx="223.327" cy="335.549" r="3.73457" fill="#F689FF"/>
<circle opacity="0.38" cx="254.698" cy="335.549" r="3.73457" fill="#F689FF"/>
<circle opacity="0.86" cx="286.068" cy="335.549" r="3.73457" fill="white" fill-opacity="0.5"/>
<circle opacity="0.95" cx="317.438" cy="335.549" r="3.73457" fill="white" fill-opacity="0.5"/>
<circle opacity="0.08" cx="348.809" cy="335.549" r="3.73457" fill="white" fill-opacity="0.5"/>
<circle opacity="0.47" cx="380.179" cy="335.549" r="3.73457" fill="white" fill-opacity="0.5"/>
<circle opacity="0.1" cx="411.549" cy="335.549" r="3.73457" fill="white" fill-opacity="0.5"/>
<circle opacity="0.9" cx="442.92" cy="335.549" r="3.73457" fill="white" fill-opacity="0.5"/>
<circle opacity="0.01" cx="3.73457" cy="366.92" r="3.73457" fill="#F689FF"/>
<circle opacity="0.13" cx="35.1049" cy="366.92" r="3.73457" fill="#F689FF"/>
<circle opacity="0.78" cx="66.4753" cy="366.92" r="3.73457" fill="#F689FF"/>
<circle opacity="0.3" cx="97.8456" cy="366.92" r="3.73457" fill="white" fill-opacity="0.5"/>
<circle opacity="0.17" cx="129.216" cy="366.92" r="3.73457" fill="#F689FF"/>
<circle opacity="0.47" cx="160.586" cy="366.92" r="3.73457" fill="white" fill-opacity="0.5"/>
<circle opacity="0.04" cx="191.957" cy="366.92" r="3.73457" fill="#F689FF"/>
<circle opacity="0.29" cx="223.327" cy="366.92" r="3.73457" fill="white" fill-opacity="0.5"/>
<circle opacity="0.36" cx="254.698" cy="366.92" r="3.73457" fill="white" fill-opacity="0.5"/>
<circle opacity="0.48" cx="286.068" cy="366.92" r="3.73457" fill="#F689FF"/>
<circle opacity="0.95" cx="317.438" cy="366.92" r="3.73457" fill="#F689FF"/>
<circle opacity="0.56" cx="348.809" cy="366.92" r="3.73457" fill="white" fill-opacity="0.5"/>
<circle opacity="0.98" cx="380.179" cy="366.92" r="3.73457" fill="white" fill-opacity="0.5"/>
<circle opacity="0.06" cx="411.549" cy="366.92" r="3.73457" fill="#F689FF"/>
<circle opacity="0.4" cx="442.92" cy="366.92" r="3.73457" fill="white" fill-opacity="0.5"/>
</svg>
