<svg width="170" height="59" viewBox="0 0 170 59" fill="none" xmlns="http://www.w3.org/2000/svg">
<g filter="url(#filter0_ii_1_5726)">
<rect y="0.0424805" width="170" height="58" rx="29" fill="url(#paint0_linear_1_5726)"/>
<path d="M49.56 32.3425C49.56 34.8425 47.56 36.7425 44.08 36.7425C40.62 36.7425 38.52 34.8425 38.34 31.9825H40.58C40.68 33.8025 41.84 34.9825 44.04 34.9825C45.86 34.9825 47.22 34.1225 47.22 32.6425C47.22 31.4425 46.44 30.8425 44.78 30.4825L42.7 30.0825C40.68 29.6825 38.84 28.6625 38.84 26.2225C38.84 23.8025 40.96 21.9825 43.94 21.9825C46.92 21.9825 49.18 23.8025 49.36 26.6625H47.12C47 24.9425 45.76 23.7425 43.96 23.7425C42.1 23.7425 41.08 24.8425 41.08 26.0825C41.08 27.4425 42.26 27.9225 43.6 28.2025L45.72 28.6225C48.18 29.1225 49.56 30.2025 49.56 32.3425ZM58.3716 32.1825V25.9425H60.3916V36.5425H58.5116V34.8625C57.9516 35.9625 56.7116 36.7425 55.2716 36.7425C53.1316 36.7425 51.6516 35.4825 51.6516 32.7625V25.9425H53.6716V32.3625C53.6716 34.2025 54.5916 34.9625 55.9116 34.9625C57.2716 34.9625 58.3716 33.8425 58.3716 32.1825ZM73.3169 31.2425C73.3169 34.4225 71.4769 36.7425 68.6169 36.7425C67.1169 36.7425 65.8369 35.9825 65.0769 34.6425V36.5425H63.1969V22.1825H65.2169V27.7625C65.9569 26.4625 67.1769 25.7425 68.6169 25.7425C71.4569 25.7425 73.3169 28.0225 73.3169 31.2425ZM71.2169 31.2425C71.2169 28.8425 69.9569 27.5225 68.2169 27.5225C66.5369 27.5225 65.2169 28.8225 65.2169 31.2025C65.2169 33.5425 66.4969 34.9425 68.2169 34.9425C69.9569 34.9425 71.2169 33.6025 71.2169 31.2425ZM83.7648 33.3825C83.7648 35.4625 82.1448 36.7425 79.3248 36.7425C76.5248 36.7425 74.8648 35.3625 74.6648 33.0825H76.6048C76.6848 34.4025 77.7448 35.2225 79.3648 35.2225C80.7848 35.2225 81.7248 34.7225 81.7248 33.7225C81.7248 32.8425 81.1848 32.4625 79.8648 32.2025L78.1448 31.8825C76.1848 31.5025 75.0848 30.5025 75.0848 28.9025C75.0848 27.0425 76.7048 25.7425 79.1648 25.7425C81.7048 25.7425 83.4248 27.1025 83.6048 29.2825H81.6648C81.5448 28.0025 80.6048 27.2625 79.1848 27.2625C77.9048 27.2625 77.0448 27.8025 77.0448 28.7225C77.0448 29.5825 77.5848 29.9825 78.8648 30.2225L80.6648 30.5625C82.7648 30.9425 83.7648 31.8625 83.7648 33.3825ZM90.1503 36.7625C87.2503 36.7625 85.2103 34.4825 85.2103 31.2425C85.2103 28.0425 87.2903 25.7425 90.1503 25.7425C92.7703 25.7425 94.6703 27.4825 95.0503 30.2425H92.9303C92.7103 28.5425 91.6503 27.5225 90.1703 27.5225C88.4303 27.5225 87.2903 29.0025 87.2903 31.2425C87.2903 33.5025 88.4303 34.9625 90.1703 34.9625C91.6703 34.9625 92.7103 33.9625 92.9503 32.2425H95.0503C94.6903 35.0425 92.8103 36.7625 90.1503 36.7625ZM99.1036 31.1225V36.5425H97.0836V25.9425H98.9636V28.1825C99.7036 26.7225 101.304 25.8025 103.044 25.8025V27.9025C100.764 27.7825 99.1036 28.7825 99.1036 31.1225ZM107.102 23.4825C107.102 24.2425 106.502 24.8225 105.642 24.8225C104.782 24.8225 104.162 24.2425 104.162 23.4825C104.162 22.7025 104.782 22.1425 105.642 22.1425C106.502 22.1425 107.102 22.7025 107.102 23.4825ZM106.662 36.5425H104.642V25.9425H106.662V36.5425ZM119.586 31.2425C119.586 34.4225 117.746 36.7425 114.886 36.7425C113.386 36.7425 112.106 35.9825 111.346 34.6425V36.5425H109.466V22.1825H111.486V27.7625C112.226 26.4625 113.446 25.7425 114.886 25.7425C117.726 25.7425 119.586 28.0225 119.586 31.2425ZM117.486 31.2425C117.486 28.8425 116.226 27.5225 114.486 27.5225C112.806 27.5225 111.486 28.8225 111.486 31.2025C111.486 33.5425 112.766 34.9425 114.486 34.9425C116.226 34.9425 117.486 33.6025 117.486 31.2425ZM125.994 36.7425C122.934 36.7425 120.874 34.5225 120.874 31.1825C120.874 28.0425 123.014 25.7425 125.934 25.7425C129.094 25.7425 131.194 28.3025 130.834 31.7425H122.934C123.094 33.9025 124.174 35.1625 125.954 35.1625C127.454 35.1625 128.494 34.3425 128.834 32.9625H130.834C130.314 35.3225 128.494 36.7425 125.994 36.7425ZM125.894 27.2625C124.274 27.2625 123.174 28.4225 122.954 30.4025H128.694C128.594 28.4425 127.534 27.2625 125.894 27.2625Z" fill="white"/>
</g>
<defs>
<filter id="filter0_ii_1_5726" x="0" y="-5.95752" width="170" height="78" filterUnits="userSpaceOnUse" color-interpolation-filters="sRGB">
<feFlood flood-opacity="0" result="BackgroundImageFix"/>
<feBlend mode="normal" in="SourceGraphic" in2="BackgroundImageFix" result="shape"/>
<feColorMatrix in="SourceAlpha" type="matrix" values="0 0 0 0 0 0 0 0 0 0 0 0 0 0 0 0 0 0 127 0" result="hardAlpha"/>
<feOffset dy="14"/>
<feGaussianBlur stdDeviation="7"/>
<feComposite in2="hardAlpha" operator="arithmetic" k2="-1" k3="1"/>
<feColorMatrix type="matrix" values="0 0 0 0 1 0 0 0 0 1 0 0 0 0 1 0 0 0 0.25 0"/>
<feBlend mode="normal" in2="shape" result="effect1_innerShadow_1_5726"/>
<feColorMatrix in="SourceAlpha" type="matrix" values="0 0 0 0 0 0 0 0 0 0 0 0 0 0 0 0 0 0 127 0" result="hardAlpha"/>
<feOffset dy="-6"/>
<feGaussianBlur stdDeviation="4"/>
<feComposite in2="hardAlpha" operator="arithmetic" k2="-1" k3="1"/>
<feColorMatrix type="matrix" values="0 0 0 0 1 0 0 0 0 1 0 0 0 0 1 0 0 0 0.35 0"/>
<feBlend mode="normal" in2="effect1_innerShadow_1_5726" result="effect2_innerShadow_1_5726"/>
</filter>
<linearGradient id="paint0_linear_1_5726" x1="85" y1="62.0425" x2="85" y2="-26.4575" gradientUnits="userSpaceOnUse">
<stop stop-color="#5E3AEE"/>
<stop offset="1" stop-color="#BE33FF"/>
</linearGradient>
</defs>
</svg>
