<svg width="768" height="621" viewBox="0 0 768 621" fill="none" xmlns="http://www.w3.org/2000/svg">
<g filter="url(#filter0_f_1_3280)">
<ellipse cx="384.5" cy="310.544" rx="134.5" ry="60" fill="#9625EF"/>
</g>
<mask id="mask0_1_3280" style="mask-type:alpha" maskUnits="userSpaceOnUse" x="223" y="148" width="324" height="325">
<rect x="223" y="148.544" width="324" height="324" fill="url(#paint0_radial_1_3280)"/>
</mask>
<g mask="url(#mask0_1_3280)">
<circle opacity="0.82" cx="225.5" cy="151.044" r="2.5" fill="#F689FF"/>
<circle opacity="0.82" cx="246.5" cy="151.044" r="2.5" fill="#F689FF"/>
<circle opacity="0.26" cx="267.5" cy="151.044" r="2.5" fill="white" fill-opacity="0.5"/>
<circle opacity="0.85" cx="288.5" cy="151.044" r="2.5" fill="#F689FF"/>
<circle opacity="0.66" cx="309.5" cy="151.044" r="2.5" fill="white" fill-opacity="0.5"/>
<circle opacity="0.57" cx="330.5" cy="151.044" r="2.5" fill="#F689FF"/>
<circle opacity="0.88" cx="351.5" cy="151.044" r="2.5" fill="white" fill-opacity="0.5"/>
<circle opacity="0.4" cx="372.5" cy="151.044" r="2.5" fill="#F689FF"/>
<circle opacity="0.09" cx="393.5" cy="151.044" r="2.5" fill="white" fill-opacity="0.5"/>
<circle opacity="0.26" cx="414.5" cy="151.044" r="2.5" fill="#F689FF"/>
<circle opacity="0.11" cx="435.5" cy="151.044" r="2.5" fill="#F689FF"/>
<circle opacity="0.06" cx="456.5" cy="151.044" r="2.5" fill="#F689FF"/>
<circle opacity="0.02" cx="477.5" cy="151.044" r="2.5" fill="#F689FF"/>
<circle opacity="0.01" cx="498.5" cy="151.044" r="2.5" fill="#F689FF"/>
<circle opacity="0.63" cx="519.5" cy="151.044" r="2.5" fill="#F689FF"/>
<circle opacity="0.22" cx="540.5" cy="151.044" r="2.5" fill="white" fill-opacity="0.5"/>
<circle opacity="0.98" cx="246.5" cy="172.044" r="2.5" fill="#F689FF"/>
<circle opacity="0.63" cx="267.5" cy="172.044" r="2.5" fill="#F689FF"/>
<circle opacity="0.5" cx="288.5" cy="172.044" r="2.5" fill="white" fill-opacity="0.5"/>
<circle opacity="0.86" cx="309.5" cy="172.044" r="2.5" fill="white" fill-opacity="0.5"/>
<circle opacity="0.27" cx="330.5" cy="172.044" r="2.5" fill="#F689FF"/>
<circle opacity="0.96" cx="351.5" cy="172.044" r="2.5" fill="white" fill-opacity="0.5"/>
<circle opacity="0.69" cx="372.5" cy="172.044" r="2.5" fill="#F689FF"/>
<circle opacity="0.51" cx="393.5" cy="172.044" r="2.5" fill="white" fill-opacity="0.5"/>
<circle opacity="0.41" cx="414.5" cy="172.044" r="2.5" fill="#F689FF"/>
<circle opacity="0.81" cx="435.5" cy="172.044" r="2.5" fill="#F689FF"/>
<circle opacity="0.73" cx="456.5" cy="172.044" r="2.5" fill="#F689FF"/>
<circle opacity="0.4" cx="477.5" cy="172.044" r="2.5" fill="white" fill-opacity="0.5"/>
<circle opacity="0.28" cx="498.5" cy="172.044" r="2.5" fill="#F689FF"/>
<circle opacity="0.6" cx="519.5" cy="172.044" r="2.5" fill="white" fill-opacity="0.5"/>
<circle opacity="0.62" cx="540.5" cy="172.044" r="2.5" fill="white" fill-opacity="0.5"/>
<circle opacity="0.43" cx="225.5" cy="193.044" r="2.5" fill="#F689FF"/>
<circle opacity="0.73" cx="246.5" cy="193.044" r="2.5" fill="white" fill-opacity="0.5"/>
<circle opacity="0.99" cx="267.5" cy="193.044" r="2.5" fill="#F689FF"/>
<circle opacity="0.45" cx="288.5" cy="193.044" r="2.5" fill="white" fill-opacity="0.5"/>
<circle opacity="0.43" cx="309.5" cy="193.044" r="2.5" fill="white" fill-opacity="0.5"/>
<circle opacity="0.91" cx="330.5" cy="193.044" r="2.5" fill="white" fill-opacity="0.5"/>
<circle cx="351.5" cy="193.044" r="2.5" fill="white" fill-opacity="0.5"/>
<circle opacity="0.14" cx="372.5" cy="193.044" r="2.5" fill="white" fill-opacity="0.5"/>
<circle opacity="0.02" cx="393.5" cy="193.044" r="2.5" fill="white" fill-opacity="0.5"/>
<circle opacity="0.6" cx="414.5" cy="193.044" r="2.5" fill="#F689FF"/>
<circle opacity="0.2" cx="435.5" cy="193.044" r="2.5" fill="white" fill-opacity="0.5"/>
<circle opacity="0.06" cx="456.5" cy="193.044" r="2.5" fill="#F689FF"/>
<circle opacity="0.22" cx="477.5" cy="193.044" r="2.5" fill="white" fill-opacity="0.5"/>
<circle opacity="0.93" cx="498.5" cy="193.044" r="2.5" fill="white" fill-opacity="0.5"/>
<circle opacity="0.13" cx="519.5" cy="193.044" r="2.5" fill="#F689FF"/>
<circle opacity="0.42" cx="540.5" cy="193.044" r="2.5" fill="#F689FF"/>
<circle opacity="0.6" cx="225.5" cy="214.044" r="2.5" fill="#F689FF"/>
<circle opacity="0.29" cx="246.5" cy="214.044" r="2.5" fill="#F689FF"/>
<circle opacity="0.71" cx="267.5" cy="214.044" r="2.5" fill="white" fill-opacity="0.5"/>
<circle opacity="0.78" cx="288.5" cy="214.044" r="2.5" fill="#F689FF"/>
<circle opacity="0.77" cx="309.5" cy="214.044" r="2.5" fill="#F689FF"/>
<circle opacity="0.38" cx="330.5" cy="214.044" r="2.5" fill="#F689FF"/>
<circle opacity="0.6" cx="351.5" cy="214.044" r="2.5" fill="white" fill-opacity="0.5"/>
<circle opacity="0.9" cx="372.5" cy="214.044" r="2.5" fill="white" fill-opacity="0.5"/>
<circle opacity="0.38" cx="393.5" cy="214.044" r="2.5" fill="#F689FF"/>
<circle opacity="0.97" cx="414.5" cy="214.044" r="2.5" fill="white" fill-opacity="0.5"/>
<circle opacity="0.04" cx="435.5" cy="214.044" r="2.5" fill="#F689FF"/>
<circle opacity="0.3" cx="456.5" cy="214.044" r="2.5" fill="#F689FF"/>
<circle opacity="0.65" cx="477.5" cy="214.044" r="2.5" fill="#F689FF"/>
<circle opacity="0.13" cx="498.5" cy="214.044" r="2.5" fill="#F689FF"/>
<circle opacity="0.45" cx="519.5" cy="214.044" r="2.5" fill="white" fill-opacity="0.5"/>
<circle opacity="0.15" cx="540.5" cy="214.044" r="2.5" fill="white" fill-opacity="0.5"/>
<circle opacity="0.49" cx="225.5" cy="235.044" r="2.5" fill="white" fill-opacity="0.5"/>
<circle opacity="0.59" cx="246.5" cy="235.044" r="2.5" fill="#F689FF"/>
<circle opacity="0.04" cx="267.5" cy="235.044" r="2.5" fill="#F689FF"/>
<circle opacity="0.43" cx="288.5" cy="235.044" r="2.5" fill="white" fill-opacity="0.5"/>
<circle opacity="0.03" cx="309.5" cy="235.044" r="2.5" fill="white" fill-opacity="0.5"/>
<circle opacity="0.5" cx="330.5" cy="235.044" r="2.5" fill="#F689FF"/>
<circle opacity="0.06" cx="351.5" cy="235.044" r="2.5" fill="white" fill-opacity="0.5"/>
<circle opacity="0.94" cx="372.5" cy="235.044" r="2.5" fill="white" fill-opacity="0.5"/>
<circle opacity="0.64" cx="393.5" cy="235.044" r="2.5" fill="white" fill-opacity="0.5"/>
<circle opacity="0.84" cx="414.5" cy="235.044" r="2.5" fill="white" fill-opacity="0.5"/>
<circle opacity="0.88" cx="435.5" cy="235.044" r="2.5" fill="#F689FF"/>
<circle opacity="0.11" cx="456.5" cy="235.044" r="2.5" fill="#F689FF"/>
<circle opacity="0.57" cx="477.5" cy="235.044" r="2.5" fill="#F689FF"/>
<circle opacity="0.04" cx="498.5" cy="235.044" r="2.5" fill="white" fill-opacity="0.5"/>
<circle opacity="0.13" cx="519.5" cy="235.044" r="2.5" fill="#F689FF"/>
<circle opacity="0.02" cx="540.5" cy="235.044" r="2.5" fill="white" fill-opacity="0.5"/>
<circle opacity="0.1" cx="225.5" cy="256.044" r="2.5" fill="#F689FF"/>
<circle opacity="0.55" cx="246.5" cy="256.044" r="2.5" fill="#F689FF"/>
<circle opacity="0.48" cx="267.5" cy="256.044" r="2.5" fill="white" fill-opacity="0.5"/>
<circle opacity="0.45" cx="288.5" cy="256.044" r="2.5" fill="#F689FF"/>
<circle opacity="0.28" cx="309.5" cy="256.044" r="2.5" fill="white" fill-opacity="0.5"/>
<circle opacity="0.82" cx="330.5" cy="256.044" r="2.5" fill="white" fill-opacity="0.5"/>
<circle opacity="0.18" cx="351.5" cy="256.044" r="2.5" fill="white" fill-opacity="0.5"/>
<circle opacity="0.88" cx="372.5" cy="256.044" r="2.5" fill="#F689FF"/>
<circle opacity="0.27" cx="393.5" cy="256.044" r="2.5" fill="#F689FF"/>
<circle opacity="0.48" cx="414.5" cy="256.044" r="2.5" fill="white" fill-opacity="0.5"/>
<circle opacity="0.98" cx="435.5" cy="256.044" r="2.5" fill="#F689FF"/>
<circle opacity="0.83" cx="456.5" cy="256.044" r="2.5" fill="white" fill-opacity="0.5"/>
<circle opacity="0.43" cx="477.5" cy="256.044" r="2.5" fill="#F689FF"/>
<circle opacity="0.02" cx="498.5" cy="256.044" r="2.5" fill="#F689FF"/>
<circle opacity="0.63" cx="519.5" cy="256.044" r="2.5" fill="white" fill-opacity="0.5"/>
<circle opacity="0.05" cx="540.5" cy="256.044" r="2.5" fill="white" fill-opacity="0.5"/>
<circle opacity="0.26" cx="225.5" cy="277.044" r="2.5" fill="#F689FF"/>
<circle opacity="0.25" cx="246.5" cy="277.044" r="2.5" fill="#F689FF"/>
<circle opacity="0.53" cx="267.5" cy="277.044" r="2.5" fill="#F689FF"/>
<circle opacity="0.08" cx="288.5" cy="277.044" r="2.5" fill="white" fill-opacity="0.5"/>
<circle opacity="0.32" cx="309.5" cy="277.044" r="2.5" fill="white" fill-opacity="0.5"/>
<circle opacity="0.46" cx="330.5" cy="277.044" r="2.5" fill="white" fill-opacity="0.5"/>
<circle opacity="0.25" cx="351.5" cy="277.044" r="2.5" fill="#F689FF"/>
<circle cx="372.5" cy="277.044" r="2.5" fill="#F689FF"/>
<circle opacity="0.6" cx="393.5" cy="277.044" r="2.5" fill="white" fill-opacity="0.5"/>
<circle opacity="0.3" cx="414.5" cy="277.044" r="2.5" fill="#F689FF"/>
<circle opacity="0.02" cx="435.5" cy="277.044" r="2.5" fill="#F689FF"/>
<circle opacity="0.75" cx="456.5" cy="277.044" r="2.5" fill="#F689FF"/>
<circle opacity="0.17" cx="477.5" cy="277.044" r="2.5" fill="#F689FF"/>
<circle opacity="0.34" cx="498.5" cy="277.044" r="2.5" fill="#F689FF"/>
<circle opacity="0.25" cx="519.5" cy="277.044" r="2.5" fill="#F689FF"/>
<circle opacity="0.02" cx="540.5" cy="277.044" r="2.5" fill="white" fill-opacity="0.5"/>
<circle opacity="0.1" cx="225.5" cy="298.044" r="2.5" fill="white" fill-opacity="0.5"/>
<circle opacity="0.99" cx="246.5" cy="298.044" r="2.5" fill="white" fill-opacity="0.5"/>
<circle opacity="0.04" cx="267.5" cy="298.044" r="2.5" fill="white" fill-opacity="0.5"/>
<circle opacity="0.73" cx="288.5" cy="298.044" r="2.5" fill="#F689FF"/>
<circle opacity="0.02" cx="309.5" cy="298.044" r="2.5" fill="#F689FF"/>
<circle opacity="0.49" cx="330.5" cy="298.044" r="2.5" fill="white" fill-opacity="0.5"/>
<circle opacity="0.68" cx="351.5" cy="298.044" r="2.5" fill="white" fill-opacity="0.5"/>
<circle opacity="0.71" cx="372.5" cy="298.044" r="2.5" fill="white" fill-opacity="0.5"/>
<circle opacity="0.19" cx="393.5" cy="298.044" r="2.5" fill="white" fill-opacity="0.5"/>
<circle opacity="0.57" cx="414.5" cy="298.044" r="2.5" fill="#F689FF"/>
<circle opacity="0.6" cx="435.5" cy="298.044" r="2.5" fill="#F689FF"/>
<circle opacity="0.94" cx="456.5" cy="298.044" r="2.5" fill="#F689FF"/>
<circle opacity="0.43" cx="477.5" cy="298.044" r="2.5" fill="#F689FF"/>
<circle opacity="0.03" cx="498.5" cy="298.044" r="2.5" fill="white" fill-opacity="0.5"/>
<circle opacity="0.94" cx="519.5" cy="298.044" r="2.5" fill="white" fill-opacity="0.5"/>
<circle opacity="0.83" cx="540.5" cy="298.044" r="2.5" fill="#F689FF"/>
<circle opacity="0.87" cx="225.5" cy="319.044" r="2.5" fill="white" fill-opacity="0.5"/>
<circle opacity="0.05" cx="246.5" cy="319.044" r="2.5" fill="#F689FF"/>
<circle opacity="0.45" cx="267.5" cy="319.044" r="2.5" fill="#F689FF"/>
<circle opacity="0.97" cx="288.5" cy="319.044" r="2.5" fill="#F689FF"/>
<circle opacity="0.37" cx="309.5" cy="319.044" r="2.5" fill="white" fill-opacity="0.5"/>
<circle opacity="0.72" cx="330.5" cy="319.044" r="2.5" fill="#F689FF"/>
<circle opacity="0.5" cx="351.5" cy="319.044" r="2.5" fill="white" fill-opacity="0.5"/>
<circle opacity="0.77" cx="372.5" cy="319.044" r="2.5" fill="#F689FF"/>
<circle opacity="0.24" cx="393.5" cy="319.044" r="2.5" fill="white" fill-opacity="0.5"/>
<circle opacity="0.91" cx="414.5" cy="319.044" r="2.5" fill="white" fill-opacity="0.5"/>
<circle opacity="0.26" cx="435.5" cy="319.044" r="2.5" fill="#F689FF"/>
<circle opacity="0.49" cx="456.5" cy="319.044" r="2.5" fill="white" fill-opacity="0.5"/>
<circle opacity="0.27" cx="477.5" cy="319.044" r="2.5" fill="#F689FF"/>
<circle opacity="0.66" cx="498.5" cy="319.044" r="2.5" fill="white" fill-opacity="0.5"/>
<circle opacity="0.41" cx="519.5" cy="319.044" r="2.5" fill="white" fill-opacity="0.5"/>
<circle opacity="0.27" cx="540.5" cy="319.044" r="2.5" fill="#F689FF"/>
<circle opacity="0.84" cx="225.5" cy="340.044" r="2.5" fill="#F689FF"/>
<circle opacity="0.83" cx="246.5" cy="340.044" r="2.5" fill="#F689FF"/>
<circle opacity="0.1" cx="267.5" cy="340.044" r="2.5" fill="#F689FF"/>
<circle opacity="0.39" cx="288.5" cy="340.044" r="2.5" fill="#F689FF"/>
<circle opacity="0.89" cx="309.5" cy="340.044" r="2.5" fill="#F689FF"/>
<circle opacity="0.08" cx="330.5" cy="340.044" r="2.5" fill="white" fill-opacity="0.5"/>
<circle opacity="0.39" cx="351.5" cy="340.044" r="2.5" fill="#F689FF"/>
<circle opacity="0.09" cx="372.5" cy="340.044" r="2.5" fill="white" fill-opacity="0.5"/>
<circle opacity="0.88" cx="393.5" cy="340.044" r="2.5" fill="white" fill-opacity="0.5"/>
<circle opacity="0.73" cx="414.5" cy="340.044" r="2.5" fill="#F689FF"/>
<circle opacity="0.71" cx="435.5" cy="340.044" r="2.5" fill="#F689FF"/>
<circle opacity="0.63" cx="456.5" cy="340.044" r="2.5" fill="white" fill-opacity="0.5"/>
<circle opacity="0.64" cx="477.5" cy="340.044" r="2.5" fill="#F689FF"/>
<circle opacity="0.74" cx="498.5" cy="340.044" r="2.5" fill="white" fill-opacity="0.5"/>
<circle opacity="0.22" cx="519.5" cy="340.044" r="2.5" fill="white" fill-opacity="0.5"/>
<circle opacity="0.08" cx="540.5" cy="340.044" r="2.5" fill="#F689FF"/>
<circle opacity="0.88" cx="225.5" cy="361.044" r="2.5" fill="white" fill-opacity="0.5"/>
<circle opacity="0.19" cx="246.5" cy="361.044" r="2.5" fill="#F689FF"/>
<circle opacity="0.42" cx="267.5" cy="361.044" r="2.5" fill="#F689FF"/>
<circle opacity="0.62" cx="288.5" cy="361.044" r="2.5" fill="#F689FF"/>
<circle opacity="0.28" cx="309.5" cy="361.044" r="2.5" fill="white" fill-opacity="0.5"/>
<circle opacity="0.62" cx="330.5" cy="361.044" r="2.5" fill="#F689FF"/>
<circle opacity="0.26" cx="351.5" cy="361.044" r="2.5" fill="#F689FF"/>
<circle opacity="0.67" cx="372.5" cy="361.044" r="2.5" fill="white" fill-opacity="0.5"/>
<circle opacity="0.19" cx="393.5" cy="361.044" r="2.5" fill="#F689FF"/>
<circle opacity="0.43" cx="414.5" cy="361.044" r="2.5" fill="white" fill-opacity="0.5"/>
<circle opacity="0.02" cx="435.5" cy="361.044" r="2.5" fill="white" fill-opacity="0.5"/>
<circle opacity="0.95" cx="456.5" cy="361.044" r="2.5" fill="#F689FF"/>
<circle opacity="0.16" cx="477.5" cy="361.044" r="2.5" fill="white" fill-opacity="0.5"/>
<circle opacity="0.95" cx="498.5" cy="361.044" r="2.5" fill="white" fill-opacity="0.5"/>
<circle opacity="0.52" cx="519.5" cy="361.044" r="2.5" fill="white" fill-opacity="0.5"/>
<circle opacity="0.48" cx="540.5" cy="361.044" r="2.5" fill="white" fill-opacity="0.5"/>
<circle opacity="0.01" cx="225.5" cy="382.044" r="2.5" fill="#F689FF"/>
<circle opacity="0.53" cx="246.5" cy="382.044" r="2.5" fill="white" fill-opacity="0.5"/>
<circle opacity="0.26" cx="267.5" cy="382.044" r="2.5" fill="#F689FF"/>
<circle opacity="0.58" cx="288.5" cy="382.044" r="2.5" fill="#F689FF"/>
<circle opacity="0.85" cx="309.5" cy="382.044" r="2.5" fill="white" fill-opacity="0.5"/>
<circle opacity="0.8" cx="330.5" cy="382.044" r="2.5" fill="#F689FF"/>
<circle opacity="0.16" cx="351.5" cy="382.044" r="2.5" fill="white" fill-opacity="0.5"/>
<circle opacity="0.04" cx="372.5" cy="382.044" r="2.5" fill="white" fill-opacity="0.5"/>
<circle opacity="0.56" cx="393.5" cy="382.044" r="2.5" fill="white" fill-opacity="0.5"/>
<circle opacity="0.89" cx="414.5" cy="382.044" r="2.5" fill="#F689FF"/>
<circle opacity="0.6" cx="435.5" cy="382.044" r="2.5" fill="white" fill-opacity="0.5"/>
<circle opacity="0.61" cx="456.5" cy="382.044" r="2.5" fill="white" fill-opacity="0.5"/>
<circle opacity="0.48" cx="477.5" cy="382.044" r="2.5" fill="white" fill-opacity="0.5"/>
<circle opacity="0.26" cx="498.5" cy="382.044" r="2.5" fill="white" fill-opacity="0.5"/>
<circle opacity="0.84" cx="519.5" cy="382.044" r="2.5" fill="white" fill-opacity="0.5"/>
<circle opacity="0.08" cx="540.5" cy="382.044" r="2.5" fill="white" fill-opacity="0.5"/>
<circle opacity="0.03" cx="225.5" cy="403.044" r="2.5" fill="#F689FF"/>
<circle opacity="0.64" cx="246.5" cy="403.044" r="2.5" fill="white" fill-opacity="0.5"/>
<circle opacity="0.65" cx="267.5" cy="403.044" r="2.5" fill="white" fill-opacity="0.5"/>
<circle opacity="0.84" cx="288.5" cy="403.044" r="2.5" fill="#F689FF"/>
<circle opacity="0.56" cx="309.5" cy="403.044" r="2.5" fill="#F689FF"/>
<circle opacity="0.21" cx="330.5" cy="403.044" r="2.5" fill="#F689FF"/>
<circle opacity="0.54" cx="351.5" cy="403.044" r="2.5" fill="#F689FF"/>
<circle opacity="0.24" cx="372.5" cy="403.044" r="2.5" fill="white" fill-opacity="0.5"/>
<circle opacity="0.58" cx="393.5" cy="403.044" r="2.5" fill="white" fill-opacity="0.5"/>
<circle opacity="0.86" cx="414.5" cy="403.044" r="2.5" fill="white" fill-opacity="0.5"/>
<circle opacity="0.68" cx="435.5" cy="403.044" r="2.5" fill="#F689FF"/>
<circle opacity="0.89" cx="456.5" cy="403.044" r="2.5" fill="#F689FF"/>
<circle opacity="0.15" cx="477.5" cy="403.044" r="2.5" fill="white" fill-opacity="0.5"/>
<circle opacity="0.15" cx="498.5" cy="403.044" r="2.5" fill="white" fill-opacity="0.5"/>
<circle opacity="0.14" cx="519.5" cy="403.044" r="2.5" fill="white" fill-opacity="0.5"/>
<circle opacity="0.75" cx="540.5" cy="403.044" r="2.5" fill="#F689FF"/>
<circle opacity="0.4" cx="225.5" cy="424.044" r="2.5" fill="white" fill-opacity="0.5"/>
<circle opacity="0.65" cx="246.5" cy="424.044" r="2.5" fill="white" fill-opacity="0.5"/>
<circle opacity="0.22" cx="267.5" cy="424.044" r="2.5" fill="#F689FF"/>
<circle opacity="0.77" cx="288.5" cy="424.044" r="2.5" fill="#F689FF"/>
<circle opacity="0.86" cx="309.5" cy="424.044" r="2.5" fill="white" fill-opacity="0.5"/>
<circle opacity="0.26" cx="330.5" cy="424.044" r="2.5" fill="#F689FF"/>
<circle opacity="0.39" cx="351.5" cy="424.044" r="2.5" fill="#F689FF"/>
<circle opacity="0.08" cx="372.5" cy="424.044" r="2.5" fill="#F689FF"/>
<circle opacity="0.38" cx="393.5" cy="424.044" r="2.5" fill="#F689FF"/>
<circle opacity="0.86" cx="414.5" cy="424.044" r="2.5" fill="white" fill-opacity="0.5"/>
<circle opacity="0.95" cx="435.5" cy="424.044" r="2.5" fill="white" fill-opacity="0.5"/>
<circle opacity="0.08" cx="456.5" cy="424.044" r="2.5" fill="white" fill-opacity="0.5"/>
<circle opacity="0.47" cx="477.5" cy="424.044" r="2.5" fill="white" fill-opacity="0.5"/>
<circle opacity="0.1" cx="498.5" cy="424.044" r="2.5" fill="white" fill-opacity="0.5"/>
<circle opacity="0.9" cx="519.5" cy="424.044" r="2.5" fill="white" fill-opacity="0.5"/>
<circle opacity="0.24" cx="540.5" cy="424.044" r="2.5" fill="white" fill-opacity="0.5"/>
<circle opacity="0.01" cx="225.5" cy="445.044" r="2.5" fill="#F689FF"/>
<circle opacity="0.13" cx="246.5" cy="445.044" r="2.5" fill="#F689FF"/>
<circle opacity="0.78" cx="267.5" cy="445.044" r="2.5" fill="#F689FF"/>
<circle opacity="0.3" cx="288.5" cy="445.044" r="2.5" fill="white" fill-opacity="0.5"/>
<circle opacity="0.17" cx="309.5" cy="445.044" r="2.5" fill="#F689FF"/>
<circle opacity="0.47" cx="330.5" cy="445.044" r="2.5" fill="white" fill-opacity="0.5"/>
<circle opacity="0.04" cx="351.5" cy="445.044" r="2.5" fill="#F689FF"/>
<circle opacity="0.29" cx="372.5" cy="445.044" r="2.5" fill="white" fill-opacity="0.5"/>
<circle opacity="0.36" cx="393.5" cy="445.044" r="2.5" fill="white" fill-opacity="0.5"/>
<circle opacity="0.48" cx="414.5" cy="445.044" r="2.5" fill="#F689FF"/>
<circle opacity="0.95" cx="435.5" cy="445.044" r="2.5" fill="#F689FF"/>
<circle opacity="0.56" cx="456.5" cy="445.044" r="2.5" fill="white" fill-opacity="0.5"/>
<circle opacity="0.98" cx="477.5" cy="445.044" r="2.5" fill="white" fill-opacity="0.5"/>
<circle opacity="0.06" cx="498.5" cy="445.044" r="2.5" fill="#F689FF"/>
<circle opacity="0.4" cx="519.5" cy="445.044" r="2.5" fill="white" fill-opacity="0.5"/>
<circle opacity="0.36" cx="540.5" cy="445.044" r="2.5" fill="#F689FF"/>
<circle opacity="0.17" cx="225.5" cy="466.044" r="2.5" fill="white" fill-opacity="0.5"/>
<circle opacity="0.83" cx="246.5" cy="466.044" r="2.5" fill="#F689FF"/>
<circle opacity="0.46" cx="267.5" cy="466.044" r="2.5" fill="#F689FF"/>
<circle opacity="0.7" cx="288.5" cy="466.044" r="2.5" fill="#F689FF"/>
<circle opacity="0.85" cx="309.5" cy="466.044" r="2.5" fill="#F689FF"/>
<circle opacity="0.36" cx="330.5" cy="466.044" r="2.5" fill="#F689FF"/>
<circle opacity="0.85" cx="351.5" cy="466.044" r="2.5" fill="#F689FF"/>
<circle opacity="0.31" cx="372.5" cy="466.044" r="2.5" fill="#F689FF"/>
<circle opacity="0.4" cx="393.5" cy="466.044" r="2.5" fill="white" fill-opacity="0.5"/>
<circle opacity="0.91" cx="414.5" cy="466.044" r="2.5" fill="#F689FF"/>
<circle opacity="0.19" cx="435.5" cy="466.044" r="2.5" fill="white" fill-opacity="0.5"/>
<circle opacity="0.59" cx="456.5" cy="466.044" r="2.5" fill="white" fill-opacity="0.5"/>
<circle opacity="0.15" cx="477.5" cy="466.044" r="2.5" fill="white" fill-opacity="0.5"/>
<circle opacity="0.46" cx="498.5" cy="466.044" r="2.5" fill="white" fill-opacity="0.5"/>
<circle opacity="0.99" cx="519.5" cy="466.044" r="2.5" fill="#F689FF"/>
<circle opacity="0.37" cx="540.5" cy="466.044" r="2.5" fill="white" fill-opacity="0.5"/>
</g>
<g filter="url(#filter1_di_1_3280)">
<rect x="227" y="270.544" width="316" height="80" rx="16" fill="url(#paint1_linear_1_3280)" shape-rendering="crispEdges"/>
<rect x="227.5" y="271.044" width="315" height="79" rx="15.5" stroke="url(#paint2_linear_1_3280)" shape-rendering="crispEdges"/>
<g filter="url(#filter2_d_1_3280)">
<path d="M279 294.294C275.786 294.294 272.644 295.247 269.972 297.033C267.3 298.818 265.217 301.356 263.987 304.325C262.757 307.295 262.435 310.562 263.062 313.714C263.689 316.866 265.237 319.762 267.51 322.034C269.782 324.307 272.678 325.855 275.83 326.482C278.982 327.109 282.249 326.787 285.219 325.557C288.188 324.327 290.726 322.244 292.511 319.572C294.297 316.9 295.25 313.758 295.25 310.544C295.245 306.236 293.532 302.105 290.485 299.058C287.439 296.012 283.308 294.298 279 294.294ZM286.134 307.678L277.384 316.428C277.268 316.545 277.13 316.637 276.979 316.7C276.827 316.763 276.664 316.795 276.5 316.795C276.336 316.795 276.173 316.763 276.021 316.7C275.87 316.637 275.732 316.545 275.616 316.428L271.866 312.678C271.631 312.444 271.499 312.126 271.499 311.794C271.499 311.462 271.631 311.144 271.866 310.91C272.1 310.675 272.418 310.543 272.75 310.543C273.082 310.543 273.4 310.675 273.634 310.91L276.5 313.777L284.366 305.91C284.482 305.793 284.62 305.701 284.771 305.638C284.923 305.576 285.086 305.543 285.25 305.543C285.414 305.543 285.577 305.576 285.729 305.638C285.88 305.701 286.018 305.793 286.134 305.91C286.251 306.026 286.343 306.164 286.405 306.315C286.468 306.467 286.501 306.63 286.501 306.794C286.501 306.958 286.468 307.121 286.405 307.273C286.343 307.424 286.251 307.562 286.134 307.678Z" fill="url(#paint3_linear_1_3280)" shape-rendering="crispEdges"/>
</g>
<path d="M328.728 311.544L327.168 307.272H319.728L318.144 311.544H315.48L322.08 294.312H324.984L331.536 311.544H328.728ZM323.472 297.192L320.52 305.136H326.376L323.472 297.192ZM336.143 305.04V311.544H333.719V298.824H335.975V301.512C336.863 299.76 338.783 298.656 340.871 298.656V301.176C338.135 301.032 336.143 302.232 336.143 305.04ZM350.739 309.192V311.328C349.995 311.664 349.347 311.784 348.579 311.784C346.227 311.784 344.595 310.512 344.595 307.704V300.888H341.787V298.824H344.595V295.056H347.019V298.824H350.859V300.888H347.019V307.152C347.019 308.904 347.859 309.528 349.155 309.528C349.731 309.528 350.235 309.432 350.739 309.192ZM356.124 295.872C356.124 296.784 355.404 297.48 354.372 297.48C353.34 297.48 352.596 296.784 352.596 295.872C352.596 294.936 353.34 294.264 354.372 294.264C355.404 294.264 356.124 294.936 356.124 295.872ZM355.596 311.544H353.172V298.824H355.596V311.544ZM363.977 311.808C360.497 311.808 358.049 309.072 358.049 305.184C358.049 301.344 360.545 298.584 363.977 298.584C367.121 298.584 369.401 300.672 369.857 303.984H367.313C367.049 301.944 365.777 300.72 364.001 300.72C361.913 300.72 360.545 302.496 360.545 305.184C360.545 307.896 361.913 309.648 364.001 309.648C365.801 309.648 367.049 308.448 367.337 306.384H369.857C369.425 309.744 367.169 311.808 363.977 311.808ZM374.745 311.544H372.297V294.312H374.745V311.544ZM383.342 311.784C379.67 311.784 377.198 309.12 377.198 305.112C377.198 301.344 379.766 298.584 383.27 298.584C387.062 298.584 389.582 301.656 389.15 305.784H379.67C379.862 308.376 381.158 309.888 383.294 309.888C385.094 309.888 386.342 308.904 386.75 307.248H389.15C388.526 310.08 386.342 311.784 383.342 311.784ZM383.222 300.408C381.278 300.408 379.958 301.8 379.694 304.176H386.582C386.462 301.824 385.19 300.408 383.222 300.408ZM408.887 305.184C408.887 309.024 406.679 311.784 403.271 311.784C401.543 311.784 400.079 310.92 399.167 309.384V316.176H396.743V298.824H398.999V301.152C399.911 299.52 401.471 298.584 403.271 298.584C406.655 298.584 408.887 301.344 408.887 305.184ZM406.367 305.184C406.367 302.328 404.855 300.72 402.767 300.72C400.751 300.72 399.167 302.328 399.167 305.184C399.167 307.992 400.727 309.624 402.767 309.624C404.855 309.624 406.367 308.04 406.367 305.184ZM419.288 306.312V298.824H421.712V311.544H419.456V309.528C418.784 310.848 417.296 311.784 415.568 311.784C413 311.784 411.224 310.272 411.224 307.008V298.824H413.648V306.528C413.648 308.736 414.752 309.648 416.336 309.648C417.968 309.648 419.288 308.304 419.288 306.312ZM437.222 305.184C437.222 309 435.014 311.784 431.582 311.784C429.782 311.784 428.246 310.872 427.334 309.264V311.544H425.078V294.312H427.502V301.008C428.39 299.448 429.854 298.584 431.582 298.584C434.99 298.584 437.222 301.32 437.222 305.184ZM434.702 305.184C434.702 302.304 433.19 300.72 431.102 300.72C429.086 300.72 427.502 302.28 427.502 305.136C427.502 307.944 429.038 309.624 431.102 309.624C433.19 309.624 434.702 308.016 434.702 305.184ZM442.128 311.544H439.68V294.312H442.128V311.544ZM448.445 295.872C448.445 296.784 447.725 297.48 446.693 297.48C445.661 297.48 444.917 296.784 444.917 295.872C444.917 294.936 445.661 294.264 446.693 294.264C447.725 294.264 448.445 294.936 448.445 295.872ZM447.917 311.544H445.493V298.824H447.917V311.544ZM461.362 307.752C461.362 310.248 459.418 311.784 456.034 311.784C452.674 311.784 450.682 310.128 450.442 307.392H452.77C452.866 308.976 454.138 309.96 456.082 309.96C457.786 309.96 458.914 309.36 458.914 308.16C458.914 307.104 458.266 306.648 456.682 306.336L454.618 305.952C452.266 305.496 450.946 304.296 450.946 302.376C450.946 300.144 452.89 298.584 455.842 298.584C458.89 298.584 460.954 300.216 461.17 302.832H458.842C458.698 301.296 457.57 300.408 455.866 300.408C454.33 300.408 453.298 301.056 453.298 302.16C453.298 303.192 453.946 303.672 455.482 303.96L457.642 304.368C460.162 304.824 461.362 305.928 461.362 307.752ZM466.432 304.368V311.544H464.008V294.312H466.432V300.864C467.272 299.496 468.568 298.584 470.32 298.584C472.936 298.584 474.664 300.264 474.664 303.312V311.544H472.24V304.128C472.24 301.944 471.28 300.72 469.48 300.72C467.824 300.72 466.432 302.112 466.432 304.368ZM483.115 311.784C479.443 311.784 476.971 309.12 476.971 305.112C476.971 301.344 479.539 298.584 483.043 298.584C486.835 298.584 489.355 301.656 488.923 305.784H479.443C479.635 308.376 480.931 309.888 483.067 309.888C484.867 309.888 486.115 308.904 486.523 307.248H488.923C488.299 310.08 486.115 311.784 483.115 311.784ZM482.995 300.408C481.051 300.408 479.731 301.8 479.467 304.176H486.355C486.235 301.824 484.963 300.408 482.995 300.408ZM490.354 305.184C490.354 301.32 492.562 298.584 495.994 298.584C497.698 298.584 499.186 299.448 500.074 301.008V294.312H502.498V311.544H500.242V309.264C499.33 310.872 497.794 311.784 495.994 311.784C492.562 311.784 490.354 309 490.354 305.184ZM492.874 305.184C492.874 308.016 494.362 309.624 496.474 309.624C498.538 309.624 500.074 307.944 500.074 305.136C500.074 302.28 498.49 300.72 496.474 300.72C494.362 300.72 492.874 302.304 492.874 305.184ZM508.316 306.816H506.468L505.892 294.312H508.892L508.316 306.816ZM509.3 309.864C509.3 310.896 508.484 311.664 507.404 311.664C506.324 311.664 505.508 310.896 505.508 309.864C505.508 308.784 506.324 308.016 507.404 308.016C508.508 308.016 509.3 308.784 509.3 309.864Z" fill="white"/>
<path d="M318.804 328.376H316.872V331.544H315.972V322.928H318.804C320.58 322.928 321.792 323.9 321.792 325.64C321.792 327.38 320.58 328.376 318.804 328.376ZM318.792 323.696H316.872V327.608H318.792C320.076 327.608 320.892 326.9 320.892 325.64C320.892 324.392 320.076 323.696 318.792 323.696ZM327.163 328.988V325.22H327.991V331.544H327.211V330.404C326.887 331.136 326.119 331.664 325.195 331.664C323.911 331.664 323.059 330.932 323.059 329.336V325.22H323.899V329.156C323.899 330.44 324.535 330.932 325.423 330.932C326.431 330.932 327.163 330.116 327.163 328.988ZM335.606 328.376C335.606 330.32 334.514 331.664 332.822 331.664C331.85 331.664 331.034 331.136 330.59 330.212V331.544H329.81V322.928H330.65V326.552C331.058 325.628 331.862 325.1 332.822 325.1C334.514 325.1 335.606 326.432 335.606 328.376ZM334.754 328.376C334.754 326.768 333.926 325.832 332.69 325.832C331.502 325.832 330.638 326.756 330.638 328.352C330.638 329.936 331.478 330.932 332.69 330.932C333.926 330.932 334.754 329.984 334.754 328.376ZM337.799 331.544H336.959V322.928H337.799V331.544ZM340.711 323.756C340.711 324.128 340.435 324.392 340.027 324.392C339.631 324.392 339.355 324.128 339.355 323.756C339.355 323.396 339.631 323.132 340.027 323.132C340.435 323.132 340.711 323.396 340.711 323.756ZM340.459 331.544H339.619V325.22H340.459V331.544ZM347.007 329.78C347.007 330.944 346.071 331.664 344.511 331.664C342.939 331.664 341.979 330.872 341.859 329.564H342.663C342.723 330.464 343.431 331.028 344.511 331.028C345.543 331.028 346.167 330.632 346.167 329.912C346.167 329.288 345.807 329 344.847 328.808L343.935 328.628C342.735 328.4 342.099 327.812 342.099 326.9C342.099 325.844 343.035 325.1 344.415 325.1C345.867 325.1 346.827 325.88 346.923 327.14H346.131C346.047 326.264 345.411 325.748 344.415 325.748C343.527 325.748 342.915 326.168 342.915 326.828C342.915 327.452 343.299 327.752 344.235 327.932L345.183 328.112C346.443 328.352 347.007 328.88 347.007 329.78ZM349.307 327.86V331.544H348.467V322.928H349.307V326.384C349.703 325.628 350.423 325.1 351.335 325.1C352.655 325.1 353.507 325.94 353.507 327.44V331.544H352.667V327.728C352.667 326.516 352.115 325.832 351.083 325.832C350.099 325.832 349.307 326.684 349.307 327.86ZM357.759 331.664C355.983 331.664 354.807 330.332 354.807 328.328C354.807 326.48 356.031 325.1 357.711 325.1C359.511 325.1 360.687 326.552 360.543 328.58H355.647C355.719 330.08 356.511 331.004 357.747 331.004C358.803 331.004 359.535 330.416 359.739 329.408H360.567C360.279 330.812 359.211 331.664 357.759 331.664ZM357.699 325.748C356.559 325.748 355.755 326.624 355.647 328.004H359.667C359.595 326.588 358.863 325.748 357.699 325.748ZM361.346 328.376C361.346 326.432 362.426 325.1 364.13 325.1C365.078 325.1 365.882 325.64 366.302 326.54V322.928H367.142V331.544H366.362V330.212C365.918 331.136 365.102 331.664 364.13 331.664C362.426 331.664 361.346 330.32 361.346 328.376ZM362.198 328.376C362.198 329.984 363.014 330.932 364.25 330.932C365.474 330.932 366.314 329.936 366.314 328.352C366.314 326.756 365.45 325.832 364.25 325.832C363.014 325.832 362.198 326.768 362.198 328.376ZM375.359 331.544V330.392C374.987 331.184 374.219 331.664 373.235 331.664C371.927 331.664 371.075 330.932 371.075 329.792C371.075 328.556 372.059 327.908 373.979 327.908C374.363 327.908 374.651 327.932 375.275 327.98V327.452C375.275 326.396 374.711 325.772 373.751 325.772C372.719 325.772 372.071 326.408 372.059 327.44H371.291C371.327 326.036 372.299 325.1 373.739 325.1C375.215 325.1 376.079 325.964 376.079 327.428V331.544H375.359ZM371.879 329.768C371.879 330.536 372.467 331.052 373.355 331.052C374.531 331.052 375.275 330.284 375.275 329.096V328.532C374.735 328.484 374.363 328.472 374.015 328.472C372.575 328.472 371.879 328.892 371.879 329.768ZM381.062 330.74V331.484C380.738 331.616 380.462 331.664 380.15 331.664C379.106 331.664 378.302 331.124 378.302 329.756V325.928H376.814V325.22H378.302V323.348H379.142V325.22H381.122V325.928H379.142V329.576C379.142 330.56 379.622 330.896 380.318 330.896C380.582 330.896 380.798 330.848 381.062 330.74ZM384.6 327.5C384.6 324.812 385.632 323.312 387.48 323.312C389.316 323.312 390.36 324.812 390.36 327.5C390.36 330.188 389.34 331.664 387.48 331.664C385.608 331.664 384.6 330.188 384.6 327.5ZM385.464 327.5C385.464 329.732 386.148 330.92 387.48 330.92C388.788 330.92 389.496 329.744 389.496 327.5C389.496 325.244 388.788 324.056 387.48 324.056C386.172 324.056 385.464 325.232 385.464 327.5ZM396.434 323.912L393.194 331.544H392.294L395.498 324.176H391.142V323.432H396.434V323.912ZM399.054 325.964C399.054 326.408 398.742 326.72 398.298 326.72C397.866 326.72 397.542 326.408 397.542 325.964C397.542 325.52 397.866 325.196 398.298 325.196C398.742 325.196 399.054 325.52 399.054 325.964ZM399.054 330.848C399.054 331.28 398.742 331.604 398.298 331.604C397.866 331.604 397.542 331.28 397.542 330.848C397.542 330.392 397.866 330.08 398.298 330.08C398.742 330.08 399.054 330.392 399.054 330.848ZM403.252 331.652C401.644 331.652 400.54 330.704 400.504 329.3H401.32C401.368 330.32 402.124 330.968 403.252 330.968C404.416 330.968 405.124 330.332 405.124 329.312C405.124 328.34 404.332 327.716 403.084 327.716H402.28V327.02H403.06C404.056 327.02 404.752 326.384 404.752 325.472C404.752 324.596 404.104 323.996 403.18 323.996C402.22 323.996 401.584 324.596 401.536 325.532H400.732C400.768 324.26 401.824 323.312 403.204 323.312C404.644 323.312 405.616 324.188 405.616 325.436C405.616 326.276 405.112 326.948 404.224 327.32C405.34 327.596 405.988 328.316 405.988 329.3C405.988 330.692 404.884 331.652 403.252 331.652ZM407.323 327.5C407.323 324.812 408.355 323.312 410.203 323.312C412.039 323.312 413.083 324.812 413.083 327.5C413.083 330.188 412.063 331.664 410.203 331.664C408.331 331.664 407.323 330.188 407.323 327.5ZM408.187 327.5C408.187 329.732 408.871 330.92 410.203 330.92C411.511 330.92 412.219 329.744 412.219 327.5C412.219 325.244 411.511 324.056 410.203 324.056C408.895 324.056 408.187 325.232 408.187 327.5ZM420.007 328.376H418.075V331.544H417.175V322.928H420.007C421.783 322.928 422.995 323.9 422.995 325.64C422.995 327.38 421.783 328.376 420.007 328.376ZM419.995 323.696H418.075V327.608H419.995C421.279 327.608 422.095 326.9 422.095 325.64C422.095 324.392 421.279 323.696 419.995 323.696ZM428.342 331.544L425.222 324.236V331.544H424.382V322.928H425.546L428.738 330.44L431.954 322.928H433.106V331.544H432.278V324.236L429.134 331.544H428.342Z" fill="#828282"/>
</g>
<g filter="url(#filter3_di_1_3280)">
<rect x="292" y="192.544" width="185.726" height="55.4903" rx="11.7452" fill="url(#paint4_linear_1_3280)" shape-rendering="crispEdges"/>
<rect x="292.367" y="192.911" width="184.992" height="54.7562" rx="11.3781" stroke="url(#paint5_linear_1_3280)" stroke-width="0.734072" shape-rendering="crispEdges"/>
<g filter="url(#filter4_d_1_3280)">
<path d="M346.49 217.289C346.49 216.522 346.27 215.772 345.855 215.127C345.441 214.483 344.85 213.97 344.153 213.652C343.456 213.333 342.681 213.222 341.923 213.33C341.164 213.439 340.452 213.764 339.873 214.265C337.779 213.153 335.278 212.48 332.665 212.324L333.314 208.428L335.529 208.768C335.641 209.466 335.997 210.103 336.533 210.565C337.07 211.027 337.752 211.284 338.46 211.291C339.167 211.299 339.855 211.056 340.401 210.605C340.946 210.155 341.315 209.526 341.442 208.83C341.569 208.133 341.446 207.415 341.094 206.801C340.743 206.186 340.185 205.716 339.52 205.474C338.856 205.231 338.127 205.231 337.462 205.473C336.797 205.716 336.24 206.186 335.888 206.8L332.638 206.3C332.378 206.26 332.112 206.324 331.899 206.478C331.686 206.633 331.542 206.865 331.499 207.124L330.64 212.309C327.91 212.427 325.288 213.107 323.108 214.265C322.312 213.593 321.285 213.257 320.245 213.331C319.205 213.404 318.235 213.88 317.542 214.658C316.848 215.436 316.485 216.453 316.53 217.495C316.576 218.536 317.025 219.518 317.784 220.233C317.59 220.901 317.491 221.593 317.49 222.289C317.49 225.03 318.99 227.583 321.729 229.475C324.35 231.289 327.817 232.289 331.49 232.289C335.164 232.289 338.63 231.289 341.252 229.475C343.99 227.583 345.49 225.03 345.49 222.289C345.49 221.593 345.391 220.901 345.197 220.233C345.603 219.858 345.928 219.402 346.151 218.896C346.373 218.389 346.489 217.842 346.49 217.289ZM338.49 207.289C338.688 207.289 338.881 207.348 339.046 207.458C339.21 207.567 339.338 207.724 339.414 207.906C339.49 208.089 339.51 208.29 339.471 208.484C339.432 208.678 339.337 208.856 339.197 208.996C339.058 209.136 338.879 209.231 338.685 209.27C338.491 209.308 338.29 209.289 338.108 209.213C337.925 209.137 337.769 209.009 337.659 208.845C337.549 208.68 337.49 208.487 337.49 208.289C337.49 208.024 337.596 207.769 337.783 207.582C337.971 207.394 338.225 207.289 338.49 207.289ZM324.49 220.289C324.49 219.893 324.608 219.507 324.827 219.178C325.047 218.849 325.359 218.593 325.725 218.441C326.09 218.29 326.493 218.25 326.88 218.327C327.268 218.405 327.625 218.595 327.905 218.875C328.184 219.155 328.375 219.511 328.452 219.899C328.529 220.287 328.489 220.689 328.338 221.054C328.187 221.42 327.93 221.732 327.601 221.952C327.273 222.172 326.886 222.289 326.49 222.289C325.96 222.289 325.451 222.078 325.076 221.703C324.701 221.328 324.49 220.819 324.49 220.289ZM335.959 227.173C334.583 227.904 333.049 228.286 331.49 228.286C329.932 228.286 328.398 227.904 327.022 227.173C326.905 227.111 326.803 227.027 326.719 226.926C326.635 226.825 326.572 226.708 326.534 226.582C326.495 226.457 326.482 226.325 326.494 226.194C326.507 226.063 326.545 225.936 326.607 225.82C326.668 225.704 326.752 225.601 326.853 225.518C326.954 225.434 327.071 225.371 327.197 225.333C327.322 225.294 327.454 225.281 327.585 225.293C327.716 225.306 327.843 225.344 327.959 225.405C329.046 225.983 330.259 226.286 331.49 226.286C332.722 226.286 333.934 225.983 335.022 225.405C335.138 225.344 335.265 225.306 335.395 225.293C335.526 225.281 335.658 225.294 335.784 225.333C335.909 225.371 336.026 225.434 336.127 225.518C336.229 225.601 336.312 225.704 336.374 225.82C336.436 225.936 336.474 226.063 336.486 226.194C336.499 226.325 336.485 226.457 336.447 226.582C336.408 226.708 336.345 226.825 336.262 226.926C336.178 227.027 336.075 227.111 335.959 227.173ZM336.49 222.289C336.095 222.289 335.708 222.172 335.379 221.952C335.05 221.732 334.794 221.42 334.643 221.054C334.491 220.689 334.452 220.287 334.529 219.899C334.606 219.511 334.796 219.155 335.076 218.875C335.356 218.595 335.712 218.405 336.1 218.327C336.488 218.25 336.89 218.29 337.256 218.441C337.621 218.593 337.933 218.849 338.153 219.178C338.373 219.507 338.49 219.893 338.49 220.289C338.49 220.819 338.28 221.328 337.905 221.703C337.529 222.078 337.021 222.289 336.49 222.289Z" fill="url(#paint6_linear_1_3280)" shape-rendering="crispEdges"/>
</g>
<path d="M362.548 227.289H360.61V214.64H365.331C368.238 214.64 369.982 216.067 369.982 218.586C369.982 220.401 368.837 221.792 366.917 222.25L370.352 227.289H368.027L364.873 222.532H362.548V227.289ZM362.548 216.26V220.911H365.208C367.005 220.911 368.027 220.119 368.027 218.586C368.027 217.071 367.005 216.26 365.208 216.26H362.548ZM375.475 227.465C372.78 227.465 370.965 225.51 370.965 222.568C370.965 219.802 372.85 217.775 375.422 217.775C378.206 217.775 380.056 220.031 379.739 223.061H372.78C372.921 224.964 373.872 226.073 375.44 226.073C376.761 226.073 377.678 225.351 377.977 224.135H379.739C379.281 226.214 377.678 227.465 375.475 227.465ZM375.387 219.114C373.96 219.114 372.991 220.136 372.797 221.88H377.854C377.766 220.154 376.832 219.114 375.387 219.114ZM380.789 222.62C380.789 219.784 382.41 217.775 384.929 217.775C386.18 217.775 387.272 218.41 387.924 219.555V214.64H389.704V227.289H388.048V225.615C387.378 226.796 386.251 227.465 384.929 227.465C382.41 227.465 380.789 225.422 380.789 222.62ZM382.639 222.62C382.639 224.699 383.731 225.88 385.282 225.88C386.797 225.88 387.924 224.646 387.924 222.585C387.924 220.489 386.762 219.343 385.282 219.343C383.731 219.343 382.639 220.506 382.639 222.62ZM391.508 222.62C391.508 219.784 393.129 217.775 395.648 217.775C396.899 217.775 397.991 218.41 398.643 219.555V214.64H400.422V227.289H398.766V225.615C398.097 226.796 396.969 227.465 395.648 227.465C393.129 227.465 391.508 225.422 391.508 222.62ZM393.358 222.62C393.358 224.699 394.45 225.88 396 225.88C397.515 225.88 398.643 224.646 398.643 222.585C398.643 220.489 397.48 219.343 396 219.343C394.45 219.343 393.358 220.506 393.358 222.62ZM405.063 215.785C405.063 216.454 404.534 216.965 403.777 216.965C403.019 216.965 402.473 216.454 402.473 215.785C402.473 215.098 403.019 214.604 403.777 214.604C404.534 214.604 405.063 215.098 405.063 215.785ZM404.675 227.289H402.896V217.952H404.675V227.289ZM412.413 225.563V227.131C411.867 227.377 411.391 227.465 410.827 227.465C409.101 227.465 407.903 226.532 407.903 224.47V219.467H405.842V217.952H407.903V215.186H409.682V217.952H412.501V219.467H409.682V224.065C409.682 225.351 410.299 225.809 411.25 225.809C411.673 225.809 412.043 225.739 412.413 225.563ZM422.409 222.885H419.96V227.289H418.022V214.64H422.409C425.245 214.64 427.078 216.084 427.078 218.727C427.078 221.387 425.245 222.885 422.409 222.885ZM422.391 216.278H419.96V221.246H422.391C424.1 221.246 425.14 220.312 425.14 218.744C425.14 217.176 424.1 216.278 422.391 216.278ZM432.614 227.465C429.971 227.465 428.034 225.386 428.034 222.62C428.034 219.854 429.971 217.775 432.614 217.775C435.257 217.775 437.195 219.854 437.195 222.62C437.195 225.386 435.257 227.465 432.614 227.465ZM432.614 225.897C434.147 225.897 435.363 224.664 435.363 222.62C435.363 220.577 434.147 219.361 432.614 219.361C431.081 219.361 429.883 220.577 429.883 222.62C429.883 224.664 431.081 225.897 432.614 225.897ZM446.408 224.505C446.408 226.338 444.981 227.465 442.497 227.465C440.031 227.465 438.568 226.25 438.392 224.241H440.101C440.171 225.404 441.105 226.126 442.532 226.126C443.783 226.126 444.611 225.686 444.611 224.805C444.611 224.03 444.135 223.695 442.973 223.466L441.458 223.184C439.731 222.849 438.762 221.969 438.762 220.559C438.762 218.921 440.189 217.775 442.356 217.775C444.594 217.775 446.109 218.973 446.267 220.894H444.558C444.453 219.766 443.625 219.114 442.374 219.114C441.246 219.114 440.489 219.59 440.489 220.401C440.489 221.158 440.964 221.51 442.092 221.722L443.677 222.021C445.527 222.356 446.408 223.167 446.408 224.505ZM453.498 225.563V227.131C452.952 227.377 452.476 227.465 451.913 227.465C450.186 227.465 448.988 226.532 448.988 224.47V219.467H446.927V217.952H448.988V215.186H450.767V217.952H453.586V219.467H450.767V224.065C450.767 225.351 451.384 225.809 452.335 225.809C452.758 225.809 453.128 225.739 453.498 225.563Z" fill="url(#paint7_linear_1_3280)"/>
</g>
<g filter="url(#filter5_di_1_3280)">
<rect x="278" y="374.544" width="214.726" height="55.4903" rx="11.7452" fill="url(#paint8_linear_1_3280)" shape-rendering="crispEdges"/>
<rect x="278.367" y="374.911" width="213.992" height="54.7562" rx="11.3781" stroke="url(#paint9_linear_1_3280)" stroke-width="0.734072" shape-rendering="crispEdges"/>
<g clip-path="url(#clip0_1_3280)">
<g filter="url(#filter6_d_1_3280)">
<path d="M332.198 395.997L328.46 399.734C327.705 408.487 320.324 415.289 311.49 415.289C309.675 415.289 308.179 415.002 307.043 414.434C306.127 413.975 305.752 413.484 305.658 413.344C305.574 413.219 305.52 413.076 305.499 412.927C305.479 412.778 305.492 412.626 305.538 412.482C305.584 412.339 305.662 412.208 305.767 412.099C305.871 411.99 305.998 411.906 306.139 411.853C306.172 411.84 309.169 410.689 311.073 408.498C310.017 407.63 309.095 406.61 308.338 405.473C306.788 403.172 305.053 399.174 305.588 393.2C305.605 393.01 305.676 392.829 305.792 392.679C305.908 392.528 306.065 392.413 306.245 392.348C306.424 392.284 306.618 392.272 306.804 392.314C306.99 392.356 307.16 392.45 307.294 392.585C307.338 392.629 311.454 396.723 316.487 398.05V397.289C316.485 396.491 316.642 395.7 316.951 394.964C317.259 394.228 317.711 393.56 318.282 393.002C318.835 392.449 319.494 392.012 320.219 391.718C320.944 391.424 321.72 391.278 322.503 391.289C323.552 391.299 324.581 391.581 325.49 392.107C326.398 392.632 327.155 393.384 327.687 394.289H331.49C331.688 394.289 331.882 394.347 332.046 394.457C332.211 394.567 332.339 394.723 332.415 394.906C332.491 395.089 332.51 395.29 332.472 395.484C332.433 395.678 332.338 395.857 332.198 395.997Z" fill="url(#paint10_linear_1_3280)" shape-rendering="crispEdges"/>
</g>
</g>
<path d="M348.548 409.289H346.61V396.64H348.548V409.289ZM352.928 404.021V409.289H351.148V399.952H352.804V401.502C353.439 400.463 354.496 399.775 355.782 399.775C357.702 399.775 358.971 401.009 358.971 403.246V409.289H357.191V403.845C357.191 402.242 356.487 401.343 355.165 401.343C353.95 401.343 352.928 402.365 352.928 404.021ZM363.924 409.289H362.145V401.467H360.084V399.952H362.145V399.265C362.145 397.468 363.114 396.481 364.876 396.481C365.404 396.481 365.827 396.569 366.179 396.71V398.155C365.897 398.031 365.58 397.996 365.263 397.996C364.418 397.996 363.924 398.384 363.924 399.282V399.952H366.532V401.467H363.924V409.289ZM369.668 409.289H367.871V396.64H369.668V409.289ZM377.97 405.448V399.952H379.749V409.289H378.093V407.809C377.6 408.778 376.507 409.465 375.239 409.465C373.354 409.465 372.05 408.355 372.05 405.959V399.952H373.83V405.607C373.83 407.228 374.64 407.897 375.803 407.897C377.001 407.897 377.97 406.911 377.97 405.448ZM386.061 409.465C383.365 409.465 381.551 407.51 381.551 404.568C381.551 401.802 383.436 399.775 386.008 399.775C388.792 399.775 390.642 402.031 390.324 405.061H383.365C383.506 406.964 384.458 408.073 386.026 408.073C387.347 408.073 388.263 407.351 388.563 406.135H390.324C389.866 408.214 388.263 409.465 386.061 409.465ZM385.973 401.114C384.546 401.114 383.577 402.136 383.383 403.88H388.439C388.351 402.154 387.418 401.114 385.973 401.114ZM393.996 404.021V409.289H392.216V399.952H393.872V401.502C394.507 400.463 395.564 399.775 396.85 399.775C398.77 399.775 400.039 401.009 400.039 403.246V409.289H398.259V403.845C398.259 402.242 397.554 401.343 396.233 401.343C395.018 401.343 393.996 402.365 393.996 404.021ZM406.084 409.483C403.529 409.483 401.732 407.474 401.732 404.62C401.732 401.802 403.564 399.775 406.084 399.775C408.392 399.775 410.065 401.308 410.4 403.739H408.533C408.339 402.242 407.405 401.343 406.101 401.343C404.569 401.343 403.564 402.647 403.564 404.62C403.564 406.611 404.569 407.897 406.101 407.897C407.423 407.897 408.339 407.016 408.55 405.501H410.4C410.083 407.968 408.427 409.483 406.084 409.483ZM415.946 409.465C413.25 409.465 411.436 407.51 411.436 404.568C411.436 401.802 413.321 399.775 415.893 399.775C418.676 399.775 420.526 402.031 420.209 405.061H413.25C413.391 406.964 414.343 408.073 415.911 408.073C417.232 408.073 418.148 407.351 418.447 406.135H420.209C419.751 408.214 418.148 409.465 415.946 409.465ZM415.858 401.114C414.431 401.114 413.462 402.136 413.268 403.88H418.324C418.236 402.154 417.302 401.114 415.858 401.114ZM423.88 404.515V409.289H422.101V399.952H423.757V401.925C424.409 400.639 425.818 399.828 427.351 399.828V401.678C425.343 401.572 423.88 402.453 423.88 404.515ZM436.969 404.885H434.52V409.289H432.582V396.64H436.969C439.805 396.64 441.638 398.084 441.638 400.727C441.638 403.387 439.805 404.885 436.969 404.885ZM436.951 398.278H434.52V403.246H436.951C438.66 403.246 439.7 402.312 439.7 400.744C439.7 399.176 438.66 398.278 436.951 398.278ZM447.174 409.465C444.531 409.465 442.594 407.386 442.594 404.62C442.594 401.854 444.531 399.775 447.174 399.775C449.817 399.775 451.755 401.854 451.755 404.62C451.755 407.386 449.817 409.465 447.174 409.465ZM447.174 407.897C448.707 407.897 449.922 406.664 449.922 404.62C449.922 402.577 448.707 401.361 447.174 401.361C445.641 401.361 444.443 402.577 444.443 404.62C444.443 406.664 445.641 407.897 447.174 407.897ZM460.968 406.505C460.968 408.338 459.541 409.465 457.057 409.465C454.591 409.465 453.128 408.25 452.952 406.241H454.661C454.731 407.404 455.665 408.126 457.092 408.126C458.343 408.126 459.171 407.686 459.171 406.805C459.171 406.03 458.695 405.695 457.533 405.466L456.018 405.184C454.291 404.849 453.322 403.969 453.322 402.559C453.322 400.921 454.749 399.775 456.916 399.775C459.153 399.775 460.669 400.973 460.827 402.894H459.118C459.013 401.766 458.185 401.114 456.934 401.114C455.806 401.114 455.049 401.59 455.049 402.401C455.049 403.158 455.524 403.51 456.652 403.722L458.237 404.021C460.087 404.356 460.968 405.167 460.968 406.505ZM468.058 407.563V409.131C467.512 409.377 467.036 409.465 466.473 409.465C464.746 409.465 463.548 408.532 463.548 406.47V401.467H461.487V399.952H463.548V397.186H465.327V399.952H468.146V401.467H465.327V406.065C465.327 407.351 465.944 407.809 466.895 407.809C467.318 407.809 467.688 407.739 468.058 407.563Z" fill="url(#paint11_linear_1_3280)"/>
</g>
<rect x="174" y="242.544" width="422" height="137" rx="41" stroke="#E023FF" stroke-opacity="0.05" stroke-width="2"/>
<defs>
<filter id="filter0_f_1_3280" x="0" y="0.543945" width="769" height="620" filterUnits="userSpaceOnUse" color-interpolation-filters="sRGB">
<feFlood flood-opacity="0" result="BackgroundImageFix"/>
<feBlend mode="normal" in="SourceGraphic" in2="BackgroundImageFix" result="shape"/>
<feGaussianBlur stdDeviation="125" result="effect1_foregroundBlur_1_3280"/>
</filter>
<filter id="filter1_di_1_3280" x="193" y="250.544" width="384" height="148" filterUnits="userSpaceOnUse" color-interpolation-filters="sRGB">
<feFlood flood-opacity="0" result="BackgroundImageFix"/>
<feColorMatrix in="SourceAlpha" type="matrix" values="0 0 0 0 0 0 0 0 0 0 0 0 0 0 0 0 0 0 127 0" result="hardAlpha"/>
<feOffset dy="14"/>
<feGaussianBlur stdDeviation="17"/>
<feComposite in2="hardAlpha" operator="out"/>
<feColorMatrix type="matrix" values="0 0 0 0 0 0 0 0 0 0 0 0 0 0 0 0 0 0 0.45 0"/>
<feBlend mode="normal" in2="BackgroundImageFix" result="effect1_dropShadow_1_3280"/>
<feBlend mode="normal" in="SourceGraphic" in2="effect1_dropShadow_1_3280" result="shape"/>
<feColorMatrix in="SourceAlpha" type="matrix" values="0 0 0 0 0 0 0 0 0 0 0 0 0 0 0 0 0 0 127 0" result="hardAlpha"/>
<feOffset dy="30.975"/>
<feGaussianBlur stdDeviation="15.4875"/>
<feComposite in2="hardAlpha" operator="arithmetic" k2="-1" k3="1"/>
<feColorMatrix type="matrix" values="0 0 0 0 1 0 0 0 0 1 0 0 0 0 1 0 0 0 0.05 0"/>
<feBlend mode="normal" in2="shape" result="effect2_innerShadow_1_3280"/>
</filter>
<filter id="filter2_d_1_3280" x="246.75" y="288.294" width="64.5" height="64.5" filterUnits="userSpaceOnUse" color-interpolation-filters="sRGB">
<feFlood flood-opacity="0" result="BackgroundImageFix"/>
<feColorMatrix in="SourceAlpha" type="matrix" values="0 0 0 0 0 0 0 0 0 0 0 0 0 0 0 0 0 0 127 0" result="hardAlpha"/>
<feOffset dy="10"/>
<feGaussianBlur stdDeviation="8"/>
<feComposite in2="hardAlpha" operator="out"/>
<feColorMatrix type="matrix" values="0 0 0 0 0 0 0 0 0 0 0 0 0 0 0 0 0 0 0.5 0"/>
<feBlend mode="normal" in2="BackgroundImageFix" result="effect1_dropShadow_1_3280"/>
<feBlend mode="normal" in="SourceGraphic" in2="effect1_dropShadow_1_3280" result="shape"/>
</filter>
<filter id="filter3_di_1_3280" x="267.042" y="177.863" width="235.643" height="105.407" filterUnits="userSpaceOnUse" color-interpolation-filters="sRGB">
<feFlood flood-opacity="0" result="BackgroundImageFix"/>
<feColorMatrix in="SourceAlpha" type="matrix" values="0 0 0 0 0 0 0 0 0 0 0 0 0 0 0 0 0 0 127 0" result="hardAlpha"/>
<feOffset dy="10.277"/>
<feGaussianBlur stdDeviation="12.4792"/>
<feComposite in2="hardAlpha" operator="out"/>
<feColorMatrix type="matrix" values="0 0 0 0 0 0 0 0 0 0 0 0 0 0 0 0 0 0 0.45 0"/>
<feBlend mode="normal" in2="BackgroundImageFix" result="effect1_dropShadow_1_3280"/>
<feBlend mode="normal" in="SourceGraphic" in2="effect1_dropShadow_1_3280" result="shape"/>
<feColorMatrix in="SourceAlpha" type="matrix" values="0 0 0 0 0 0 0 0 0 0 0 0 0 0 0 0 0 0 127 0" result="hardAlpha"/>
<feOffset dy="22.7379"/>
<feGaussianBlur stdDeviation="11.3689"/>
<feComposite in2="hardAlpha" operator="arithmetic" k2="-1" k3="1"/>
<feColorMatrix type="matrix" values="0 0 0 0 1 0 0 0 0 1 0 0 0 0 1 0 0 0 0.05 0"/>
<feBlend mode="normal" in2="shape" result="effect2_innerShadow_1_3280"/>
</filter>
<filter id="filter4_d_1_3280" x="304.781" y="200.887" width="53.4541" height="50.488" filterUnits="userSpaceOnUse" color-interpolation-filters="sRGB">
<feFlood flood-opacity="0" result="BackgroundImageFix"/>
<feColorMatrix in="SourceAlpha" type="matrix" values="0 0 0 0 0 0 0 0 0 0 0 0 0 0 0 0 0 0 127 0" result="hardAlpha"/>
<feOffset dy="7.34072"/>
<feGaussianBlur stdDeviation="5.87258"/>
<feComposite in2="hardAlpha" operator="out"/>
<feColorMatrix type="matrix" values="0 0 0 0 0 0 0 0 0 0 0 0 0 0 0 0 0 0 0.5 0"/>
<feBlend mode="normal" in2="BackgroundImageFix" result="effect1_dropShadow_1_3280"/>
<feBlend mode="normal" in="SourceGraphic" in2="effect1_dropShadow_1_3280" result="shape"/>
</filter>
<filter id="filter5_di_1_3280" x="253.042" y="359.863" width="264.643" height="105.407" filterUnits="userSpaceOnUse" color-interpolation-filters="sRGB">
<feFlood flood-opacity="0" result="BackgroundImageFix"/>
<feColorMatrix in="SourceAlpha" type="matrix" values="0 0 0 0 0 0 0 0 0 0 0 0 0 0 0 0 0 0 127 0" result="hardAlpha"/>
<feOffset dy="10.277"/>
<feGaussianBlur stdDeviation="12.4792"/>
<feComposite in2="hardAlpha" operator="out"/>
<feColorMatrix type="matrix" values="0 0 0 0 0 0 0 0 0 0 0 0 0 0 0 0 0 0 0.45 0"/>
<feBlend mode="normal" in2="BackgroundImageFix" result="effect1_dropShadow_1_3280"/>
<feBlend mode="normal" in="SourceGraphic" in2="effect1_dropShadow_1_3280" result="shape"/>
<feColorMatrix in="SourceAlpha" type="matrix" values="0 0 0 0 0 0 0 0 0 0 0 0 0 0 0 0 0 0 127 0" result="hardAlpha"/>
<feOffset dy="22.7379"/>
<feGaussianBlur stdDeviation="11.3689"/>
<feComposite in2="hardAlpha" operator="arithmetic" k2="-1" k3="1"/>
<feColorMatrix type="matrix" values="0 0 0 0 1 0 0 0 0 1 0 0 0 0 1 0 0 0 0.05 0"/>
<feBlend mode="normal" in2="shape" result="effect2_innerShadow_1_3280"/>
</filter>
<filter id="filter6_d_1_3280" x="293.744" y="386.884" width="50.4926" height="47.4909" filterUnits="userSpaceOnUse" color-interpolation-filters="sRGB">
<feFlood flood-opacity="0" result="BackgroundImageFix"/>
<feColorMatrix in="SourceAlpha" type="matrix" values="0 0 0 0 0 0 0 0 0 0 0 0 0 0 0 0 0 0 127 0" result="hardAlpha"/>
<feOffset dy="7.34072"/>
<feGaussianBlur stdDeviation="5.87258"/>
<feComposite in2="hardAlpha" operator="out"/>
<feColorMatrix type="matrix" values="0 0 0 0 0 0 0 0 0 0 0 0 0 0 0 0 0 0 0.5 0"/>
<feBlend mode="normal" in2="BackgroundImageFix" result="effect1_dropShadow_1_3280"/>
<feBlend mode="normal" in="SourceGraphic" in2="effect1_dropShadow_1_3280" result="shape"/>
</filter>
<radialGradient id="paint0_radial_1_3280" cx="0" cy="0" r="1" gradientUnits="userSpaceOnUse" gradientTransform="translate(385 310.544) rotate(90) scale(162)">
<stop stop-color="#D9D9D9"/>
<stop offset="1" stop-color="#D9D9D9" stop-opacity="0"/>
</radialGradient>
<linearGradient id="paint1_linear_1_3280" x1="359.113" y1="253.369" x2="356.575" y2="361.127" gradientUnits="userSpaceOnUse">
<stop offset="0.02" stop-color="#27273D"/>
<stop offset="1" stop-color="#141414"/>
<stop offset="1" stop-color="#13131A"/>
</linearGradient>
<linearGradient id="paint2_linear_1_3280" x1="374.288" y1="232.804" x2="375.032" y2="383.818" gradientUnits="userSpaceOnUse">
<stop stop-color="white"/>
<stop offset="1" stop-opacity="0"/>
</linearGradient>
<linearGradient id="paint3_linear_1_3280" x1="279" y1="294.294" x2="279" y2="326.794" gradientUnits="userSpaceOnUse">
<stop stop-color="white"/>
<stop offset="1" stop-color="#9643FF" stop-opacity="0"/>
</linearGradient>
<linearGradient id="paint4_linear_1_3280" x1="390.098" y1="183.544" x2="387.754" y2="255.523" gradientUnits="userSpaceOnUse">
<stop offset="0.02" stop-color="#27273D" stop-opacity="0"/>
<stop offset="1" stop-color="#141414"/>
<stop offset="1" stop-color="#13131A"/>
</linearGradient>
<linearGradient id="paint5_linear_1_3280" x1="385.388" y1="307.544" x2="400.139" y2="180.407" gradientUnits="userSpaceOnUse">
<stop stop-color="white"/>
<stop offset="1" stop-opacity="0"/>
</linearGradient>
<linearGradient id="paint6_linear_1_3280" x1="332" y1="207.044" x2="332" y2="265.044" gradientUnits="userSpaceOnUse">
<stop stop-opacity="0"/>
<stop offset="0.441734" stop-color="white"/>
<stop offset="1" stop-color="#9643FF" stop-opacity="0"/>
</linearGradient>
<linearGradient id="paint7_linear_1_3280" x1="406.735" y1="286.544" x2="406.735" y2="168.044" gradientUnits="userSpaceOnUse">
<stop stop-color="white"/>
<stop offset="1" stop-color="white" stop-opacity="0"/>
</linearGradient>
<linearGradient id="paint8_linear_1_3280" x1="391.415" y1="455.044" x2="390.701" y2="350.549" gradientUnits="userSpaceOnUse">
<stop offset="0.02" stop-color="#27273D" stop-opacity="0"/>
<stop offset="1" stop-color="#141414"/>
<stop offset="1" stop-color="#13131A"/>
</linearGradient>
<linearGradient id="paint9_linear_1_3280" x1="389.443" y1="319.044" x2="380.783" y2="450.976" gradientUnits="userSpaceOnUse">
<stop stop-color="white"/>
<stop offset="1" stop-opacity="0"/>
</linearGradient>
<linearGradient id="paint10_linear_1_3280" x1="319.433" y1="419.311" x2="319.433" y2="361.42" gradientUnits="userSpaceOnUse">
<stop stop-opacity="0"/>
<stop offset="0.441734" stop-color="white"/>
<stop offset="1" stop-color="#9643FF" stop-opacity="0"/>
</linearGradient>
<linearGradient id="paint11_linear_1_3280" x1="407.043" y1="358.544" x2="407.043" y2="427.544" gradientUnits="userSpaceOnUse">
<stop stop-color="white"/>
<stop offset="1" stop-color="white" stop-opacity="0"/>
</linearGradient>
<clipPath id="clip0_1_3280">
<rect width="32" height="32" fill="white" transform="translate(301.49 386.289)"/>
</clipPath>
</defs>
</svg>
