<svg width="767" height="621" viewBox="0 0 767 621" fill="none" xmlns="http://www.w3.org/2000/svg">
<g filter="url(#filter0_f_1_2986)">
<ellipse cx="384.5" cy="310.544" rx="134.5" ry="60" fill="#9625EF"/>
</g>
<mask id="mask0_1_2986" style="mask-type:alpha" maskUnits="userSpaceOnUse" x="212" y="161" width="324" height="325">
<rect x="212" y="161.544" width="324" height="324" fill="url(#paint0_radial_1_2986)"/>
</mask>
<g mask="url(#mask0_1_2986)">
<circle opacity="0.82" cx="216.5" cy="166.044" r="2.5" fill="#F689FF"/>
<circle opacity="0.82" cx="237.5" cy="166.044" r="2.5" fill="#F689FF"/>
<circle opacity="0.26" cx="258.5" cy="166.044" r="2.5" fill="white" fill-opacity="0.5"/>
<circle opacity="0.85" cx="279.5" cy="166.044" r="2.5" fill="#F689FF"/>
<circle opacity="0.66" cx="300.5" cy="166.044" r="2.5" fill="white" fill-opacity="0.5"/>
<circle opacity="0.57" cx="321.5" cy="166.044" r="2.5" fill="#F689FF"/>
<circle opacity="0.88" cx="342.5" cy="166.044" r="2.5" fill="white" fill-opacity="0.5"/>
<circle opacity="0.4" cx="363.5" cy="166.044" r="2.5" fill="#F689FF"/>
<circle opacity="0.09" cx="384.5" cy="166.044" r="2.5" fill="white" fill-opacity="0.5"/>
<circle opacity="0.26" cx="405.5" cy="166.044" r="2.5" fill="#F689FF"/>
<circle opacity="0.11" cx="426.5" cy="166.044" r="2.5" fill="#F689FF"/>
<circle opacity="0.06" cx="447.5" cy="166.044" r="2.5" fill="#F689FF"/>
<circle opacity="0.02" cx="468.5" cy="166.044" r="2.5" fill="#F689FF"/>
<circle opacity="0.01" cx="489.5" cy="166.044" r="2.5" fill="#F689FF"/>
<circle opacity="0.63" cx="510.5" cy="166.044" r="2.5" fill="#F689FF"/>
<circle opacity="0.22" cx="531.5" cy="166.044" r="2.5" fill="white" fill-opacity="0.5"/>
<circle opacity="0.98" cx="237.5" cy="187.044" r="2.5" fill="#F689FF"/>
<circle opacity="0.63" cx="258.5" cy="187.044" r="2.5" fill="#F689FF"/>
<circle opacity="0.5" cx="279.5" cy="187.044" r="2.5" fill="white" fill-opacity="0.5"/>
<circle opacity="0.86" cx="300.5" cy="187.044" r="2.5" fill="white" fill-opacity="0.5"/>
<circle opacity="0.27" cx="321.5" cy="187.044" r="2.5" fill="#F689FF"/>
<circle opacity="0.96" cx="342.5" cy="187.044" r="2.5" fill="white" fill-opacity="0.5"/>
<circle opacity="0.69" cx="363.5" cy="187.044" r="2.5" fill="#F689FF"/>
<circle opacity="0.51" cx="384.5" cy="187.044" r="2.5" fill="white" fill-opacity="0.5"/>
<circle opacity="0.41" cx="405.5" cy="187.044" r="2.5" fill="#F689FF"/>
<circle opacity="0.81" cx="426.5" cy="187.044" r="2.5" fill="#F689FF"/>
<circle opacity="0.73" cx="447.5" cy="187.044" r="2.5" fill="#F689FF"/>
<circle opacity="0.4" cx="468.5" cy="187.044" r="2.5" fill="white" fill-opacity="0.5"/>
<circle opacity="0.28" cx="489.5" cy="187.044" r="2.5" fill="#F689FF"/>
<circle opacity="0.6" cx="510.5" cy="187.044" r="2.5" fill="white" fill-opacity="0.5"/>
<circle opacity="0.62" cx="531.5" cy="187.044" r="2.5" fill="white" fill-opacity="0.5"/>
<circle opacity="0.43" cx="216.5" cy="208.044" r="2.5" fill="#F689FF"/>
<circle opacity="0.73" cx="237.5" cy="208.044" r="2.5" fill="white" fill-opacity="0.5"/>
<circle opacity="0.99" cx="258.5" cy="208.044" r="2.5" fill="#F689FF"/>
<circle opacity="0.45" cx="279.5" cy="208.044" r="2.5" fill="white" fill-opacity="0.5"/>
<circle opacity="0.43" cx="300.5" cy="208.044" r="2.5" fill="white" fill-opacity="0.5"/>
<circle opacity="0.91" cx="321.5" cy="208.044" r="2.5" fill="white" fill-opacity="0.5"/>
<circle cx="342.5" cy="208.044" r="2.5" fill="white" fill-opacity="0.5"/>
<circle opacity="0.14" cx="363.5" cy="208.044" r="2.5" fill="white" fill-opacity="0.5"/>
<circle opacity="0.02" cx="384.5" cy="208.044" r="2.5" fill="white" fill-opacity="0.5"/>
<circle opacity="0.6" cx="405.5" cy="208.044" r="2.5" fill="#F689FF"/>
<circle opacity="0.2" cx="426.5" cy="208.044" r="2.5" fill="white" fill-opacity="0.5"/>
<circle opacity="0.06" cx="447.5" cy="208.044" r="2.5" fill="#F689FF"/>
<circle opacity="0.22" cx="468.5" cy="208.044" r="2.5" fill="white" fill-opacity="0.5"/>
<circle opacity="0.93" cx="489.5" cy="208.044" r="2.5" fill="white" fill-opacity="0.5"/>
<circle opacity="0.13" cx="510.5" cy="208.044" r="2.5" fill="#F689FF"/>
<circle opacity="0.42" cx="531.5" cy="208.044" r="2.5" fill="#F689FF"/>
<circle opacity="0.6" cx="216.5" cy="229.044" r="2.5" fill="#F689FF"/>
<circle opacity="0.29" cx="237.5" cy="229.044" r="2.5" fill="#F689FF"/>
<circle opacity="0.71" cx="258.5" cy="229.044" r="2.5" fill="white" fill-opacity="0.5"/>
<circle opacity="0.78" cx="279.5" cy="229.044" r="2.5" fill="#F689FF"/>
<circle opacity="0.77" cx="300.5" cy="229.044" r="2.5" fill="#F689FF"/>
<circle opacity="0.38" cx="321.5" cy="229.044" r="2.5" fill="#F689FF"/>
<circle opacity="0.6" cx="342.5" cy="229.044" r="2.5" fill="white" fill-opacity="0.5"/>
<circle opacity="0.9" cx="363.5" cy="229.044" r="2.5" fill="white" fill-opacity="0.5"/>
<circle opacity="0.38" cx="384.5" cy="229.044" r="2.5" fill="#F689FF"/>
<circle opacity="0.97" cx="405.5" cy="229.044" r="2.5" fill="white" fill-opacity="0.5"/>
<circle opacity="0.04" cx="426.5" cy="229.044" r="2.5" fill="#F689FF"/>
<circle opacity="0.3" cx="447.5" cy="229.044" r="2.5" fill="#F689FF"/>
<circle opacity="0.65" cx="468.5" cy="229.044" r="2.5" fill="#F689FF"/>
<circle opacity="0.13" cx="489.5" cy="229.044" r="2.5" fill="#F689FF"/>
<circle opacity="0.45" cx="510.5" cy="229.044" r="2.5" fill="white" fill-opacity="0.5"/>
<circle opacity="0.15" cx="531.5" cy="229.044" r="2.5" fill="white" fill-opacity="0.5"/>
<circle opacity="0.49" cx="216.5" cy="250.044" r="2.5" fill="white" fill-opacity="0.5"/>
<circle opacity="0.59" cx="237.5" cy="250.044" r="2.5" fill="#F689FF"/>
<circle opacity="0.04" cx="258.5" cy="250.044" r="2.5" fill="#F689FF"/>
<circle opacity="0.43" cx="279.5" cy="250.044" r="2.5" fill="white" fill-opacity="0.5"/>
<circle opacity="0.03" cx="300.5" cy="250.044" r="2.5" fill="white" fill-opacity="0.5"/>
<circle opacity="0.5" cx="321.5" cy="250.044" r="2.5" fill="#F689FF"/>
<circle opacity="0.06" cx="342.5" cy="250.044" r="2.5" fill="white" fill-opacity="0.5"/>
<circle opacity="0.94" cx="363.5" cy="250.044" r="2.5" fill="white" fill-opacity="0.5"/>
<circle opacity="0.64" cx="384.5" cy="250.044" r="2.5" fill="white" fill-opacity="0.5"/>
<circle opacity="0.84" cx="405.5" cy="250.044" r="2.5" fill="white" fill-opacity="0.5"/>
<circle opacity="0.88" cx="426.5" cy="250.044" r="2.5" fill="#F689FF"/>
<circle opacity="0.11" cx="447.5" cy="250.044" r="2.5" fill="#F689FF"/>
<circle opacity="0.57" cx="468.5" cy="250.044" r="2.5" fill="#F689FF"/>
<circle opacity="0.04" cx="489.5" cy="250.044" r="2.5" fill="white" fill-opacity="0.5"/>
<circle opacity="0.13" cx="510.5" cy="250.044" r="2.5" fill="#F689FF"/>
<circle opacity="0.02" cx="531.5" cy="250.044" r="2.5" fill="white" fill-opacity="0.5"/>
<circle opacity="0.1" cx="216.5" cy="271.044" r="2.5" fill="#F689FF"/>
<circle opacity="0.55" cx="237.5" cy="271.044" r="2.5" fill="#F689FF"/>
<circle opacity="0.48" cx="258.5" cy="271.044" r="2.5" fill="white" fill-opacity="0.5"/>
<circle opacity="0.45" cx="279.5" cy="271.044" r="2.5" fill="#F689FF"/>
<circle opacity="0.28" cx="300.5" cy="271.044" r="2.5" fill="white" fill-opacity="0.5"/>
<circle opacity="0.82" cx="321.5" cy="271.044" r="2.5" fill="white" fill-opacity="0.5"/>
<circle opacity="0.18" cx="342.5" cy="271.044" r="2.5" fill="white" fill-opacity="0.5"/>
<circle opacity="0.88" cx="363.5" cy="271.044" r="2.5" fill="#F689FF"/>
<circle opacity="0.27" cx="384.5" cy="271.044" r="2.5" fill="#F689FF"/>
<circle opacity="0.48" cx="405.5" cy="271.044" r="2.5" fill="white" fill-opacity="0.5"/>
<circle opacity="0.98" cx="426.5" cy="271.044" r="2.5" fill="#F689FF"/>
<circle opacity="0.83" cx="447.5" cy="271.044" r="2.5" fill="white" fill-opacity="0.5"/>
<circle opacity="0.43" cx="468.5" cy="271.044" r="2.5" fill="#F689FF"/>
<circle opacity="0.02" cx="489.5" cy="271.044" r="2.5" fill="#F689FF"/>
<circle opacity="0.63" cx="510.5" cy="271.044" r="2.5" fill="white" fill-opacity="0.5"/>
<circle opacity="0.05" cx="531.5" cy="271.044" r="2.5" fill="white" fill-opacity="0.5"/>
<circle opacity="0.26" cx="216.5" cy="292.044" r="2.5" fill="#F689FF"/>
<circle opacity="0.25" cx="237.5" cy="292.044" r="2.5" fill="#F689FF"/>
<circle opacity="0.53" cx="258.5" cy="292.044" r="2.5" fill="#F689FF"/>
<circle opacity="0.08" cx="279.5" cy="292.044" r="2.5" fill="white" fill-opacity="0.5"/>
<circle opacity="0.32" cx="300.5" cy="292.044" r="2.5" fill="white" fill-opacity="0.5"/>
<circle opacity="0.46" cx="321.5" cy="292.044" r="2.5" fill="white" fill-opacity="0.5"/>
<circle opacity="0.25" cx="342.5" cy="292.044" r="2.5" fill="#F689FF"/>
<circle cx="363.5" cy="292.044" r="2.5" fill="#F689FF"/>
<circle opacity="0.6" cx="384.5" cy="292.044" r="2.5" fill="white" fill-opacity="0.5"/>
<circle opacity="0.3" cx="405.5" cy="292.044" r="2.5" fill="#F689FF"/>
<circle opacity="0.02" cx="426.5" cy="292.044" r="2.5" fill="#F689FF"/>
<circle opacity="0.75" cx="447.5" cy="292.044" r="2.5" fill="#F689FF"/>
<circle opacity="0.17" cx="468.5" cy="292.044" r="2.5" fill="#F689FF"/>
<circle opacity="0.34" cx="489.5" cy="292.044" r="2.5" fill="#F689FF"/>
<circle opacity="0.25" cx="510.5" cy="292.044" r="2.5" fill="#F689FF"/>
<circle opacity="0.02" cx="531.5" cy="292.044" r="2.5" fill="white" fill-opacity="0.5"/>
<circle opacity="0.1" cx="216.5" cy="313.044" r="2.5" fill="white" fill-opacity="0.5"/>
<circle opacity="0.99" cx="237.5" cy="313.044" r="2.5" fill="white" fill-opacity="0.5"/>
<circle opacity="0.04" cx="258.5" cy="313.044" r="2.5" fill="white" fill-opacity="0.5"/>
<circle opacity="0.73" cx="279.5" cy="313.044" r="2.5" fill="#F689FF"/>
<circle opacity="0.02" cx="300.5" cy="313.044" r="2.5" fill="#F689FF"/>
<circle opacity="0.49" cx="321.5" cy="313.044" r="2.5" fill="white" fill-opacity="0.5"/>
<circle opacity="0.68" cx="342.5" cy="313.044" r="2.5" fill="white" fill-opacity="0.5"/>
<circle opacity="0.71" cx="363.5" cy="313.044" r="2.5" fill="white" fill-opacity="0.5"/>
<circle opacity="0.19" cx="384.5" cy="313.044" r="2.5" fill="white" fill-opacity="0.5"/>
<circle opacity="0.57" cx="405.5" cy="313.044" r="2.5" fill="#F689FF"/>
<circle opacity="0.6" cx="426.5" cy="313.044" r="2.5" fill="#F689FF"/>
<circle opacity="0.94" cx="447.5" cy="313.044" r="2.5" fill="#F689FF"/>
<circle opacity="0.43" cx="468.5" cy="313.044" r="2.5" fill="#F689FF"/>
<circle opacity="0.03" cx="489.5" cy="313.044" r="2.5" fill="white" fill-opacity="0.5"/>
<circle opacity="0.94" cx="510.5" cy="313.044" r="2.5" fill="white" fill-opacity="0.5"/>
<circle opacity="0.83" cx="531.5" cy="313.044" r="2.5" fill="#F689FF"/>
<circle opacity="0.87" cx="216.5" cy="334.044" r="2.5" fill="white" fill-opacity="0.5"/>
<circle opacity="0.05" cx="237.5" cy="334.044" r="2.5" fill="#F689FF"/>
<circle opacity="0.45" cx="258.5" cy="334.044" r="2.5" fill="#F689FF"/>
<circle opacity="0.97" cx="279.5" cy="334.044" r="2.5" fill="#F689FF"/>
<circle opacity="0.37" cx="300.5" cy="334.044" r="2.5" fill="white" fill-opacity="0.5"/>
<circle opacity="0.72" cx="321.5" cy="334.044" r="2.5" fill="#F689FF"/>
<circle opacity="0.5" cx="342.5" cy="334.044" r="2.5" fill="white" fill-opacity="0.5"/>
<circle opacity="0.77" cx="363.5" cy="334.044" r="2.5" fill="#F689FF"/>
<circle opacity="0.24" cx="384.5" cy="334.044" r="2.5" fill="white" fill-opacity="0.5"/>
<circle opacity="0.91" cx="405.5" cy="334.044" r="2.5" fill="white" fill-opacity="0.5"/>
<circle opacity="0.26" cx="426.5" cy="334.044" r="2.5" fill="#F689FF"/>
<circle opacity="0.49" cx="447.5" cy="334.044" r="2.5" fill="white" fill-opacity="0.5"/>
<circle opacity="0.27" cx="468.5" cy="334.044" r="2.5" fill="#F689FF"/>
<circle opacity="0.66" cx="489.5" cy="334.044" r="2.5" fill="white" fill-opacity="0.5"/>
<circle opacity="0.41" cx="510.5" cy="334.044" r="2.5" fill="white" fill-opacity="0.5"/>
<circle opacity="0.27" cx="531.5" cy="334.044" r="2.5" fill="#F689FF"/>
<circle opacity="0.84" cx="216.5" cy="355.044" r="2.5" fill="#F689FF"/>
<circle opacity="0.83" cx="237.5" cy="355.044" r="2.5" fill="#F689FF"/>
<circle opacity="0.1" cx="258.5" cy="355.044" r="2.5" fill="#F689FF"/>
<circle opacity="0.39" cx="279.5" cy="355.044" r="2.5" fill="#F689FF"/>
<circle opacity="0.89" cx="300.5" cy="355.044" r="2.5" fill="#F689FF"/>
<circle opacity="0.08" cx="321.5" cy="355.044" r="2.5" fill="white" fill-opacity="0.5"/>
<circle opacity="0.39" cx="342.5" cy="355.044" r="2.5" fill="#F689FF"/>
<circle opacity="0.09" cx="363.5" cy="355.044" r="2.5" fill="white" fill-opacity="0.5"/>
<circle opacity="0.88" cx="384.5" cy="355.044" r="2.5" fill="white" fill-opacity="0.5"/>
<circle opacity="0.73" cx="405.5" cy="355.044" r="2.5" fill="#F689FF"/>
<circle opacity="0.71" cx="426.5" cy="355.044" r="2.5" fill="#F689FF"/>
<circle opacity="0.63" cx="447.5" cy="355.044" r="2.5" fill="white" fill-opacity="0.5"/>
<circle opacity="0.64" cx="468.5" cy="355.044" r="2.5" fill="#F689FF"/>
<circle opacity="0.74" cx="489.5" cy="355.044" r="2.5" fill="white" fill-opacity="0.5"/>
<circle opacity="0.22" cx="510.5" cy="355.044" r="2.5" fill="white" fill-opacity="0.5"/>
<circle opacity="0.08" cx="531.5" cy="355.044" r="2.5" fill="#F689FF"/>
<circle opacity="0.88" cx="216.5" cy="376.044" r="2.5" fill="white" fill-opacity="0.5"/>
<circle opacity="0.19" cx="237.5" cy="376.044" r="2.5" fill="#F689FF"/>
<circle opacity="0.42" cx="258.5" cy="376.044" r="2.5" fill="#F689FF"/>
<circle opacity="0.62" cx="279.5" cy="376.044" r="2.5" fill="#F689FF"/>
<circle opacity="0.28" cx="300.5" cy="376.044" r="2.5" fill="white" fill-opacity="0.5"/>
<circle opacity="0.62" cx="321.5" cy="376.044" r="2.5" fill="#F689FF"/>
<circle opacity="0.26" cx="342.5" cy="376.044" r="2.5" fill="#F689FF"/>
<circle opacity="0.67" cx="363.5" cy="376.044" r="2.5" fill="white" fill-opacity="0.5"/>
<circle opacity="0.19" cx="384.5" cy="376.044" r="2.5" fill="#F689FF"/>
<circle opacity="0.43" cx="405.5" cy="376.044" r="2.5" fill="white" fill-opacity="0.5"/>
<circle opacity="0.02" cx="426.5" cy="376.044" r="2.5" fill="white" fill-opacity="0.5"/>
<circle opacity="0.95" cx="447.5" cy="376.044" r="2.5" fill="#F689FF"/>
<circle opacity="0.16" cx="468.5" cy="376.044" r="2.5" fill="white" fill-opacity="0.5"/>
<circle opacity="0.95" cx="489.5" cy="376.044" r="2.5" fill="white" fill-opacity="0.5"/>
<circle opacity="0.52" cx="510.5" cy="376.044" r="2.5" fill="white" fill-opacity="0.5"/>
<circle opacity="0.48" cx="531.5" cy="376.044" r="2.5" fill="white" fill-opacity="0.5"/>
<circle opacity="0.01" cx="216.5" cy="397.044" r="2.5" fill="#F689FF"/>
<circle opacity="0.53" cx="237.5" cy="397.044" r="2.5" fill="white" fill-opacity="0.5"/>
<circle opacity="0.26" cx="258.5" cy="397.044" r="2.5" fill="#F689FF"/>
<circle opacity="0.58" cx="279.5" cy="397.044" r="2.5" fill="#F689FF"/>
<circle opacity="0.85" cx="300.5" cy="397.044" r="2.5" fill="white" fill-opacity="0.5"/>
<circle opacity="0.8" cx="321.5" cy="397.044" r="2.5" fill="#F689FF"/>
<circle opacity="0.16" cx="342.5" cy="397.044" r="2.5" fill="white" fill-opacity="0.5"/>
<circle opacity="0.04" cx="363.5" cy="397.044" r="2.5" fill="white" fill-opacity="0.5"/>
<circle opacity="0.56" cx="384.5" cy="397.044" r="2.5" fill="white" fill-opacity="0.5"/>
<circle opacity="0.89" cx="405.5" cy="397.044" r="2.5" fill="#F689FF"/>
<circle opacity="0.6" cx="426.5" cy="397.044" r="2.5" fill="white" fill-opacity="0.5"/>
<circle opacity="0.61" cx="447.5" cy="397.044" r="2.5" fill="white" fill-opacity="0.5"/>
<circle opacity="0.48" cx="468.5" cy="397.044" r="2.5" fill="white" fill-opacity="0.5"/>
<circle opacity="0.26" cx="489.5" cy="397.044" r="2.5" fill="white" fill-opacity="0.5"/>
<circle opacity="0.84" cx="510.5" cy="397.044" r="2.5" fill="white" fill-opacity="0.5"/>
<circle opacity="0.08" cx="531.5" cy="397.044" r="2.5" fill="white" fill-opacity="0.5"/>
<circle opacity="0.03" cx="216.5" cy="418.044" r="2.5" fill="#F689FF"/>
<circle opacity="0.64" cx="237.5" cy="418.044" r="2.5" fill="white" fill-opacity="0.5"/>
<circle opacity="0.65" cx="258.5" cy="418.044" r="2.5" fill="white" fill-opacity="0.5"/>
<circle opacity="0.84" cx="279.5" cy="418.044" r="2.5" fill="#F689FF"/>
<circle opacity="0.56" cx="300.5" cy="418.044" r="2.5" fill="#F689FF"/>
<circle opacity="0.21" cx="321.5" cy="418.044" r="2.5" fill="#F689FF"/>
<circle opacity="0.54" cx="342.5" cy="418.044" r="2.5" fill="#F689FF"/>
<circle opacity="0.24" cx="363.5" cy="418.044" r="2.5" fill="white" fill-opacity="0.5"/>
<circle opacity="0.58" cx="384.5" cy="418.044" r="2.5" fill="white" fill-opacity="0.5"/>
<circle opacity="0.86" cx="405.5" cy="418.044" r="2.5" fill="white" fill-opacity="0.5"/>
<circle opacity="0.68" cx="426.5" cy="418.044" r="2.5" fill="#F689FF"/>
<circle opacity="0.89" cx="447.5" cy="418.044" r="2.5" fill="#F689FF"/>
<circle opacity="0.15" cx="468.5" cy="418.044" r="2.5" fill="white" fill-opacity="0.5"/>
<circle opacity="0.15" cx="489.5" cy="418.044" r="2.5" fill="white" fill-opacity="0.5"/>
<circle opacity="0.14" cx="510.5" cy="418.044" r="2.5" fill="white" fill-opacity="0.5"/>
<circle opacity="0.75" cx="531.5" cy="418.044" r="2.5" fill="#F689FF"/>
<circle opacity="0.4" cx="216.5" cy="439.044" r="2.5" fill="white" fill-opacity="0.5"/>
<circle opacity="0.65" cx="237.5" cy="439.044" r="2.5" fill="white" fill-opacity="0.5"/>
<circle opacity="0.22" cx="258.5" cy="439.044" r="2.5" fill="#F689FF"/>
<circle opacity="0.77" cx="279.5" cy="439.044" r="2.5" fill="#F689FF"/>
<circle opacity="0.86" cx="300.5" cy="439.044" r="2.5" fill="white" fill-opacity="0.5"/>
<circle opacity="0.26" cx="321.5" cy="439.044" r="2.5" fill="#F689FF"/>
<circle opacity="0.39" cx="342.5" cy="439.044" r="2.5" fill="#F689FF"/>
<circle opacity="0.08" cx="363.5" cy="439.044" r="2.5" fill="#F689FF"/>
<circle opacity="0.38" cx="384.5" cy="439.044" r="2.5" fill="#F689FF"/>
<circle opacity="0.86" cx="405.5" cy="439.044" r="2.5" fill="white" fill-opacity="0.5"/>
<circle opacity="0.95" cx="426.5" cy="439.044" r="2.5" fill="white" fill-opacity="0.5"/>
<circle opacity="0.08" cx="447.5" cy="439.044" r="2.5" fill="white" fill-opacity="0.5"/>
<circle opacity="0.47" cx="468.5" cy="439.044" r="2.5" fill="white" fill-opacity="0.5"/>
<circle opacity="0.1" cx="489.5" cy="439.044" r="2.5" fill="white" fill-opacity="0.5"/>
<circle opacity="0.9" cx="510.5" cy="439.044" r="2.5" fill="white" fill-opacity="0.5"/>
<circle opacity="0.24" cx="531.5" cy="439.044" r="2.5" fill="white" fill-opacity="0.5"/>
<circle opacity="0.01" cx="216.5" cy="460.044" r="2.5" fill="#F689FF"/>
<circle opacity="0.13" cx="237.5" cy="460.044" r="2.5" fill="#F689FF"/>
<circle opacity="0.78" cx="258.5" cy="460.044" r="2.5" fill="#F689FF"/>
<circle opacity="0.3" cx="279.5" cy="460.044" r="2.5" fill="white" fill-opacity="0.5"/>
<circle opacity="0.17" cx="300.5" cy="460.044" r="2.5" fill="#F689FF"/>
<circle opacity="0.47" cx="321.5" cy="460.044" r="2.5" fill="white" fill-opacity="0.5"/>
<circle opacity="0.04" cx="342.5" cy="460.044" r="2.5" fill="#F689FF"/>
<circle opacity="0.29" cx="363.5" cy="460.044" r="2.5" fill="white" fill-opacity="0.5"/>
<circle opacity="0.36" cx="384.5" cy="460.044" r="2.5" fill="white" fill-opacity="0.5"/>
<circle opacity="0.48" cx="405.5" cy="460.044" r="2.5" fill="#F689FF"/>
<circle opacity="0.95" cx="426.5" cy="460.044" r="2.5" fill="#F689FF"/>
<circle opacity="0.56" cx="447.5" cy="460.044" r="2.5" fill="white" fill-opacity="0.5"/>
<circle opacity="0.98" cx="468.5" cy="460.044" r="2.5" fill="white" fill-opacity="0.5"/>
<circle opacity="0.06" cx="489.5" cy="460.044" r="2.5" fill="#F689FF"/>
<circle opacity="0.4" cx="510.5" cy="460.044" r="2.5" fill="white" fill-opacity="0.5"/>
<circle opacity="0.36" cx="531.5" cy="460.044" r="2.5" fill="#F689FF"/>
<circle opacity="0.17" cx="216.5" cy="481.044" r="2.5" fill="white" fill-opacity="0.5"/>
<circle opacity="0.83" cx="237.5" cy="481.044" r="2.5" fill="#F689FF"/>
<circle opacity="0.46" cx="258.5" cy="481.044" r="2.5" fill="#F689FF"/>
<circle opacity="0.7" cx="279.5" cy="481.044" r="2.5" fill="#F689FF"/>
<circle opacity="0.85" cx="300.5" cy="481.044" r="2.5" fill="#F689FF"/>
<circle opacity="0.36" cx="321.5" cy="481.044" r="2.5" fill="#F689FF"/>
<circle opacity="0.85" cx="342.5" cy="481.044" r="2.5" fill="#F689FF"/>
<circle opacity="0.31" cx="363.5" cy="481.044" r="2.5" fill="#F689FF"/>
<circle opacity="0.4" cx="384.5" cy="481.044" r="2.5" fill="white" fill-opacity="0.5"/>
<circle opacity="0.91" cx="405.5" cy="481.044" r="2.5" fill="#F689FF"/>
<circle opacity="0.19" cx="426.5" cy="481.044" r="2.5" fill="white" fill-opacity="0.5"/>
<circle opacity="0.59" cx="447.5" cy="481.044" r="2.5" fill="white" fill-opacity="0.5"/>
<circle opacity="0.15" cx="468.5" cy="481.044" r="2.5" fill="white" fill-opacity="0.5"/>
<circle opacity="0.46" cx="489.5" cy="481.044" r="2.5" fill="white" fill-opacity="0.5"/>
<circle opacity="0.99" cx="510.5" cy="481.044" r="2.5" fill="#F689FF"/>
<circle opacity="0.37" cx="531.5" cy="481.044" r="2.5" fill="white" fill-opacity="0.5"/>
</g>
<g filter="url(#filter1_d_1_2986)">
<rect x="505" y="304.544" width="108" height="38" rx="19" fill="url(#paint1_linear_1_2986)" shape-rendering="crispEdges"/>
<rect x="505.5" y="305.044" width="107" height="37" rx="18.5" stroke="url(#paint2_linear_1_2986)" shape-rendering="crispEdges"/>
<path d="M530.12 329.544H528.856L529.656 326.392H528.12V325.16H529.896L530.424 323.176H528.76V321.928H530.68L531.48 318.728H532.744L531.944 321.928H533.624L534.44 318.728H535.704L534.888 321.928H536.44V323.176H534.632L534.12 325.16H535.8V326.392H533.864L533.08 329.544H531.816L532.616 326.392H530.92L530.12 329.544ZM531.688 323.176L531.16 325.16H532.856L533.384 323.176H531.688ZM543.371 329.544H541.611V319.64H537.867V318.056H547.115V319.64H543.371V329.544ZM550.969 329.704C548.569 329.704 546.809 327.816 546.809 325.304C546.809 322.792 548.569 320.904 550.969 320.904C553.369 320.904 555.129 322.792 555.129 325.304C555.129 327.816 553.369 329.704 550.969 329.704ZM550.969 328.28C552.361 328.28 553.465 327.16 553.465 325.304C553.465 323.448 552.361 322.344 550.969 322.344C549.577 322.344 548.489 323.448 548.489 325.304C548.489 327.16 549.577 328.28 550.969 328.28ZM564.872 325.304C564.872 327.864 563.4 329.704 561.128 329.704C559.976 329.704 559 329.128 558.392 328.104V332.632H556.776V321.064H558.28V322.616C558.888 321.528 559.928 320.904 561.128 320.904C563.384 320.904 564.872 322.744 564.872 325.304ZM563.192 325.304C563.192 323.4 562.184 322.328 560.792 322.328C559.448 322.328 558.392 323.4 558.392 325.304C558.392 327.176 559.432 328.264 560.792 328.264C562.184 328.264 563.192 327.208 563.192 325.304ZM568.479 319.096C568.479 319.704 567.999 320.168 567.311 320.168C566.623 320.168 566.127 319.704 566.127 319.096C566.127 318.472 566.623 318.024 567.311 318.024C567.999 318.024 568.479 318.472 568.479 319.096ZM568.127 329.544H566.511V321.064H568.127V329.544ZM573.714 329.72C571.394 329.72 569.762 327.896 569.762 325.304C569.762 322.744 571.426 320.904 573.714 320.904C575.81 320.904 577.33 322.296 577.634 324.504H575.938C575.762 323.144 574.914 322.328 573.73 322.328C572.338 322.328 571.426 323.512 571.426 325.304C571.426 327.112 572.338 328.28 573.73 328.28C574.93 328.28 575.762 327.48 575.954 326.104H577.634C577.346 328.344 575.842 329.72 573.714 329.72ZM589.308 328.104V329.544H582.316V328.616L585.692 324.968C586.972 323.576 587.468 322.824 587.468 321.848C587.468 320.776 586.716 320.024 585.612 320.024C584.412 320.024 583.612 320.808 583.612 322.008H582.028C582.028 320.008 583.532 318.568 585.676 318.568C587.692 318.568 589.164 319.88 589.164 321.656C589.164 322.888 588.7 323.752 586.924 325.64L584.748 328.104H589.308Z" fill="white"/>
</g>
<g filter="url(#filter2_d_1_2986)">
<rect x="505" y="229.544" width="108" height="38" rx="19" fill="url(#paint3_linear_1_2986)" shape-rendering="crispEdges"/>
<rect x="505.5" y="230.044" width="107" height="37" rx="18.5" stroke="url(#paint4_linear_1_2986)" shape-rendering="crispEdges"/>
<path d="M532.12 254.544H530.856L531.656 251.392H530.12V250.16H531.896L532.424 248.176H530.76V246.928H532.68L533.48 243.728H534.744L533.944 246.928H535.624L536.44 243.728H537.704L536.888 246.928H538.44V248.176H536.632L536.12 250.16H537.8V251.392H535.864L535.08 254.544H533.816L534.616 251.392H532.92L532.12 254.544ZM533.688 248.176L533.16 250.16H534.856L535.384 248.176H533.688ZM545.371 254.544H543.611V244.64H539.867V243.056H549.115V244.64H545.371V254.544ZM552.969 254.704C550.569 254.704 548.809 252.816 548.809 250.304C548.809 247.792 550.569 245.904 552.969 245.904C555.369 245.904 557.129 247.792 557.129 250.304C557.129 252.816 555.369 254.704 552.969 254.704ZM552.969 253.28C554.361 253.28 555.465 252.16 555.465 250.304C555.465 248.448 554.361 247.344 552.969 247.344C551.577 247.344 550.489 248.448 550.489 250.304C550.489 252.16 551.577 253.28 552.969 253.28ZM566.872 250.304C566.872 252.864 565.4 254.704 563.128 254.704C561.976 254.704 561 254.128 560.392 253.104V257.632H558.776V246.064H560.28V247.616C560.888 246.528 561.928 245.904 563.128 245.904C565.384 245.904 566.872 247.744 566.872 250.304ZM565.192 250.304C565.192 248.4 564.184 247.328 562.792 247.328C561.448 247.328 560.392 248.4 560.392 250.304C560.392 252.176 561.432 253.264 562.792 253.264C564.184 253.264 565.192 252.208 565.192 250.304ZM570.479 244.096C570.479 244.704 569.999 245.168 569.311 245.168C568.623 245.168 568.127 244.704 568.127 244.096C568.127 243.472 568.623 243.024 569.311 243.024C569.999 243.024 570.479 243.472 570.479 244.096ZM570.127 254.544H568.511V246.064H570.127V254.544ZM575.714 254.72C573.394 254.72 571.762 252.896 571.762 250.304C571.762 247.744 573.426 245.904 575.714 245.904C577.81 245.904 579.33 247.296 579.634 249.504H577.938C577.762 248.144 576.914 247.328 575.73 247.328C574.338 247.328 573.426 248.512 573.426 250.304C573.426 252.112 574.338 253.28 575.73 253.28C576.93 253.28 577.762 252.48 577.954 251.104H579.634C579.346 253.344 577.842 254.72 575.714 254.72ZM587.5 254.544H585.868V245.136H583.772V243.728H587.5V254.544Z" fill="white"/>
</g>
<g filter="url(#filter3_d_1_2986)">
<rect x="505" y="379.544" width="108" height="38" rx="19" fill="url(#paint5_linear_1_2986)" shape-rendering="crispEdges"/>
<rect x="505.5" y="380.044" width="107" height="37" rx="18.5" stroke="url(#paint6_linear_1_2986)" shape-rendering="crispEdges"/>
<path d="M530.12 404.544H528.856L529.656 401.392H528.12V400.16H529.896L530.424 398.176H528.76V396.928H530.68L531.48 393.728H532.744L531.944 396.928H533.624L534.44 393.728H535.704L534.888 396.928H536.44V398.176H534.632L534.12 400.16H535.8V401.392H533.864L533.08 404.544H531.816L532.616 401.392H530.92L530.12 404.544ZM531.688 398.176L531.16 400.16H532.856L533.384 398.176H531.688ZM543.371 404.544H541.611V394.64H537.867V393.056H547.115V394.64H543.371V404.544ZM550.969 404.704C548.569 404.704 546.809 402.816 546.809 400.304C546.809 397.792 548.569 395.904 550.969 395.904C553.369 395.904 555.129 397.792 555.129 400.304C555.129 402.816 553.369 404.704 550.969 404.704ZM550.969 403.28C552.361 403.28 553.465 402.16 553.465 400.304C553.465 398.448 552.361 397.344 550.969 397.344C549.577 397.344 548.489 398.448 548.489 400.304C548.489 402.16 549.577 403.28 550.969 403.28ZM564.872 400.304C564.872 402.864 563.4 404.704 561.128 404.704C559.976 404.704 559 404.128 558.392 403.104V407.632H556.776V396.064H558.28V397.616C558.888 396.528 559.928 395.904 561.128 395.904C563.384 395.904 564.872 397.744 564.872 400.304ZM563.192 400.304C563.192 398.4 562.184 397.328 560.792 397.328C559.448 397.328 558.392 398.4 558.392 400.304C558.392 402.176 559.432 403.264 560.792 403.264C562.184 403.264 563.192 402.208 563.192 400.304ZM568.479 394.096C568.479 394.704 567.999 395.168 567.311 395.168C566.623 395.168 566.127 394.704 566.127 394.096C566.127 393.472 566.623 393.024 567.311 393.024C567.999 393.024 568.479 393.472 568.479 394.096ZM568.127 404.544H566.511V396.064H568.127V404.544ZM573.714 404.72C571.394 404.72 569.762 402.896 569.762 400.304C569.762 397.744 571.426 395.904 573.714 395.904C575.81 395.904 577.33 397.296 577.634 399.504H575.938C575.762 398.144 574.914 397.328 573.73 397.328C572.338 397.328 571.426 398.512 571.426 400.304C571.426 402.112 572.338 403.28 573.73 403.28C574.93 403.28 575.762 402.48 575.954 401.104H577.634C577.346 403.344 575.842 404.72 573.714 404.72ZM586.028 404.688C583.788 404.688 582.22 403.376 582.204 401.472H583.788C583.852 402.64 584.716 403.392 586.028 403.392C587.388 403.392 588.22 402.656 588.22 401.488C588.22 400.352 587.276 399.632 585.788 399.632H584.668V398.336H585.708C586.924 398.336 587.724 397.632 587.724 396.576C587.724 395.552 587.004 394.864 585.916 394.864C584.812 394.864 584.076 395.568 584.028 396.672H582.46C582.508 394.896 584.012 393.568 585.98 393.568C588.06 393.568 589.404 394.768 589.404 396.464C589.404 397.52 588.78 398.368 587.66 398.896C589.084 399.28 589.9 400.208 589.9 401.456C589.9 403.376 588.332 404.688 586.028 404.688Z" fill="white"/>
</g>
<g filter="url(#filter4_di_1_2986)">
<rect x="286" y="235.544" width="177" height="177" rx="88.5" fill="url(#paint7_linear_1_2986)" shape-rendering="crispEdges"/>
<rect x="286.5" y="236.044" width="176" height="176" rx="88" stroke="url(#paint8_linear_1_2986)" shape-rendering="crispEdges"/>
<g filter="url(#filter5_d_1_2986)">
<path d="M403.276 308.705L384.464 289.893C384.214 289.643 383.918 289.445 383.591 289.31C383.265 289.175 382.916 289.106 382.562 289.106H350.312C348.887 289.106 347.52 289.673 346.512 290.681C345.504 291.689 344.938 293.056 344.938 294.481V353.606C344.938 355.032 345.504 356.399 346.512 357.407C347.52 358.415 348.887 358.981 350.312 358.981H398.688C400.113 358.981 401.48 358.415 402.488 357.407C403.496 356.399 404.062 355.032 404.062 353.606V310.606C404.063 310.253 403.993 309.904 403.859 309.578C403.724 309.251 403.526 308.955 403.276 308.705ZM385.25 340.169H363.75C363.037 340.169 362.354 339.886 361.85 339.382C361.346 338.878 361.062 338.194 361.062 337.481C361.062 336.769 361.346 336.085 361.85 335.581C362.354 335.077 363.037 334.794 363.75 334.794H385.25C385.963 334.794 386.646 335.077 387.15 335.581C387.654 336.085 387.938 336.769 387.938 337.481C387.938 338.194 387.654 338.878 387.15 339.382C386.646 339.886 385.963 340.169 385.25 340.169ZM385.25 329.419H363.75C363.037 329.419 362.354 329.136 361.85 328.632C361.346 328.128 361.062 327.444 361.062 326.731C361.062 326.019 361.346 325.335 361.85 324.831C362.354 324.327 363.037 324.044 363.75 324.044H385.25C385.963 324.044 386.646 324.327 387.15 324.831C387.654 325.335 387.938 326.019 387.938 326.731C387.938 327.444 387.654 328.128 387.15 328.632C386.646 329.136 385.963 329.419 385.25 329.419ZM382.562 310.606V295.825L397.344 310.606H382.562Z" fill="url(#paint9_linear_1_2986)" shape-rendering="crispEdges"/>
</g>
</g>
<path d="M505 248.544H474.224C472.659 248.544 471.128 249.003 469.821 249.864L443 267.544" stroke="white" stroke-opacity="0.1"/>
<path d="M505 398.544H474.224C472.659 398.544 471.128 398.085 469.821 397.223L443 379.544" stroke="white" stroke-opacity="0.1"/>
<path d="M463.5 324.044H505" stroke="white" stroke-opacity="0.1"/>
<defs>
<filter id="filter0_f_1_2986" x="0" y="0.543945" width="769" height="620" filterUnits="userSpaceOnUse" color-interpolation-filters="sRGB">
<feFlood flood-opacity="0" result="BackgroundImageFix"/>
<feBlend mode="normal" in="SourceGraphic" in2="BackgroundImageFix" result="shape"/>
<feGaussianBlur stdDeviation="125" result="effect1_foregroundBlur_1_2986"/>
</filter>
<filter id="filter1_d_1_2986" x="471" y="284.544" width="176" height="106" filterUnits="userSpaceOnUse" color-interpolation-filters="sRGB">
<feFlood flood-opacity="0" result="BackgroundImageFix"/>
<feColorMatrix in="SourceAlpha" type="matrix" values="0 0 0 0 0 0 0 0 0 0 0 0 0 0 0 0 0 0 127 0" result="hardAlpha"/>
<feOffset dy="14"/>
<feGaussianBlur stdDeviation="17"/>
<feComposite in2="hardAlpha" operator="out"/>
<feColorMatrix type="matrix" values="0 0 0 0 0 0 0 0 0 0 0 0 0 0 0 0 0 0 0.45 0"/>
<feBlend mode="normal" in2="BackgroundImageFix" result="effect1_dropShadow_1_2986"/>
<feBlend mode="normal" in="SourceGraphic" in2="effect1_dropShadow_1_2986" result="shape"/>
</filter>
<filter id="filter2_d_1_2986" x="471" y="209.544" width="176" height="106" filterUnits="userSpaceOnUse" color-interpolation-filters="sRGB">
<feFlood flood-opacity="0" result="BackgroundImageFix"/>
<feColorMatrix in="SourceAlpha" type="matrix" values="0 0 0 0 0 0 0 0 0 0 0 0 0 0 0 0 0 0 127 0" result="hardAlpha"/>
<feOffset dy="14"/>
<feGaussianBlur stdDeviation="17"/>
<feComposite in2="hardAlpha" operator="out"/>
<feColorMatrix type="matrix" values="0 0 0 0 0 0 0 0 0 0 0 0 0 0 0 0 0 0 0.45 0"/>
<feBlend mode="normal" in2="BackgroundImageFix" result="effect1_dropShadow_1_2986"/>
<feBlend mode="normal" in="SourceGraphic" in2="effect1_dropShadow_1_2986" result="shape"/>
</filter>
<filter id="filter3_d_1_2986" x="471" y="359.544" width="176" height="106" filterUnits="userSpaceOnUse" color-interpolation-filters="sRGB">
<feFlood flood-opacity="0" result="BackgroundImageFix"/>
<feColorMatrix in="SourceAlpha" type="matrix" values="0 0 0 0 0 0 0 0 0 0 0 0 0 0 0 0 0 0 127 0" result="hardAlpha"/>
<feOffset dy="14"/>
<feGaussianBlur stdDeviation="17"/>
<feComposite in2="hardAlpha" operator="out"/>
<feColorMatrix type="matrix" values="0 0 0 0 0 0 0 0 0 0 0 0 0 0 0 0 0 0 0.45 0"/>
<feBlend mode="normal" in2="BackgroundImageFix" result="effect1_dropShadow_1_2986"/>
<feBlend mode="normal" in="SourceGraphic" in2="effect1_dropShadow_1_2986" result="shape"/>
</filter>
<filter id="filter4_di_1_2986" x="252" y="215.544" width="245" height="245" filterUnits="userSpaceOnUse" color-interpolation-filters="sRGB">
<feFlood flood-opacity="0" result="BackgroundImageFix"/>
<feColorMatrix in="SourceAlpha" type="matrix" values="0 0 0 0 0 0 0 0 0 0 0 0 0 0 0 0 0 0 127 0" result="hardAlpha"/>
<feOffset dy="14"/>
<feGaussianBlur stdDeviation="17"/>
<feComposite in2="hardAlpha" operator="out"/>
<feColorMatrix type="matrix" values="0 0 0 0 0 0 0 0 0 0 0 0 0 0 0 0 0 0 0.45 0"/>
<feBlend mode="normal" in2="BackgroundImageFix" result="effect1_dropShadow_1_2986"/>
<feBlend mode="normal" in="SourceGraphic" in2="effect1_dropShadow_1_2986" result="shape"/>
<feColorMatrix in="SourceAlpha" type="matrix" values="0 0 0 0 0 0 0 0 0 0 0 0 0 0 0 0 0 0 127 0" result="hardAlpha"/>
<feOffset dy="30.975"/>
<feGaussianBlur stdDeviation="15.4875"/>
<feComposite in2="hardAlpha" operator="arithmetic" k2="-1" k3="1"/>
<feColorMatrix type="matrix" values="0 0 0 0 1 0 0 0 0 1 0 0 0 0 1 0 0 0 0.05 0"/>
<feBlend mode="normal" in2="shape" result="effect2_innerShadow_1_2986"/>
</filter>
<filter id="filter5_d_1_2986" x="328.938" y="283.106" width="91.125" height="101.875" filterUnits="userSpaceOnUse" color-interpolation-filters="sRGB">
<feFlood flood-opacity="0" result="BackgroundImageFix"/>
<feColorMatrix in="SourceAlpha" type="matrix" values="0 0 0 0 0 0 0 0 0 0 0 0 0 0 0 0 0 0 127 0" result="hardAlpha"/>
<feOffset dy="10"/>
<feGaussianBlur stdDeviation="8"/>
<feComposite in2="hardAlpha" operator="out"/>
<feColorMatrix type="matrix" values="0 0 0 0 0 0 0 0 0 0 0 0 0 0 0 0 0 0 0.5 0"/>
<feBlend mode="normal" in2="BackgroundImageFix" result="effect1_dropShadow_1_2986"/>
<feBlend mode="normal" in="SourceGraphic" in2="effect1_dropShadow_1_2986" result="shape"/>
</filter>
<radialGradient id="paint0_radial_1_2986" cx="0" cy="0" r="1" gradientUnits="userSpaceOnUse" gradientTransform="translate(374 323.544) rotate(90) scale(162)">
<stop stop-color="#D9D9D9"/>
<stop offset="1" stop-color="#D9D9D9" stop-opacity="0"/>
</radialGradient>
<linearGradient id="paint1_linear_1_2986" x1="493.5" y1="357.544" x2="578.698" y2="303.977" gradientUnits="userSpaceOnUse">
<stop offset="0.02" stop-color="#2A273D"/>
<stop offset="1" stop-color="#141414"/>
</linearGradient>
<linearGradient id="paint2_linear_1_2986" x1="555.339" y1="286.617" x2="555.83" y2="358.347" gradientUnits="userSpaceOnUse">
<stop stop-color="white"/>
<stop offset="1" stop-opacity="0"/>
</linearGradient>
<linearGradient id="paint3_linear_1_2986" x1="493.5" y1="282.544" x2="578.698" y2="228.977" gradientUnits="userSpaceOnUse">
<stop offset="0.02" stop-color="#2A273D"/>
<stop offset="1" stop-color="#141414"/>
</linearGradient>
<linearGradient id="paint4_linear_1_2986" x1="555.339" y1="211.617" x2="555.83" y2="283.347" gradientUnits="userSpaceOnUse">
<stop stop-color="white"/>
<stop offset="1" stop-opacity="0"/>
</linearGradient>
<linearGradient id="paint5_linear_1_2986" x1="493.5" y1="432.544" x2="578.698" y2="378.977" gradientUnits="userSpaceOnUse">
<stop offset="0.02" stop-color="#2A273D"/>
<stop offset="1" stop-color="#141414"/>
</linearGradient>
<linearGradient id="paint6_linear_1_2986" x1="555.339" y1="361.617" x2="555.83" y2="433.347" gradientUnits="userSpaceOnUse">
<stop stop-color="white"/>
<stop offset="1" stop-opacity="0"/>
</linearGradient>
<linearGradient id="paint7_linear_1_2986" x1="360" y1="197.544" x2="338" y2="434.044" gradientUnits="userSpaceOnUse">
<stop offset="0.02" stop-color="#27273D"/>
<stop offset="1" stop-color="#141414"/>
<stop offset="1" stop-color="#13131A"/>
</linearGradient>
<linearGradient id="paint8_linear_1_2986" x1="368.5" y1="152.044" x2="375" y2="486.044" gradientUnits="userSpaceOnUse">
<stop stop-color="white"/>
<stop offset="1" stop-opacity="0"/>
</linearGradient>
<linearGradient id="paint9_linear_1_2986" x1="374.5" y1="289.106" x2="374.5" y2="358.981" gradientUnits="userSpaceOnUse">
<stop stop-color="white"/>
<stop offset="1" stop-color="#9643FF" stop-opacity="0"/>
</linearGradient>
</defs>
</svg>
