<svg width="769" height="621" viewBox="0 0 769 621" fill="none" xmlns="http://www.w3.org/2000/svg">
<g filter="url(#filter0_f_1_3578)">
<ellipse cx="384.5" cy="310.544" rx="134.5" ry="60" fill="#9625EF"/>
</g>
<mask id="mask0_1_3578" style="mask-type:alpha" maskUnits="userSpaceOnUse" x="223" y="148" width="324" height="325">
<rect x="223" y="148.544" width="324" height="324" fill="url(#paint0_radial_1_3578)"/>
</mask>
<g mask="url(#mask0_1_3578)">
<circle opacity="0.82" cx="225.5" cy="151.044" r="2.5" fill="#F689FF"/>
<circle opacity="0.82" cx="246.5" cy="151.044" r="2.5" fill="#F689FF"/>
<circle opacity="0.26" cx="267.5" cy="151.044" r="2.5" fill="white" fill-opacity="0.5"/>
<circle opacity="0.85" cx="288.5" cy="151.044" r="2.5" fill="#F689FF"/>
<circle opacity="0.66" cx="309.5" cy="151.044" r="2.5" fill="white" fill-opacity="0.5"/>
<circle opacity="0.57" cx="330.5" cy="151.044" r="2.5" fill="#F689FF"/>
<circle opacity="0.88" cx="351.5" cy="151.044" r="2.5" fill="white" fill-opacity="0.5"/>
<circle opacity="0.4" cx="372.5" cy="151.044" r="2.5" fill="#F689FF"/>
<circle opacity="0.09" cx="393.5" cy="151.044" r="2.5" fill="white" fill-opacity="0.5"/>
<circle opacity="0.26" cx="414.5" cy="151.044" r="2.5" fill="#F689FF"/>
<circle opacity="0.11" cx="435.5" cy="151.044" r="2.5" fill="#F689FF"/>
<circle opacity="0.06" cx="456.5" cy="151.044" r="2.5" fill="#F689FF"/>
<circle opacity="0.02" cx="477.5" cy="151.044" r="2.5" fill="#F689FF"/>
<circle opacity="0.01" cx="498.5" cy="151.044" r="2.5" fill="#F689FF"/>
<circle opacity="0.63" cx="519.5" cy="151.044" r="2.5" fill="#F689FF"/>
<circle opacity="0.22" cx="540.5" cy="151.044" r="2.5" fill="white" fill-opacity="0.5"/>
<circle opacity="0.98" cx="246.5" cy="172.044" r="2.5" fill="#F689FF"/>
<circle opacity="0.63" cx="267.5" cy="172.044" r="2.5" fill="#F689FF"/>
<circle opacity="0.5" cx="288.5" cy="172.044" r="2.5" fill="white" fill-opacity="0.5"/>
<circle opacity="0.86" cx="309.5" cy="172.044" r="2.5" fill="white" fill-opacity="0.5"/>
<circle opacity="0.27" cx="330.5" cy="172.044" r="2.5" fill="#F689FF"/>
<circle opacity="0.96" cx="351.5" cy="172.044" r="2.5" fill="white" fill-opacity="0.5"/>
<circle opacity="0.69" cx="372.5" cy="172.044" r="2.5" fill="#F689FF"/>
<circle opacity="0.51" cx="393.5" cy="172.044" r="2.5" fill="white" fill-opacity="0.5"/>
<circle opacity="0.41" cx="414.5" cy="172.044" r="2.5" fill="#F689FF"/>
<circle opacity="0.81" cx="435.5" cy="172.044" r="2.5" fill="#F689FF"/>
<circle opacity="0.73" cx="456.5" cy="172.044" r="2.5" fill="#F689FF"/>
<circle opacity="0.4" cx="477.5" cy="172.044" r="2.5" fill="white" fill-opacity="0.5"/>
<circle opacity="0.28" cx="498.5" cy="172.044" r="2.5" fill="#F689FF"/>
<circle opacity="0.6" cx="519.5" cy="172.044" r="2.5" fill="white" fill-opacity="0.5"/>
<circle opacity="0.62" cx="540.5" cy="172.044" r="2.5" fill="white" fill-opacity="0.5"/>
<circle opacity="0.43" cx="225.5" cy="193.044" r="2.5" fill="#F689FF"/>
<circle opacity="0.73" cx="246.5" cy="193.044" r="2.5" fill="white" fill-opacity="0.5"/>
<circle opacity="0.99" cx="267.5" cy="193.044" r="2.5" fill="#F689FF"/>
<circle opacity="0.45" cx="288.5" cy="193.044" r="2.5" fill="white" fill-opacity="0.5"/>
<circle opacity="0.43" cx="309.5" cy="193.044" r="2.5" fill="white" fill-opacity="0.5"/>
<circle opacity="0.91" cx="330.5" cy="193.044" r="2.5" fill="white" fill-opacity="0.5"/>
<circle cx="351.5" cy="193.044" r="2.5" fill="white" fill-opacity="0.5"/>
<circle opacity="0.14" cx="372.5" cy="193.044" r="2.5" fill="white" fill-opacity="0.5"/>
<circle opacity="0.02" cx="393.5" cy="193.044" r="2.5" fill="white" fill-opacity="0.5"/>
<circle opacity="0.6" cx="414.5" cy="193.044" r="2.5" fill="#F689FF"/>
<circle opacity="0.2" cx="435.5" cy="193.044" r="2.5" fill="white" fill-opacity="0.5"/>
<circle opacity="0.06" cx="456.5" cy="193.044" r="2.5" fill="#F689FF"/>
<circle opacity="0.22" cx="477.5" cy="193.044" r="2.5" fill="white" fill-opacity="0.5"/>
<circle opacity="0.93" cx="498.5" cy="193.044" r="2.5" fill="white" fill-opacity="0.5"/>
<circle opacity="0.13" cx="519.5" cy="193.044" r="2.5" fill="#F689FF"/>
<circle opacity="0.42" cx="540.5" cy="193.044" r="2.5" fill="#F689FF"/>
<circle opacity="0.6" cx="225.5" cy="214.044" r="2.5" fill="#F689FF"/>
<circle opacity="0.29" cx="246.5" cy="214.044" r="2.5" fill="#F689FF"/>
<circle opacity="0.71" cx="267.5" cy="214.044" r="2.5" fill="white" fill-opacity="0.5"/>
<circle opacity="0.78" cx="288.5" cy="214.044" r="2.5" fill="#F689FF"/>
<circle opacity="0.77" cx="309.5" cy="214.044" r="2.5" fill="#F689FF"/>
<circle opacity="0.38" cx="330.5" cy="214.044" r="2.5" fill="#F689FF"/>
<circle opacity="0.6" cx="351.5" cy="214.044" r="2.5" fill="white" fill-opacity="0.5"/>
<circle opacity="0.9" cx="372.5" cy="214.044" r="2.5" fill="white" fill-opacity="0.5"/>
<circle opacity="0.38" cx="393.5" cy="214.044" r="2.5" fill="#F689FF"/>
<circle opacity="0.97" cx="414.5" cy="214.044" r="2.5" fill="white" fill-opacity="0.5"/>
<circle opacity="0.04" cx="435.5" cy="214.044" r="2.5" fill="#F689FF"/>
<circle opacity="0.3" cx="456.5" cy="214.044" r="2.5" fill="#F689FF"/>
<circle opacity="0.65" cx="477.5" cy="214.044" r="2.5" fill="#F689FF"/>
<circle opacity="0.13" cx="498.5" cy="214.044" r="2.5" fill="#F689FF"/>
<circle opacity="0.45" cx="519.5" cy="214.044" r="2.5" fill="white" fill-opacity="0.5"/>
<circle opacity="0.15" cx="540.5" cy="214.044" r="2.5" fill="white" fill-opacity="0.5"/>
<circle opacity="0.49" cx="225.5" cy="235.044" r="2.5" fill="white" fill-opacity="0.5"/>
<circle opacity="0.59" cx="246.5" cy="235.044" r="2.5" fill="#F689FF"/>
<circle opacity="0.04" cx="267.5" cy="235.044" r="2.5" fill="#F689FF"/>
<circle opacity="0.43" cx="288.5" cy="235.044" r="2.5" fill="white" fill-opacity="0.5"/>
<circle opacity="0.03" cx="309.5" cy="235.044" r="2.5" fill="white" fill-opacity="0.5"/>
<circle opacity="0.5" cx="330.5" cy="235.044" r="2.5" fill="#F689FF"/>
<circle opacity="0.06" cx="351.5" cy="235.044" r="2.5" fill="white" fill-opacity="0.5"/>
<circle opacity="0.94" cx="372.5" cy="235.044" r="2.5" fill="white" fill-opacity="0.5"/>
<circle opacity="0.64" cx="393.5" cy="235.044" r="2.5" fill="white" fill-opacity="0.5"/>
<circle opacity="0.84" cx="414.5" cy="235.044" r="2.5" fill="white" fill-opacity="0.5"/>
<circle opacity="0.88" cx="435.5" cy="235.044" r="2.5" fill="#F689FF"/>
<circle opacity="0.11" cx="456.5" cy="235.044" r="2.5" fill="#F689FF"/>
<circle opacity="0.57" cx="477.5" cy="235.044" r="2.5" fill="#F689FF"/>
<circle opacity="0.04" cx="498.5" cy="235.044" r="2.5" fill="white" fill-opacity="0.5"/>
<circle opacity="0.13" cx="519.5" cy="235.044" r="2.5" fill="#F689FF"/>
<circle opacity="0.02" cx="540.5" cy="235.044" r="2.5" fill="white" fill-opacity="0.5"/>
<circle opacity="0.1" cx="225.5" cy="256.044" r="2.5" fill="#F689FF"/>
<circle opacity="0.55" cx="246.5" cy="256.044" r="2.5" fill="#F689FF"/>
<circle opacity="0.48" cx="267.5" cy="256.044" r="2.5" fill="white" fill-opacity="0.5"/>
<circle opacity="0.45" cx="288.5" cy="256.044" r="2.5" fill="#F689FF"/>
<circle opacity="0.28" cx="309.5" cy="256.044" r="2.5" fill="white" fill-opacity="0.5"/>
<circle opacity="0.82" cx="330.5" cy="256.044" r="2.5" fill="white" fill-opacity="0.5"/>
<circle opacity="0.18" cx="351.5" cy="256.044" r="2.5" fill="white" fill-opacity="0.5"/>
<circle opacity="0.88" cx="372.5" cy="256.044" r="2.5" fill="#F689FF"/>
<circle opacity="0.27" cx="393.5" cy="256.044" r="2.5" fill="#F689FF"/>
<circle opacity="0.48" cx="414.5" cy="256.044" r="2.5" fill="white" fill-opacity="0.5"/>
<circle opacity="0.98" cx="435.5" cy="256.044" r="2.5" fill="#F689FF"/>
<circle opacity="0.83" cx="456.5" cy="256.044" r="2.5" fill="white" fill-opacity="0.5"/>
<circle opacity="0.43" cx="477.5" cy="256.044" r="2.5" fill="#F689FF"/>
<circle opacity="0.02" cx="498.5" cy="256.044" r="2.5" fill="#F689FF"/>
<circle opacity="0.63" cx="519.5" cy="256.044" r="2.5" fill="white" fill-opacity="0.5"/>
<circle opacity="0.05" cx="540.5" cy="256.044" r="2.5" fill="white" fill-opacity="0.5"/>
<circle opacity="0.26" cx="225.5" cy="277.044" r="2.5" fill="#F689FF"/>
<circle opacity="0.25" cx="246.5" cy="277.044" r="2.5" fill="#F689FF"/>
<circle opacity="0.53" cx="267.5" cy="277.044" r="2.5" fill="#F689FF"/>
<circle opacity="0.08" cx="288.5" cy="277.044" r="2.5" fill="white" fill-opacity="0.5"/>
<circle opacity="0.32" cx="309.5" cy="277.044" r="2.5" fill="white" fill-opacity="0.5"/>
<circle opacity="0.46" cx="330.5" cy="277.044" r="2.5" fill="white" fill-opacity="0.5"/>
<circle opacity="0.25" cx="351.5" cy="277.044" r="2.5" fill="#F689FF"/>
<circle cx="372.5" cy="277.044" r="2.5" fill="#F689FF"/>
<circle opacity="0.6" cx="393.5" cy="277.044" r="2.5" fill="white" fill-opacity="0.5"/>
<circle opacity="0.3" cx="414.5" cy="277.044" r="2.5" fill="#F689FF"/>
<circle opacity="0.02" cx="435.5" cy="277.044" r="2.5" fill="#F689FF"/>
<circle opacity="0.75" cx="456.5" cy="277.044" r="2.5" fill="#F689FF"/>
<circle opacity="0.17" cx="477.5" cy="277.044" r="2.5" fill="#F689FF"/>
<circle opacity="0.34" cx="498.5" cy="277.044" r="2.5" fill="#F689FF"/>
<circle opacity="0.25" cx="519.5" cy="277.044" r="2.5" fill="#F689FF"/>
<circle opacity="0.02" cx="540.5" cy="277.044" r="2.5" fill="white" fill-opacity="0.5"/>
<circle opacity="0.1" cx="225.5" cy="298.044" r="2.5" fill="white" fill-opacity="0.5"/>
<circle opacity="0.99" cx="246.5" cy="298.044" r="2.5" fill="white" fill-opacity="0.5"/>
<circle opacity="0.04" cx="267.5" cy="298.044" r="2.5" fill="white" fill-opacity="0.5"/>
<circle opacity="0.73" cx="288.5" cy="298.044" r="2.5" fill="#F689FF"/>
<circle opacity="0.02" cx="309.5" cy="298.044" r="2.5" fill="#F689FF"/>
<circle opacity="0.49" cx="330.5" cy="298.044" r="2.5" fill="white" fill-opacity="0.5"/>
<circle opacity="0.68" cx="351.5" cy="298.044" r="2.5" fill="white" fill-opacity="0.5"/>
<circle opacity="0.71" cx="372.5" cy="298.044" r="2.5" fill="white" fill-opacity="0.5"/>
<circle opacity="0.19" cx="393.5" cy="298.044" r="2.5" fill="white" fill-opacity="0.5"/>
<circle opacity="0.57" cx="414.5" cy="298.044" r="2.5" fill="#F689FF"/>
<circle opacity="0.6" cx="435.5" cy="298.044" r="2.5" fill="#F689FF"/>
<circle opacity="0.94" cx="456.5" cy="298.044" r="2.5" fill="#F689FF"/>
<circle opacity="0.43" cx="477.5" cy="298.044" r="2.5" fill="#F689FF"/>
<circle opacity="0.03" cx="498.5" cy="298.044" r="2.5" fill="white" fill-opacity="0.5"/>
<circle opacity="0.94" cx="519.5" cy="298.044" r="2.5" fill="white" fill-opacity="0.5"/>
<circle opacity="0.83" cx="540.5" cy="298.044" r="2.5" fill="#F689FF"/>
<circle opacity="0.87" cx="225.5" cy="319.044" r="2.5" fill="white" fill-opacity="0.5"/>
<circle opacity="0.05" cx="246.5" cy="319.044" r="2.5" fill="#F689FF"/>
<circle opacity="0.45" cx="267.5" cy="319.044" r="2.5" fill="#F689FF"/>
<circle opacity="0.97" cx="288.5" cy="319.044" r="2.5" fill="#F689FF"/>
<circle opacity="0.37" cx="309.5" cy="319.044" r="2.5" fill="white" fill-opacity="0.5"/>
<circle opacity="0.72" cx="330.5" cy="319.044" r="2.5" fill="#F689FF"/>
<circle opacity="0.5" cx="351.5" cy="319.044" r="2.5" fill="white" fill-opacity="0.5"/>
<circle opacity="0.77" cx="372.5" cy="319.044" r="2.5" fill="#F689FF"/>
<circle opacity="0.24" cx="393.5" cy="319.044" r="2.5" fill="white" fill-opacity="0.5"/>
<circle opacity="0.91" cx="414.5" cy="319.044" r="2.5" fill="white" fill-opacity="0.5"/>
<circle opacity="0.26" cx="435.5" cy="319.044" r="2.5" fill="#F689FF"/>
<circle opacity="0.49" cx="456.5" cy="319.044" r="2.5" fill="white" fill-opacity="0.5"/>
<circle opacity="0.27" cx="477.5" cy="319.044" r="2.5" fill="#F689FF"/>
<circle opacity="0.66" cx="498.5" cy="319.044" r="2.5" fill="white" fill-opacity="0.5"/>
<circle opacity="0.41" cx="519.5" cy="319.044" r="2.5" fill="white" fill-opacity="0.5"/>
<circle opacity="0.27" cx="540.5" cy="319.044" r="2.5" fill="#F689FF"/>
<circle opacity="0.84" cx="225.5" cy="340.044" r="2.5" fill="#F689FF"/>
<circle opacity="0.83" cx="246.5" cy="340.044" r="2.5" fill="#F689FF"/>
<circle opacity="0.1" cx="267.5" cy="340.044" r="2.5" fill="#F689FF"/>
<circle opacity="0.39" cx="288.5" cy="340.044" r="2.5" fill="#F689FF"/>
<circle opacity="0.89" cx="309.5" cy="340.044" r="2.5" fill="#F689FF"/>
<circle opacity="0.08" cx="330.5" cy="340.044" r="2.5" fill="white" fill-opacity="0.5"/>
<circle opacity="0.39" cx="351.5" cy="340.044" r="2.5" fill="#F689FF"/>
<circle opacity="0.09" cx="372.5" cy="340.044" r="2.5" fill="white" fill-opacity="0.5"/>
<circle opacity="0.88" cx="393.5" cy="340.044" r="2.5" fill="white" fill-opacity="0.5"/>
<circle opacity="0.73" cx="414.5" cy="340.044" r="2.5" fill="#F689FF"/>
<circle opacity="0.71" cx="435.5" cy="340.044" r="2.5" fill="#F689FF"/>
<circle opacity="0.63" cx="456.5" cy="340.044" r="2.5" fill="white" fill-opacity="0.5"/>
<circle opacity="0.64" cx="477.5" cy="340.044" r="2.5" fill="#F689FF"/>
<circle opacity="0.74" cx="498.5" cy="340.044" r="2.5" fill="white" fill-opacity="0.5"/>
<circle opacity="0.22" cx="519.5" cy="340.044" r="2.5" fill="white" fill-opacity="0.5"/>
<circle opacity="0.08" cx="540.5" cy="340.044" r="2.5" fill="#F689FF"/>
<circle opacity="0.88" cx="225.5" cy="361.044" r="2.5" fill="white" fill-opacity="0.5"/>
<circle opacity="0.19" cx="246.5" cy="361.044" r="2.5" fill="#F689FF"/>
<circle opacity="0.42" cx="267.5" cy="361.044" r="2.5" fill="#F689FF"/>
<circle opacity="0.62" cx="288.5" cy="361.044" r="2.5" fill="#F689FF"/>
<circle opacity="0.28" cx="309.5" cy="361.044" r="2.5" fill="white" fill-opacity="0.5"/>
<circle opacity="0.62" cx="330.5" cy="361.044" r="2.5" fill="#F689FF"/>
<circle opacity="0.26" cx="351.5" cy="361.044" r="2.5" fill="#F689FF"/>
<circle opacity="0.67" cx="372.5" cy="361.044" r="2.5" fill="white" fill-opacity="0.5"/>
<circle opacity="0.19" cx="393.5" cy="361.044" r="2.5" fill="#F689FF"/>
<circle opacity="0.43" cx="414.5" cy="361.044" r="2.5" fill="white" fill-opacity="0.5"/>
<circle opacity="0.02" cx="435.5" cy="361.044" r="2.5" fill="white" fill-opacity="0.5"/>
<circle opacity="0.95" cx="456.5" cy="361.044" r="2.5" fill="#F689FF"/>
<circle opacity="0.16" cx="477.5" cy="361.044" r="2.5" fill="white" fill-opacity="0.5"/>
<circle opacity="0.95" cx="498.5" cy="361.044" r="2.5" fill="white" fill-opacity="0.5"/>
<circle opacity="0.52" cx="519.5" cy="361.044" r="2.5" fill="white" fill-opacity="0.5"/>
<circle opacity="0.48" cx="540.5" cy="361.044" r="2.5" fill="white" fill-opacity="0.5"/>
<circle opacity="0.01" cx="225.5" cy="382.044" r="2.5" fill="#F689FF"/>
<circle opacity="0.53" cx="246.5" cy="382.044" r="2.5" fill="white" fill-opacity="0.5"/>
<circle opacity="0.26" cx="267.5" cy="382.044" r="2.5" fill="#F689FF"/>
<circle opacity="0.58" cx="288.5" cy="382.044" r="2.5" fill="#F689FF"/>
<circle opacity="0.85" cx="309.5" cy="382.044" r="2.5" fill="white" fill-opacity="0.5"/>
<circle opacity="0.8" cx="330.5" cy="382.044" r="2.5" fill="#F689FF"/>
<circle opacity="0.16" cx="351.5" cy="382.044" r="2.5" fill="white" fill-opacity="0.5"/>
<circle opacity="0.04" cx="372.5" cy="382.044" r="2.5" fill="white" fill-opacity="0.5"/>
<circle opacity="0.56" cx="393.5" cy="382.044" r="2.5" fill="white" fill-opacity="0.5"/>
<circle opacity="0.89" cx="414.5" cy="382.044" r="2.5" fill="#F689FF"/>
<circle opacity="0.6" cx="435.5" cy="382.044" r="2.5" fill="white" fill-opacity="0.5"/>
<circle opacity="0.61" cx="456.5" cy="382.044" r="2.5" fill="white" fill-opacity="0.5"/>
<circle opacity="0.48" cx="477.5" cy="382.044" r="2.5" fill="white" fill-opacity="0.5"/>
<circle opacity="0.26" cx="498.5" cy="382.044" r="2.5" fill="white" fill-opacity="0.5"/>
<circle opacity="0.84" cx="519.5" cy="382.044" r="2.5" fill="white" fill-opacity="0.5"/>
<circle opacity="0.08" cx="540.5" cy="382.044" r="2.5" fill="white" fill-opacity="0.5"/>
<circle opacity="0.03" cx="225.5" cy="403.044" r="2.5" fill="#F689FF"/>
<circle opacity="0.64" cx="246.5" cy="403.044" r="2.5" fill="white" fill-opacity="0.5"/>
<circle opacity="0.65" cx="267.5" cy="403.044" r="2.5" fill="white" fill-opacity="0.5"/>
<circle opacity="0.84" cx="288.5" cy="403.044" r="2.5" fill="#F689FF"/>
<circle opacity="0.56" cx="309.5" cy="403.044" r="2.5" fill="#F689FF"/>
<circle opacity="0.21" cx="330.5" cy="403.044" r="2.5" fill="#F689FF"/>
<circle opacity="0.54" cx="351.5" cy="403.044" r="2.5" fill="#F689FF"/>
<circle opacity="0.24" cx="372.5" cy="403.044" r="2.5" fill="white" fill-opacity="0.5"/>
<circle opacity="0.58" cx="393.5" cy="403.044" r="2.5" fill="white" fill-opacity="0.5"/>
<circle opacity="0.86" cx="414.5" cy="403.044" r="2.5" fill="white" fill-opacity="0.5"/>
<circle opacity="0.68" cx="435.5" cy="403.044" r="2.5" fill="#F689FF"/>
<circle opacity="0.89" cx="456.5" cy="403.044" r="2.5" fill="#F689FF"/>
<circle opacity="0.15" cx="477.5" cy="403.044" r="2.5" fill="white" fill-opacity="0.5"/>
<circle opacity="0.15" cx="498.5" cy="403.044" r="2.5" fill="white" fill-opacity="0.5"/>
<circle opacity="0.14" cx="519.5" cy="403.044" r="2.5" fill="white" fill-opacity="0.5"/>
<circle opacity="0.75" cx="540.5" cy="403.044" r="2.5" fill="#F689FF"/>
<circle opacity="0.4" cx="225.5" cy="424.044" r="2.5" fill="white" fill-opacity="0.5"/>
<circle opacity="0.65" cx="246.5" cy="424.044" r="2.5" fill="white" fill-opacity="0.5"/>
<circle opacity="0.22" cx="267.5" cy="424.044" r="2.5" fill="#F689FF"/>
<circle opacity="0.77" cx="288.5" cy="424.044" r="2.5" fill="#F689FF"/>
<circle opacity="0.86" cx="309.5" cy="424.044" r="2.5" fill="white" fill-opacity="0.5"/>
<circle opacity="0.26" cx="330.5" cy="424.044" r="2.5" fill="#F689FF"/>
<circle opacity="0.39" cx="351.5" cy="424.044" r="2.5" fill="#F689FF"/>
<circle opacity="0.08" cx="372.5" cy="424.044" r="2.5" fill="#F689FF"/>
<circle opacity="0.38" cx="393.5" cy="424.044" r="2.5" fill="#F689FF"/>
<circle opacity="0.86" cx="414.5" cy="424.044" r="2.5" fill="white" fill-opacity="0.5"/>
<circle opacity="0.95" cx="435.5" cy="424.044" r="2.5" fill="white" fill-opacity="0.5"/>
<circle opacity="0.08" cx="456.5" cy="424.044" r="2.5" fill="white" fill-opacity="0.5"/>
<circle opacity="0.47" cx="477.5" cy="424.044" r="2.5" fill="white" fill-opacity="0.5"/>
<circle opacity="0.1" cx="498.5" cy="424.044" r="2.5" fill="white" fill-opacity="0.5"/>
<circle opacity="0.9" cx="519.5" cy="424.044" r="2.5" fill="white" fill-opacity="0.5"/>
<circle opacity="0.24" cx="540.5" cy="424.044" r="2.5" fill="white" fill-opacity="0.5"/>
<circle opacity="0.01" cx="225.5" cy="445.044" r="2.5" fill="#F689FF"/>
<circle opacity="0.13" cx="246.5" cy="445.044" r="2.5" fill="#F689FF"/>
<circle opacity="0.78" cx="267.5" cy="445.044" r="2.5" fill="#F689FF"/>
<circle opacity="0.3" cx="288.5" cy="445.044" r="2.5" fill="white" fill-opacity="0.5"/>
<circle opacity="0.17" cx="309.5" cy="445.044" r="2.5" fill="#F689FF"/>
<circle opacity="0.47" cx="330.5" cy="445.044" r="2.5" fill="white" fill-opacity="0.5"/>
<circle opacity="0.04" cx="351.5" cy="445.044" r="2.5" fill="#F689FF"/>
<circle opacity="0.29" cx="372.5" cy="445.044" r="2.5" fill="white" fill-opacity="0.5"/>
<circle opacity="0.36" cx="393.5" cy="445.044" r="2.5" fill="white" fill-opacity="0.5"/>
<circle opacity="0.48" cx="414.5" cy="445.044" r="2.5" fill="#F689FF"/>
<circle opacity="0.95" cx="435.5" cy="445.044" r="2.5" fill="#F689FF"/>
<circle opacity="0.56" cx="456.5" cy="445.044" r="2.5" fill="white" fill-opacity="0.5"/>
<circle opacity="0.98" cx="477.5" cy="445.044" r="2.5" fill="white" fill-opacity="0.5"/>
<circle opacity="0.06" cx="498.5" cy="445.044" r="2.5" fill="#F689FF"/>
<circle opacity="0.4" cx="519.5" cy="445.044" r="2.5" fill="white" fill-opacity="0.5"/>
<circle opacity="0.36" cx="540.5" cy="445.044" r="2.5" fill="#F689FF"/>
<circle opacity="0.17" cx="225.5" cy="466.044" r="2.5" fill="white" fill-opacity="0.5"/>
<circle opacity="0.83" cx="246.5" cy="466.044" r="2.5" fill="#F689FF"/>
<circle opacity="0.46" cx="267.5" cy="466.044" r="2.5" fill="#F689FF"/>
<circle opacity="0.7" cx="288.5" cy="466.044" r="2.5" fill="#F689FF"/>
<circle opacity="0.85" cx="309.5" cy="466.044" r="2.5" fill="#F689FF"/>
<circle opacity="0.36" cx="330.5" cy="466.044" r="2.5" fill="#F689FF"/>
<circle opacity="0.85" cx="351.5" cy="466.044" r="2.5" fill="#F689FF"/>
<circle opacity="0.31" cx="372.5" cy="466.044" r="2.5" fill="#F689FF"/>
<circle opacity="0.4" cx="393.5" cy="466.044" r="2.5" fill="white" fill-opacity="0.5"/>
<circle opacity="0.91" cx="414.5" cy="466.044" r="2.5" fill="#F689FF"/>
<circle opacity="0.19" cx="435.5" cy="466.044" r="2.5" fill="white" fill-opacity="0.5"/>
<circle opacity="0.59" cx="456.5" cy="466.044" r="2.5" fill="white" fill-opacity="0.5"/>
<circle opacity="0.15" cx="477.5" cy="466.044" r="2.5" fill="white" fill-opacity="0.5"/>
<circle opacity="0.46" cx="498.5" cy="466.044" r="2.5" fill="white" fill-opacity="0.5"/>
<circle opacity="0.99" cx="519.5" cy="466.044" r="2.5" fill="#F689FF"/>
<circle opacity="0.37" cx="540.5" cy="466.044" r="2.5" fill="white" fill-opacity="0.5"/>
</g>
<g filter="url(#filter1_di_1_3578)">
<g clip-path="url(#clip0_1_3578)">
<rect x="247" y="217.544" width="276.335" height="186.203" rx="14.6614" fill="url(#paint1_linear_1_3578)"/>
<path d="M284.418 246.205L282.263 238.303L280.095 246.205H279.094L276.669 236.994H277.606L279.594 244.807L281.749 236.994H282.776L284.905 244.833L286.907 236.994H287.856L285.431 246.205H284.418ZM291.216 246.334C289.318 246.334 288.06 244.91 288.06 242.767C288.06 240.792 289.369 239.316 291.165 239.316C293.089 239.316 294.346 240.869 294.192 243.037H288.958C289.035 244.64 289.882 245.628 291.203 245.628C292.332 245.628 293.115 244.999 293.333 243.922H294.218C293.91 245.423 292.768 246.334 291.216 246.334ZM291.152 240.009C289.933 240.009 289.074 240.946 288.958 242.421H293.256C293.179 240.907 292.396 240.009 291.152 240.009ZM301.873 242.819C301.873 244.897 300.705 246.334 298.897 246.334C297.857 246.334 296.985 245.769 296.51 244.781V246.205H295.677V236.994H296.575V240.869C297.011 239.881 297.87 239.316 298.897 239.316C300.705 239.316 301.873 240.74 301.873 242.819ZM300.962 242.819C300.962 241.1 300.077 240.099 298.755 240.099C297.485 240.099 296.562 241.087 296.562 242.793C296.562 244.486 297.46 245.551 298.755 245.551C300.077 245.551 300.962 244.538 300.962 242.819ZM308.373 244.32C308.373 245.564 307.373 246.334 305.705 246.334C304.024 246.334 302.998 245.487 302.87 244.089H303.729C303.793 245.051 304.55 245.654 305.705 245.654C306.808 245.654 307.475 245.23 307.475 244.461C307.475 243.794 307.09 243.486 306.064 243.28L305.089 243.088C303.806 242.844 303.126 242.216 303.126 241.241C303.126 240.112 304.127 239.316 305.602 239.316C307.154 239.316 308.181 240.15 308.283 241.497H307.437C307.347 240.561 306.667 240.009 305.602 240.009C304.653 240.009 303.999 240.458 303.999 241.164C303.999 241.831 304.409 242.151 305.41 242.344L306.423 242.536C307.77 242.793 308.373 243.357 308.373 244.32ZM311.101 237.88C311.101 238.277 310.806 238.559 310.37 238.559C309.946 238.559 309.651 238.277 309.651 237.88C309.651 237.495 309.946 237.212 310.37 237.212C310.806 237.212 311.101 237.495 311.101 237.88ZM310.832 246.205H309.934V239.445H310.832V246.205ZM316.254 245.346V246.141C315.908 246.282 315.613 246.334 315.279 246.334C314.163 246.334 313.303 245.756 313.303 244.294V240.202H311.713V239.445H313.303V237.443H314.201V239.445H316.318V240.202H314.201V244.101C314.201 245.153 314.715 245.513 315.459 245.513C315.741 245.513 315.972 245.461 316.254 245.346ZM320.118 246.334C318.22 246.334 316.963 244.91 316.963 242.767C316.963 240.792 318.271 239.316 320.067 239.316C321.991 239.316 323.249 240.869 323.095 243.037H317.861C317.938 244.64 318.784 245.628 320.106 245.628C321.235 245.628 322.017 244.999 322.235 243.922H323.12C322.812 245.423 321.671 246.334 320.118 246.334ZM320.054 240.009C318.836 240.009 317.976 240.946 317.861 242.421H322.158C322.081 240.907 321.299 240.009 320.054 240.009ZM330.582 246.205H329.633V237.854H326.541V236.994H333.674V237.854H330.582V246.205ZM335.224 242.588V246.205H334.326V239.445H335.16V240.984C335.621 239.983 336.622 239.342 337.738 239.342V240.278C336.314 240.227 335.224 241.112 335.224 242.588ZM342.992 246.205V244.974C342.595 245.821 341.774 246.334 340.722 246.334C339.323 246.334 338.412 245.551 338.412 244.332C338.412 243.011 339.464 242.318 341.517 242.318C341.928 242.318 342.235 242.344 342.903 242.395V241.831C342.903 240.702 342.3 240.035 341.273 240.035C340.17 240.035 339.477 240.715 339.464 241.818H338.643C338.682 240.317 339.721 239.316 341.26 239.316C342.838 239.316 343.762 240.24 343.762 241.805V246.205H342.992ZM339.272 244.307C339.272 245.128 339.901 245.679 340.85 245.679C342.107 245.679 342.903 244.858 342.903 243.588V242.985C342.325 242.934 341.928 242.921 341.555 242.921C340.016 242.921 339.272 243.37 339.272 244.307ZM347.102 246.205H346.204V240.202H344.613V239.445H346.204V238.829C346.204 237.584 346.884 236.892 348.064 236.892C348.372 236.892 348.641 236.943 348.872 237.033V237.777C348.654 237.687 348.449 237.674 348.218 237.674C347.499 237.674 347.102 238.033 347.102 238.829V239.445H349.09V240.202H347.102V246.205ZM352.05 246.205H351.152V240.202H349.561V239.445H351.152V238.829C351.152 237.584 351.832 236.892 353.012 236.892C353.32 236.892 353.59 236.943 353.821 237.033V237.777C353.602 237.687 353.397 237.674 353.166 237.674C352.448 237.674 352.05 238.033 352.05 238.829V239.445H354.039V240.202H352.05V246.205ZM356.245 237.88C356.245 238.277 355.95 238.559 355.527 238.559C355.091 238.559 354.796 238.277 354.796 237.88C354.796 237.495 355.091 237.212 355.527 237.212C355.95 237.212 356.245 237.495 356.245 237.88ZM355.976 246.205H355.078V239.445H355.976V246.205ZM360.456 246.346C358.673 246.346 357.428 244.897 357.428 242.819C357.428 240.766 358.685 239.316 360.456 239.316C362.034 239.316 363.163 240.368 363.432 242.062H362.521C362.316 240.83 361.546 240.099 360.456 240.099C359.199 240.099 358.339 241.202 358.339 242.819C358.339 244.461 359.199 245.564 360.456 245.564C361.559 245.564 362.316 244.846 362.521 243.588H363.432C363.188 245.307 362.047 246.346 360.456 246.346Z" fill="#F8FAFB"/>
<path d="M286.439 290.572C281.601 290.572 277.899 287.42 277.716 283.021H281.418C281.674 285.66 283.69 287.236 286.439 287.236C289.848 287.236 291.534 285.111 291.534 282.288C291.534 279.722 289.701 277.487 286.403 277.487C284.203 277.487 282.554 278.403 281.528 280.199L278.522 279.246L280.721 265.428H293.953V268.726H283.397L282.297 275.874C283.69 274.774 285.266 274.261 286.952 274.261C292.414 274.261 295.383 278.073 295.383 282.288C295.383 286.723 292.194 290.572 286.439 290.572ZM304.062 288.629C304.062 292.111 301.313 294.824 297.282 294.897V292.808C299.664 292.734 301.277 291.452 301.497 289.656C301.167 289.766 300.947 289.802 300.69 289.802C299.298 289.802 298.271 288.666 298.271 287.31C298.271 285.734 299.444 284.707 300.947 284.707C302.963 284.707 304.062 286.173 304.062 288.629ZM324.099 286.907V290.205H308.081V288.079L315.815 279.722C318.748 276.534 319.884 274.811 319.884 272.575C319.884 270.119 318.161 268.396 315.632 268.396C312.883 268.396 311.05 270.193 311.05 272.942H307.422C307.422 268.36 310.867 265.061 315.779 265.061C320.397 265.061 323.769 268.067 323.769 272.135C323.769 274.957 322.706 276.937 318.638 281.262L313.653 286.907H324.099ZM335.836 290.572C330.997 290.572 327.295 287.42 327.112 283.021H330.814C331.071 285.66 333.087 287.236 335.836 287.236C339.244 287.236 340.931 285.111 340.931 282.288C340.931 279.722 339.098 277.487 335.799 277.487C333.6 277.487 331.95 278.403 330.924 280.199L327.919 279.246L330.118 265.428H343.35V268.726H332.793L331.694 275.874C333.087 274.774 334.663 274.261 336.349 274.261C341.81 274.261 344.779 278.073 344.779 282.288C344.779 286.723 341.59 290.572 335.836 290.572ZM363.795 286.907V290.205H347.778V288.079L355.512 279.722C358.444 276.534 359.58 274.811 359.58 272.575C359.58 270.119 357.857 268.396 355.328 268.396C352.579 268.396 350.747 270.193 350.747 272.942H347.118C347.118 268.36 350.563 265.061 355.475 265.061C360.093 265.061 363.465 268.067 363.465 272.135C363.465 274.957 362.402 276.937 358.334 281.262L353.349 286.907H363.795Z" fill="white"/>
<rect x="456.632" y="267.748" width="37.3796" height="15.9153" rx="6.14407" fill="#161616"/>
<path d="M462.776 277.013L465.392 274.397L468.008 277.013H462.776Z" fill="white"/>
<path d="M472.45 279.205L474.928 274.229H472.185V273.713H475.539V274.229L473.07 279.205H472.45ZM476.299 279.205V278.837L477.832 277.148C478.132 276.819 478.375 276.546 478.562 276.33C478.754 276.114 478.896 275.917 478.99 275.74C479.083 275.563 479.13 275.371 479.13 275.165C479.13 274.836 479.034 274.583 478.842 274.406C478.651 274.229 478.395 274.14 478.076 274.14C477.746 274.14 477.468 274.234 477.242 274.42C477.021 274.607 476.871 274.868 476.793 275.202L476.254 275.084C476.318 274.784 476.434 274.526 476.601 274.31C476.768 274.094 476.977 273.926 477.228 273.808C477.478 273.686 477.758 273.624 478.068 273.624C478.397 273.624 478.685 273.69 478.931 273.823C479.177 273.956 479.368 274.138 479.506 274.369C479.648 274.6 479.72 274.865 479.72 275.165C479.72 275.371 479.675 275.571 479.587 275.762C479.503 275.954 479.376 276.16 479.204 276.382C479.032 276.603 478.81 276.861 478.54 277.156L477.147 278.689H479.867V279.205H476.299ZM481.309 279.205L485.807 273.713H486.522L482.025 279.205H481.309ZM482.113 276.5C481.848 276.5 481.607 276.436 481.39 276.308C481.174 276.175 481 276.001 480.867 275.784C480.739 275.568 480.675 275.327 480.675 275.062C480.675 274.796 480.739 274.556 480.867 274.339C481 274.118 481.174 273.944 481.39 273.816C481.607 273.688 481.848 273.624 482.113 273.624C482.378 273.624 482.619 273.688 482.836 273.816C483.052 273.944 483.224 274.118 483.352 274.339C483.479 274.556 483.543 274.796 483.543 275.062C483.543 275.327 483.479 275.568 483.352 275.784C483.224 276.001 483.052 276.175 482.836 276.308C482.619 276.436 482.378 276.5 482.113 276.5ZM482.113 275.969C482.285 275.969 482.435 275.927 482.563 275.843C482.695 275.755 482.799 275.642 482.872 275.504C482.951 275.362 482.99 275.214 482.99 275.062C482.99 274.905 482.951 274.757 482.872 274.619C482.799 274.482 482.695 274.371 482.563 274.288C482.435 274.199 482.285 274.155 482.113 274.155C481.946 274.155 481.793 274.199 481.656 274.288C481.523 274.371 481.417 274.482 481.339 274.619C481.265 274.757 481.228 274.905 481.228 275.062C481.228 275.214 481.265 275.362 481.339 275.504C481.417 275.642 481.523 275.755 481.656 275.843C481.793 275.927 481.946 275.969 482.113 275.969ZM485.652 279.294C485.387 279.294 485.146 279.23 484.929 279.102C484.713 278.969 484.539 278.795 484.406 278.579C484.278 278.362 484.214 278.122 484.214 277.856C484.214 277.591 484.278 277.35 484.406 277.134C484.539 276.912 484.713 276.738 484.929 276.61C485.146 276.482 485.387 276.418 485.652 276.418C485.917 276.418 486.158 276.482 486.375 276.61C486.591 276.738 486.763 276.912 486.891 277.134C487.018 277.35 487.082 277.591 487.082 277.856C487.082 278.122 487.018 278.362 486.891 278.579C486.763 278.795 486.591 278.969 486.375 279.102C486.158 279.23 485.917 279.294 485.652 279.294ZM485.652 278.763C485.824 278.763 485.974 278.721 486.102 278.638C486.234 278.549 486.338 278.436 486.411 278.299C486.49 278.156 486.529 278.009 486.529 277.856C486.529 277.699 486.49 277.551 486.411 277.414C486.338 277.276 486.234 277.166 486.102 277.082C485.974 276.994 485.824 276.949 485.652 276.949C485.485 276.949 485.332 276.994 485.195 277.082C485.062 277.166 484.956 277.276 484.878 277.414C484.804 277.551 484.767 277.699 484.767 277.856C484.767 278.009 484.804 278.156 484.878 278.299C484.956 278.436 485.062 278.549 485.195 278.638C485.332 278.721 485.485 278.763 485.652 278.763Z" fill="white"/>
<rect x="276.323" y="388.913" width="77.1947" height="12.3512" rx="6.17558" transform="rotate(-90 276.323 388.913)" fill="#2A2A31"/>
<g filter="url(#filter2_d_1_3578)">
<rect x="276.323" y="389.085" width="32.4218" height="12.3512" rx="6.17558" transform="rotate(-90 276.323 389.085)" fill="url(#paint2_linear_1_3578)" shape-rendering="crispEdges"/>
</g>
<rect x="310.601" y="388.913" width="77.1947" height="12.3511" rx="6.17557" transform="rotate(-90 310.601 388.913)" fill="#2A2A31"/>
<g filter="url(#filter3_d_1_3578)">
<rect x="310.374" y="388.899" width="60.4784" height="12.8288" rx="6.41438" transform="rotate(-90 310.374 388.899)" fill="url(#paint3_linear_1_3578)" shape-rendering="crispEdges"/>
</g>
<rect x="344.904" y="388.784" width="77.0656" height="12.3511" rx="6.17555" transform="rotate(-90 344.904 388.784)" fill="#2A2A31"/>
<g filter="url(#filter4_d_1_3578)">
<rect x="344.921" y="389.085" width="50.9485" height="12.3512" rx="6.17558" transform="rotate(-90 344.921 389.085)" fill="url(#paint4_linear_1_3578)" shape-rendering="crispEdges"/>
</g>
<rect x="378.973" y="388.913" width="77.1947" height="12.281" rx="6.14048" transform="rotate(-90 378.973 388.913)" fill="#2A2A31"/>
<g filter="url(#filter5_d_1_3578)">
<rect x="379.253" y="388.899" width="50.3987" height="11.9124" rx="5.95621" transform="rotate(-90 379.253 388.899)" fill="url(#paint5_linear_1_3578)" shape-rendering="crispEdges"/>
</g>
<rect x="413.416" y="388.913" width="77.1947" height="12.281" rx="6.14048" transform="rotate(-90 413.416 388.913)" fill="#2A2A31"/>
<g filter="url(#filter6_d_1_3578)">
<rect x="412.954" y="388.899" width="60.4784" height="12.8288" rx="6.41438" transform="rotate(-90 412.954 388.899)" fill="url(#paint6_linear_1_3578)" shape-rendering="crispEdges"/>
</g>
<rect x="447.483" y="388.913" width="77.1947" height="12.281" rx="6.14048" transform="rotate(-90 447.483 388.913)" fill="#2A2A31"/>
<g filter="url(#filter7_d_1_3578)">
<rect x="447.609" y="389.085" width="60.9838" height="12.3512" rx="6.17558" transform="rotate(-90 447.609 389.085)" fill="url(#paint7_linear_1_3578)" shape-rendering="crispEdges"/>
</g>
<rect x="481.731" y="388.784" width="77.0656" height="12.2809" rx="6.14047" transform="rotate(-90 481.731 388.784)" fill="#2A2A31"/>
<g filter="url(#filter8_d_1_3578)">
<rect x="481.661" y="389.085" width="71.791" height="12.3512" rx="6.17558" transform="rotate(-90 481.661 389.085)" fill="url(#paint8_linear_1_3578)" shape-rendering="crispEdges"/>
</g>
</g>
<rect x="247.458" y="218.002" width="275.418" height="185.286" rx="14.2033" stroke="url(#paint9_linear_1_3578)" stroke-width="0.91634"/>
</g>
<path d="M341.5 86.5439V189.044C341.5 194.567 337.023 199.044 331.5 199.044H255C238.431 199.044 225 212.475 225 229.044V395.044C225 411.612 238.431 425.044 255 425.044H331.5C337.023 425.044 341.5 429.521 341.5 435.044V524.044" stroke="url(#paint10_radial_1_3578)"/>
<path d="M430 86.5439V189.044C430 194.567 434.477 199.044 440 199.044H516.5C533.069 199.044 546.5 212.475 546.5 229.044V395.044C546.5 411.612 533.069 425.044 516.5 425.044H440C434.477 425.044 430 429.521 430 435.044V524.044" stroke="url(#paint11_radial_1_3578)"/>
<rect x="371" y="81.5439" width="29" height="118" stroke="url(#paint12_radial_1_3578)"/>
<rect x="371" y="421.544" width="29" height="118" stroke="url(#paint13_radial_1_3578)"/>
<defs>
<filter id="filter0_f_1_3578" x="0" y="0.543945" width="769" height="620" filterUnits="userSpaceOnUse" color-interpolation-filters="sRGB">
<feFlood flood-opacity="0" result="BackgroundImageFix"/>
<feBlend mode="normal" in="SourceGraphic" in2="BackgroundImageFix" result="shape"/>
<feGaussianBlur stdDeviation="125" result="effect1_foregroundBlur_1_3578"/>
</filter>
<filter id="filter1_di_1_3578" x="215.844" y="199.217" width="338.646" height="248.514" filterUnits="userSpaceOnUse" color-interpolation-filters="sRGB">
<feFlood flood-opacity="0" result="BackgroundImageFix"/>
<feColorMatrix in="SourceAlpha" type="matrix" values="0 0 0 0 0 0 0 0 0 0 0 0 0 0 0 0 0 0 127 0" result="hardAlpha"/>
<feOffset dy="12.8288"/>
<feGaussianBlur stdDeviation="15.5778"/>
<feComposite in2="hardAlpha" operator="out"/>
<feColorMatrix type="matrix" values="0 0 0 0 0 0 0 0 0 0 0 0 0 0 0 0 0 0 0.45 0"/>
<feBlend mode="normal" in2="BackgroundImageFix" result="effect1_dropShadow_1_3578"/>
<feBlend mode="normal" in="SourceGraphic" in2="effect1_dropShadow_1_3578" result="shape"/>
<feColorMatrix in="SourceAlpha" type="matrix" values="0 0 0 0 0 0 0 0 0 0 0 0 0 0 0 0 0 0 127 0" result="hardAlpha"/>
<feOffset dy="28.3836"/>
<feGaussianBlur stdDeviation="14.1918"/>
<feComposite in2="hardAlpha" operator="arithmetic" k2="-1" k3="1"/>
<feColorMatrix type="matrix" values="0 0 0 0 1 0 0 0 0 1 0 0 0 0 1 0 0 0 0.05 0"/>
<feBlend mode="normal" in2="shape" result="effect2_innerShadow_1_3578"/>
</filter>
<filter id="filter2_d_1_3578" x="261.661" y="351.165" width="41.674" height="61.7446" filterUnits="userSpaceOnUse" color-interpolation-filters="sRGB">
<feFlood flood-opacity="0" result="BackgroundImageFix"/>
<feColorMatrix in="SourceAlpha" type="matrix" values="0 0 0 0 0 0 0 0 0 0 0 0 0 0 0 0 0 0 127 0" result="hardAlpha"/>
<feOffset dy="9.1634"/>
<feGaussianBlur stdDeviation="7.33072"/>
<feComposite in2="hardAlpha" operator="out"/>
<feColorMatrix type="matrix" values="0 0 0 0 0 0 0 0 0 0 0 0 0 0 0 0 0 0 0.5 0"/>
<feBlend mode="normal" in2="BackgroundImageFix" result="effect1_dropShadow_1_3578"/>
<feBlend mode="normal" in="SourceGraphic" in2="effect1_dropShadow_1_3578" result="shape"/>
</filter>
<filter id="filter3_d_1_3578" x="295.713" y="322.923" width="42.1516" height="89.8013" filterUnits="userSpaceOnUse" color-interpolation-filters="sRGB">
<feFlood flood-opacity="0" result="BackgroundImageFix"/>
<feColorMatrix in="SourceAlpha" type="matrix" values="0 0 0 0 0 0 0 0 0 0 0 0 0 0 0 0 0 0 127 0" result="hardAlpha"/>
<feOffset dy="9.1634"/>
<feGaussianBlur stdDeviation="7.33072"/>
<feComposite in2="hardAlpha" operator="out"/>
<feColorMatrix type="matrix" values="0 0 0 0 0 0 0 0 0 0 0 0 0 0 0 0 0 0 0.5 0"/>
<feBlend mode="normal" in2="BackgroundImageFix" result="effect1_dropShadow_1_3578"/>
<feBlend mode="normal" in="SourceGraphic" in2="effect1_dropShadow_1_3578" result="shape"/>
</filter>
<filter id="filter4_d_1_3578" x="330.26" y="332.639" width="41.674" height="80.2714" filterUnits="userSpaceOnUse" color-interpolation-filters="sRGB">
<feFlood flood-opacity="0" result="BackgroundImageFix"/>
<feColorMatrix in="SourceAlpha" type="matrix" values="0 0 0 0 0 0 0 0 0 0 0 0 0 0 0 0 0 0 127 0" result="hardAlpha"/>
<feOffset dy="9.1634"/>
<feGaussianBlur stdDeviation="7.33072"/>
<feComposite in2="hardAlpha" operator="out"/>
<feColorMatrix type="matrix" values="0 0 0 0 0 0 0 0 0 0 0 0 0 0 0 0 0 0 0.5 0"/>
<feBlend mode="normal" in2="BackgroundImageFix" result="effect1_dropShadow_1_3578"/>
<feBlend mode="normal" in="SourceGraphic" in2="effect1_dropShadow_1_3578" result="shape"/>
</filter>
<filter id="filter5_d_1_3578" x="364.592" y="333.003" width="41.2353" height="79.7215" filterUnits="userSpaceOnUse" color-interpolation-filters="sRGB">
<feFlood flood-opacity="0" result="BackgroundImageFix"/>
<feColorMatrix in="SourceAlpha" type="matrix" values="0 0 0 0 0 0 0 0 0 0 0 0 0 0 0 0 0 0 127 0" result="hardAlpha"/>
<feOffset dy="9.1634"/>
<feGaussianBlur stdDeviation="7.33072"/>
<feComposite in2="hardAlpha" operator="out"/>
<feColorMatrix type="matrix" values="0 0 0 0 0 0 0 0 0 0 0 0 0 0 0 0 0 0 0.5 0"/>
<feBlend mode="normal" in2="BackgroundImageFix" result="effect1_dropShadow_1_3578"/>
<feBlend mode="normal" in="SourceGraphic" in2="effect1_dropShadow_1_3578" result="shape"/>
</filter>
<filter id="filter6_d_1_3578" x="398.293" y="322.923" width="42.1516" height="89.8013" filterUnits="userSpaceOnUse" color-interpolation-filters="sRGB">
<feFlood flood-opacity="0" result="BackgroundImageFix"/>
<feColorMatrix in="SourceAlpha" type="matrix" values="0 0 0 0 0 0 0 0 0 0 0 0 0 0 0 0 0 0 127 0" result="hardAlpha"/>
<feOffset dy="9.1634"/>
<feGaussianBlur stdDeviation="7.33072"/>
<feComposite in2="hardAlpha" operator="out"/>
<feColorMatrix type="matrix" values="0 0 0 0 0 0 0 0 0 0 0 0 0 0 0 0 0 0 0.5 0"/>
<feBlend mode="normal" in2="BackgroundImageFix" result="effect1_dropShadow_1_3578"/>
<feBlend mode="normal" in="SourceGraphic" in2="effect1_dropShadow_1_3578" result="shape"/>
</filter>
<filter id="filter7_d_1_3578" x="432.948" y="322.603" width="41.674" height="90.3066" filterUnits="userSpaceOnUse" color-interpolation-filters="sRGB">
<feFlood flood-opacity="0" result="BackgroundImageFix"/>
<feColorMatrix in="SourceAlpha" type="matrix" values="0 0 0 0 0 0 0 0 0 0 0 0 0 0 0 0 0 0 127 0" result="hardAlpha"/>
<feOffset dy="9.1634"/>
<feGaussianBlur stdDeviation="7.33072"/>
<feComposite in2="hardAlpha" operator="out"/>
<feColorMatrix type="matrix" values="0 0 0 0 0 0 0 0 0 0 0 0 0 0 0 0 0 0 0.5 0"/>
<feBlend mode="normal" in2="BackgroundImageFix" result="effect1_dropShadow_1_3578"/>
<feBlend mode="normal" in="SourceGraphic" in2="effect1_dropShadow_1_3578" result="shape"/>
</filter>
<filter id="filter8_d_1_3578" x="466.999" y="311.796" width="41.674" height="101.114" filterUnits="userSpaceOnUse" color-interpolation-filters="sRGB">
<feFlood flood-opacity="0" result="BackgroundImageFix"/>
<feColorMatrix in="SourceAlpha" type="matrix" values="0 0 0 0 0 0 0 0 0 0 0 0 0 0 0 0 0 0 127 0" result="hardAlpha"/>
<feOffset dy="9.1634"/>
<feGaussianBlur stdDeviation="7.33072"/>
<feComposite in2="hardAlpha" operator="out"/>
<feColorMatrix type="matrix" values="0 0 0 0 0 0 0 0 0 0 0 0 0 0 0 0 0 0 0.5 0"/>
<feBlend mode="normal" in2="BackgroundImageFix" result="effect1_dropShadow_1_3578"/>
<feBlend mode="normal" in="SourceGraphic" in2="effect1_dropShadow_1_3578" result="shape"/>
</filter>
<radialGradient id="paint0_radial_1_3578" cx="0" cy="0" r="1" gradientUnits="userSpaceOnUse" gradientTransform="translate(385 310.544) rotate(90) scale(162)">
<stop stop-color="#D9D9D9"/>
<stop offset="1" stop-color="#D9D9D9" stop-opacity="0"/>
</radialGradient>
<linearGradient id="paint1_linear_1_3578" x1="362.53" y1="177.568" x2="346.861" y2="427.535" gradientUnits="userSpaceOnUse">
<stop offset="0.02" stop-color="#27273D"/>
<stop offset="1" stop-color="#141414"/>
<stop offset="1" stop-color="#13131A"/>
</linearGradient>
<linearGradient id="paint2_linear_1_3578" x1="298.96" y1="385.8" x2="271.586" y2="386.456" gradientUnits="userSpaceOnUse">
<stop stop-color="white"/>
<stop offset="1" stop-color="#9643FF" stop-opacity="0"/>
</linearGradient>
<linearGradient id="paint3_linear_1_3578" x1="352.602" y1="385.488" x2="301.604" y2="387.681" gradientUnits="userSpaceOnUse">
<stop stop-color="white"/>
<stop offset="1" stop-color="#9643FF" stop-opacity="0"/>
</linearGradient>
<linearGradient id="paint4_linear_1_3578" x1="380.495" y1="385.8" x2="337.515" y2="387.418" gradientUnits="userSpaceOnUse">
<stop stop-color="white"/>
<stop offset="1" stop-color="#9643FF" stop-opacity="0"/>
</linearGradient>
<linearGradient id="paint5_linear_1_3578" x1="414.443" y1="385.731" x2="371.93" y2="387.372" gradientUnits="userSpaceOnUse">
<stop stop-color="white"/>
<stop offset="1" stop-color="#9643FF" stop-opacity="0"/>
</linearGradient>
<linearGradient id="paint6_linear_1_3578" x1="455.181" y1="385.488" x2="404.184" y2="387.681" gradientUnits="userSpaceOnUse">
<stop stop-color="white"/>
<stop offset="1" stop-color="#9643FF" stop-opacity="0"/>
</linearGradient>
<linearGradient id="paint7_linear_1_3578" x1="490.189" y1="385.8" x2="438.775" y2="388.116" gradientUnits="userSpaceOnUse">
<stop stop-color="white"/>
<stop offset="1" stop-color="#9643FF" stop-opacity="0"/>
</linearGradient>
<linearGradient id="paint8_linear_1_3578" x1="531.787" y1="385.8" x2="471.308" y2="389.007" gradientUnits="userSpaceOnUse">
<stop stop-color="white"/>
<stop offset="1" stop-color="#9643FF" stop-opacity="0"/>
</linearGradient>
<linearGradient id="paint9_linear_1_3578" x1="375.8" y1="129.703" x2="380.409" y2="481.141" gradientUnits="userSpaceOnUse">
<stop stop-color="white"/>
<stop offset="1" stop-opacity="0"/>
</linearGradient>
<radialGradient id="paint10_radial_1_3578" cx="0" cy="0" r="1" gradientUnits="userSpaceOnUse" gradientTransform="translate(209 293.044) scale(451 208.632)">
<stop stop-color="#A25DAD"/>
<stop offset="1" stop-color="#3C2241" stop-opacity="0"/>
</radialGradient>
<radialGradient id="paint11_radial_1_3578" cx="0" cy="0" r="1" gradientUnits="userSpaceOnUse" gradientTransform="translate(562.5 293.044) rotate(180) scale(451 208.632)">
<stop stop-color="#A25DAD"/>
<stop offset="1" stop-color="#3C2241" stop-opacity="0"/>
</radialGradient>
<radialGradient id="paint12_radial_1_3578" cx="0" cy="0" r="1" gradientUnits="userSpaceOnUse" gradientTransform="translate(367.017 137.24) scale(112.266 56.271)">
<stop stop-color="#A25DAD"/>
<stop offset="1" stop-color="#3C2241" stop-opacity="0"/>
</radialGradient>
<radialGradient id="paint13_radial_1_3578" cx="0" cy="0" r="1" gradientUnits="userSpaceOnUse" gradientTransform="translate(367.017 477.24) scale(112.266 56.271)">
<stop stop-color="#A25DAD"/>
<stop offset="1" stop-color="#3C2241" stop-opacity="0"/>
</radialGradient>
<clipPath id="clip0_1_3578">
<rect x="247" y="217.544" width="276.335" height="186.203" rx="14.6614" fill="white"/>
</clipPath>
</defs>
</svg>
