<svg width="239" height="126" viewBox="0 0 239 126" fill="none" xmlns="http://www.w3.org/2000/svg">
<g filter="url(#filter0_dii_1_929)">
<rect x="34.5" y="20" width="170" height="58" rx="29" fill="url(#paint0_linear_1_929)" shape-rendering="crispEdges"/>
<path d="M79.72 52.38C79.72 55 77.8 56.5 74.82 56.5H69.56V42.14H74.54C77.44 42.14 79.18 43.48 79.18 45.9C79.18 47.26 78.36 48.42 76.98 49.02C78.76 49.52 79.72 50.74 79.72 52.38ZM74.4 43.9H71.58V48.22H74.4C76.14 48.22 77.08 47.4 77.08 46.06C77.08 44.72 76.14 43.9 74.4 43.9ZM74.68 49.98H71.58V54.74H74.68C76.56 54.74 77.62 53.84 77.62 52.32C77.62 50.86 76.56 49.98 74.68 49.98ZM86.5353 56.7C83.5353 56.7 81.3353 54.34 81.3353 51.2C81.3353 48.06 83.5353 45.7 86.5353 45.7C89.5353 45.7 91.7353 48.06 91.7353 51.2C91.7353 54.34 89.5353 56.7 86.5353 56.7ZM86.5353 54.92C88.2753 54.92 89.6553 53.52 89.6553 51.2C89.6553 48.88 88.2753 47.5 86.5353 47.5C84.7953 47.5 83.4353 48.88 83.4353 51.2C83.4353 53.52 84.7953 54.92 86.5353 54.92ZM98.2345 56.7C95.2345 56.7 93.0345 54.34 93.0345 51.2C93.0345 48.06 95.2345 45.7 98.2345 45.7C101.235 45.7 103.435 48.06 103.435 51.2C103.435 54.34 101.235 56.7 98.2345 56.7ZM98.2345 54.92C99.9745 54.92 101.355 53.52 101.355 51.2C101.355 48.88 99.9745 47.5 98.2345 47.5C96.4945 47.5 95.1345 48.88 95.1345 51.2C95.1345 53.52 96.4945 54.92 98.2345 54.92ZM107.514 56.5H105.494V42.14H107.514V50.64L112.054 45.9H114.434L109.534 51.04L114.894 56.5H112.294L107.514 51.48V56.5ZM126.914 56.5V54.86C126.254 56.04 125.074 56.7 123.514 56.7C121.314 56.7 119.874 55.44 119.874 53.5C119.874 51.42 121.534 50.34 124.694 50.34C125.314 50.34 125.814 50.36 126.674 50.46V49.68C126.674 48.16 125.854 47.3 124.454 47.3C122.974 47.3 122.074 48.18 122.014 49.66H120.174C120.274 47.28 121.974 45.7 124.454 45.7C127.074 45.7 128.594 47.18 128.594 49.7V56.5H126.914ZM121.794 53.44C121.794 54.54 122.614 55.26 123.914 55.26C125.614 55.26 126.674 54.2 126.674 52.58V51.72C125.894 51.62 125.334 51.6 124.814 51.6C122.794 51.6 121.794 52.2 121.794 53.44ZM141.894 56.8C137.894 56.8 134.794 53.54 134.794 49.3C134.794 45.08 137.894 41.84 141.894 41.84C145.494 41.84 148.374 44.24 148.914 47.78H146.574C146.174 45.46 144.294 43.82 141.914 43.82C139.074 43.82 137.074 46.12 137.074 49.3C137.074 52.52 139.074 54.82 141.914 54.82C144.294 54.82 146.174 53.16 146.574 50.84H148.914C148.374 54.4 145.494 56.8 141.894 56.8ZM157.461 56.5V54.86C156.801 56.04 155.621 56.7 154.061 56.7C151.861 56.7 150.421 55.44 150.421 53.5C150.421 51.42 152.081 50.34 155.241 50.34C155.861 50.34 156.361 50.36 157.221 50.46V49.68C157.221 48.16 156.401 47.3 155.001 47.3C153.521 47.3 152.621 48.18 152.561 49.66H150.721C150.821 47.28 152.521 45.7 155.001 45.7C157.621 45.7 159.141 47.18 159.141 49.7V56.5H157.461ZM152.341 53.44C152.341 54.54 153.161 55.26 154.461 55.26C156.161 55.26 157.221 54.2 157.221 52.58V51.72C156.441 51.62 155.881 51.6 155.361 51.6C153.341 51.6 152.341 52.2 152.341 53.44ZM163.881 56.5H161.841V42.14H163.881V56.5ZM168.725 56.5H166.685V42.14H168.725V56.5Z" fill="white"/>
</g>
<defs>
<filter id="filter0_dii_1_929" x="0.5" y="0" width="238" height="126" filterUnits="userSpaceOnUse" color-interpolation-filters="sRGB">
<feFlood flood-opacity="0" result="BackgroundImageFix"/>
<feColorMatrix in="SourceAlpha" type="matrix" values="0 0 0 0 0 0 0 0 0 0 0 0 0 0 0 0 0 0 127 0" result="hardAlpha"/>
<feOffset dy="14"/>
<feGaussianBlur stdDeviation="17"/>
<feComposite in2="hardAlpha" operator="out"/>
<feColorMatrix type="matrix" values="0 0 0 0 0.535743 0 0 0 0 0.198229 0 0 0 0 0.965308 0 0 0 0.1 0"/>
<feBlend mode="normal" in2="BackgroundImageFix" result="effect1_dropShadow_1_929"/>
<feBlend mode="normal" in="SourceGraphic" in2="effect1_dropShadow_1_929" result="shape"/>
<feColorMatrix in="SourceAlpha" type="matrix" values="0 0 0 0 0 0 0 0 0 0 0 0 0 0 0 0 0 0 127 0" result="hardAlpha"/>
<feOffset dy="14"/>
<feGaussianBlur stdDeviation="7"/>
<feComposite in2="hardAlpha" operator="arithmetic" k2="-1" k3="1"/>
<feColorMatrix type="matrix" values="0 0 0 0 1 0 0 0 0 1 0 0 0 0 1 0 0 0 0.25 0"/>
<feBlend mode="normal" in2="shape" result="effect2_innerShadow_1_929"/>
<feColorMatrix in="SourceAlpha" type="matrix" values="0 0 0 0 0 0 0 0 0 0 0 0 0 0 0 0 0 0 127 0" result="hardAlpha"/>
<feOffset dy="-6"/>
<feGaussianBlur stdDeviation="4"/>
<feComposite in2="hardAlpha" operator="arithmetic" k2="-1" k3="1"/>
<feColorMatrix type="matrix" values="0 0 0 0 1 0 0 0 0 1 0 0 0 0 1 0 0 0 0.35 0"/>
<feBlend mode="normal" in2="effect2_innerShadow_1_929" result="effect3_innerShadow_1_929"/>
</filter>
<linearGradient id="paint0_linear_1_929" x1="119.5" y1="82" x2="119.5" y2="-6.5" gradientUnits="userSpaceOnUse">
<stop stop-color="#5E3AEE"/>
<stop offset="1" stop-color="#BE33FF"/>
</linearGradient>
</defs>
</svg>
