<svg width="247" height="40" viewBox="0 0 247 40" fill="none" xmlns="http://www.w3.org/2000/svg">
<g filter="url(#filter0_b_1_920)">
<rect x="40.5" y="2" width="206" height="36" rx="18" fill="white" fill-opacity="0.05"/>
<rect x="41" y="2.5" width="205" height="35" rx="17.5" stroke="white" stroke-opacity="0.05"/>
<path d="M72.312 25L67.02 17.146V25H65.592V14.948H67.272L72.438 22.592V14.948H73.866V25H72.312ZM80.2793 25.21C77.3673 25.21 75.1693 22.928 75.1693 19.96C75.1693 16.992 77.3673 14.738 80.2793 14.738C83.1913 14.738 85.3893 16.992 85.3893 19.96C85.3893 22.928 83.1913 25.21 80.2793 25.21ZM80.2793 23.824C82.4073 23.824 83.7933 22.116 83.7933 19.96C83.7933 17.804 82.4073 16.124 80.2793 16.124C78.1513 16.124 76.7653 17.804 76.7653 19.96C76.7653 22.116 78.1513 23.824 80.2793 23.824ZM93.9397 25L90.7617 17.314V25H89.3477V14.948H91.2377L94.6117 23.11L97.9717 14.948H99.8757V25H98.4477V17.3L95.2557 25H93.9397ZM106.291 25.21C103.379 25.21 101.181 22.928 101.181 19.96C101.181 16.992 103.379 14.738 106.291 14.738C109.203 14.738 111.401 16.992 111.401 19.96C111.401 22.928 109.203 25.21 106.291 25.21ZM106.291 23.824C108.419 23.824 109.805 22.116 109.805 19.96C109.805 17.804 108.419 16.124 106.291 16.124C104.163 16.124 102.777 17.804 102.777 19.96C102.777 22.116 104.163 23.824 106.291 23.824ZM114.253 25H112.713V14.948H116.465C118.775 14.948 120.161 16.082 120.161 18.084C120.161 19.526 119.251 20.632 117.725 20.996L120.455 25H118.607L116.101 21.22H114.253V25ZM114.253 16.236V19.932H116.367C117.795 19.932 118.607 19.302 118.607 18.084C118.607 16.88 117.795 16.236 116.367 16.236H114.253ZM128.032 23.656V25H121.662V14.948H127.934V16.292H123.202V19.148H127.514V20.492H123.202V23.656H128.032ZM139.862 25L137.734 17.118L135.592 25H134.01L131.392 14.948H132.904L134.836 22.69L136.95 14.948H138.546L140.632 22.704L142.564 14.948H144.076L141.458 25H139.862ZM150.857 25L149.947 22.508H145.607L144.683 25H143.129L146.979 14.948H148.673L152.495 25H150.857ZM147.791 16.628L146.069 21.262H149.485L147.791 16.628ZM160.677 22.06C160.677 23.81 159.277 25.14 156.841 25.14C154.419 25.14 152.949 23.81 152.823 21.808H154.391C154.461 23.082 155.273 23.908 156.813 23.908C158.087 23.908 159.039 23.306 159.039 22.27C159.039 21.43 158.493 21.01 157.331 20.758L155.875 20.478C154.461 20.198 153.173 19.484 153.173 17.776C153.173 16.082 154.657 14.808 156.743 14.808C158.829 14.808 160.411 16.082 160.537 18.084H158.969C158.885 16.88 158.017 16.04 156.757 16.04C155.455 16.04 154.741 16.81 154.741 17.678C154.741 18.63 155.567 18.966 156.505 19.162L157.989 19.456C159.711 19.806 160.677 20.562 160.677 22.06ZM165.814 25H164.274V16.334H160.998V14.948H169.09V16.334H165.814V25ZM176.541 23.656V25H170.171V14.948H176.443V16.292H171.711V19.148H176.023V20.492H171.711V23.656H176.541ZM181.245 25H178.067V14.948H181.245C184.451 14.948 186.299 16.992 186.299 19.932C186.299 22.83 184.381 25 181.245 25ZM179.607 16.278V23.67H181.175C183.485 23.67 184.731 22.242 184.731 19.932C184.731 17.664 183.499 16.278 181.175 16.278H179.607ZM194.267 25H192.727V16.334H189.451V14.948H197.543V16.334H194.267V25ZM200.164 25H198.624V14.948H200.164V25ZM206.654 25L203.476 17.314V25H202.062V14.948H203.952L207.326 23.11L210.686 14.948H212.59V25H211.162V17.3L207.97 25H206.654ZM220.854 23.656V25H214.484V14.948H220.756V16.292H216.024V19.148H220.336V20.492H216.024V23.656H220.854Z" fill="#B28DFF"/>
</g>
<g filter="url(#filter1_b_1_920)">
<rect x="0.5" width="40" height="40" rx="20" fill="white" fill-opacity="0.05"/>
<rect x="1" y="0.5" width="39" height="39" rx="19.5" stroke="white" stroke-opacity="0.05"/>
<path d="M24.9344 13.9559L24.3494 10.7328C24.2868 10.387 24.1048 10.0742 23.8351 9.84887C23.5654 9.62356 23.2252 9.50009 22.8737 9.5H18.1262C17.7748 9.50009 17.4346 9.62356 17.1649 9.84887C16.8952 10.0742 16.7132 10.387 16.6506 10.7328L16.0656 13.9559C15.1155 14.6515 14.3428 15.5613 13.8101 16.6114C13.2774 17.6616 12.9998 18.8225 12.9998 20C12.9998 21.1775 13.2774 22.3384 13.8101 23.3886C14.3428 24.4387 15.1155 25.3485 16.0656 26.0441L16.6506 29.2672C16.7132 29.613 16.8952 29.9258 17.1649 30.1511C17.4346 30.3764 17.7748 30.4999 18.1262 30.5H22.8737C23.2252 30.4999 23.5654 30.3764 23.8351 30.1511C24.1048 29.9258 24.2868 29.613 24.3494 29.2672L24.9344 26.0441C25.8845 25.3485 26.6572 24.4387 27.1899 23.3886C27.7226 22.3384 28.0002 21.1775 28.0002 20C28.0002 18.8225 27.7226 17.6616 27.1899 16.6114C26.6572 15.5613 25.8845 14.6515 24.9344 13.9559ZM18.1262 11H22.8737L23.2403 13.0203C21.4793 12.3266 19.5207 12.3266 17.7597 13.0203L18.1262 11ZM22.8737 29H18.1262L17.7597 26.9797C19.5207 27.6734 21.4793 27.6734 23.2403 26.9797L22.8737 29ZM24.25 20.75H20.5C20.3011 20.75 20.1103 20.671 19.9697 20.5303C19.829 20.3897 19.75 20.1989 19.75 20V16.25C19.75 16.0511 19.829 15.8603 19.9697 15.7197C20.1103 15.579 20.3011 15.5 20.5 15.5C20.6989 15.5 20.8897 15.579 21.0303 15.7197C21.171 15.8603 21.25 16.0511 21.25 16.25V19.25H24.25C24.4489 19.25 24.6397 19.329 24.7803 19.4697C24.921 19.6103 25 19.8011 25 20C25 20.1989 24.921 20.3897 24.7803 20.5303C24.6397 20.671 24.4489 20.75 24.25 20.75Z" fill="#B28DFF"/>
</g>
<defs>
<filter id="filter0_b_1_920" x="8.5" y="-30" width="270" height="100" filterUnits="userSpaceOnUse" color-interpolation-filters="sRGB">
<feFlood flood-opacity="0" result="BackgroundImageFix"/>
<feGaussianBlur in="BackgroundImageFix" stdDeviation="16"/>
<feComposite in2="SourceAlpha" operator="in" result="effect1_backgroundBlur_1_920"/>
<feBlend mode="normal" in="SourceGraphic" in2="effect1_backgroundBlur_1_920" result="shape"/>
</filter>
<filter id="filter1_b_1_920" x="-31.5" y="-32" width="104" height="104" filterUnits="userSpaceOnUse" color-interpolation-filters="sRGB">
<feFlood flood-opacity="0" result="BackgroundImageFix"/>
<feGaussianBlur in="BackgroundImageFix" stdDeviation="16"/>
<feComposite in2="SourceAlpha" operator="in" result="effect1_backgroundBlur_1_920"/>
<feBlend mode="normal" in="SourceGraphic" in2="effect1_backgroundBlur_1_920" result="shape"/>
</filter>
</defs>
</svg>
